<?xml version="1.0" encoding="UTF-8"?>
<svg version="1.1" xmlns="http://www.w3.org/2000/svg" width="1050" height="600">
<path d="M0 0 C17.30334667 -1.29505297 35.30371178 5.91583458 48.6171875 16.87109375 C50.02258329 18.10262892 50.02258329 18.10262892 52 19 C52.65484375 18.49210937 53.3096875 17.98421875 53.984375 17.4609375 C66.76681229 7.81994667 81.93055128 -0.24252141 98.3125 -0.0625 C99.91544922 -0.04896484 99.91544922 -0.04896484 101.55078125 -0.03515625 C102.35902344 -0.02355469 103.16726563 -0.01195312 104 0 C105.35915926 2.13278786 106.68567312 4.27729721 108 6.4375 C108.3815625 7.02982422 108.763125 7.62214844 109.15625 8.23242188 C114.55517938 17.24670575 111.56465323 28.07202371 110.19335938 37.97338867 C109.87743489 40.29460991 109.59098188 42.61832434 109.3046875 44.94335938 C108.20582436 53.23730737 106.63730166 60.04063235 102.40673828 67.41088867 C100.87785386 70.02514158 100.87785386 70.02514158 99.99560547 73.2199707 C99 76 99 76 96.125 77.75 C95.09375 78.1625 94.0625 78.575 93 79 C92.21625 79.391875 91.4325 79.78375 90.625 80.1875 C89.820625 80.5896875 89.820625 80.5896875 89 81 C87.515 80.01 87.515 80.01 86 79 C82.16687806 77.8674867 80.23194792 77.92801616 76.375 79.125 C72.89331261 80.71130576 72.89331261 80.71130576 71.3125 83.625 C68.38684545 86.62972629 67.04172247 86.38878576 62.9375 86.625 C61.89464844 86.63789063 60.85179687 86.65078125 59.77734375 86.6640625 C56.63301564 87.04438911 55.99235445 87.67248312 54 90 C50.9582904 89.71483972 49.60954198 88.73969465 47 87 C45.21217914 86.85608872 43.41836132 86.77947991 41.625 86.75 C36.49018149 86.39191397 36.49018149 86.39191397 34.34375 84.67578125 C33.18875505 83.1468937 32.09234386 81.57426026 31 80 C26.69142501 77.32169663 22.76732267 78.05239693 18 79 C17.175 79.28875 16.35 79.5775 15.5 79.875 C11.89021282 80.05548936 9.75154116 78.7751437 6.7890625 76.7890625 C4.09448301 74.09448301 3.48713551 71.26921376 2.765625 67.59765625 C2.11490468 64.84120918 2.11490468 64.84120918 0.05859375 62.37841797 C-2.41247282 58.32307888 -3.04408902 54.98530243 -3.703125 50.34765625 C-3.83064148 49.52929794 -3.95815796 48.71093964 -4.08953857 47.86778259 C-4.35511472 46.14509903 -4.61356096 44.42130271 -4.86523438 42.6965332 C-5.24864927 40.07174686 -5.6535725 37.45099864 -6.0625 34.83007812 C-6.31897359 33.14863 -6.57422283 31.46699458 -6.828125 29.78515625 C-6.94681946 29.00890396 -7.06551392 28.23265167 -7.18780518 27.43287659 C-9.01686288 14.79329066 -9.01686288 14.79329066 -6.25 10.25390625 C-5.8890625 9.64482422 -5.528125 9.03574219 -5.15625 8.40820312 C-4.7746875 7.79912109 -4.393125 7.19003906 -4 6.5625 C-3.6184375 5.92634766 -3.236875 5.29019531 -2.84375 4.63476562 C-1.90948501 3.08155008 -0.95661444 1.53955137 0 0 Z " fill="#01D6FB" transform="translate(317,278)"/>
<path d="M0 0 C17.30334667 -1.29505297 35.30371178 5.91583458 48.6171875 16.87109375 C50.02258329 18.10262892 50.02258329 18.10262892 52 19 C52.65484375 18.49210937 53.3096875 17.98421875 53.984375 17.4609375 C66.76681229 7.81994667 81.93055128 -0.24252141 98.3125 -0.0625 C99.91544922 -0.04896484 99.91544922 -0.04896484 101.55078125 -0.03515625 C102.35902344 -0.02355469 103.16726563 -0.01195312 104 0 C105.35915926 2.13278786 106.68567312 4.27729721 108 6.4375 C108.3815625 7.02982422 108.763125 7.62214844 109.15625 8.23242188 C114.62000484 17.35494112 111.49904404 28.30011741 110.08349609 38.30297852 C109.74959788 40.69037515 109.43902842 43.08011684 109.12890625 45.47070312 C108.91548632 47.00540701 108.70068984 48.53992023 108.484375 50.07421875 C108.39565125 50.78059982 108.30692749 51.4869809 108.21551514 52.21476746 C107.50236969 57.01108436 106.06357726 60.24551108 103 64 C101.515 64.495 101.515 64.495 100 65 C100.61776528 55.33542833 101.73886443 45.7760137 103.0625 36.1875 C103.25099368 34.80147885 103.43914645 33.41541129 103.62695312 32.02929688 C104.08130558 28.68572878 104.53904248 25.34266275 105 22 C89.90780236 23.12353027 74.2924525 25.7075475 63 37 C62.8482871 38.50220202 62.76196782 40.0110884 62.70288086 41.51977539 C62.66291489 42.48069595 62.62294891 43.44161652 62.58177185 44.43165588 C62.52389244 45.99882607 62.52389244 45.99882607 62.46484375 47.59765625 C62.42186661 48.66165146 62.37888947 49.72564667 62.33460999 50.82188416 C62.19776942 54.23526223 62.06756861 57.6488578 61.9375 61.0625 C61.84613887 63.37046 61.75434774 65.67840302 61.66210938 67.98632812 C61.43640801 73.65736416 61.21616392 79.32859285 61 85 C59.68 85 58.36 85 57 85 C57 69.82 57 54.64 57 39 C53.7 39 50.4 39 47 39 C47 54.18 47 69.36 47 85 C45.68 85 44.36 85 43 85 C42.97494385 84.11441406 42.9498877 83.22882813 42.92407227 82.31640625 C42.88854248 81.07761719 42.8530127 79.83882813 42.81640625 78.5625 C42.79726166 77.89479584 42.77811707 77.22709167 42.75839233 76.53915405 C42.65180749 72.87811569 42.53770875 69.21750866 42.41040039 65.55712891 C42.38512772 64.82916107 42.35985504 64.10119324 42.33381653 63.35116577 C42.28324589 61.89593754 42.23245533 60.44071694 42.18144226 58.98550415 C42.05285486 55.16276817 41.97867246 51.34819259 41.9921875 47.5234375 C42.07963476 40.90842885 42.07963476 40.90842885 39.61328125 34.9375 C37.50137263 33.16650745 35.51308912 32.13469781 33 31 C31.44539063 30.20722656 31.44539063 30.20722656 29.859375 29.3984375 C21.475554 25.28451603 14.50895965 23.13409267 5.25 22.45703125 C4.07953125 22.37042236 2.9090625 22.28381348 1.703125 22.19458008 C0.81109375 22.13036865 -0.0809375 22.06615723 -1 22 C-0.88406494 22.73412109 -0.76812988 23.46824219 -0.64868164 24.22460938 C1.47743426 37.7994503 3.57886357 51.24989565 4 65 C1 64 1 64 -0.5871582 61.97216797 C-2.39466233 58.16975648 -2.9935448 54.58671925 -3.60546875 50.4453125 C-3.73440018 49.62553925 -3.8633316 48.80576599 -3.99617004 47.96115112 C-4.26583118 46.23221569 -4.53027035 44.50245867 -4.78979492 42.77197266 C-5.18541395 40.13888396 -5.59813505 37.50891729 -6.01367188 34.87890625 C-6.27445347 33.19286516 -6.53425149 31.50667159 -6.79296875 29.8203125 C-6.91480026 29.04092316 -7.03663177 28.26153381 -7.16215515 27.45852661 C-9.03700646 14.82633873 -9.03700646 14.82633873 -6.25 10.25390625 C-5.8890625 9.64482422 -5.528125 9.03574219 -5.15625 8.40820312 C-4.7746875 7.79912109 -4.393125 7.19003906 -4 6.5625 C-3.6184375 5.92634766 -3.236875 5.29019531 -2.84375 4.63476562 C-1.90948501 3.08155008 -0.95661444 1.53955137 0 0 Z " fill="#1F2324" transform="translate(317,278)"/>
<path d="M0 0 C0.99 0.33 1.98 0.66 3 1 C3.495 4.96 3.495 4.96 4 9 C6.24224658 9.58963678 6.24224658 9.58963678 9 9 C11.276147 6.87310854 13.1458722 4.4976567 15 2 C15.99 2.33 16.98 2.66 18 3 C17.01 6.3 16.02 9.6 15 13 C15.66 13.33 16.32 13.66 17 14 C19.64224372 12.77249184 19.64224372 12.77249184 22.5 11.0625 C27.80182232 8 27.80182232 8 30 8 C28.55383788 11.76002152 26.18525341 13.74979229 23.14453125 16.2421875 C21.38935735 18.5047367 21.38935735 18.5047367 23 24 C28.61 24.33 34.22 24.66 40 25 C40 25.99 40 26.98 40 28 C32.08 29.485 32.08 29.485 24 31 C24 33.31 24 35.62 24 38 C28.62 40.64 33.24 43.28 38 46 C38 46.99 38 47.98 38 49 C33.71620357 48.28739906 29.74906147 46.93078264 25.6875 45.4375 C24.71973633 45.08655273 24.71973633 45.08655273 23.73242188 44.72851562 C22.15378781 44.15552993 20.57672974 43.57820536 19 43 C18.7525 43.598125 18.505 44.19625 18.25 44.8125 C17 47 17 47 14.859375 48.45703125 C14.24578125 48.96621094 13.6321875 49.47539062 13 50 C12.81735265 52.25449722 12.81735265 52.25449722 13.25 54.6875 C13.40705536 58.0494663 13.34397416 59.51463262 11.375 62.29296875 C9.3223516 64.30411139 7.20433408 66.15769159 5 68 C3.65512331 69.32168916 2.31840378 70.65190244 1 72 C-8.53887782 63.04972807 -8.53887782 63.04972807 -9.67578125 57.99609375 C-9.72410216 56.12683768 -9.74380565 54.25655171 -9.73046875 52.38671875 C-9.79347094 49.94961261 -9.79347094 49.94961261 -11.36328125 48.26953125 C-12.85165445 47.10278352 -14.42129609 46.04127279 -16 45 C-16 44.34 -16 43.68 -16 43 C-17.12019531 43.44472656 -18.24039062 43.88945312 -19.39453125 44.34765625 C-20.8669972 44.91976086 -22.33966403 45.49134865 -23.8125 46.0625 C-24.55048828 46.35705078 -25.28847656 46.65160156 -26.04882812 46.95507812 C-31.66015625 49.11328125 -31.66015625 49.11328125 -35 48 C-30.93265026 43.40783094 -26.43614072 40.7832093 -21 38 C-21 35.69 -21 33.38 -21 31 C-26.28 30.01 -31.56 29.02 -37 28 C-37 27.01 -37 26.02 -37 25 C-28.585 24.505 -28.585 24.505 -20 24 C-18.33614916 18.35727191 -18.33614916 18.35727191 -20.65234375 15.6640625 C-21.40644531 14.99117187 -22.16054688 14.31828125 -22.9375 13.625 C-23.68902344 12.93664062 -24.44054687 12.24828125 -25.21484375 11.5390625 C-25.80394531 11.03117188 -26.39304687 10.52328125 -27 10 C-26.34 9.34 -25.68 8.68 -25 8 C-21.04 9.98 -17.08 11.96 -13 14 C-11.91188703 9.80999121 -11.91188703 9.80999121 -13.4375 6.25 C-13.953125 5.1775 -14.46875 4.105 -15 3 C-14.34 2.67 -13.68 2.34 -13 2 C-12.236875 2.78375 -11.47375 3.5675 -10.6875 4.375 C-6.58620662 8.39851505 -6.58620662 8.39851505 -1 9 C-0.67 6.03 -0.34 3.06 0 0 Z " fill="#23201D" transform="translate(367,220)"/>
<path d="M0 0 C0.09765625 6.15234375 0.09765625 6.15234375 0 8 C-1 9 -1 9 -4.0625 9.0625 C-5.031875 9.041875 -6.00125 9.02125 -7 9 C-7 9.99 -7 10.98 -7 12 C-0.07 12 6.86 12 14 12 C16.97 21.405 16.97 21.405 20 31 C21.60414105 25.12221498 21.60414105 25.12221498 23.20092773 19.24243164 C23.40145752 18.51403076 23.6019873 17.78562988 23.80859375 17.03515625 C24.01282959 16.2862915 24.21706543 15.53742676 24.42749023 14.76586914 C25 13 25 13 26 12 C28.35313555 11.92728259 30.70833668 11.91629132 33.0625 11.9375 C34.35285156 11.94652344 35.64320313 11.95554687 36.97265625 11.96484375 C37.97167969 11.97644531 38.97070312 11.98804688 40 12 C39.42919833 18.16130039 37.52345843 23.39501494 35.25 29.125 C34.51654788 30.99594514 33.78347415 32.86703866 33.05078125 34.73828125 C32.69580566 35.6401416 32.34083008 36.54200195 31.97509766 37.47119141 C31.14279647 39.62967306 30.35676385 41.79285738 29.60546875 43.98046875 C26.8978158 51.70497699 23.71564997 57.94120002 16.6875 62.5 C11.45693927 63.47312758 6.06927088 63.68975696 1 62 C1 58.7 1 55.4 1 52 C5.95 51.505 5.95 51.505 11 51 C10.41054142 46.81131279 9.4409435 43.11289424 7.93359375 39.1640625 C7.53076172 38.10058594 7.12792969 37.03710938 6.71289062 35.94140625 C6.29201172 34.84699219 5.87113281 33.75257813 5.4375 32.625 C5.01275391 31.50738281 4.58800781 30.38976562 4.15039062 29.23828125 C3.10520253 26.49025861 2.05493476 23.74429248 1 21 C0.34 21.66 -0.32 22.32 -1 23 C-4.125 23.125 -4.125 23.125 -7 23 C-6.99214478 24.1281311 -6.99214478 24.1281311 -6.98413086 25.27905273 C-6.96342773 28.66519342 -6.95036123 32.05132084 -6.9375 35.4375 C-6.92912109 36.62150391 -6.92074219 37.80550781 -6.91210938 39.02539062 C-6.90727539 40.71245117 -6.90727539 40.71245117 -6.90234375 42.43359375 C-6.89448853 43.99678345 -6.89448853 43.99678345 -6.88647461 45.59155273 C-7 48 -7 48 -8 49 C-12.66845228 49.14426614 -17.32865953 49.04208415 -22 49 C-22 40.42 -22 31.84 -22 23 C-23.65 23 -25.3 23 -27 23 C-27 19.7 -27 16.4 -27 13 C-25.35 12.67 -23.7 12.34 -22 12 C-22.0825 11.13375 -22.165 10.2675 -22.25 9.375 C-21.93554469 5.12985332 -20.72173176 3.23665399 -18 0 C-12.65808373 -3.35777594 -5.36962212 -3.0683555 0 0 Z " fill="#010101" transform="translate(702,273)"/>
<path d="M0 0 C15.37020577 -0.90560951 29.79521747 3.41155114 41.69563293 13.48445129 C45.09580734 17.43512596 43.94904724 24.10963637 43.89208984 29.09179688 C43.8750795 31.36437875 43.9325288 33.62685285 43.99609375 35.8984375 C44.09507974 46.41620699 44.09507974 46.41620699 41.22753906 50.56347656 C37.00532819 54.30784556 33.82221804 56.13180062 28.1875 55.9375 C24.22102732 55.88051045 21.65528946 56.43344737 18 58 C13.56473358 57.76656493 9.216402 56.10004637 6 53 C3.3789679 47.09968573 3.7701415 39.94467551 3.46557617 33.60864258 C3.10468717 26.97122146 2.11083604 20.46659939 1.01586914 13.91455078 C0.24638599 9.20057421 -0.14748487 4.77722725 0 0 Z " fill="#00D5F9" transform="translate(316,300)"/>
<path d="M0 0 C3.32393557 2.96490421 4.25198972 5.3306252 4.609375 9.64453125 C4.67535318 11.36656165 4.72173202 13.08943797 4.75 14.8125 C4.77964844 15.69615234 4.80929687 16.57980469 4.83984375 17.49023438 C4.9102039 19.65967218 4.95740607 21.82983948 5 24 C6.32 24.33 7.64 24.66 9 25 C9 27.97 9 30.94 9 34 C4.79650759 36.1017462 1.59496448 36.66701097 -3 36 C-3.804375 35.443125 -4.60875 34.88625 -5.4375 34.3125 C-7.83598684 32.7346822 -7.83598684 32.7346822 -9.98828125 33.46875 C-11.52765564 34.04302438 -13.06403349 34.62538143 -14.59765625 35.21484375 C-19.74514821 36.89719478 -24.34209588 36.61403856 -29.375 34.75 C-32.11041718 32.92638854 -33.5638716 31.95204171 -35 29 C-35.3960051 24.84194644 -35.41794713 22.1493546 -34 18.25 C-29.25854507 12.91586321 -23.96610699 11.79636133 -17 11.25 C-15.00076213 11.15003811 -13.00080569 11.06100017 -11 11 C-11.33 10.34 -11.66 9.68 -12 9 C-14.91652174 8.83318891 -14.91652174 8.83318891 -18 9 C-18.66 9.66 -19.32 10.32 -20 11 C-23.0390625 11.1953125 -23.0390625 11.1953125 -26.625 11.125 C-27.81351563 11.10695313 -29.00203125 11.08890625 -30.2265625 11.0703125 C-31.14179687 11.04710937 -32.05703125 11.02390625 -33 11 C-33.6171875 8.6953125 -33.6171875 8.6953125 -34 6 C-31.01633557 1.02722595 -28.0074941 -0.98632614 -22.453125 -2.53125 C-14.95101497 -3.96477421 -6.88925629 -3.54131946 0 0 Z M-20 22 C-19.67 22.99 -19.34 23.98 -19 25 C-14.85906302 25.20970559 -14.85906302 25.20970559 -11 24 C-11 22.68 -11 21.36 -11 20 C-14.62528568 19.79859524 -16.86501708 20.14223235 -20 22 Z " fill="#020202" transform="translate(568,287)"/>
<path d="M0 0 C5.24624256 5.86344757 5.46338148 13.01106641 5.5234375 20.578125 C4.89911526 24.96062226 2.98269149 27.56367021 -0.1875 30.5625 C-6.67499924 34.93779018 -13.26079052 35.00617789 -20.875 34.375 C-26.8028896 33.1993019 -31.41475584 30.37817271 -34.875 25.375 C-37.56100918 19.61926605 -37.14059619 13.47095497 -35.875 7.375 C-33.95297818 2.82284305 -30.87314891 0.21983673 -26.875 -2.625 C-17.30458184 -6.34682928 -8.73681968 -4.93820243 0 0 Z M-18.875 6.375 C-19.865 7.86 -19.865 7.86 -20.875 9.375 C-17.575 9.375 -14.275 9.375 -10.875 9.375 C-11.205 8.385 -11.535 7.395 -11.875 6.375 C-15.29142759 6.12484127 -15.29142759 6.12484127 -18.875 6.375 Z M-20.875 18.375 C-20.30374646 22.11775212 -20.30374646 22.11775212 -18.875 23.375 C-15.45928147 23.87531206 -15.45928147 23.87531206 -11.875 23.375 C-10.885 21.725 -9.895 20.075 -8.875 18.375 C-12.835 18.375 -16.795 18.375 -20.875 18.375 Z " fill="#020303" transform="translate(525.875,288.625)"/>
<path d="M0 0 C3.50487214 2.04573081 5.68763497 4.06290491 7 8 C7.08358958 10.21089945 7.10731764 12.42426078 7.09765625 14.63671875 C7.09443359 15.93544922 7.09121094 17.23417969 7.08789062 18.57226562 C7.07953531 19.94401108 7.07107037 21.31575587 7.0625 22.6875 C7.05748335 24.07096195 7.05292073 25.45442563 7.04882812 26.83789062 C7.03702529 30.22530395 7.02056019 33.61263033 7 37 C4.68756208 37.02685412 2.3750373 37.04632841 0.0625 37.0625 C-1.22527344 37.07410156 -2.51304687 37.08570313 -3.83984375 37.09765625 C-7 37 -7 37 -8 36 C-8.15764405 34.22130274 -8.25100677 32.43681524 -8.31640625 30.65234375 C-8.35830078 29.57275391 -8.40019531 28.49316406 -8.44335938 27.38085938 C-8.48267578 26.24455078 -8.52199219 25.10824219 -8.5625 23.9375 C-8.60568359 22.79732422 -8.64886719 21.65714844 -8.69335938 20.48242188 C-8.79982839 17.65507805 -8.90184207 14.82764262 -9 12 C-10.98 12.33 -12.96 12.66 -15 13 C-15.33 20.92 -15.66 28.84 -16 37 C-20.95 37 -25.9 37 -31 37 C-31.0246501 31.89136104 -31.04283607 26.78275641 -31.05493164 21.67407227 C-31.05997204 19.93480832 -31.0668043 18.19554864 -31.07543945 16.45629883 C-31.08751792 13.96174063 -31.09323108 11.46723827 -31.09765625 8.97265625 C-31.10281754 8.19036148 -31.10797882 7.40806671 -31.11329651 6.60206604 C-31.11349226 4.73432886 -31.06199694 2.86670796 -31 1 C-29.25895647 -0.74104353 -26.92635979 -0.21311272 -24.5625 -0.25 C-23.57378906 -0.27578125 -22.58507812 -0.3015625 -21.56640625 -0.328125 C-20.71949219 -0.21984375 -19.87257813 -0.1115625 -19 0 C-18.34 0.99 -17.68 1.98 -17 3 C-16.52691406 2.69964844 -16.05382812 2.39929688 -15.56640625 2.08984375 C-10.20842555 -0.99125626 -5.98274563 -1.93169831 0 0 Z " fill="#000000" transform="translate(643,285)"/>
<path d="M0 0 C1.27875 0.00257813 2.5575 0.00515625 3.875 0.0078125 C5.15375 0.00523437 6.4325 0.00265625 7.75 0 C10.875 0.1328125 10.875 0.1328125 11.875 1.1328125 C11.96343793 3.58111676 11.99028752 6.00101849 11.97265625 8.44921875 C11.9712413 9.18027328 11.96982635 9.91132782 11.96836853 10.66453552 C11.96275408 13.00816882 11.95019922 15.35170789 11.9375 17.6953125 C11.93248686 19.28059758 11.92792363 20.86588416 11.92382812 22.45117188 C11.91277997 26.3450886 11.89550572 30.23893455 11.875 34.1328125 C12.56650146 34.12757568 13.25800293 34.12233887 13.97045898 34.11694336 C17.08446352 34.0962375 20.19845361 34.08317287 23.3125 34.0703125 C24.40111328 34.06193359 25.48972656 34.05355469 26.61132812 34.04492188 C27.64580078 34.04169922 28.68027344 34.03847656 29.74609375 34.03515625 C30.70443115 34.02991943 31.66276855 34.02468262 32.65014648 34.01928711 C34.875 34.1328125 34.875 34.1328125 35.875 35.1328125 C35.875 39.4228125 35.875 43.7128125 35.875 48.1328125 C22.675 48.1328125 9.475 48.1328125 -4.125 48.1328125 C-5.07097913 45.29487512 -5.22690398 43.69450371 -5.16259766 40.76904297 C-5.14572906 39.89158417 -5.12886047 39.01412537 -5.11148071 38.1100769 C-5.0875827 37.16625153 -5.06368469 36.22242615 -5.0390625 35.25 C-5.01782318 34.27999054 -4.99658386 33.30998108 -4.97470093 32.31057739 C-4.92845245 30.26119025 -4.87952527 28.21186206 -4.828125 26.16259766 C-4.75014014 23.01347143 -4.68307659 19.8642437 -4.6171875 16.71484375 C-4.57096667 14.72654719 -4.52411341 12.7382652 -4.4765625 10.75 C-4.45671295 9.80212616 -4.4368634 8.85425232 -4.41641235 7.87765503 C-4.38165298 6.57092331 -4.38165298 6.57092331 -4.34619141 5.23779297 C-4.32763092 4.46740692 -4.30907043 3.69702087 -4.28994751 2.90328979 C-3.99654479 -0.24597175 -3.23250331 0.13738139 0 0 Z " fill="#000101" transform="translate(452.125,273.8671875)"/>
<path d="M0 0 C5.00230198 2.45567552 8.49851535 5.9970307 11 11 C11.72218508 18.13897709 11.44960235 23.26235486 7 29 C5 30.33333333 3 31.66666667 1 33 C0.67 34.65 0.34 36.3 0 38 C-3.63 38 -7.26 38 -11 38 C-11.33 36.35 -11.66 34.7 -12 33 C-12.928125 32.38125 -13.85625 31.7625 -14.8125 31.125 C-18.55269292 28.63153806 -20.61532188 26.23182528 -22 22 C-22.7605397 16.66070091 -22.70757896 12.44136456 -20.3125 7.5625 C-13.99448295 0.56145408 -9.25933963 -0.94295962 0 0 Z " fill="#F6A624" transform="translate(374,234)"/>
<path d="M0 0 C1.98 0.495 1.98 0.495 4 1 C4.33 5.95 4.66 10.9 5 16 C6.32 16.33 7.64 16.66 9 17 C10.33333333 17.33333333 11.66666667 17.66666667 13 18 C13 17.34 13 16.68 13 16 C12.05125 15.87625 11.1025 15.7525 10.125 15.625 C7 15 7 15 5 13 C4.6875 10 4.6875 10 5 7 C8.47271555 4.6848563 9.92739797 4.74546237 14 5 C14.99 5.33 15.98 5.66 17 6 C17.99 5.67 18.98 5.34 20 5 C20.33 4.01 20.66 3.02 21 2 C24 3 24 3 26 6 C26 6.99 26 7.98 26 9 C25.34 9 24.68 9 24 9 C24 11.97 24 14.94 24 18 C24.66 18 25.32 18 26 18 C26.03738281 17.22914063 26.07476563 16.45828125 26.11328125 15.6640625 C26.17902344 14.66117187 26.24476563 13.65828125 26.3125 12.625 C26.37050781 11.62726563 26.42851563 10.62953125 26.48828125 9.6015625 C26.65714844 8.74304688 26.82601562 7.88453125 27 7 C30.49124017 4.67250655 31.89222251 4.49700684 36 5 C38.375 6.4375 38.375 6.4375 40 9 C40.32338916 12.03046934 40.23343996 14.96528054 40 18 C40.66 18 41.32 18 42 18 C41.91621094 17.31292969 41.83242188 16.62585938 41.74609375 15.91796875 C41.59333984 14.56638672 41.59333984 14.56638672 41.4375 13.1875 C41.28087891 11.84751953 41.28087891 11.84751953 41.12109375 10.48046875 C41 8 41 8 42 5 C43.60332791 4.91878076 45.20784026 4.86070866 46.8125 4.8125 C48.15248047 4.76029297 48.15248047 4.76029297 49.51953125 4.70703125 C52 5 52 5 53.8125 6.09375 C55.59483911 8.9548733 55.28638532 11.35836104 55.1875 14.6875 C55.14689453 16.45673828 55.14689453 16.45673828 55.10546875 18.26171875 C55.07066406 19.16535156 55.03585937 20.06898438 55 21 C53.68 21.33 52.36 21.66 51 22 C50.67 17.71 50.34 13.42 50 9 C46.7882039 10.63778399 46.7882039 10.63778399 46.48828125 13.3828125 C46.40126953 14.74019531 46.40126953 14.74019531 46.3125 16.125 C46.24675781 17.03507812 46.18101562 17.94515625 46.11328125 18.8828125 C46.07589844 19.58148438 46.03851562 20.28015625 46 21 C40.98142185 22.31514102 35.96158481 22.18382471 30.8125 22.1875 C29.89791016 22.19974609 28.98332031 22.21199219 28.04101562 22.22460938 C26.73100586 22.22750977 26.73100586 22.22750977 25.39453125 22.23046875 C24.20114136 22.23663208 24.20114136 22.23663208 22.98364258 22.24291992 C21 22 21 22 19 20 C18.5859375 17.6171875 18.5859375 17.6171875 18.375 14.875 C18.30023437 13.96492188 18.22546875 13.05484375 18.1484375 12.1171875 C18.09945312 11.41851562 18.05046875 10.71984375 18 10 C17.38640625 10.18433594 16.7728125 10.36867188 16.140625 10.55859375 C13.42182204 11.11922283 12.3213118 10.40936788 10 9 C10 9.66 10 10.32 10 11 C11.1446875 11.1546875 11.1446875 11.1546875 12.3125 11.3125 C15.22117209 12.05657891 16.38010972 12.48017068 18 15 C17.75546876 18.34192692 17.39456443 19.60543557 15 22 C10.86002433 22.1971417 7.92296433 22.30765478 4 21 C2.66216607 21.31478446 1.32796291 21.64587656 0 22 C-1.58937556 20.41062444 -1.12981143 18.76100154 -1.1328125 16.5625 C-1.13410156 15.66789062 -1.13539063 14.77328125 -1.13671875 13.8515625 C-1.13091797 12.44003906 -1.13091797 12.44003906 -1.125 11 C-1.12886719 10.05898438 -1.13273438 9.11796875 -1.13671875 8.1484375 C-1.13542969 7.25382812 -1.13414062 6.35921875 -1.1328125 5.4375 C-1.13112061 4.19806641 -1.13112061 4.19806641 -1.12939453 2.93359375 C-1 1 -1 1 0 0 Z M32 9 C31.67 9.66 31.34 10.32 31 11 C32.32 10.67 33.64 10.34 35 10 C34.01 9.67 33.02 9.34 32 9 Z M31 15 C31 15.99 31 16.98 31 18 C32.32 17.67 33.64 17.34 35 17 C35 16.34 35 15.68 35 15 C33.68 15 32.36 15 31 15 Z " fill="#F4D557" transform="translate(597,335)"/>
<path d="M0 0 C1.25069801 2.50139602 1.13302467 4.27392691 1.125 7.0625 C1.12886719 8.41021484 1.12886719 8.41021484 1.1328125 9.78515625 C1 12 1 12 0 13 C-2.57391641 13.53176398 -5.15859517 13.96430799 -7.75 14.40234375 C-8.4925 14.59957031 -9.235 14.79679687 -10 15 C-11.17469444 17.34938888 -11.20034889 18.95073205 -11.31640625 21.5703125 C-11.35830078 22.46621094 -11.40019531 23.36210937 -11.44335938 24.28515625 C-11.48267578 25.22230469 -11.52199219 26.15945313 -11.5625 27.125 C-11.60568359 28.06988281 -11.64886719 29.01476562 -11.69335938 29.98828125 C-11.79959072 32.32537092 -11.90163176 34.6625683 -12 37 C-14.31243792 37.02685412 -16.6249627 37.04632841 -18.9375 37.0625 C-20.22527344 37.07410156 -21.51304687 37.08570313 -22.83984375 37.09765625 C-26 37 -26 37 -27 36 C-27.10091475 33.41810554 -27.13971499 30.863535 -27.1328125 28.28125 C-27.13376923 27.50817505 -27.13472595 26.7351001 -27.13571167 25.93859863 C-27.13639341 24.30102456 -27.13453957 22.66344781 -27.13037109 21.02587891 C-27.12502271 18.51068079 -27.13031626 15.99566127 -27.13671875 13.48046875 C-27.13605797 11.89322877 -27.1347768 10.3059889 -27.1328125 8.71875 C-27.13483673 7.96146606 -27.13686096 7.20418213 -27.13894653 6.4239502 C-27.11495132 1.11495132 -27.11495132 1.11495132 -26 0 C-24.19072719 -0.12487758 -22.37603893 -0.17570846 -20.5625 -0.1875 C-19.57378906 -0.20167969 -18.58507812 -0.21585937 -17.56640625 -0.23046875 C-15 0 -15 0 -13 2 C-12.154375 1.484375 -11.30875 0.96875 -10.4375 0.4375 C-6.387099 -1.25630405 -4.20971771 -1.0730653 0 0 Z " fill="#020202" transform="translate(606,285)"/>
<path d="M0 0 C3.3 0 6.6 0 10 0 C10 15.18 10 30.36 10 46 C11.32 46 12.64 46 14 46 C14 37.42 14 28.84 14 20 C14.33 20 14.66 20 15 20 C15 28.25 15 36.5 15 45 C17.31 45.33 19.62 45.66 22 46 C22 46.33 22 46.66 22 47 C20.75283203 47.05607422 20.75283203 47.05607422 19.48046875 47.11328125 C17.85044922 47.21189453 17.85044922 47.21189453 16.1875 47.3125 C15.10855469 47.37050781 14.02960938 47.42851562 12.91796875 47.48828125 C9.75265072 48.04337718 9.02048943 48.64170004 7 51 C3.9582904 50.71483972 2.60954198 49.73969465 0 48 C-1.78782086 47.85608872 -3.58163868 47.77947991 -5.375 47.75 C-10.47747991 47.392759 -10.47747991 47.392759 -12.76171875 45.67578125 C-14.0625 44.0625 -14.0625 44.0625 -16 41 C-16.66 40.34 -17.32 39.68 -18 39 C-17.46890625 38.75765625 -16.9378125 38.5153125 -16.390625 38.265625 C-15.68421875 37.93046875 -14.9778125 37.5953125 -14.25 37.25 C-13.20585937 36.76273437 -13.20585937 36.76273437 -12.140625 36.265625 C-9.47766677 34.69117524 -7.8583238 33.51036723 -6 31 C-5.3808839 28.08852117 -5.30417106 25.21955922 -5.25 22.25 C-5.22035156 21.45722656 -5.19070313 20.66445313 -5.16015625 19.84765625 C-5.08972213 17.89897906 -5.04256518 15.94948505 -5 14 C-4.67 14 -4.34 14 -4 14 C-4 24.56 -4 35.12 -4 46 C-2.68 46 -1.36 46 0 46 C0 30.82 0 15.64 0 0 Z " fill="#1199AF" transform="translate(364,317)"/>
<path d="M0 0 C17.83194386 0.46153266 34.7393621 9.27814689 47 22 C47.22042969 21.43023437 47.44085938 20.86046875 47.66796875 20.2734375 C53.6416085 10.07795851 69.2498458 4.26458045 79.875 1.125 C84.04446406 0.08110783 87.7182287 -0.28545142 92 0 C88.76200657 1.78245311 85.56022025 2.72327368 82 3.6875 C74.99161774 5.77493435 69.12992799 9.06801016 63 13 C64.55460937 12.36771484 64.55460937 12.36771484 66.140625 11.72265625 C67.51036091 11.16913284 68.88015568 10.61575506 70.25 10.0625 C70.93191406 9.78470703 71.61382812 9.50691406 72.31640625 9.22070312 C78.44781685 6.75028041 83.1592147 5.85651682 89.75 5.9375 C90.44738281 5.94201172 91.14476562 5.94652344 91.86328125 5.95117188 C93.57555803 5.9628998 95.28779033 5.98083347 97 6 C93.81362253 8.12425165 92.16169719 8.42766857 88.4375 8.9375 C76.32917173 10.86613193 64.83189981 14.92838998 55.5078125 23.21484375 C50.63953432 26.68026918 44.69312785 25.85234257 39 25 C36.68644773 23.83705987 35.09622651 22.52482815 33.18359375 20.7890625 C22.00531136 11.63046977 8.02728719 8.57865054 -6 8 C-6 7.34 -6 6.68 -6 6 C5.42066506 5.32466501 14.38326894 6.7289013 25 11 C18.89467807 4.89467807 8.06695411 3.08066972 0 1 C0 0.67 0 0.34 0 0 Z " fill="#F5F5F5" transform="translate(323,286)"/>
<path d="M0 0 C2.3125 0.0625 2.3125 0.0625 5 1 C6.54311342 3.96752581 7.60422059 6.83107013 8.671875 9.984375 C9.42452631 12.12694975 9.42452631 12.12694975 11 15 C13.47983783 16.02153416 13.47983783 16.02153416 16 16 C17.33542939 16.32483418 18.66961551 16.6550855 20 17 C20 16.34 20 15.68 20 15 C19.071875 14.896875 18.14375 14.79375 17.1875 14.6875 C14 14 14 14 12.0625 12.75 C11 11 11 11 11.125 8.4375 C12 6 12 6 15 4 C18.52295483 3.62521757 20.34881863 3.58872755 23.375 5.5 C24.179375 6.2425 24.179375 6.2425 25 7 C25.37125 6.505 25.7425 6.01 26.125 5.5 C28 4 28 4 30.9375 3.625 C34.28158965 4.03448036 35.67781823 4.58850355 38 7 C38 7.99 38 8.98 38 10 C35.23723823 9.47731534 32.6739124 8.89130413 30 8 C30 8.66 30 9.32 30 10 C31.423125 10.185625 31.423125 10.185625 32.875 10.375 C36 11 36 11 38 13 C37.75 16.5625 37.75 16.5625 37 20 C33.87293041 21.5635348 30.42017557 21.39958487 27 21 C26.01 20.34 25.02 19.68 24 19 C23.34 19.66 22.68 20.32 22 21 C18.8125 21.265625 18.8125 21.265625 15 21.25 C13.741875 21.25515625 12.48375 21.2603125 11.1875 21.265625 C8 21 8 21 6 19 C6 18.01 6 17.02 6 16 C3.36 16 0.72 16 -2 16 C-2.99 18.475 -2.99 18.475 -4 21 C-5.32 20.67 -6.64 20.34 -8 20 C-7.35014905 15.28629244 -5.48438608 11.42313556 -3.4375 7.1875 C-2.9434668 6.14819336 -2.9434668 6.14819336 -2.43945312 5.08789062 C-1.63127749 3.38955052 -0.81631623 1.69444231 0 0 Z M1 7 C0.67 8.32 0.34 9.64 0 11 C1.32 10.67 2.64 10.34 4 10 C3.67 9.01 3.34 8.02 3 7 C2.34 7 1.68 7 1 7 Z M16 8 C16 8.66 16 9.32 16 10 C16.56589844 10.10957031 17.13179687 10.21914063 17.71484375 10.33203125 C18.81505859 10.56986328 18.81505859 10.56986328 19.9375 10.8125 C20.66839844 10.96332031 21.39929688 11.11414063 22.15234375 11.26953125 C22.76207031 11.51058594 23.37179687 11.75164062 24 12 C24.33 12.99 24.66 13.98 25 15 C26.32 15 27.64 15 29 15 C29 15.66 29 16.32 29 17 C30.32 17 31.64 17 33 17 C33 16.34 33 15.68 33 15 C31.88625 14.566875 30.7725 14.13375 29.625 13.6875 C26 12 26 12 24 9 C22.03638136 8.42251197 22.03638136 8.42251197 19.875 8.3125 C18.59625 8.209375 17.3175 8.10625 16 8 Z " fill="#F0D255" transform="translate(557,336)"/>
<path d="M0 0 C1.1859375 0.00257813 2.371875 0.00515625 3.59375 0.0078125 C4.7796875 0.00523437 5.965625 0.00265625 7.1875 0 C10.09375 0.1328125 10.09375 0.1328125 11.09375 1.1328125 C11.19466475 3.71470696 11.23346499 6.2692775 11.2265625 8.8515625 C11.22751923 9.62463745 11.22847595 10.3977124 11.22946167 11.19421387 C11.23014341 12.83178794 11.22828957 14.46936469 11.22412109 16.10693359 C11.21877271 18.62213171 11.22406626 21.13715123 11.23046875 23.65234375 C11.22980797 25.23958373 11.2285268 26.8268236 11.2265625 28.4140625 C11.22858673 29.17134644 11.23061096 29.92863037 11.23269653 30.7088623 C11.20870132 36.01786118 11.20870132 36.01786118 10.09375 37.1328125 C7.74061445 37.20552991 5.38541332 37.21652118 3.03125 37.1953125 C1.74089844 37.18628906 0.45054687 37.17726563 -0.87890625 37.16796875 C-1.87792969 37.15636719 -2.87695312 37.14476562 -3.90625 37.1328125 C-3.9309001 32.02417354 -3.94908607 26.91556891 -3.96118164 21.80688477 C-3.96622204 20.06762082 -3.9730543 18.32836114 -3.98168945 16.58911133 C-3.99376792 14.09455313 -3.99948108 11.60005077 -4.00390625 9.10546875 C-4.00906754 8.32317398 -4.01422882 7.54087921 -4.01954651 6.73487854 C-4.01974226 4.86714136 -3.96824694 2.99952046 -3.90625 1.1328125 C-2.90625 0.1328125 -2.90625 0.1328125 0 0 Z " fill="#000000" transform="translate(660.90625,284.8671875)"/>
<path d="M0 0 C0.99 0.33 1.98 0.66 3 1 C3 1.66 3 2.32 3 3 C4.32 3.66 5.64 4.32 7 5 C7.99 4.34 8.98 3.68 10 3 C13.502304 2.55289736 15.33244416 2.59595305 18.375 4.4375 C20.7776838 8.22634754 20.77693727 11.63473391 20 16 C18.4375 18.5625 18.4375 18.5625 16 20 C12.375 20.375 12.375 20.375 9 20 C8.34 19.34 7.68 18.68 7 18 C6.34 18.66 5.68 19.32 5 20 C2.375 20.125 2.375 20.125 0 20 C-0.66 18.68 -1.32 17.36 -2 16 C-2.66 17.32 -3.32 18.64 -4 20 C-5.60332791 20.08121924 -7.20784026 20.13929134 -8.8125 20.1875 C-10.15248047 20.23970703 -10.15248047 20.23970703 -11.51953125 20.29296875 C-14 20 -14 20 -15.8125 18.90625 C-17.59483911 16.0451267 -17.28638532 13.64163896 -17.1875 10.3125 C-17.16042969 9.13300781 -17.13335937 7.95351563 -17.10546875 6.73828125 C-17.07066406 5.83464844 -17.03585937 4.93101562 -17 4 C-15.0625 3.4375 -15.0625 3.4375 -13 3 C-12 4 -12 4 -11.90234375 6.72265625 C-11.91394531 7.82480469 -11.92554688 8.92695313 -11.9375 10.0625 C-11.94652344 11.16722656 -11.95554687 12.27195312 -11.96484375 13.41015625 C-11.97644531 14.26480469 -11.98804688 15.11945313 -12 16 C-11.01 15.67 -10.02 15.34 -9 15 C-8.67 11.37 -8.34 7.74 -8 4 C-4 3 -4 3 -2 3 C-1.34 2.01 -0.68 1.02 0 0 Z M3 7 C3 9.97 3 12.94 3 16 C3.99 16 4.98 16 6 16 C6 13.03 6 10.06 6 7 C5.01 7 4.02 7 3 7 Z M11 7 C9.95785309 11.61507774 9.95785309 11.61507774 11 16 C12.32 16 13.64 16 15 16 C15.93380961 11.46859347 15.93380961 11.46859347 15 7 C13.68 7 12.36 7 11 7 Z " fill="#F2D85B" transform="translate(514,337)"/>
<path d="M0 0 C0.96935249 3.10847584 0.97925925 5.35537236 0.44140625 8.5546875 C0.23354492 9.84826172 0.23354492 9.84826172 0.02148438 11.16796875 C-0.12998047 12.06128906 -0.28144531 12.95460938 -0.4375 13.875 C-1.78405921 21.8879553 -1.78405921 21.8879553 -2 30 C-1.34 30.33 -0.68 30.66 0 31 C-2.9706116 41.29229547 -2.9706116 41.29229547 -7 44.0625 C-7.99 44.371875 -8.98 44.68125 -10 45 C-10.78375 45.391875 -11.5675 45.78375 -12.375 46.1875 C-12.91125 46.455625 -13.4475 46.72375 -14 47 C-14.99 46.34 -15.98 45.68 -17 45 C-22.37695964 43.46372582 -26.74769046 44.58771232 -32 46 C-27.52508651 42.16435986 -27.52508651 42.16435986 -24.62890625 41.2578125 C-21.06001134 39.55025802 -19.2980491 36.93118237 -17.125 33.75 C-16.69227783 33.12883301 -16.25955566 32.50766602 -15.8137207 31.86767578 C-9.09252385 21.98202437 -4.40279104 11.07799036 0 0 Z " fill="#0DA0B8" transform="translate(420,312)"/>
<path d="M0 0 C2.29296875 0.02734375 2.29296875 0.02734375 5 1 C6.37578159 3.5814557 7.36900447 5.83159079 8.3125 8.5625 C8.57611328 9.27341797 8.83972656 9.98433594 9.11132812 10.71679688 C9.75896249 12.47129725 10.38189005 14.23488189 11 16 C11.33 11.05 11.66 6.1 12 1 C13.32 0.67 14.64 0.34 16 0 C17 1 17 1 17.11352539 2.85766602 C17.10828857 3.64842529 17.10305176 4.43918457 17.09765625 5.25390625 C17.09443359 6.10791016 17.09121094 6.96191406 17.08789062 7.84179688 C17.07951172 8.73962891 17.07113281 9.63746094 17.0625 10.5625 C17.05798828 11.46419922 17.05347656 12.36589844 17.04882812 13.29492188 C17.03700225 15.53001314 17.0205222 17.76497437 17 20 C11.22428797 21.4960443 11.22428797 21.4960443 8 21 C7.525625 20.175 7.05125 19.35 6.5625 18.5 C6.046875 17.675 5.53125 16.85 5 16 C2 15.16666667 2 15.16666667 -1 16 C-2.9354148 18.39056942 -2.9354148 18.39056942 -4 21 C-5.32 20.67 -6.64 20.34 -8 20 C-6.12849037 12.84870304 -3.50213658 6.50594543 0 0 Z M1 7 C0.67 8.32 0.34 9.64 0 11 C1.32 10.67 2.64 10.34 4 10 C3.01 9.01 2.02 8.02 1 7 Z " fill="#F5DA5A" transform="translate(455,336)"/>
<path d="M0 0 C11.48427564 -0.67909646 20.30361896 0.64039579 31 5 C31.96655518 5.36230713 31.96655518 5.36230713 32.95263672 5.73193359 C34.67098201 6.40239003 36.34080042 7.19422143 38 8 C38.495 9.485 38.495 9.485 39 11 C42.69167544 14.96156294 46.5347824 17.42056648 52 17.75 C57.4652176 17.42056648 61.30832456 14.96156294 65 11 C65.33 10.01 65.66 9.02 66 8 C69.15150256 6.26237909 72.61731536 5.21325623 76 4 C76.92554688 3.62230469 77.85109375 3.24460937 78.8046875 2.85546875 C87.0702013 -0.3140982 94.26002656 -0.42983476 103 0 C99.81362253 2.12425165 98.16169719 2.42766857 94.4375 2.9375 C82.32917173 4.86613193 70.83189981 8.92838998 61.5078125 17.21484375 C56.63953432 20.68026918 50.69312785 19.85234257 45 19 C42.68644773 17.83705987 41.09622651 16.52482815 39.18359375 14.7890625 C28.00531136 5.63046977 14.02728719 2.57865054 0 2 C0 1.34 0 0.68 0 0 Z " fill="#A3A3A3" transform="translate(317,292)"/>
<path d="M0 0 C3.3 0 6.6 0 10 0 C10.08087991 3.75043155 10.14044597 7.49912186 10.1875 11.25 C10.22520508 12.84521484 10.22520508 12.84521484 10.26367188 14.47265625 C10.27817383 16.00986328 10.27817383 16.00986328 10.29296875 17.578125 C10.31653442 18.99206543 10.31653442 18.99206543 10.34057617 20.43457031 C9.94383071 23.42310174 8.98295729 24.77689217 7 27 C4.625 26.8125 4.625 26.8125 2 26 C0.23052831 22.5694452 -0.24227704 19.74557857 -0.1953125 15.91796875 C-0.18886719 14.98662109 -0.18242187 14.05527344 -0.17578125 13.09570312 C-0.15902344 12.13599609 -0.14226562 11.17628906 -0.125 10.1875 C-0.11597656 9.20845703 -0.10695313 8.22941406 -0.09765625 7.22070312 C-0.07417326 4.81369652 -0.03830477 2.40681636 0 0 Z " fill="#00D4F8" transform="translate(364,317)"/>
<path d="M0 0 C0.27714844 0.56976563 0.55429687 1.13953125 0.83984375 1.7265625 C5.13190919 10.1372766 10.13460963 16.6432242 19.35546875 19.80859375 C21.21807464 20.28660765 23.10805168 20.6560094 25 21 C24.525625 21.391875 24.05125 21.78375 23.5625 22.1875 C21.52332645 24.25258256 21.52332645 24.25258256 21 29 C17.37 29 13.74 29 10 29 C9.67 27.35 9.34 25.7 9 24 C8.071875 23.38125 7.14375 22.7625 6.1875 22.125 C2.45990822 19.63993881 0.3525433 17.23539272 -1 13 C-1.90184758 3.80369515 -1.90184758 3.80369515 0 0 Z " fill="#D98A10" transform="translate(353,243)"/>
<path d="M0 0 C6.93 0 13.86 0 21 0 C21.33 1.32 21.66 2.64 22 4 C20.48828125 6 20.48828125 6 18.3125 8 C17.25482422 8.99 17.25482422 8.99 16.17578125 10 C15.45777344 10.66 14.73976563 11.32 14 12 C12.66091714 13.32755891 11.32583023 14.65920555 10 16 C8.31730282 14.28424984 6.65495311 12.55467361 5 10.8125 C4.52304687 10.32974609 4.04609375 9.84699219 3.5546875 9.34960938 C0.24066259 5.82254 0 5.15163144 0 0 Z " fill="#424241" transform="translate(358,276)"/>
<path d="M0 0 C2.31243792 -0.02685412 4.6249627 -0.04632841 6.9375 -0.0625 C8.22527344 -0.07410156 9.51304687 -0.08570313 10.83984375 -0.09765625 C14 0 14 0 15 1 C15.0979057 2.49738124 15.12974864 3.99942892 15.125 5.5 C15.12757813 6.3146875 15.13015625 7.129375 15.1328125 7.96875 C15 10 15 10 14 11 C11.83519203 11.0989294 9.66706215 11.129711 7.5 11.125 C6.3140625 11.12757813 5.128125 11.13015625 3.90625 11.1328125 C1 11 1 11 0 10 C-0.07205511 8.31391034 -0.08386068 6.62499341 -0.0625 4.9375 C-0.05347656 4.01839844 -0.04445313 3.09929687 -0.03515625 2.15234375 C-0.02355469 1.44207031 -0.01195312 0.73179687 0 0 Z " fill="#010101" transform="translate(657,272)"/>
<path d="M0 0 C4.43379675 2.21689838 6.46636932 4.77728219 9 9 C7.68 8.34 6.36 7.68 5 7 C5 7.99 5 8.98 5 10 C3.125 12.6875 3.125 12.6875 1 15 C0.34 15 -0.32 15 -1 15 C-1.99 17.97 -2.98 20.94 -4 24 C-8.95 24.495 -8.95 24.495 -14 25 C-11.69 25.66 -9.38 26.32 -7 27 C-10.65393537 28.26823485 -13.49070026 27.75715321 -17.25 27.0625 C-18.32765625 26.86785156 -19.4053125 26.67320312 -20.515625 26.47265625 C-21.33546875 26.31667969 -22.1553125 26.16070312 -23 26 C-23 25.01 -23 24.02 -23 23 C-14.585 22.505 -14.585 22.505 -6 22 C-4.33614916 16.35727191 -4.33614916 16.35727191 -6.65234375 13.6640625 C-7.40644531 12.99117187 -8.16054688 12.31828125 -8.9375 11.625 C-9.68902344 10.93664062 -10.44054687 10.24828125 -11.21484375 9.5390625 C-11.80394531 9.03117188 -12.39304687 8.52328125 -13 8 C-12.34 7.34 -11.68 6.68 -11 6 C-7.04 7.98 -3.08 9.96 1 12 C2.08811297 7.80999121 2.08811297 7.80999121 0.5625 4.25 C0.046875 3.1775 -0.46875 2.105 -1 1 C-0.67 0.67 -0.34 0.34 0 0 Z " fill="#292824" transform="translate(353,222)"/>
<path d="M0 0 C1.48831242 0.00667405 2.97660807 0.01863442 4.46484375 0.03515625 C5.22345703 0.03966797 5.98207031 0.04417969 6.76367188 0.04882812 C8.64326246 0.06064945 10.52281274 0.07858547 12.40234375 0.09765625 C12.73234375 1.41765625 13.06234375 2.73765625 13.40234375 4.09765625 C11.42234375 4.09765625 9.44234375 4.09765625 7.40234375 4.09765625 C7.41394531 5.15726562 7.42554688 6.216875 7.4375 7.30859375 C7.44687851 8.69661283 7.45597864 10.0846338 7.46484375 11.47265625 C7.47322266 12.17132813 7.48160156 12.87 7.49023438 13.58984375 C7.515625 18.87109375 7.515625 18.87109375 6.40234375 21.09765625 C5.08234375 21.09765625 3.76234375 21.09765625 2.40234375 21.09765625 C2.40234375 15.48765625 2.40234375 9.87765625 2.40234375 4.09765625 C0.42234375 4.42765625 -1.55765625 4.75765625 -3.59765625 5.09765625 C-4.16015625 3.16015625 -4.16015625 3.16015625 -4.59765625 1.09765625 C-3.59765625 0.09765625 -3.59765625 0.09765625 0 0 Z " fill="#E2CE54" transform="translate(484.59765625,335.90234375)"/>
<path d="M0 0 C0.99 0.33 1.98 0.66 3 1 C3 1.66 3 2.32 3 3 C4.32 3.66 5.64 4.32 7 5 C7.99 4.34 8.98 3.68 10 3 C13.502304 2.55289736 15.33244416 2.59595305 18.375 4.4375 C20.77513557 8.22232917 20.7842297 11.6387226 20 16 C18.375 18.5625 18.375 18.5625 16 20 C12.75 20.25 12.75 20.25 10 20 C10 19.67 10 19.34 10 19 C11.65 19 13.3 19 15 19 C15 18.34 15 17.68 15 17 C14.01 16.67 13.02 16.34 12 16 C12.99 16 13.98 16 15 16 C15 13.03 15 10.06 15 7 C13.68 7 12.36 7 11 7 C10.67 8.98 10.34 10.96 10 13 C9.34 11.68 8.68 10.36 8 9 C7.34 9 6.68 9 6 9 C6 8.34 6 7.68 6 7 C3.05270463 5.84188612 3.05270463 5.84188612 0 6 C-2.34210921 5.36485174 -4.67684969 4.7013284 -7 4 C-4 3 -4 3 -2 3 C-1.34 2.01 -0.68 1.02 0 0 Z " fill="#EDD157" transform="translate(514,337)"/>
<path d="M0 0 C0.33 0 0.66 0 1 0 C1 10.89 1 21.78 1 33 C-6 33 -6 33 -7.70703125 31.7578125 C-8.07183594 31.21898437 -8.43664062 30.68015625 -8.8125 30.125 C-10.82078387 27.06335924 -10.82078387 27.06335924 -13 25 C-12.20335937 24.63648438 -12.20335937 24.63648438 -11.390625 24.265625 C-10.68421875 23.93046875 -9.9778125 23.5953125 -9.25 23.25 C-8.20585937 22.76273437 -8.20585937 22.76273437 -7.140625 22.265625 C-4.47766677 20.69117524 -2.8583238 19.51036723 -1 17 C-0.3808839 14.08852117 -0.30417106 11.21955922 -0.25 8.25 C-0.22035156 7.45722656 -0.19070313 6.66445313 -0.16015625 5.84765625 C-0.08972213 3.89897906 -0.04256518 1.94948505 0 0 Z " fill="#08A2BB" transform="translate(359,331)"/>
<path d="M0 0 C0.99 0.66 1.98 1.32 3 2 C2.67 5.3 2.34 8.6 2 12 C2.99 12 3.98 12 5 12 C4.67 10.02 4.34 8.04 4 6 C5.32 5.34 6.64 4.68 8 4 C8.309375 4.94875 8.61875 5.8975 8.9375 6.875 C9.87394742 9.86080408 9.87394742 9.86080408 11 12 C11.99 12.33 12.98 12.66 14 13 C14 13.66 14 14.32 14 15 C11.125 15.625 11.125 15.625 8 16 C7.34 15.34 6.68 14.68 6 14 C5.34 14.66 4.68 15.32 4 16 C1.375 16.125 1.375 16.125 -1 16 C-2.79275866 12.88089144 -3.34290718 10.32317572 -3.625 6.75 C-3.69976562 5.85796875 -3.77453125 4.9659375 -3.8515625 4.046875 C-3.92503906 3.03367187 -3.92503906 3.03367187 -4 2 C-2.68 1.34 -1.36 0.68 0 0 Z " fill="#F8DC5C" transform="translate(515,341)"/>
<path d="M0 0 C1.32 0.33 2.64 0.66 4 1 C4 7.27 4 13.54 4 20 C0.66208701 20.83447825 -1.6332613 21.35439355 -5 21 C-5.66 20.01 -6.32 19.02 -7 18 C-6.505 16.515 -6.505 16.515 -6 15 C-5.67 16.32 -5.34 17.64 -5 19 C-4.34 19 -3.68 19 -3 19 C-1.15892054 15.31784107 -1.584971 10.75808226 -1.39453125 6.67773438 C-1.10073855 1.10073855 -1.10073855 1.10073855 0 0 Z " fill="#EBCF5E" transform="translate(468,336)"/>
<path d="M0 0 C3 1 3 1 5 4 C5 4.99 5 5.98 5 7 C4.34 7 3.68 7 3 7 C3 9.97 3 12.94 3 16 C3.99 16.33 4.98 16.66 6 17 C6 17.66 6 18.32 6 19 C3.125 19.625 3.125 19.625 0 20 C-2.54838587 17.45161413 -2.3688148 16.16415114 -2.625 12.625 C-2.69976563 11.66851562 -2.77453125 10.71203125 -2.8515625 9.7265625 C-3.20475977 3.23888639 -3.20475977 3.23888639 -1.5 1.25 C-1.005 0.8375 -0.51 0.425 0 0 Z " fill="#F2D153" transform="translate(656,337)"/>
<path d="M0 0 C2.375 1.5 2.375 1.5 4 3 C4.37125 2.505 4.7425 2.01 5.125 1.5 C7 0 7 0 9.9375 -0.375 C13.28158965 0.03448036 14.67781823 0.58850355 17 3 C17 3.99 17 4.98 17 6 C14.23723823 5.47731534 11.6739124 4.89130413 9 4 C9 4.66 9 5.32 9 6 C11.475 6.495 11.475 6.495 14 7 C10.37673261 8.2077558 9.35853631 7.54311128 6 6 C6 6.66 6 7.32 6 8 C5.34 8 4.68 8 4 8 C3.67 7.34 3.34 6.68 3 6 C0.97536745 5.34786708 0.97536745 5.34786708 -1 5 C-1 4.01 -1 3.02 -1 2 C-6.40787385 3.09786425 -6.40787385 3.09786425 -10 7 C-9.6875 4.625 -9.6875 4.625 -9 2 C-5.51131349 -0.32579101 -4.10281481 -0.41865457 0 0 Z " fill="#E8CA52" transform="translate(578,340)"/>
<path d="M0 0 C1.39456452 0.00667256 2.78911118 0.01863093 4.18359375 0.03515625 C4.89451172 0.03966797 5.60542969 0.04417969 6.33789062 0.04882812 C8.09899388 0.06064761 9.86005411 0.07858362 11.62109375 0.09765625 C11.62109375 3.87676103 10.62405413 4.55871726 8.12109375 7.28515625 C7.47140625 8.00058594 6.82171875 8.71601563 6.15234375 9.453125 C5.64703125 9.99582031 5.14171875 10.53851563 4.62109375 11.09765625 C1.36100732 7.92812778 -1.60128502 4.69827636 -4.37890625 1.09765625 C-3.37890625 0.09765625 -3.37890625 0.09765625 0 0 Z " fill="#1C1C1C" transform="translate(364.37890625,280.90234375)"/>
<path d="M0 0 C0.66 0.33 1.32 0.66 2 1 C0.92621094 1.50789063 -0.14757812 2.01578125 -1.25390625 2.5390625 C-12.3967689 7.16475844 -12.3967689 7.16475844 -21 15 C-22.26600564 18.96844077 -22.67554891 22.85847724 -23 27 C-23.10828125 28.28390625 -23.2165625 29.5678125 -23.328125 30.890625 C-23.58726265 34.2594144 -23.81037559 37.62668157 -24 41 C-24.33 41 -24.66 41 -25 41 C-25.26260827 36.64698737 -25.42161414 32.29601643 -25.5625 27.9375 C-25.63791016 26.70837891 -25.71332031 25.47925781 -25.79101562 24.21289062 C-26.00737618 15.29402793 -26.00737618 15.29402793 -23.19824219 11.68554688 C-20.88657696 9.83347088 -18.61428378 8.38729495 -16 7 C-15.36940674 6.64703857 -14.73881348 6.29407715 -14.08911133 5.93041992 C-12.47202035 5.085664 -10.79858926 4.35142604 -9.125 3.625 C-8.03445313 3.14289063 -6.94390625 2.66078125 -5.8203125 2.1640625 C-3.90700959 1.3743613 -1.96364977 0.65454992 0 0 Z " fill="#D5ECF0" transform="translate(404,301)"/>
<path d="M0 0 C2.64 0 5.28 0 8 0 C7.625 2.4375 7.625 2.4375 7 5 C6.01 5.495 6.01 5.495 5 6 C4.53248212 8.35599235 4.53248212 8.35599235 4.375 11.0625 C4.30023437 11.98160156 4.22546875 12.90070313 4.1484375 13.84765625 C4.09945312 14.55792969 4.05046875 15.26820313 4 16 C2.68 16.33 1.36 16.66 0 17 C-1.07957377 13.76127868 -1.13326784 11.33971795 -1.125 7.9375 C-1.12757813 6.87402344 -1.13015625 5.81054688 -1.1328125 4.71484375 C-1 2 -1 2 0 0 Z " fill="#ECD553" transform="translate(536,340)"/>
<path d="M0 0 C1.65 0.33 3.3 0.66 5 1 C4 3 4 3 3 4 C3 4.99 3 5.98 3 7 C2.34 7 1.68 7 1 7 C1 7.99 1 8.98 1 10 C2.32 10 3.64 10 5 10 C5 10.99 5 11.98 5 13 C2.69 13 0.38 13 -2 13 C-1.67 11.35 -1.34 9.7 -1 8 C-2.65 11.63 -4.3 15.26 -6 19 C-5.01 18.67 -4.02 18.34 -3 18 C-3.33 18.99 -3.66 19.98 -4 21 C-5.32 20.67 -6.64 20.34 -8 20 C-6.12849037 12.84870304 -3.50213658 6.50594543 0 0 Z " fill="#DCD36C" transform="translate(455,336)"/>
<path d="M0 0 C2.0625 0.4375 2.0625 0.4375 4 1 C4 2.98 4 4.96 4 7 C3.34 7 2.68 7 2 7 C2 11.29 2 15.58 2 20 C2.66 20.33 3.32 20.66 4 21 C2.0625 21.5625 2.0625 21.5625 0 22 C-1.58937556 20.41062444 -1.12981143 18.76100154 -1.1328125 16.5625 C-1.13410156 15.66789062 -1.13539063 14.77328125 -1.13671875 13.8515625 C-1.13091797 12.44003906 -1.13091797 12.44003906 -1.125 11 C-1.12886719 10.05898438 -1.13273438 9.11796875 -1.13671875 8.1484375 C-1.13542969 7.25382812 -1.13414062 6.35921875 -1.1328125 5.4375 C-1.13112061 4.19806641 -1.13112061 4.19806641 -1.12939453 2.93359375 C-1 1 -1 1 0 0 Z " fill="#F4D355" transform="translate(597,335)"/>
<path d="M0 0 C2.97 0 5.94 0 9 0 C10.19231274 3.57693822 10.1461202 6.84182553 10.125 10.5625 C10.12886719 11.24763672 10.13273437 11.93277344 10.13671875 12.63867188 C10.12669335 17.7466133 10.12669335 17.7466133 9 20 C8.01 20 7.02 20 6 20 C6 14.06 6 8.12 6 2 C3.69 2 1.38 2 -1 2 C-0.67 1.34 -0.34 0.68 0 0 Z " fill="#FAE146" transform="translate(482,337)"/>
<path d="M0 0 C-3.18637747 2.12425165 -4.83830281 2.42766857 -8.5625 2.9375 C-15.30054358 3.96783191 -21.55164891 5.85054964 -28 8 C-27.8203125 6.140625 -27.8203125 6.140625 -27 4 C-18.66027874 -0.80795318 -9.27642605 -0.45621767 0 0 Z " fill="#A0A0A0" transform="translate(420,292)"/>
<path d="M0 0 C0.99 0.66 1.98 1.32 3 2 C2.67 2.33 2.34 2.66 2 3 C1.76636119 4.84891946 1.58696365 6.70488031 1.4375 8.5625 C1.35371094 9.57441406 1.26992188 10.58632813 1.18359375 11.62890625 C1.12300781 12.41136719 1.06242188 13.19382812 1 14 C1.99 14 2.98 14 4 14 C4 14.66 4 15.32 4 16 C2.35 16 0.7 16 -1 16 C-2.79275866 12.88089144 -3.34290718 10.32317572 -3.625 6.75 C-3.69976562 5.85796875 -3.77453125 4.9659375 -3.8515625 4.046875 C-3.92503906 3.03367187 -3.92503906 3.03367187 -4 2 C-2.68 1.34 -1.36 0.68 0 0 Z " fill="#FBE04D" transform="translate(515,341)"/>
<path d="M0 0 C6.27 0.33 12.54 0.66 19 1 C19 1.99 19 2.98 19 4 C11.08 5.485 11.08 5.485 3 7 C2.34 9.64 1.68 12.28 1 15 C-0.231394 11.30581799 0.35567236 8.7943739 1 5 C3.97 4.34 6.94 3.68 10 3 C6.7 2.67 3.4 2.34 0 2 C0 1.34 0 0.68 0 0 Z " fill="#5D4D32" transform="translate(388,244)"/>
<path d="M0 0 C0.88945312 0.00644531 1.77890625 0.01289063 2.6953125 0.01953125 C3.61570312 0.03628906 4.53609375 0.05304688 5.484375 0.0703125 C6.42023438 0.07933594 7.35609375 0.08835937 8.3203125 0.09765625 C10.62526157 0.12117614 12.9296866 0.15404397 15.234375 0.1953125 C16.10109272 3.35868626 16.22908354 5.6797369 15.796875 8.9453125 C15.69503906 9.74453125 15.59320313 10.54375 15.48828125 11.3671875 C15.40449219 11.97046875 15.32070313 12.57375 15.234375 13.1953125 C14.904375 13.1953125 14.574375 13.1953125 14.234375 13.1953125 C14.234375 9.5653125 14.234375 5.9353125 14.234375 2.1953125 C6.644375 2.1953125 -0.945625 2.1953125 -8.765625 2.1953125 C-5.02111768 0.32305884 -3.91535309 -0.05019683 0 0 Z " fill="#171818" transform="translate(471.765625,307.8046875)"/>
<path d="M0 0 C0.99 0.33 1.98 0.66 3 1 C2.67 1.66 2.34 2.32 2 3 C1.34 2.67 0.68 2.34 0 2 C-0.433125 2.8971875 -0.433125 2.8971875 -0.875 3.8125 C-2 6 -2 6 -4 9 C-6.64 8.67 -9.28 8.34 -12 8 C-12 7.34 -12 6.68 -12 6 C-12.99 5.34 -13.98 4.68 -15 4 C-12.2540274 2.6270137 -10.0410953 2.87587366 -7 3 C-6.01 3.33 -5.02 3.66 -4 4 C-3.01 3.67 -2.02 3.34 -1 3 C-0.67 2.01 -0.34 1.02 0 0 Z " fill="#ECCA53" transform="translate(618,337)"/>
<path d="M0 0 C-4.45161674 5.06563284 -9.96717995 8.9929287 -16 12 C-16.99 11.67 -17.98 11.34 -19 11 C-18.43410156 10.60167969 -17.86820312 10.20335937 -17.28515625 9.79296875 C-16.55167969 9.26316406 -15.81820313 8.73335938 -15.0625 8.1875 C-13.96615234 7.40439453 -13.96615234 7.40439453 -12.84765625 6.60546875 C-10.73116774 5.04132873 -10.73116774 5.04132873 -10 2 C-3.73913043 -1.24637681 -3.73913043 -1.24637681 0 0 Z " fill="#BFBFBF" transform="translate(393,298)"/>
<path d="M0 0 C2.52113092 -0.05447822 5.0410585 -0.09389852 7.5625 -0.125 C8.26697266 -0.14175781 8.97144531 -0.15851563 9.69726562 -0.17578125 C14.51891822 -0.22022044 18.42297438 0.47231996 23 2 C22.67 2.99 22.34 3.98 22 5 C20.453125 4.5359375 20.453125 4.5359375 18.875 4.0625 C12.69813137 2.49040889 6.34055291 2.3384003 0 2 C0 1.34 0 0.68 0 0 Z " fill="#909090" transform="translate(317,292)"/>
<path d="M0 0 C0.66 0.33 1.32 0.66 2 1 C2.08160748 2.89510699 2.13946459 4.79124504 2.1875 6.6875 C2.22230469 7.74324219 2.25710938 8.79898437 2.29296875 9.88671875 C1.84788947 14.61642785 -0.09557079 17.11876129 -3.4375 20.375 C-6 22 -6 22 -8.3125 21.75 C-8.869375 21.5025 -9.42625 21.255 -10 21 C-9.071875 20.5875 -8.14375 20.175 -7.1875 19.75 C-3.35024325 17.6432708 -1.59085717 15.93371439 -0.3125 11.75 C-0.209375 11.1725 -0.10625 10.595 0 10 C-1.32 9.67 -2.64 9.34 -4 9 C-3.01 9 -2.02 9 -1 9 C-1.33 8.01 -1.66 7.02 -2 6 C-1.34 6 -0.68 6 0 6 C0 4.02 0 2.04 0 0 Z " fill="#101010" transform="translate(529,299)"/>
<path d="M0 0 C0.66 0 1.32 0 2 0 C3.42258812 3.82320557 4.24042276 6.91281305 4 11 C3.01 10.67 2.02 10.34 1 10 C1 9.01 1 8.02 1 7 C0.01 7.495 0.01 7.495 -1 8 C-2.99960012 8.039992 -5.00047242 8.04346799 -7 8 C-6.67 7.01 -6.34 6.02 -6 5 C-4.35 5 -2.7 5 -1 5 C-0.67 3.35 -0.34 1.7 0 0 Z " fill="#F9DF51" transform="translate(563,344)"/>
<path d="M0 0 C1.45922693 0.11409593 2.91740598 0.24165544 4.375 0.375 C5.59316406 0.47941406 5.59316406 0.47941406 6.8359375 0.5859375 C9 1 9 1 11 3 C10.625 6.625 10.625 6.625 10 10 C9.34 10 8.68 10 8 10 C7.67 8.35 7.34 6.7 7 5 C5.865625 4.87625 4.73125 4.7525 3.5625 4.625 C2.386875 4.41875 1.21125 4.2125 0 4 C-0.33 3.34 -0.66 2.68 -1 2 C-0.67 1.34 -0.34 0.68 0 0 Z " fill="#F5D848" transform="translate(584,346)"/>
<path d="M0 0 C0.33 0 0.66 0 1 0 C1 6.27 1 12.54 1 19 C-2.33791299 19.83447825 -4.6332613 20.35439355 -8 20 C-8.66 19.01 -9.32 18.02 -10 17 C-9.505 15.515 -9.505 15.515 -9 14 C-8.67 15.32 -8.34 16.64 -8 18 C-7.34 18 -6.68 18 -6 18 C-5.67 17.34 -5.34 16.68 -5 16 C-4.01 16 -3.02 16 -2 16 C-2 16.66 -2 17.32 -2 18 C-1.34 18 -0.68 18 0 18 C0 12.06 0 6.12 0 0 Z " fill="#CCC764" transform="translate(471,337)"/>
<path d="M0 0 C5.76044212 0.60636233 10.72014369 2.75658279 16 5 C16 5.99 16 6.98 16 8 C15.278125 7.690625 14.55625 7.38125 13.8125 7.0625 C11.10709389 5.94266028 11.10709389 5.94266028 8.5625 5.5625 C5.40263299 4.86887066 2.84189591 3.52008386 0 2 C0 1.34 0 0.68 0 0 Z " fill="#AEAEAE" transform="translate(339,295)"/>
<path d="M0 0 C8.91765652 0.23080993 16.70624517 3.00318992 25 6 C24.01 7.485 24.01 7.485 23 9 C22.26136719 8.67386719 21.52273438 8.34773438 20.76171875 8.01171875 C13.94283153 5.07448525 7.21554805 2.74707167 0 1 C0 0.67 0 0.34 0 0 Z " fill="#CECECE" transform="translate(323,286)"/>
<path d="M0 0 C5.94 0 11.88 0 18 0 C18 0.33 18 0.66 18 1 C13.545 1.495 13.545 1.495 9 2 C11.31 2.66 13.62 3.32 16 4 C12.34606463 5.26823485 9.50929974 4.75715321 5.75 4.0625 C4.67234375 3.86785156 3.5946875 3.67320312 2.484375 3.47265625 C1.66453125 3.31667969 0.8446875 3.16070312 0 3 C0 2.01 0 1.02 0 0 Z " fill="#6E4B31" transform="translate(330,245)"/>
<path d="M0 0 C-3.3592628 1.83979185 -6.77082651 2.9148342 -10.4375 4 C-14.38054753 5.16966416 -18.20510312 6.4111086 -22 8 C-22.33 7.01 -22.66 6.02 -23 5 C-20.48283718 4.15389485 -17.96220727 3.32303233 -15.4375 2.5 C-14.73302734 2.26152344 -14.02855469 2.02304687 -13.30273438 1.77734375 C-8.67877023 0.28574241 -4.85697889 -0.25529455 0 0 Z " fill="#C8C8C8" transform="translate(415,286)"/>
<path d="M0 0 C1.65 0.33 3.3 0.66 5 1 C4.67 1.66 4.34 2.32 4 3 C2.68 2.67 1.36 2.34 0 2 C0.33 2.66 0.66 3.32 1 4 C1.66 4 2.32 4 3 4 C3 4.99 3 5.98 3 7 C2.34 7 1.68 7 1 7 C1 8.65 1 10.3 1 12 C0.34 12 -0.32 12 -1 12 C-1 10.68 -1 9.36 -1 8 C-1.99 9.485 -1.99 9.485 -3 11 C-3.66 10.67 -4.32 10.34 -5 10 C-3.35 6.7 -1.7 3.4 0 0 Z " fill="#DDBE53" transform="translate(557,336)"/>
<path d="M0 0 C0.66 0.33 1.32 0.66 2 1 C-0.475 2.485 -0.475 2.485 -3 4 C-1.35 4 0.3 4 2 4 C-0.34914492 6.34914492 -1.95679446 6.73140357 -5.125 7.625 C-6.03507812 7.88539063 -6.94515625 8.14578125 -7.8828125 8.4140625 C-8.58148438 8.60742188 -9.28015625 8.80078125 -10 9 C-10 8.01 -10 7.02 -10 6 C-7.8828125 4.359375 -7.8828125 4.359375 -5.125 2.75 C-3.76761719 1.93789063 -3.76761719 1.93789063 -2.3828125 1.109375 C-1.20332031 0.56023437 -1.20332031 0.56023437 0 0 Z " fill="#4A3C2A" transform="translate(343,260)"/>
<path d="M0 0 C2.97 0 5.94 0 9 0 C9.33 0.99 9.66 1.98 10 3 C8.88671875 5.171875 8.88671875 5.171875 7 7 C4.51953125 7.390625 4.51953125 7.390625 1.8125 7.25 C0.46091797 7.19585937 0.46091797 7.19585937 -0.91796875 7.140625 C-1.60503906 7.09421875 -2.29210937 7.0478125 -3 7 C-3 6.34 -3 5.68 -3 5 C-0.03 5.33 2.94 5.66 6 6 C6 4.68 6 3.36 6 2 C4.68 2.33 3.36 2.66 2 3 C1.34 2.01 0.68 1.02 0 0 Z " fill="#F9D95C" transform="translate(572,348)"/>
<path d="M0 0 C-1.15677605 3.00761774 -2.74387174 4.78567953 -5.0625 6.9375 C-7.71158856 9.47057008 -8.77801981 11.22633671 -9 15 C-9.99 13.68 -10.98 12.36 -12 11 C-11.175 10.195625 -10.35 9.39125 -9.5 8.5625 C-6.88361269 6.47736982 -6.88361269 6.47736982 -7 5 C-7.66 4.67 -8.32 4.34 -9 4 C-2.25 0 -2.25 0 0 0 Z " fill="#333431" transform="translate(397,228)"/>
<path d="M0 0 C4.8274799 1.41292095 8.7162359 3.42974154 13 6 C13 6.99 13 7.98 13 9 C9.44219804 8.39009109 6.3171411 7.4216319 3 6 C3.66 5.34 4.32 4.68 5 4 C4.175 3.525625 3.35 3.05125 2.5 2.5625 C1.675 2.046875 0.85 1.53125 0 1 C0 0.67 0 0.34 0 0 Z " fill="#4C4536" transform="translate(392,260)"/>
<path d="M0 0 C0.33 0 0.66 0 1 0 C1 3.3 1 6.6 1 10 C0.195625 10.12375 -0.60875 10.2475 -1.4375 10.375 C-2.283125 10.58125 -3.12875 10.7875 -4 11 C-4.33 11.66 -4.66 12.32 -5 13 C-5.66 12.01 -6.32 11.02 -7 10 C-6.5390625 7.73828125 -6.5390625 7.73828125 -5.625 5.3125 C-5.32851563 4.50425781 -5.03203125 3.69601562 -4.7265625 2.86328125 C-4.48679687 2.24839844 -4.24703125 1.63351562 -4 1 C-3.67 1 -3.34 1 -3 1 C-2.67 3.64 -2.34 6.28 -2 9 C-1.34 9 -0.68 9 0 9 C0 6.03 0 3.06 0 0 Z " fill="#F8DC61" transform="translate(639,344)"/>
<path d="M0 0 C0.495 0.309375 0.99 0.61875 1.5 0.9375 C4.97986781 2.41644382 8.24028509 2.62402851 12 3 C10.02 5.97 10.02 5.97 8 9 C5.06799526 6.14723863 2.35684596 3.34920216 0 0 Z " fill="#383838" transform="translate(361,283)"/>
<path d="M0 0 C0.99 0 1.98 0 3 0 C3 3.63 3 7.26 3 11 C2.01 11 1.02 11 0 11 C0 7.37 0 3.74 0 0 Z " fill="#FBDE67" transform="translate(498,342)"/>
<path d="M0 0 C2.31 0 4.62 0 7 0 C7 0.99 7 1.98 7 3 C4.69 3 2.38 3 0 3 C0 6.63 0 10.26 0 14 C-0.33 14 -0.66 14 -1 14 C-1.02694851 12.04174127 -1.04637218 10.08337774 -1.0625 8.125 C-1.07410156 7.03445313 -1.08570313 5.94390625 -1.09765625 4.8203125 C-1 2 -1 2 0 0 Z " fill="#ECD14F" transform="translate(491,337)"/>
<path d="M0 0 C0.99 0.33 1.98 0.66 3 1 C2.01 3.31 1.02 5.62 0 8 C-0.66 7.34 -1.32 6.68 -2 6 C-2.4125 6.515625 -2.825 7.03125 -3.25 7.5625 C-3.8275 8.036875 -4.405 8.51125 -5 9 C-7.1875 8.6875 -7.1875 8.6875 -9 8 C-7.88625 7.4121875 -7.88625 7.4121875 -6.75 6.8125 C-3.80216929 4.86961158 -2.06901389 2.83531533 0 0 Z " fill="#2C2D2C" transform="translate(382,222)"/>
<path d="M0 0 C2.0625 0.4375 2.0625 0.4375 4 1 C4 2.98 4 4.96 4 7 C2.35 7.33 0.7 7.66 -1 8 C-1.04241723 5.66705225 -1.04092937 3.33297433 -1 1 C-0.67 0.67 -0.34 0.34 0 0 Z " fill="#C8B349" transform="translate(597,335)"/>
<path d="M0 0 C1.0725 0.309375 2.145 0.61875 3.25 0.9375 C5.82866222 1.66812096 8.39512102 2.37482904 11 3 C11 2.34 11 1.68 11 1 C10.34 0.67 9.68 0.34 9 0 C9.99 0 10.98 0 12 0 C12 1.32 12 2.64 12 4 C5.25 4.125 5.25 4.125 3 3 C3 3.66 3 4.32 3 5 C2.34 5 1.68 5 1 5 C0.67 3.35 0.34 1.7 0 0 Z " fill="#E4CE5B" transform="translate(566,350)"/>
<path d="M0 0 C0.99 0.33 1.98 0.66 3 1 C2.67 1.66 2.34 2.32 2 3 C1.34 2.67 0.68 2.34 0 2 C-0.28875 2.598125 -0.5775 3.19625 -0.875 3.8125 C-2 6 -2 6 -4 9 C-4.99 8.67 -5.98 8.34 -7 8 C-6.34 8 -5.68 8 -5 8 C-5.99 6.68 -6.98 5.36 -8 4 C-4.535 3.505 -4.535 3.505 -1 3 C-0.67 2.01 -0.34 1.02 0 0 Z " fill="#E4C75B" transform="translate(618,337)"/>
<path d="M0 0 C0.66 0.33 1.32 0.66 2 1 C1.67 4.3 1.34 7.6 1 11 C-1.76264289 11.59732819 -4.16032769 12 -7 12 C-7 11.34 -7 10.68 -7 10 C-2.25 8.875 -2.25 8.875 0 10 C0 6.7 0 3.4 0 0 Z " fill="#EBCD50" transform="translate(642,345)"/>
<path d="M0 0 C0.66 0.33 1.32 0.66 2 1 C2 1.66 2 2.32 2 3 C0.58521865 3.64995297 -0.83191487 4.29478722 -2.25 4.9375 C-3.43335938 5.47697266 -3.43335938 5.47697266 -4.640625 6.02734375 C-6.75823698 6.90033279 -8.76669362 7.51338508 -11 8 C-7.71644638 4.32241995 -4.37221763 2.18610882 0 0 Z " fill="#3E3E3E" transform="translate(396,292)"/>
<path d="M0 0 C3.3 0.66 6.6 1.32 10 2 C9.67 2.66 9.34 3.32 9 4 C1.25 4.125 1.25 4.125 -1 3 C-0.67 2.01 -0.34 1.02 0 0 Z " fill="#F3D649" transform="translate(603,353)"/>
<path d="M0 0 C1.65 0.33 3.3 0.66 5 1 C4 3 4 3 3 4 C3 4.99 3 5.98 3 7 C1.68 6.34 0.36 5.68 -1 5 C-1 2 -1 2 0 0 Z " fill="#DBCB52" transform="translate(455,336)"/>
<path d="M0 0 C0.99 0 1.98 0 3 0 C3 0.99 3 1.98 3 3 C4.32 3.66 5.64 4.32 7 5 C5.35 5 3.7 5 2 5 C1.67 5.66 1.34 6.32 1 7 C0 6 0 6 -0.0625 2.9375 C-0.041875 1.968125 -0.02125 0.99875 0 0 Z " fill="#FADC5B" transform="translate(624,350)"/>
<path d="M0 0 C0.33 0 0.66 0 1 0 C1.33 3.3 1.66 6.6 2 10 C2.99 10.33 3.98 10.66 5 11 C4.67 11.66 4.34 12.32 4 13 C2.68 12.34 1.36 11.68 0 11 C0 7.37 0 3.74 0 0 Z " fill="#EFD96D" transform="translate(657,343)"/>
<path d="M0 0 C1.46109063 0.25554054 2.91888096 0.53000372 4.375 0.8125 C5.59316406 1.03873047 5.59316406 1.03873047 6.8359375 1.26953125 C9 2 9 2 11 5 C8.0644353 5 5.80814729 4.84244419 3 4 C1.1875 1.9375 1.1875 1.9375 0 0 Z " fill="#C3C3C3" transform="translate(345,297)"/>
<path d="M0 0 C0.99 0.33 1.98 0.66 3 1 C2.67 2.65 2.34 4.3 2 6 C-0.31 6 -2.62 6 -5 6 C-3.33333333 4.33333333 -1.66666667 2.66666667 0 1 C0 0.67 0 0.34 0 0 Z " fill="#1C1A17" transform="translate(344,259)"/>
<path d="M0 0 C-0.66 1.32 -1.32 2.64 -2 4 C-3.32 3.67 -4.64 3.34 -6 3 C-6 2.01 -6 1.02 -6 0 C-3 -1 -3 -1 0 0 Z " fill="#EACD54" transform="translate(555,353)"/>
<path d="M0 0 C0.99 0.33 1.98 0.66 3 1 C2.67 1.66 2.34 2.32 2 3 C1.92934383 5.04055005 1.91578024 7.08334257 1.9375 9.125 C1.95103516 10.76855469 1.95103516 10.76855469 1.96484375 12.4453125 C1.97644531 13.28835938 1.98804688 14.13140625 2 15 C1.67 15 1.34 15 1 15 C0.83105557 13.25021843 0.66493691 11.50016388 0.5 9.75 C0.4071875 8.77546875 0.314375 7.8009375 0.21875 6.796875 C0.04199832 4.53697847 0 2.26679807 0 0 Z " fill="#ECCD5A" transform="translate(653,340)"/>
<path d="M0 0 C0.99 0.33 1.98 0.66 3 1 C1.90554162 1.86657116 0.79902219 2.71792724 -0.3125 3.5625 C-0.92738281 4.03816406 -1.54226563 4.51382812 -2.17578125 5.00390625 C-2.77777344 5.33261719 -3.37976563 5.66132813 -4 6 C-4.99 5.67 -5.98 5.34 -7 5 C-5.90554162 4.13342884 -4.79902219 3.28207276 -3.6875 2.4375 C-3.07261719 1.96183594 -2.45773437 1.48617188 -1.82421875 0.99609375 C-1.22222656 0.66738281 -0.62023437 0.33867187 0 0 Z " fill="#B7B7B7" transform="translate(381,304)"/>
<path d="M0 0 C2.97 0 5.94 0 9 0 C8.34 1.32 7.68 2.64 7 4 C4.97954558 3.39816251 2.97888961 2.72693904 1 2 C0.67 1.34 0.34 0.68 0 0 Z " fill="#F9DB49" transform="translate(572,348)"/>
<path d="M0 0 C4.455 1.98 4.455 1.98 9 4 C6 5 6 5 3 5 C0.8125 3 0.8125 3 -1 1 C-0.67 0.67 -0.34 0.34 0 0 Z " fill="#4B463D" transform="translate(341,228)"/>
<path d="M0 0 C-0.33 0.99 -0.66 1.98 -1 3 C-3.31 2.67 -5.62 2.34 -8 2 C-7 0 -7 0 -5.125 -0.6875 C-3 -1 -3 -1 0 0 Z " fill="#F3D846" transform="translate(533,342)"/>
<path d="M0 0 C1.125 1.75 1.125 1.75 2 4 C1.125 6.25 1.125 6.25 0 8 C-0.99 7.67 -1.98 7.34 -3 7 C-2.67 5.68 -2.34 4.36 -2 3 C-1.34 3 -0.68 3 0 3 C0 2.01 0 1.02 0 0 Z " fill="#EBD056" transform="translate(562,340)"/>
<path d="M0 0 C3.3 0 6.6 0 10 0 C7.08235 1.9451 5.37462715 2.45276317 2 3 C2 2.34 2 1.68 2 1 C1.34 0.67 0.68 0.34 0 0 Z " fill="#9E9E9E" transform="translate(401,293)"/>
<path d="" fill="#00FFFF" transform="translate(0,0)"/>
</svg>
