<?xml version="1.0" encoding="UTF-8"?>
<svg version="1.1" xmlns="http://www.w3.org/2000/svg" width="1050" height="600">
<path d="M0 0 C346.5 0 693 0 1050 0 C1050 198 1050 396 1050 600 C703.5 600 357 600 0 600 C0 402 0 204 0 0 Z " fill="#FEFEFE" transform="translate(0,0)"/>
<path d="M0 0 C19.54075117 -0.65135837 36.15919131 6.55287013 51 19 C54.11808981 17.55434018 56.74062634 15.79193651 59.5 13.75 C71.38743199 5.39056318 85.6734938 -1.14524622 100.5 -0.65234375 C103.57841494 0.15093015 104.37476472 1.03032153 106.0625 3.6875 C106.72920376 5.11544014 107.37723948 6.55235492 108 8 C108.598125 8.763125 109.19625 9.52625 109.8125 10.3125 C113.28880034 18.17991655 110.48828288 28.54228363 109.0625 36.6875 C108.69801898 38.83703649 108.33471093 40.98677225 107.97265625 43.13671875 C107.79943848 44.14395996 107.6262207 45.15120117 107.44775391 46.18896484 C107.05839641 48.63338263 106.770533 51.05745365 106.52734375 53.51953125 C105.79697325 58.33997653 104.073417 60.3118996 101 64 C100.67 64 100.34 64 100 64 C100.61776528 54.33542833 101.73886443 44.7760137 103.0625 35.1875 C103.25099368 33.80147885 103.43914645 32.41541129 103.62695312 31.02929688 C104.08130558 27.68572878 104.53904248 24.34266275 105 21 C89.90780236 22.12353027 74.2924525 24.7075475 63 36 C62.85182567 38.95794917 62.76478849 41.89539512 62.71875 44.85546875 C62.70034058 45.7498616 62.68193115 46.64425446 62.66296387 47.56575012 C62.60402374 50.43959769 62.55134272 53.31350727 62.5 56.1875 C62.43212649 59.95194221 62.35831822 63.71620495 62.28125 67.48046875 C62.26767456 68.34318893 62.25409912 69.20590912 62.2401123 70.09477234 C62.15009912 74.49470882 61.86898404 78.66783311 61 83 C59.68 83.33 58.36 83.66 57 84 C57 68.82 57 53.64 57 38 C53.7 38 50.4 38 47 38 C47 52.85 47 67.7 47 83 C45.68 83 44.36 83 43 83 C42.96241577 81.71706055 42.96241577 81.71706055 42.92407227 80.40820312 C42.68406912 72.30328339 42.68406912 72.30328339 42.41040039 64.19946289 C42.38512772 63.49413925 42.35985504 62.78881561 42.33381653 62.06211853 C42.28322712 60.65054104 42.23243634 59.23897076 42.18144226 57.82740784 C42.05168823 54.07941298 41.97883409 50.33992576 41.9921875 46.58984375 C42.08266456 39.93937346 42.08266456 39.93937346 39.61328125 33.93359375 C37.50108282 32.16678625 35.51088454 31.13370241 33 30 C31.44539063 29.20722656 31.44539063 29.20722656 29.859375 28.3984375 C21.475554 24.28451603 14.50895965 22.13409267 5.25 21.45703125 C4.07953125 21.37042236 2.9090625 21.28381348 1.703125 21.19458008 C0.81109375 21.13036865 -0.0809375 21.06615723 -1 21 C-0.88930176 21.72364746 -0.77860352 22.44729492 -0.66455078 23.19287109 C1.50515828 37.4370901 3.57540638 51.66034056 5 66 C4 64.66666667 3 63.33333333 2 62 C1.21302734 61.18402344 1.21302734 61.18402344 0.41015625 60.3515625 C-1.82334884 56.62699169 -2.03040696 52.63563961 -2.5625 48.375 C-2.8092731 46.55702935 -3.05794619 44.73931552 -3.30859375 42.921875 C-3.4257373 42.06013672 -3.54288086 41.19839844 -3.66357422 40.31054688 C-4.04079215 37.71984259 -4.54671979 35.17800003 -5.125 32.625 C-5.4301123 31.08593794 -5.72087536 29.54398672 -6 28 C-6.19464844 26.94039063 -6.38929688 25.88078125 -6.58984375 24.7890625 C-7.9478716 14.62068871 -5.15380163 8.45686152 0 0 Z " fill="#232727" transform="translate(317,279)"/>
<path d="M0 0 C15.36943859 -0.9055643 27.75278824 3.49926551 40.26171875 12.29296875 C43.57511348 15.56855013 43.78221041 16.78707028 43.875 21.375 C43.8948999 22.02404297 43.9147998 22.67308594 43.93530273 23.34179688 C43.99643512 25.89527131 43.99873511 28.44576252 44 31 C44.01080268 32.9439799 44.02160545 34.8879598 44.03240967 36.8319397 C44.07432721 45.22162703 44.05136837 53.61035895 44 62 C45.32 62 46.64 62 48 62 C48 47.15 48 32.3 48 17 C51.3 17 54.6 17 58 17 C58.07414761 23.47783908 58.12860137 29.95543121 58.16479492 36.43359375 C58.17988291 38.63741356 58.20035576 40.84120335 58.22631836 43.04492188 C58.26270058 46.21231497 58.27972632 49.37931111 58.29296875 52.546875 C58.30845261 53.53242371 58.32393646 54.51797241 58.33988953 55.53338623 C58.34011612 56.4540387 58.34034271 57.37469116 58.34057617 58.32324219 C58.34723801 59.1315448 58.35389984 59.93984741 58.36076355 60.77264404 C57.91560702 63.52104268 56.80148106 64.91954767 55 67 C52.83125748 66.49396008 51.00032373 66.00016187 49 65 C49 64.34 49 63.68 49 63 C48.18015625 63.05800781 47.3603125 63.11601562 46.515625 63.17578125 C43.28013611 63.31123832 40.21992851 63.36063199 37 63 C34.375 60.5625 34.375 60.5625 33 58 C32.01 57.505 32.01 57.505 31 57 C31 56.34 31 55.68 31 55 C29.27119018 54.94550162 27.54187288 54.90698312 25.8125 54.875 C24.84957031 54.85179687 23.88664062 54.82859375 22.89453125 54.8046875 C19.97545187 54.84400077 19.97545187 54.84400077 17.39453125 56.09765625 C15 57 15 57 12.8671875 56.62890625 C9.3822678 54.76344923 7.43618176 53.10193287 5.9609375 49.375 C5.27694916 46.18806533 4.76459453 43.01493174 4.35498047 39.78173828 C3.9207329 36.37883813 3.42941471 32.985445 2.94140625 29.58984375 C2.19462888 24.30249054 1.46391418 19.01325001 0.76953125 13.71875 C0.54680542 12.03168945 0.54680542 12.03168945 0.31958008 10.31054688 C-0.01414637 6.85345696 -0.05419956 3.47097294 0 0 Z " fill="#00D5FA" transform="translate(316,300)"/>
<path d="M0 0 C-0.39679907 9.79683228 -1.35163657 19.32607291 -2.98364258 28.99511719 C-3.60765226 32.80161479 -4.07545027 36.43049796 -4.01953125 40.29296875 C-3.99463536 45.01820823 -4.72899443 48.83931443 -7 53 C-10.497932 55.433344 -13.80889153 56.38366052 -18 57 C-18.33 56.34 -18.66 55.68 -19 55 C-25.32054477 54.27941769 -25.32054477 54.27941769 -31.1875 56.265625 C-33.60408535 58.33986076 -35.56799638 60.13599277 -37 63 C-39.31 62.67 -41.62 62.34 -44 62 C-44.08541389 55.43397303 -44.10034895 48.87044574 -44.06713867 42.30395508 C-44.06406344 40.07214838 -44.07690456 37.8402591 -44.10620117 35.60864258 C-44.14562345 32.39250109 -44.12710508 29.18100349 -44.09765625 25.96484375 C-44.12223404 24.97290512 -44.14681183 23.98096649 -44.1721344 22.95896912 C-44.08482302 18.71349008 -43.95733548 16.06129546 -41.04405212 12.83164978 C-28.48714234 2.89853134 -15.6230743 -0.42868192 0 0 Z " fill="#01D6FB" transform="translate(422,300)"/>
<path d="M0 0 C0 2.64 0 5.28 0 8 C-1.98 8.33 -3.96 8.66 -6 9 C-6.33 10.32 -6.66 11.64 -7 13 C-0.07 13 6.86 13 14 13 C20.35416667 30.15625 20.35416667 30.15625 20 36 C20.66 36 21.32 36 22 36 C22.12246094 35.01902344 22.24492188 34.03804688 22.37109375 33.02734375 C22.97605256 28.79263208 23.99124369 24.69989627 25.0625 20.5625 C25.24876953 19.83095703 25.43503906 19.09941406 25.62695312 18.34570312 C26.0813758 16.56296802 26.54022466 14.78136213 27 13 C31.29 13 35.58 13 40 13 C37.78385478 20.61535254 35.29321403 28.094205 32.625 35.5625 C32.25117187 36.63435547 31.87734375 37.70621094 31.4921875 38.81054688 C25.13466304 56.60943813 25.13466304 56.60943813 18 61 C14.90298511 61.99263298 12.05423745 62.13457677 8.8125 62.125 C7.93207031 62.12757813 7.05164063 62.13015625 6.14453125 62.1328125 C4 62 4 62 3 61 C2.85884839 58.32941149 2.95752893 55.67567762 3 53 C4.27875 52.87625 5.5575 52.7525 6.875 52.625 C10.34790936 52.30957601 10.34790936 52.30957601 13 50 C12.63172885 45.44002131 11.18264956 41.51514487 9.49609375 37.2890625 C9.2533522 36.67606293 9.01061066 36.06306335 8.76051331 35.43148804 C7.99171749 33.49373226 7.21476724 31.55937111 6.4375 29.625 C5.91156482 28.30360203 5.3861688 26.98198933 4.86132812 25.66015625 C3.58044219 22.43759822 2.29222716 19.2180297 1 16 C0.67 17.98 0.34 19.96 0 22 C-2.31 22 -4.62 22 -7 22 C-7 30.58 -7 39.16 -7 48 C-11.29 48 -15.58 48 -20 48 C-20 39.42 -20 30.84 -20 22 C-21.65 22 -23.3 22 -25 22 C-25 19.03 -25 16.06 -25 13 C-23.35 13 -21.7 13 -20 13 C-19.99742187 12.40832031 -19.99484375 11.81664062 -19.9921875 11.20703125 C-19.77329468 6.73432127 -19.42082563 4.52872963 -16.5625 0.9375 C-11.72849298 -2.47681078 -5.36247722 -1.78749241 0 0 Z " fill="#050505" transform="translate(701,273)"/>
<path d="M0 0 C2.29013653 3.4352048 2.17842973 4.985331 2 9 C5.28926495 9.50196294 5.28926495 9.50196294 9 9 C11.1403498 7.18811972 12.38988302 5.34198833 14 3 C14.495 3.99 14.495 3.99 15 5 C14.06421005 7.35981813 13.06652192 9.69631264 12 12 C13.72596157 13.26021932 13.72596157 13.26021932 16 14 C18.37137377 13.11458081 18.37137377 13.11458081 20.625 11.5625 C22.9765625 10.06640625 22.9765625 10.06640625 25 9 C25.66 9.33 26.32 9.66 27 10 C25.88121617 11.17262904 24.75476949 12.33795138 23.625 13.5 C22.99851562 14.1496875 22.37203125 14.799375 21.7265625 15.46875 C20 17 20 17 18 17 C18.495 17.86625 18.495 17.86625 19 18.75 C20 21 20 21 20 25 C25.28 25 30.56 25 36 25 C32.2311658 26.8844171 30.31987525 27.33429462 26.25 27.625 C25.26515625 27.69976562 24.2803125 27.77453125 23.265625 27.8515625 C22.51796875 27.90054688 21.7703125 27.94953125 21 28 C20.62066652 31.62555271 20.70067947 34.56999293 22 38 C25.69409092 40.99848464 29.68197516 43.03311689 34 45 C32 46 32 46 29.5390625 45.1875 C27.60081991 44.39765316 25.66331476 43.60599419 23.7265625 42.8125 C20.86100675 41.95858081 19.70831909 41.82678419 17 43 C15.31337542 44.64646685 13.64488294 46.31183067 12 48 C11.34 48 10.68 48 10 48 C10 50.31 10 52.62 10 55 C3.73 55 -2.54 55 -9 55 C-9 52.69 -9 50.38 -9 48 C-9.5775 47.7525 -10.155 47.505 -10.75 47.25 C-13 46 -13 46 -14.6875 43.75 C-16.78477788 41.7695606 -16.78477788 41.7695606 -19.0078125 42.1171875 C-21.38146947 42.64019666 -23.67781556 43.283084 -26 44 C-27.35401012 44.37556485 -28.7081592 44.75062937 -30.0625 45.125 C-31.5165625 45.558125 -31.5165625 45.558125 -33 46 C-30.72402354 43.50447597 -28.39278822 41.93377014 -25.4375 40.3125 C-24.65246094 39.87550781 -23.86742187 39.43851562 -23.05859375 38.98828125 C-21 38 -21 38 -19 38 C-19.33 37.34 -19.66 36.68 -20 36 C-20.13415472 33.3276379 -20.04318541 30.67749512 -20 28 C-21.08667969 27.90912109 -21.08667969 27.90912109 -22.1953125 27.81640625 C-27.17116533 27.38516567 -32.08680391 26.92952359 -37 26 C-37 25.67 -37 25.34 -37 25 C-31.39 25 -25.78 25 -20 25 C-19.34 23.02 -18.68 21.04 -18 19 C-17.67 18.34 -17.34 17.68 -17 17 C-17.556875 16.79375 -18.11375 16.5875 -18.6875 16.375 C-21.92501302 14.44999226 -23.68231141 11.96149098 -26 9 C-21.96479403 10.58962659 -17.98188718 12.28232318 -14 14 C-13.01 13.01 -12.02 12.02 -11 11 C-11.515625 10.05125 -12.03125 9.1025 -12.5625 8.125 C-13.036875 7.09375 -13.51125 6.0625 -14 5 C-13.67 4.34 -13.34 3.68 -13 3 C-11.29115995 4.62339805 -9.62553283 6.29319053 -8 8 C-8 8.66 -8 9.32 -8 10 C-4.535 9.505 -4.535 9.505 -1 9 C-0.67 6.03 -0.34 3.06 0 0 Z " fill="#F6A624" transform="translate(368,221)"/>
<path d="M0 0 C1.671875 1.16796875 1.671875 1.16796875 3.671875 4.16796875 C3.99072266 6.34448242 3.99072266 6.34448242 4.0859375 8.8359375 C4.14394531 10.17495117 4.14394531 10.17495117 4.203125 11.54101562 C4.2340625 12.46978516 4.265 13.39855469 4.296875 14.35546875 C4.35488281 15.76602539 4.35488281 15.76602539 4.4140625 17.20507812 C4.50830687 19.52584585 4.59391525 21.84660623 4.671875 24.16796875 C5.991875 24.49796875 7.311875 24.82796875 8.671875 25.16796875 C8.671875 27.80796875 8.671875 30.44796875 8.671875 33.16796875 C6.23232842 34.38774204 4.51881651 34.36950688 1.796875 34.41796875 C0.50136719 34.45664062 0.50136719 34.45664062 -0.8203125 34.49609375 C-3.328125 34.16796875 -3.328125 34.16796875 -5.390625 32.5703125 C-6.03 32.10753906 -6.669375 31.64476562 -7.328125 31.16796875 C-9.40615655 31.46097674 -9.40615655 31.46097674 -11.453125 32.48046875 C-16.47367386 34.3828184 -20.99442502 34.99966434 -26.328125 34.16796875 C-31.94784331 31.30881382 -31.94784331 31.30881382 -33.328125 27.16796875 C-34.002377 22.02679724 -34.002377 22.02679724 -33.328125 19.16796875 C-30.56169821 15.71178944 -27.51084955 13.56221027 -23.328125 12.16796875 C-20.93321514 12.09826823 -18.53644809 12.08348872 -16.140625 12.10546875 C-14.86832031 12.11449219 -13.59601562 12.12351562 -12.28515625 12.1328125 C-10.82142578 12.15021484 -10.82142578 12.15021484 -9.328125 12.16796875 C-9.328125 10.51796875 -9.328125 8.86796875 -9.328125 7.16796875 C-12.298125 7.16796875 -15.268125 7.16796875 -18.328125 7.16796875 C-18.658125 7.82796875 -18.988125 8.48796875 -19.328125 9.16796875 C-23.618125 9.16796875 -27.908125 9.16796875 -32.328125 9.16796875 C-31.328125 3.16796875 -31.328125 3.16796875 -29.078125 0.91796875 C-20.22685046 -4.71466051 -9.33692034 -4.58070716 0 0 Z " fill="#080808" transform="translate(567.328125,287.83203125)"/>
<path d="M0 0 C4.20861061 2.14188218 6.99286827 4.32466288 9.3125 8.5 C10.0625 11.25 10.0625 11.25 10.0625 19.25 C1.4825 19.25 -7.0975 19.25 -15.9375 19.25 C-15.6075 21.23 -15.2775 23.21 -14.9375 25.25 C-11.6375 25.25 -8.3375 25.25 -4.9375 25.25 C-4.2775 23.93 -3.6175 22.61 -2.9375 21.25 C1.3525 21.25 5.6425 21.25 10.0625 21.25 C8.80634236 28.78694581 8.80634236 28.78694581 5.0625 32.25 C-1.91716169 35.94685471 -10.78283506 36.80897183 -18.33984375 34.5234375 C-22.59417143 32.57452762 -25.37688346 30.2445618 -27.9375 26.25 C-30.09642395 19.77322814 -30.09875218 11.84048563 -27.3125 5.625 C-19.64214058 -2.04535942 -10.13379721 -4.28543663 0 0 Z " fill="#0B0B0B" transform="translate(519.9375,286.75)"/>
<path d="M0 0 C3.05924178 1.7444733 5.39983676 3.79967352 7 7 C7.08559118 9.17824961 7.10713412 11.35915255 7.09765625 13.5390625 C7.09443359 14.84101563 7.09121094 16.14296875 7.08789062 17.484375 C7.07953466 18.86458399 7.07106971 20.24479232 7.0625 21.625 C7.05748501 23.01301926 7.0529221 24.40104022 7.04882812 25.7890625 C7.03700985 29.19272673 7.0190739 32.5963687 7 36 C2.71 36 -1.58 36 -6 36 C-6.06058594 34.27910156 -6.12117187 32.55820312 -6.18359375 30.78515625 C-6.26797891 28.5442614 -6.35262791 26.30337647 -6.4375 24.0625 C-6.47681641 22.92619141 -6.51613281 21.78988281 -6.55664062 20.61914062 C-6.59853516 19.53955078 -6.64042969 18.45996094 -6.68359375 17.34765625 C-6.72025146 16.34742432 -6.75690918 15.34719238 -6.79467773 14.31665039 C-6.74671841 12.03930812 -6.74671841 12.03930812 -8 11 C-10.45809998 10.7499227 -10.45809998 10.7499227 -13 11 C-15.56136221 13.56136221 -15.29666857 14.66561331 -15.4140625 18.2265625 C-15.47207031 19.7734375 -15.47207031 19.7734375 -15.53125 21.3515625 C-15.5621875 22.43179687 -15.593125 23.51203125 -15.625 24.625 C-15.68300781 26.25695312 -15.68300781 26.25695312 -15.7421875 27.921875 C-15.83665846 30.61429745 -15.91942581 33.30712584 -16 36 C-20.29 36 -24.58 36 -29 36 C-29 24.45 -29 12.9 -29 1 C-25.37 1 -21.74 1 -18 1 C-18 2.32 -18 3.64 -18 5 C-17.45472656 4.6390625 -16.90945313 4.278125 -16.34765625 3.90625 C-10.97461068 0.59976042 -6.35063742 -1.52510617 0 0 Z " fill="#030303" transform="translate(642,285)"/>
<path d="M0 0 C4.62 0 9.24 0 14 0 C14 11.22 14 22.44 14 34 C21.59 34 29.18 34 37 34 C37 37.63 37 41.26 37 45 C24.79 45 12.58 45 0 45 C0 30.15 0 15.3 0 0 Z " fill="#000000" transform="translate(449,276)"/>
<path d="M0 0 C2.29013653 3.4352048 2.17842973 4.985331 2 9 C5.28926495 9.50196294 5.28926495 9.50196294 9 9 C11.1403498 7.18811972 12.38988302 5.34198833 14 3 C14.495 3.99 14.495 3.99 15 5 C14.06421005 7.35981813 13.06652192 9.69631264 12 12 C13.72596157 13.26021932 13.72596157 13.26021932 16 14 C18.37137377 13.11458081 18.37137377 13.11458081 20.625 11.5625 C22.9765625 10.06640625 22.9765625 10.06640625 25 9 C25.66 9.33 26.32 9.66 27 10 C25.88121617 11.17262904 24.75476949 12.33795138 23.625 13.5 C22.99851562 14.1496875 22.37203125 14.799375 21.7265625 15.46875 C20 17 20 17 18 17 C18.495 17.86625 18.495 17.86625 19 18.75 C20 21 20 21 20 25 C25.28 25 30.56 25 36 25 C32.2311658 26.8844171 30.31987525 27.33429462 26.25 27.625 C25.26515625 27.69976562 24.2803125 27.77453125 23.265625 27.8515625 C22.51796875 27.90054688 21.7703125 27.94953125 21 28 C20.62066652 31.62555271 20.70067947 34.56999293 22 38 C25.69409092 40.99848464 29.68197516 43.03311689 34 45 C32 46 32 46 29.5390625 45.1875 C27.60081991 44.39765316 25.66331476 43.60599419 23.7265625 42.8125 C20.86100675 41.95858081 19.70831909 41.82678419 17 43 C15.31337542 44.64646685 13.64488294 46.31183067 12 48 C11.34 48 10.68 48 10 48 C10 50.31 10 52.62 10 55 C3.73 55 -2.54 55 -9 55 C-9 52.69 -9 50.38 -9 48 C-9.5775 47.7525 -10.155 47.505 -10.75 47.25 C-13 46 -13 46 -14.6875 43.75 C-16.78477788 41.7695606 -16.78477788 41.7695606 -19.0078125 42.1171875 C-21.38146947 42.64019666 -23.67781556 43.283084 -26 44 C-27.35401012 44.37556485 -28.7081592 44.75062937 -30.0625 45.125 C-31.5165625 45.558125 -31.5165625 45.558125 -33 46 C-30.72402354 43.50447597 -28.39278822 41.93377014 -25.4375 40.3125 C-24.65246094 39.87550781 -23.86742187 39.43851562 -23.05859375 38.98828125 C-21 38 -21 38 -19 38 C-19.33 37.34 -19.66 36.68 -20 36 C-20.13415472 33.3276379 -20.04318541 30.67749512 -20 28 C-21.08667969 27.90912109 -21.08667969 27.90912109 -22.1953125 27.81640625 C-27.17116533 27.38516567 -32.08680391 26.92952359 -37 26 C-37 25.67 -37 25.34 -37 25 C-31.39 25 -25.78 25 -20 25 C-19.34 23.02 -18.68 21.04 -18 19 C-17.67 18.34 -17.34 17.68 -17 17 C-17.556875 16.79375 -18.11375 16.5875 -18.6875 16.375 C-21.92501302 14.44999226 -23.68231141 11.96149098 -26 9 C-21.96479403 10.58962659 -17.98188718 12.28232318 -14 14 C-13.01 13.01 -12.02 12.02 -11 11 C-11.515625 10.05125 -12.03125 9.1025 -12.5625 8.125 C-13.036875 7.09375 -13.51125 6.0625 -14 5 C-13.67 4.34 -13.34 3.68 -13 3 C-11.29115995 4.62339805 -9.62553283 6.29319053 -8 8 C-8 8.66 -8 9.32 -8 10 C-4.535 9.505 -4.535 9.505 -1 9 C-0.67 6.03 -0.34 3.06 0 0 Z M-13.3125 19.625 C-16.79766644 24.53004906 -16.57730923 29.11307208 -16 35 C-14.6474567 39.23539272 -12.54009178 41.63993881 -8.8125 44.125 C-7.884375 44.74375 -6.95625 45.3625 -6 46 C-5.67 47.65 -5.34 49.3 -5 51 C-1.37 51 2.26 51 6 51 C6.33 49.35 6.66 47.7 7 46 C9 44.66666667 11 43.33333333 13 42 C16.90902396 36.95941647 17.63902496 32.93709384 17.38671875 26.5859375 C16.63642899 21.56884838 14.06063035 18.93436483 10.375 15.6875 C2.17029853 9.85784369 -6.99687329 12.45591022 -13.3125 19.625 Z " fill="#292825" transform="translate(368,221)"/>
<path d="M0 0 C3.3 0 6.6 0 10 0 C10.07414761 6.47783908 10.12860137 12.95543121 10.16479492 19.43359375 C10.17988291 21.63741356 10.20035576 23.84120335 10.22631836 26.04492188 C10.26270058 29.21231497 10.27972632 32.37931111 10.29296875 35.546875 C10.30845261 36.53242371 10.32393646 37.51797241 10.33988953 38.53338623 C10.34011612 39.4540387 10.34034271 40.37469116 10.34057617 41.32324219 C10.34723801 42.1315448 10.35389984 42.93984741 10.36076355 43.77264404 C9.91560702 46.52104268 8.80148106 47.91954767 7 50 C4.83125748 49.49396008 3.00032373 49.00016187 1 48 C1 47.34 1 46.68 1 46 C0.18015625 46.05800781 -0.6396875 46.11601562 -1.484375 46.17578125 C-10.39346531 46.54876948 -10.39346531 46.54876948 -13.625 43.625 C-14.07875 42.75875 -14.5325 41.8925 -15 41 C-15.66 40.34 -16.32 39.68 -17 39 C-16.37351562 38.59007812 -15.74703125 38.18015625 -15.1015625 37.7578125 C-14.28429687 37.21898437 -13.46703125 36.68015625 -12.625 36.125 C-11.81289063 35.59132813 -11.00078125 35.05765625 -10.1640625 34.5078125 C-7.92405904 33.04134945 -7.92405904 33.04134945 -6 31 C-5.69324768 28.10032243 -5.48826629 25.28216822 -5.375 22.375 C-5.33632813 21.57320313 -5.29765625 20.77140625 -5.2578125 19.9453125 C-5.16346069 17.96392444 -5.08063785 15.98199355 -5 14 C-4.67 14 -4.34 14 -4 14 C-4 24.23 -4 34.46 -4 45 C-2.68 45 -1.36 45 0 45 C0 30.15 0 15.3 0 0 Z " fill="#0E99B0" transform="translate(364,317)"/>
<path d="M0 0 C1 1 1 1 1.09765625 3.50390625 C1.08605469 4.51324219 1.07445312 5.52257812 1.0625 6.5625 C1.05347656 7.57441406 1.04445313 8.58632813 1.03515625 9.62890625 C1.02355469 10.41136719 1.01195312 11.19382812 1 12 C-0.98567708 12.13020833 -2.97135417 12.26041667 -4.95703125 12.390625 C-7.08530408 12.87878572 -7.08530408 12.87878572 -8.71875 14.4375 C-10.70430354 18.40860708 -10.57417687 22.36601384 -10.6875 26.75 C-10.72166016 27.63816406 -10.75582031 28.52632813 -10.79101562 29.44140625 C-10.87327542 31.62716639 -10.93832034 33.81356233 -11 36 C-15.29 36 -19.58 36 -24 36 C-24 24.45 -24 12.9 -24 1 C-20.37 1 -16.74 1 -13 1 C-12.34 1.99 -11.68 2.98 -11 4 C-10.29875 3.34 -9.5975 2.68 -8.875 2 C-5.55622323 -0.30871428 -3.95355026 -0.44926708 0 0 Z " fill="#050505" transform="translate(604,285)"/>
<path d="M0 0 C17.83194386 0.46153266 34.7393621 9.27814689 47 22 C47.22042969 21.43023437 47.44085938 20.86046875 47.66796875 20.2734375 C53.6416085 10.07795851 69.2498458 4.26458045 79.875 1.125 C84.04446406 0.08110783 87.7182287 -0.28545142 92 0 C88.76200657 1.78245311 85.56022025 2.72327368 82 3.6875 C74.99161774 5.77493435 69.12992799 9.06801016 63 13 C64.55460937 12.36771484 64.55460937 12.36771484 66.140625 11.72265625 C67.51036091 11.16913284 68.88015568 10.61575506 70.25 10.0625 C70.93191406 9.78470703 71.61382812 9.50691406 72.31640625 9.22070312 C78.44781685 6.75028041 83.1592147 5.85651682 89.75 5.9375 C90.44738281 5.94201172 91.14476562 5.94652344 91.86328125 5.95117188 C93.57555803 5.9628998 95.28779033 5.98083347 97 6 C93.81362253 8.12425165 92.16169719 8.42766857 88.4375 8.9375 C76.32917173 10.86613193 64.83189981 14.92838998 55.5078125 23.21484375 C50.63953432 26.68026918 44.69312785 25.85234257 39 25 C36.68644773 23.83705987 35.09622651 22.52482815 33.18359375 20.7890625 C23.11464284 12.53936748 9.56778303 8.99675057 -3 7 C-3 6.67 -3 6.34 -3 6 C7.42211475 5.20911439 15.4370686 7.29651343 25 11 C18.59856667 4.59856667 8.45608027 2.99425345 0 1 C0 0.67 0 0.34 0 0 Z " fill="#F5F5F5" transform="translate(323,286)"/>
<path d="M0 0 C4.29 0 8.58 0 13 0 C13 11.55 13 23.1 13 35 C8.71 35 4.42 35 0 35 C0 23.45 0 11.9 0 0 Z " fill="#020202" transform="translate(658,286)"/>
<path d="M0 0 C0.96038798 3.08761886 0.98420424 5.3084222 0.44140625 8.484375 C0.30283203 9.33773438 0.16425781 10.19109375 0.02148438 11.0703125 C-0.12998047 11.95460938 -0.28144531 12.83890625 -0.4375 13.75 C-1.68420241 21.00366208 -1.68420241 21.00366208 -2.02734375 28.33984375 C-1.99218317 33.04633875 -2.73832205 36.85640345 -5 41 C-8.497932 43.433344 -11.80889153 44.38366052 -16 45 C-16.33 44.34 -16.66 43.68 -17 43 C-20.02934491 42.34227572 -20.02934491 42.34227572 -23 42 C-21.18902229 39.24731388 -19.38223376 36.51658326 -17.421875 33.8671875 C-9.82526172 23.49883694 -4.72895523 11.89866156 0 0 Z " fill="#0D9FB8" transform="translate(420,312)"/>
<path d="M0 0 C3.3 0 6.6 0 10 0 C10.08087991 3.75043155 10.14044597 7.49912186 10.1875 11.25 C10.22520508 12.84521484 10.22520508 12.84521484 10.26367188 14.47265625 C10.27817383 16.00986328 10.27817383 16.00986328 10.29296875 17.578125 C10.31653442 18.99206543 10.31653442 18.99206543 10.34057617 20.43457031 C9.94383071 23.42310174 8.98295729 24.77689217 7 27 C4.625 26.8125 4.625 26.8125 2 26 C0.23052831 22.5694452 -0.24227704 19.74557857 -0.1953125 15.91796875 C-0.18886719 14.98662109 -0.18242187 14.05527344 -0.17578125 13.09570312 C-0.15902344 12.13599609 -0.14226562 11.17628906 -0.125 10.1875 C-0.11597656 9.20845703 -0.10695313 8.22941406 -0.09765625 7.22070312 C-0.07417326 4.81369652 -0.03830477 2.40681636 0 0 Z " fill="#00D4F8" transform="translate(364,317)"/>
<path d="M0 0 C10.49311982 -0.79627385 18.35294529 1.18629797 28 5 C28.6487207 5.24153809 29.29744141 5.48307617 29.96582031 5.73193359 C31.68025903 6.40137693 33.34559409 7.19352895 35 8 C35.495 9.485 35.495 9.485 36 11 C39.69167544 14.96156294 43.5347824 17.42056648 49 17.75 C54.4652176 17.42056648 58.30832456 14.96156294 62 11 C62.33 10.01 62.66 9.02 63 8 C66.15150256 6.26237909 69.61731536 5.21325623 73 4 C73.92554688 3.62230469 74.85109375 3.24460937 75.8046875 2.85546875 C84.0702013 -0.3140982 91.26002656 -0.42983476 100 0 C96.81362253 2.12425165 95.16169719 2.42766857 91.4375 2.9375 C79.32917173 4.86613193 67.83189981 8.92838998 58.5078125 17.21484375 C53.63953432 20.68026918 47.69312785 19.85234257 42 19 C39.68644773 17.83705987 38.09622651 16.52482815 36.18359375 14.7890625 C26.11464284 6.53936748 12.56778303 2.99675057 0 1 C0 0.67 0 0.34 0 0 Z " fill="#AEAEAE" transform="translate(320,292)"/>
<path d="M0 0 C0.27714844 0.56976563 0.55429687 1.13953125 0.83984375 1.7265625 C5.13190919 10.1372766 10.13460963 16.6432242 19.35546875 19.80859375 C21.21807464 20.28660765 23.10805168 20.6560094 25 21 C24.525625 21.391875 24.05125 21.78375 23.5625 22.1875 C21.52332645 24.25258256 21.52332645 24.25258256 21 29 C17.37 29 13.74 29 10 29 C9.67 27.35 9.34 25.7 9 24 C8.071875 23.38125 7.14375 22.7625 6.1875 22.125 C2.45990822 19.63993881 0.3525433 17.23539272 -1 13 C-1.90184758 3.80369515 -1.90184758 3.80369515 0 0 Z " fill="#D98A10" transform="translate(353,243)"/>
<path d="M0 0 C3.25644817 0.55428905 3.98021455 0.94354554 5.9375 3.5 C6.3359375 5.65625 6.3359375 5.65625 6.3125 8 C6.32023438 8.7734375 6.32796875 9.546875 6.3359375 10.34375 C5.8415804 13.01909429 5.1139752 13.90024058 2.9375 15.5 C-0.5625 15.9375 -0.5625 15.9375 -4.0625 15.5 C-6.66305327 13.3188908 -7.00197563 11.9063779 -7.5 8.5625 C-6.7942646 3.62235222 -5.0668087 0.82723407 0 0 Z " fill="#FFE374" transform="translate(527.0625,340.5)"/>
<path d="M0 0 C1.32 0 2.64 0 4 0 C6.31 5.94 8.62 11.88 11 18 C10.01 18.33 9.02 18.66 8 19 C7.67 17.35 7.34 15.7 7 14 C3.7 14 0.4 14 -3 14 C-3.33 15.65 -3.66 17.3 -4 19 C-4.99 19 -5.98 19 -7 19 C-4.94235079 12.54646385 -2.57616518 6.2638737 0 0 Z " fill="#FFE374" transform="translate(557,337)"/>
<path d="M0 0 C1.32 0 2.64 0 4 0 C6.31 5.94 8.62 11.88 11 18 C10.01 18.33 9.02 18.66 8 19 C7.67 17.35 7.34 15.7 7 14 C3.7 14 0.4 14 -3 14 C-3.33 15.65 -3.66 17.3 -4 19 C-4.99 19 -5.98 19 -7 19 C-4.94235079 12.54646385 -2.57616518 6.2638737 0 0 Z " fill="#FFE374" transform="translate(455,337)"/>
<path d="M0 0 C6.27 0 12.54 0 19 0 C19 4 19 4 16.5625 6.6875 C15.716875 7.450625 14.87125 8.21375 14 9 C13.67 9.33 13.34 9.66 13 10 C9.6875 10.375 9.6875 10.375 6 10 C3.6875 7.5625 3.6875 7.5625 2 5 C1.34 4.67 0.68 4.34 0 4 C0 2.68 0 1.36 0 0 Z " fill="#333333" transform="translate(359,277)"/>
<path d="M0 0 C0.33 0 0.66 0 1 0 C1 10.23 1 20.46 1 31 C1.99 31.33 2.98 31.66 4 32 C0.61934363 32.29032354 -2.62868223 32.43996757 -6 32 C-8.5 29.625 -8.5 29.625 -10 27 C-10.66 26.34 -11.32 25.68 -12 25 C-11.37351562 24.59007812 -10.74703125 24.18015625 -10.1015625 23.7578125 C-9.28429687 23.21898437 -8.46703125 22.68015625 -7.625 22.125 C-6.81289063 21.59132813 -6.00078125 21.05765625 -5.1640625 20.5078125 C-2.92405904 19.04134945 -2.92405904 19.04134945 -1 17 C-0.69324768 14.10032243 -0.48826629 11.28216822 -0.375 8.375 C-0.33632813 7.57320313 -0.29765625 6.77140625 -0.2578125 5.9453125 C-0.16346069 3.96392444 -0.08063785 1.98199355 0 0 Z " fill="#18A4BC" transform="translate(359,331)"/>
<path d="M0 0 C5.48076923 -0.36538462 5.48076923 -0.36538462 7.6875 1.1875 C9.45312631 3.62574585 9.30348915 5.21044507 9.1875 8.1875 C9.16042969 9.08855469 9.13335938 9.98960937 9.10546875 10.91796875 C9.07066406 11.60503906 9.03585937 12.29210937 9 13 C9.66 13 10.32 13 11 13 C11 13.66 11 14.32 11 15 C9.68 15 8.36 15 7 15 C7 14.34 7 13.68 7 13 C6.01 13.66 5.02 14.32 4 15 C0.8125 15.125 0.8125 15.125 -2 15 C-2.33 12.69 -2.66 10.38 -3 8 C0.4352048 5.70986347 1.985331 5.82157027 6 6 C5.67 5.01 5.34 4.02 5 3 C2.69 3.33 0.38 3.66 -2 4 C-1.34 2.68 -0.68 1.36 0 0 Z " fill="#FFE57C" transform="translate(627,341)"/>
<path d="M0 0 C4.29 0 8.58 0 13 0 C13 2.97 13 5.94 13 9 C8.71 9 4.42 9 0 9 C0 6.03 0 3.06 0 0 Z " fill="#060606" transform="translate(658,273)"/>
<path d="M0 0 C0.99 0 1.98 0 3 0 C3 4.29 3 8.58 3 13 C4.65 12.67 6.3 12.34 8 12 C8.33 8.04 8.66 4.08 9 0 C9.99 0 10.98 0 12 0 C12 4.95 12 9.9 12 15 C10.39125 15.04125 8.7825 15.0825 7.125 15.125 C6.22007812 15.14820313 5.31515625 15.17140625 4.3828125 15.1953125 C2 15 2 15 0 13 C-0.1953125 9.9609375 -0.1953125 9.9609375 -0.125 6.375 C-0.10695313 5.18648438 -0.08890625 3.99796875 -0.0703125 2.7734375 C-0.04710937 1.85820312 -0.02390625 0.94296875 0 0 Z " fill="#FFE477" transform="translate(498,341)"/>
<path d="M0 0 C0.66 0.33 1.32 0.66 2 1 C0.92621094 1.50789063 -0.14757812 2.01578125 -1.25390625 2.5390625 C-12.3967689 7.16475844 -12.3967689 7.16475844 -21 15 C-22.26600564 18.96844077 -22.67554891 22.85847724 -23 27 C-23.10828125 28.28390625 -23.2165625 29.5678125 -23.328125 30.890625 C-23.58726265 34.2594144 -23.81037559 37.62668157 -24 41 C-24.33 41 -24.66 41 -25 41 C-25.26260827 36.64698737 -25.42161414 32.29601643 -25.5625 27.9375 C-25.63791016 26.70837891 -25.71332031 25.47925781 -25.79101562 24.21289062 C-26.00737618 15.29402793 -26.00737618 15.29402793 -23.19824219 11.68554688 C-20.88657696 9.83347088 -18.61428378 8.38729495 -16 7 C-15.36940674 6.64703857 -14.73881348 6.29407715 -14.08911133 5.93041992 C-12.47202035 5.085664 -10.79858926 4.35142604 -9.125 3.625 C-8.03445313 3.14289063 -6.94390625 2.66078125 -5.8203125 2.1640625 C-3.90700959 1.3743613 -1.96364977 0.65454992 0 0 Z " fill="#D5ECF0" transform="translate(404,301)"/>
<path d="M0 0 C0.33 0.99 0.66 1.98 1 3 C-1.31 2.67 -3.62 2.34 -6 2 C-6.33 2.99 -6.66 3.98 -7 5 C-6.071875 5.12375 -5.14375 5.2475 -4.1875 5.375 C-1 6 -1 6 2 8 C1.125 12.875 1.125 12.875 0 14 C-2.67058851 14.14115161 -5.32432238 14.04247107 -8 14 C-8.66 12.68 -9.32 11.36 -10 10 C-5.545 10.99 -5.545 10.99 -1 12 C-1.33 11.01 -1.66 10.02 -2 9 C-3.7325 8.2884375 -3.7325 8.2884375 -5.5 7.5625 C-9 6 -9 6 -10.125 4 C-10 2 -10 2 -9 0.1875 C-5.90521904 -1.6500262 -3.40384837 -0.7064591 0 0 Z " fill="#FFE271" transform="translate(579,342)"/>
<path d="M0 0 C3.0625 0.375 3.0625 0.375 4.9375 2.375 C5.494375 3.365 5.494375 3.365 6.0625 4.375 C3.4225 4.045 0.7825 3.715 -1.9375 3.375 C-1.9375 4.035 -1.9375 4.695 -1.9375 5.375 C-0.803125 5.766875 0.33125 6.15875 1.5 6.5625 C5.0625 8.375 5.0625 8.375 6.125 10.9375 C6.0625 13.375 6.0625 13.375 4.0625 15.375 C1.37410615 15.64491906 -1.22891936 15.46237357 -3.9375 15.375 C-4.5975 14.055 -5.2575 12.735 -5.9375 11.375 C-1.4825 12.365 -1.4825 12.365 3.0625 13.375 C2.7325 12.385 2.4025 11.395 2.0625 10.375 C-1.44044871 8.65932339 -1.44044871 8.65932339 -4.9375 7.375 C-5.0625 5 -5.0625 5 -4.9375 2.375 C-2.9375 0.375 -2.9375 0.375 0 0 Z " fill="#FFE271" transform="translate(607.9375,340.625)"/>
<path d="M0 0 C3.0625 0.25 3.0625 0.25 6.0625 2.25 C6.0625 2.91 6.0625 3.57 6.0625 4.25 C3.4225 3.92 0.7825 3.59 -1.9375 3.25 C-1.9375 3.91 -1.9375 4.57 -1.9375 5.25 C-0.803125 5.641875 0.33125 6.03375 1.5 6.4375 C5.0625 8.25 5.0625 8.25 6.125 10.8125 C6.0625 13.25 6.0625 13.25 4.0625 15.25 C1.37410615 15.51991906 -1.22891936 15.33737357 -3.9375 15.25 C-4.5975 13.93 -5.2575 12.61 -5.9375 11.25 C-4.9475 11.25 -3.9575 11.25 -2.9375 11.25 C-2.9375 11.91 -2.9375 12.57 -2.9375 13.25 C-0.9575 12.92 1.0225 12.59 3.0625 12.25 C3.0625 11.59 3.0625 10.93 3.0625 10.25 C1.3609375 9.6621875 1.3609375 9.6621875 -0.375 9.0625 C-3.9375 7.25 -3.9375 7.25 -5 4.6875 C-4.9023955 0.88092457 -3.66453192 0.31187506 0 0 Z " fill="#FFE272" transform="translate(587.9375,340.75)"/>
<path d="M0 0 C4.55555556 0.55555556 4.55555556 0.55555556 6 2 C6.1875 5.4375 6.1875 5.4375 6 9 C4 11 4 11 1.375 11.125 C0.59125 11.08375 -0.1925 11.0425 -1 11 C-2.50662097 7.98675805 -2.17770373 5.31713623 -2 2 C-1.34 1.34 -0.68 0.68 0 0 Z " fill="#FFFCF3" transform="translate(525,343)"/>
<path d="M0 0 C2 2 2 2 2.1953125 5.0390625 C2.17210937 6.22242188 2.14890625 7.40578125 2.125 8.625 C2.10695313 9.81351562 2.08890625 11.00203125 2.0703125 12.2265625 C2.04710937 13.14179688 2.02390625 14.05703125 2 15 C1.34 15 0.68 15 0 15 C-0.33 11.04 -0.66 7.08 -1 3 C-2.65 3.33 -4.3 3.66 -6 4 C-6.33 7.63 -6.66 11.26 -7 15 C-7.66 15 -8.32 15 -9 15 C-9 10.38 -9 5.76 -9 1 C-5.66507467 0.16626867 -3.36512103 -0.26566745 0 0 Z " fill="#FFDF60" transform="translate(649,341)"/>
<path d="M0 0 C0.66 0 1.32 0 2 0 C2 0.99 2 1.98 2 3 C2.66 3 3.32 3 4 3 C4 3.66 4 4.32 4 5 C3.34 5 2.68 5 2 5 C2 8.63 2 12.26 2 16 C2.66 16 3.32 16 4 16 C4 16.66 4 17.32 4 18 C2.35 17.67 0.7 17.34 -1 17 C-1 13.37 -1 9.74 -1 6 C-1.66 6 -2.32 6 -3 6 C-3 5.01 -3 4.02 -3 3 C-2.34 3 -1.68 3 -1 3 C-0.67 2.01 -0.34 1.02 0 0 Z " fill="#FFE270" transform="translate(656,338)"/>
<path d="M0 0 C0.66 0 1.32 0 2 0 C2 0.99 2 1.98 2 3 C2.66 3 3.32 3 4 3 C4 3.66 4 4.32 4 5 C3.34 5 2.68 5 2 5 C2 8.63 2 12.26 2 16 C2.66 16 3.32 16 4 16 C4 16.66 4 17.32 4 18 C2.35 17.67 0.7 17.34 -1 17 C-1 13.37 -1 9.74 -1 6 C-1.66 6 -2.32 6 -3 6 C-3 5.01 -3 4.02 -3 3 C-2.34 3 -1.68 3 -1 3 C-0.67 2.01 -0.34 1.02 0 0 Z " fill="#FFE270" transform="translate(618,338)"/>
<path d="M0 0 C5.28 0 10.56 0 16 0 C16 0.66 16 1.32 16 2 C13.69 2 11.38 2 9 2 C9 7.61 9 13.22 9 19 C8.34 19 7.68 19 7 19 C7 13.39 7 7.78 7 2 C4.69 2 2.38 2 0 2 C0 1.34 0 0.68 0 0 Z " fill="#FFDF61" transform="translate(481,337)"/>
<path d="M0 0 C0.125 2.375 0.125 2.375 0 5 C-2 7 -2 7 -3.9453125 7.1953125 C-5.96354167 7.13020833 -7.98177083 7.06510417 -10 7 C-10.33 5.68 -10.66 4.36 -11 3 C-7.48550811 -0.37391222 -4.73940561 -0.27342725 0 0 Z " fill="#F4F4F4" transform="translate(558,306)"/>
<path d="M0 0 C-3.18637747 2.12425165 -4.83830281 2.42766857 -8.5625 2.9375 C-15.30054358 3.96783191 -21.55164891 5.85054964 -28 8 C-27.8203125 6.140625 -27.8203125 6.140625 -27 4 C-18.66027874 -0.80795318 -9.27642605 -0.45621767 0 0 Z " fill="#A0A0A0" transform="translate(420,292)"/>
<path d="M0 0 C4.29 0 8.58 0 13 0 C11 5 11 5 10 6 C6.625 6.3125 6.625 6.3125 3 6 C1.0625 4.125 1.0625 4.125 0 2 C0 1.34 0 0.68 0 0 Z " fill="#292929" transform="translate(362,281)"/>
<path d="M0 0 C0.99 0.33 1.98 0.66 3 1 C3.94921875 3.06640625 3.94921875 3.06640625 4.6875 5.5625 C4.93886719 6.38878906 5.19023438 7.21507812 5.44921875 8.06640625 C5.63097656 8.70449219 5.81273437 9.34257812 6 10 C5.01 10 4.02 10 3 10 C2.67 8.35 2.34 6.7 2 5 C-1.3 5 -4.6 5 -8 5 C-8.33 6.65 -8.66 8.3 -9 10 C-9.99 10 -10.98 10 -12 10 C-11.1875 6.5625 -11.1875 6.5625 -10 3 C-6.30581799 1.768606 -3.7943739 2.35567236 0 3 C0 2.01 0 1.02 0 0 Z " fill="#FFDE5D" transform="translate(562,346)"/>
<path d="M0 0 C0.99 0.33 1.98 0.66 3 1 C3.94921875 3.06640625 3.94921875 3.06640625 4.6875 5.5625 C4.93886719 6.38878906 5.19023437 7.21507812 5.44921875 8.06640625 C5.63097656 8.70449219 5.81273437 9.34257812 6 10 C5.01 10 4.02 10 3 10 C2.67 8.35 2.34 6.7 2 5 C-1.3 5 -4.6 5 -8 5 C-8.33 6.65 -8.66 8.3 -9 10 C-9.99 10 -10.98 10 -12 10 C-11.1875 6.5625 -11.1875 6.5625 -10 3 C-6.30581799 1.768606 -3.7943739 2.35567236 0 3 C0 2.01 0 1.02 0 0 Z " fill="#FFDE5D" transform="translate(460,346)"/>
<path d="M0 0 C0.99 0 1.98 0 3 0 C3 6.27 3 12.54 3 19 C2.01 19 1.02 19 0 19 C0 12.73 0 6.46 0 0 Z " fill="#FFE375" transform="translate(468,337)"/>
<path d="M0 0 C2.31 0 4.62 0 7 0 C7 0.99 7 1.98 7 3 C6.01 3.33 5.02 3.66 4 4 C3.67 7.63 3.34 11.26 3 15 C2.01 15 1.02 15 0 15 C0 10.05 0 5.1 0 0 Z " fill="#FFE47B" transform="translate(536,341)"/>
<path d="M0 0 C5.48076923 -0.36538462 5.48076923 -0.36538462 7.6875 1.1875 C9.45312631 3.62574585 9.30348915 5.21044507 9.1875 8.1875 C9.16042969 9.08855469 9.13335938 9.98960937 9.10546875 10.91796875 C9.07066406 11.60503906 9.03585937 12.29210937 9 13 C9.66 13 10.32 13 11 13 C11 13.66 11 14.32 11 15 C9.68 15 8.36 15 7 15 C7 14.34 7 13.68 7 13 C6.34 12.67 5.68 12.34 5 12 C5.33 11.34 5.66 10.68 6 10 C6.039992 8.00039988 6.04346799 5.99952758 6 4 C2.71303767 3.20046862 1.28976808 2.90341064 -2 4 C-1.34 2.68 -0.68 1.36 0 0 Z " fill="#FFE16B" transform="translate(627,341)"/>
<path d="M0 0 C-4.45161674 5.06563284 -9.96717995 8.9929287 -16 12 C-16.99 11.67 -17.98 11.34 -19 11 C-18.43410156 10.60167969 -17.86820312 10.20335937 -17.28515625 9.79296875 C-16.55167969 9.26316406 -15.81820313 8.73335938 -15.0625 8.1875 C-13.96615234 7.40439453 -13.96615234 7.40439453 -12.84765625 6.60546875 C-10.73116774 5.04132873 -10.73116774 5.04132873 -10 2 C-3.73913043 -1.24637681 -3.73913043 -1.24637681 0 0 Z " fill="#BFBFBF" transform="translate(393,298)"/>
<path d="M0 0 C2 2 2 2 2 5 C-1.96 5 -5.92 5 -10 5 C-9.67 3.68 -9.34 2.36 -9 1 C-5.98675805 -0.50662097 -3.31713623 -0.17770373 0 0 Z " fill="#F9F9F9" transform="translate(514,294)"/>
<path d="M0 0 C0.66 0 1.32 0 2 0 C2 1.32 2 2.64 2 4 C2.66 4.33 3.32 4.66 4 5 C3.34 5 2.68 5 2 5 C2 8.63 2 12.26 2 16 C2.99 16 3.98 16 5 16 C5 16.66 5 17.32 5 18 C3.35 18 1.7 18 0 18 C0 13.71 0 9.42 0 5 C-0.66 5 -1.32 5 -2 5 C-2 4.34 -2 3.68 -2 3 C-1.34 3 -0.68 3 0 3 C0 2.01 0 1.02 0 0 Z " fill="#FFDF63" transform="translate(514,338)"/>
<path d="M0 0 C0.99 0 1.98 0 3 0 C3 4.95 3 9.9 3 15 C2.01 15 1.02 15 0 15 C0 10.05 0 5.1 0 0 Z " fill="#FFE47B" transform="translate(597,341)"/>
<path d="M0 0 C8.51133938 4.52454642 8.51133938 4.52454642 11.3125 7.25 C15.74850593 10.138562 20.8114553 9.83449618 26 10 C26 10.33 26 10.66 26 11 C12.37142664 12.03362775 12.37142664 12.03362775 7.4375 8.25 C6.26979596 7.1902772 5.12175843 6.10824327 4 5 C3.01 4.21625 2.02 3.4325 1 2.625 C0.34 2.08875 -0.32 1.5525 -1 1 C-0.67 0.67 -0.34 0.34 0 0 Z " fill="#A4A4A4" transform="translate(350,300)"/>
<path d="M0 0 C8.91765652 0.23080993 16.70624517 3.00318992 25 6 C24.01 7.485 24.01 7.485 23 9 C21.4840625 8.13375 21.4840625 8.13375 19.9375 7.25 C13.67194754 4.07756838 6.78443515 2.66077319 0 1 C0 0.67 0 0.34 0 0 Z " fill="#D0D0D0" transform="translate(323,286)"/>
<path d="M0 0 C-3.3592628 1.83979185 -6.77082651 2.9148342 -10.4375 4 C-14.38054753 5.16966416 -18.20510312 6.4111086 -22 8 C-22.33 7.01 -22.66 6.02 -23 5 C-20.48283718 4.15389485 -17.96220727 3.32303233 -15.4375 2.5 C-14.73302734 2.26152344 -14.02855469 2.02304687 -13.30273438 1.77734375 C-8.67877023 0.28574241 -4.85697889 -0.25529455 0 0 Z " fill="#C8C8C8" transform="translate(415,286)"/>
<path d="M0 0 C13.6332574 -0.3690205 13.6332574 -0.3690205 20 2 C19.67 2.99 19.34 3.98 19 5 C12.73 3.68 6.46 2.36 0 1 C0 0.67 0 0.34 0 0 Z " fill="#9D9D9D" transform="translate(320,292)"/>
<path d="M0 0 C5.63228453 0.13410201 9.51164037 2.91282878 14 6 C12 7 12 7 8.7421875 6.00390625 C7.4502948 5.53110016 6.16131362 5.05028031 4.875 4.5625 C4.21628906 4.31951172 3.55757813 4.07652344 2.87890625 3.82617188 C1.25008662 3.22421679 -0.37529575 2.61297588 -2 2 C-1.34 1.34 -0.68 0.68 0 0 Z " fill="#424242" transform="translate(388,260)"/>
<path d="M0 0 C0.66 0.33 1.32 0.66 2 1 C0.90220176 2.15193623 -0.20349446 3.29634937 -1.3125 4.4375 C-1.92738281 5.07558594 -2.54226563 5.71367187 -3.17578125 6.37109375 C-5 8 -5 8 -8 9 C-8.66 8.01 -9.32 7.02 -10 6 C-8.3811004 4.96951963 -6.75467511 3.95085322 -5.125 2.9375 C-4.22007812 2.36902344 -3.31515625 1.80054688 -2.3828125 1.21484375 C-1.20332031 0.61349609 -1.20332031 0.61349609 0 0 Z " fill="#3C3C3C" transform="translate(393,230)"/>
<path d="M0 0 C4.30764815 1.56641751 8.06171464 3.68336156 12 6 C11.01 6.99 10.02 7.98 9 9 C7.68412059 7.87895467 6.37239647 6.75303035 5.0625 5.625 C4.33160156 4.99851563 3.60070312 4.37203125 2.84765625 3.7265625 C1 2 1 2 0 0 Z " fill="#3D3D3D" transform="translate(342,230)"/>
<path d="M0 0 C1.99097846 2.98646769 2.94124926 5.59687262 4 9 C3.01 9 2.02 9 1 9 C0.67 7.35 0.34 5.7 0 4 C-2.97 4 -5.94 4 -9 4 C-9 3.67 -9 3.34 -9 3 C-5.92382812 2.70703125 -5.92382812 2.70703125 -2.84765625 2.4140625 C-2.23792969 2.27742188 -1.62820313 2.14078125 -1 2 C-0.67 1.34 -0.34 0.68 0 0 Z " fill="#FFE47A" transform="translate(564,347)"/>
<path d="M0 0 C1.99097846 2.98646769 2.94124926 5.59687262 4 9 C3.01 9 2.02 9 1 9 C0.67 7.35 0.34 5.7 0 4 C-2.97 4 -5.94 4 -9 4 C-9 3.67 -9 3.34 -9 3 C-5.92382812 2.70703125 -5.92382812 2.70703125 -2.84765625 2.4140625 C-2.23792969 2.27742188 -1.62820313 2.14078125 -1 2 C-0.67 1.34 -0.34 0.68 0 0 Z " fill="#FFE47A" transform="translate(462,347)"/>
<path d="M0 0 C1.65 0 3.3 0 5 0 C4.67 1.65 4.34 3.3 4 5 C2.35 5 0.7 5 -1 5 C-0.67 3.35 -0.34 1.7 0 0 Z " fill="#FFFDF8" transform="translate(628,349)"/>
<path d="M0 0 C0.66 0 1.32 0 2 0 C2.66 2.31 3.32 4.62 4 7 C2.02 7 0.04 7 -2 7 C-1.34 4.69 -0.68 2.38 0 0 Z " fill="#FFFCF2" transform="translate(558,341)"/>
<path d="M0 0 C0.66 0 1.32 0 2 0 C2.66 2.31 3.32 4.62 4 7 C2.02 7 0.04 7 -2 7 C-1.34 4.69 -0.68 2.38 0 0 Z " fill="#FFFCF2" transform="translate(456,341)"/>
<path d="M0 0 C0.66 0.33 1.32 0.66 2 1 C2 1.66 2 2.32 2 3 C0.58521865 3.64995297 -0.83191487 4.29478722 -2.25 4.9375 C-3.43335938 5.47697266 -3.43335938 5.47697266 -4.640625 6.02734375 C-6.75823698 6.90033279 -8.76669362 7.51338508 -11 8 C-7.71644638 4.32241995 -4.37221763 2.18610882 0 0 Z " fill="#3F3F3F" transform="translate(396,292)"/>
<path d="M0 0 C0 0.99 0 1.98 0 3 C-2.97 2.67 -5.94 2.34 -9 2 C-6.98558063 -2.02883874 -3.72407517 -0.90585612 0 0 Z " fill="#FFFBED" transform="translate(633,344)"/>
<path d="M0 0 C2.875 -0.125 2.875 -0.125 6 0 C8 2 8 2 8.1953125 3.9453125 C8.13020833 5.96354167 8.06510417 7.98177083 8 10 C7.34 10 6.68 10 6 10 C5.67 7.69 5.34 5.38 5 3 C2.525 2.01 2.525 2.01 0 1 C0 0.67 0 0.34 0 0 Z " fill="#FFDE5D" transform="translate(525,342)"/>
<path d="M0 0 C0.66 0 1.32 0 2 0 C2.33 0.99 2.66 1.98 3 3 C4.65 3.33 6.3 3.66 8 4 C7.67 4.66 7.34 5.32 7 6 C5.02 6 3.04 6 1 6 C0.67 4.02 0.34 2.04 0 0 Z " fill="#FFE068" transform="translate(624,350)"/>
<path d="M0 0 C1.46109063 0.25554054 2.91888096 0.53000372 4.375 0.8125 C5.59316406 1.03873047 5.59316406 1.03873047 6.8359375 1.26953125 C9 2 9 2 11 5 C8.0644353 5 5.80814729 4.84244419 3 4 C1.1875 1.9375 1.1875 1.9375 0 0 Z " fill="#C3C3C3" transform="translate(345,297)"/>
<path d="M0 0 C0.66 0 1.32 0 2 0 C2 0.99 2 1.98 2 3 C2.66 3.33 3.32 3.66 4 4 C2.68 4 1.36 4 0 4 C0 4.66 0 5.32 0 6 C-0.99 6 -1.98 6 -3 6 C-3 5.01 -3 4.02 -3 3 C-2.34 3 -1.68 3 -1 3 C-0.67 2.01 -0.34 1.02 0 0 Z " fill="#FFE991" transform="translate(656,338)"/>
<path d="M0 0 C0.66 0 1.32 0 2 0 C2 0.99 2 1.98 2 3 C2.66 3.33 3.32 3.66 4 4 C2.68 4 1.36 4 0 4 C0 4.66 0 5.32 0 6 C-0.99 6 -1.98 6 -3 6 C-3 5.01 -3 4.02 -3 3 C-2.34 3 -1.68 3 -1 3 C-0.67 2.01 -0.34 1.02 0 0 Z " fill="#FFE991" transform="translate(618,338)"/>
<path d="M0 0 C0.99 0.33 1.98 0.66 3 1 C1.90554162 1.86657116 0.79902219 2.71792724 -0.3125 3.5625 C-0.92738281 4.03816406 -1.54226563 4.51382812 -2.17578125 5.00390625 C-2.77777344 5.33261719 -3.37976563 5.66132813 -4 6 C-4.99 5.67 -5.98 5.34 -7 5 C-5.90554162 4.13342884 -4.79902219 3.28207276 -3.6875 2.4375 C-3.07261719 1.96183594 -2.45773437 1.48617188 -1.82421875 0.99609375 C-1.22222656 0.66738281 -0.62023437 0.33867187 0 0 Z " fill="#B7B7B7" transform="translate(381,304)"/>
<path d="M0 0 C0.66 0.33 1.32 0.66 2 1 C1.67 2.98 1.34 4.96 1 7 C0.01 7 -0.98 7 -2 7 C-1.34 4.69 -0.68 2.38 0 0 Z " fill="#FFE26E" transform="translate(552,349)"/>
<path d="M0 0 C0.66 0.33 1.32 0.66 2 1 C1.67 2.98 1.34 4.96 1 7 C0.01 7 -0.98 7 -2 7 C-1.34 4.69 -0.68 2.38 0 0 Z " fill="#FFE26E" transform="translate(450,349)"/>
<path d="M0 0 C3.3 0 6.6 0 10 0 C7.08235 1.9451 5.37462715 2.45276317 2 3 C2 2.34 2 1.68 2 1 C1.34 0.67 0.68 0.34 0 0 Z " fill="#9E9E9E" transform="translate(401,293)"/>
</svg>
