<?xml version="1.0" encoding="UTF-8"?>
<svg version="1.1" xmlns="http://www.w3.org/2000/svg" width="500" height="221">
<path d="M0 0 C14.64268117 0.48472324 27.36873748 3.59538471 40.64453125 9.59375 C41.69511719 10.0578125 42.74570313 10.521875 43.828125 11 C52.17381482 14.90695492 60.1007634 20.04998215 66.64453125 26.59375 C70.0430182 26.26777268 71.65436962 24.8803585 74.01953125 22.53125 C86.77725283 11.02336066 104.92971141 4.10865725 121.65380859 0.97314453 C122.98552686 0.71934392 124.31195814 0.43611981 125.63134766 0.12451172 C130.44488014 -0.95271748 134.02371391 -1.21238239 138.64453125 0.59375 C144.41847493 6.48081183 149.43271451 15.15658368 149.828125 23.43969727 C149.72957191 27.35010326 149.22226096 31.13499104 148.5859375 34.99609375 C148.36296372 36.38627399 148.14023482 37.77649353 147.91772461 39.16674805 C147.80137665 39.88003265 147.68502869 40.59331726 147.56515503 41.32821655 C145.1977269 55.48645338 145.1977269 55.48645338 144.08203125 69.78125 C143.75163212 78.96634582 141.90171136 87.80194404 140.16308594 96.80859375 C139.31792276 101.34796361 138.60108515 105.90605897 137.89453125 110.46875 C137.7670752 111.28972168 137.63961914 112.11069336 137.50830078 112.95654297 C137.21816995 114.83527238 136.93098252 116.71445604 136.64453125 118.59375 C135.34 118.63113281 134.03546875 118.66851562 132.69140625 118.70703125 C114.87631471 119.32817046 97.15465172 121.77204331 83.64453125 134.59375 C83.22228271 135.27808105 82.80003418 135.96241211 82.36499023 136.66748047 C80.64453125 138.59375 80.64453125 138.59375 78.18017578 139.12719727 C75.04177901 139.16283087 71.90810258 139.18759883 68.76953125 139.15625 C67.68027344 139.18009766 66.59101562 139.20394531 65.46875 139.22851562 C57.44368325 139.21378172 57.44368325 139.21378172 53.69921875 136.30859375 C53.02117187 135.41269531 52.343125 134.51679688 51.64453125 133.59375 C36.79958524 120.51428333 19.49768409 119.26884106 0.64453125 118.59375 C-1.19049917 108.31237387 -2.97401769 98.02436387 -4.66796875 87.71875 C-5.06378426 85.31775921 -5.47832364 82.92487337 -5.91796875 80.53125 C-7.18761179 73.54821329 -7.87718811 66.56921599 -8.44311523 59.5 C-8.91314193 54.04864466 -9.65285461 48.73266478 -10.65234375 43.3515625 C-14.92387788 19.5758682 -14.92387788 19.5758682 -7.5390625 8.5625 C-6.45818359 7.09296875 -6.45818359 7.09296875 -5.35546875 5.59375 C-4.8759375 4.645 -4.39640625 3.69625 -3.90234375 2.71875 C-2.35546875 0.59375 -2.35546875 0.59375 0 0 Z " fill="#F8FBFB" transform="translate(24.35546875,81.40625)"/>
<path d="M0 0 C14.64268117 0.48472324 27.36873748 3.59538471 40.64453125 9.59375 C41.69511719 10.0578125 42.74570313 10.521875 43.828125 11 C52.17381482 14.90695492 60.1007634 20.04998215 66.64453125 26.59375 C70.0430182 26.26777268 71.65436962 24.8803585 74.01953125 22.53125 C86.77725283 11.02336066 104.92971141 4.10865725 121.65380859 0.97314453 C122.98552686 0.71934392 124.31195814 0.43611981 125.63134766 0.12451172 C130.44488014 -0.95271748 134.02371391 -1.21238239 138.64453125 0.59375 C144.41232573 6.47454215 149.43150227 15.14903621 149.828125 23.42431641 C149.72746295 27.41799369 149.21362607 31.29579167 148.5859375 35.2421875 C148.47732895 35.93962067 148.3687204 36.63705383 148.25682068 37.35562134 C147.91260065 39.56094126 147.5603777 41.76487563 147.20703125 43.96875 C146.74637182 46.87183406 146.28971622 49.77552031 145.8359375 52.6796875 C145.72706207 53.37149109 145.61818665 54.06329468 145.50601196 54.77606201 C144.77990558 59.4721566 144.2298835 64.15541248 143.87084961 68.89306641 C143.64453125 70.59375 143.64453125 70.59375 142.64453125 71.59375 C142.34989742 73.00565865 142.08362471 74.4235402 141.83203125 75.84375 C140.93948902 80.06001292 139.53819222 82.34934224 136.64453125 85.59375 C135.60001687 87.57086651 134.58754987 89.56625996 133.64453125 91.59375 C132.27216185 87.47664181 133.14667693 83.90639162 133.7890625 79.7109375 C133.91891037 78.82326691 134.04875824 77.93559631 134.18254089 77.02102661 C134.60077524 74.16924876 135.02841197 71.31898387 135.45703125 68.46875 C136.0086689 64.75831857 136.55622795 61.04730027 137.1015625 57.3359375 C137.23490997 56.43164001 137.36825745 55.52734253 137.50564575 54.59564209 C138.71847059 46.27995833 139.72300961 37.94620644 140.64453125 29.59375 C122.5235207 30.84663606 109.00523976 34.47706517 92.96484375 43.05859375 C92.27664551 43.425896 91.58844727 43.79319824 90.87939453 44.17163086 C89.77313721 44.87557983 89.77313721 44.87557983 88.64453125 45.59375 C87.05753418 46.4614502 87.05753418 46.4614502 85.43847656 47.34667969 C82.19984363 50.13859249 82.095313 52.88557238 81.77978516 57.03637695 C81.69678385 59.72203184 81.64488438 62.39635228 81.62109375 65.08203125 C81.58738248 66.50984346 81.55107951 67.93759664 81.51229858 69.36528015 C81.41746887 73.11167951 81.35774594 76.85783963 81.30541992 80.6050415 C81.24571854 84.43313875 81.15269029 88.26041183 81.0625 92.08789062 C80.89063085 99.58943398 80.75585809 107.09103796 80.64453125 114.59375 C78.66453125 114.92375 76.68453125 115.25375 74.64453125 115.59375 C74.52136954 94.22993092 74.73127971 72.94100486 75.64453125 51.59375 C71.02453125 51.59375 66.40453125 51.59375 61.64453125 51.59375 C61.64453125 72.71375 61.64453125 93.83375 61.64453125 115.59375 C59.66453125 115.26375 57.68453125 114.93375 55.64453125 114.59375 C55.49883579 108.71207067 55.35661793 102.83031983 55.21728516 96.94848633 C55.16968117 94.95790474 55.12121313 92.96734358 55.07177734 90.97680664 C54.72989391 77.17936794 54.58025042 63.39538065 54.64453125 49.59375 C54.03279053 49.29500977 53.4210498 48.99626953 52.79077148 48.68847656 C50.29244221 47.41416096 48.03945116 45.90103487 45.70703125 44.34375 C29.63232167 34.06963469 14.28115605 31.11918718 -4.35546875 29.59375 C-4.24734863 30.27695313 -4.13922852 30.96015625 -4.02783203 31.6640625 C-2.46789772 41.65275139 -1.04480845 51.65971251 0.35888672 61.67138672 C0.63469281 63.63416851 0.91205935 65.5967316 1.19091797 67.55908203 C1.59806938 70.42434478 2.00072365 73.29020735 2.40234375 76.15625 C2.52731232 77.03023438 2.65228088 77.90421875 2.78103638 78.8046875 C3.33095244 82.7647458 3.80752465 86.58349717 3.64453125 90.59375 C1.55993788 87.84333128 -0.46569379 85.06477744 -2.41796875 82.21875 C-2.92457031 81.48914063 -3.43117188 80.75953125 -3.953125 80.0078125 C-7.21866832 74.38634795 -7.75928252 68.869131 -8.23046875 62.53125 C-8.72796739 56.05153407 -9.463922 49.72136268 -10.65234375 43.328125 C-14.92972343 19.58458599 -14.92972343 19.58458599 -7.5390625 8.5625 C-6.45818359 7.09296875 -6.45818359 7.09296875 -5.35546875 5.59375 C-4.8759375 4.645 -4.39640625 3.69625 -3.90234375 2.71875 C-2.35546875 0.59375 -2.35546875 0.59375 0 0 Z " fill="#1E2020" transform="translate(24.35546875,81.40625)"/>
<path d="M0 0 C21.00507362 -0.54740495 37.7245057 5.43829496 55 17 C55.69649658 17.3393457 56.39299316 17.67869141 57.1105957 18.02832031 C60.19793341 21.25009824 59.67881677 24.92603828 59.74609375 29.23046875 C59.77481064 30.15820602 59.80352753 31.0859433 59.83311462 32.04179382 C59.91538128 35.02799702 59.96354773 38.01290231 60 41 C60.01218567 41.96891174 60.02437134 42.93782349 60.03692627 43.93609619 C60.10687606 50.72863425 60.09250365 57.51978773 60.0625 64.3125 C60.05746455 66.33658741 60.05290533 68.36067606 60.04882812 70.38476562 C60.03800835 75.25654217 60.02086194 80.12825654 60 85 C55.545 85.495 55.545 85.495 51 86 C50.34 84.68 49.68 83.36 49 82 C46.91275267 80.48828044 46.91275267 80.48828044 44.5 79.3125 C43.7059375 78.89613281 42.911875 78.47976562 42.09375 78.05078125 C37.57273975 75.7818414 34.06753452 75.46927848 29 76 C27.9275 76.53625 26.855 77.0725 25.75 77.625 C23 79 23 79 20.625 78.4375 C19.75875 77.963125 18.8925 77.48875 18 77 C17.34515625 76.79761719 16.6903125 76.59523438 16.015625 76.38671875 C13.58533453 75.52192561 11.95276893 74.69861245 10 73 C7.38177617 67.34356421 7.00761264 61.32527665 6.58984375 55.18359375 C5.98884545 46.89076274 4.73713991 38.7165096 3.5 30.5 C1.96966865 20.33624882 0.60303382 10.26957591 0 0 Z " fill="#01D6FA" transform="translate(20,111)"/>
<path d="M0 0 C0.66 0 1.32 0 2 0 C2.66 3.63 3.32 7.26 4 11 C6.31 11.66 8.62 12.32 11 13 C12.12812303 11.89902432 13.25237811 10.79408444 14.375 9.6875 C15.00148438 9.07261719 15.62796875 8.45773437 16.2734375 7.82421875 C18.18086607 5.91187472 18.18086607 5.91187472 20 3 C20.66 3 21.32 3 22 3 C21.54227414 6.11253583 20.86549083 8.25349805 19.375 11.0625 C17.76022498 13.82564816 17.76022498 13.82564816 18.3125 16.375 C18.539375 16.91125 18.76625 17.4475 19 18 C21.29543427 18.78821819 22.58008982 19.13558044 24.92285156 18.37915039 C25.5722168 18.03875732 26.22158203 17.69836426 26.890625 17.34765625 C27.59960938 16.98349609 28.30859375 16.61933594 29.0390625 16.24414062 C29.76867187 15.85419922 30.49828125 15.46425781 31.25 15.0625 C31.99507813 14.67642578 32.74015625 14.29035156 33.5078125 13.89257812 C35.34414394 12.93909834 37.17284207 11.97094323 39 11 C37.07047929 15.9186048 33.02827828 18.45977621 29.01953125 21.68359375 C26.70722808 23.8066461 26.70722808 23.8066461 27.07421875 26.53515625 C28.06582556 29.3052623 28.06582556 29.3052623 30 33 C37.92 33.33 45.84 33.66 54 34 C51.62346092 36.37653908 50.46764109 36.48175161 47.2109375 37.0703125 C46.26992187 37.24433594 45.32890625 37.41835938 44.359375 37.59765625 C43.37453125 37.77167969 42.3896875 37.94570313 41.375 38.125 C40.38242188 38.30675781 39.38984375 38.48851562 38.3671875 38.67578125 C35.91272771 39.12419217 33.45651761 39.56300291 31 40 C30.67 43.63 30.34 47.26 30 51 C31.02480469 51.61488281 32.04960938 52.22976562 33.10546875 52.86328125 C38.73697917 56.2421875 44.36848958 59.62109375 50 63 C49.67 63.66 49.34 64.32 49 65 C48.07719238 64.6740686 48.07719238 64.6740686 47.13574219 64.34155273 C44.3442177 63.36251845 41.54730852 62.39987678 38.75 61.4375 C37.78191406 61.09525391 36.81382813 60.75300781 35.81640625 60.40039062 C34.88183594 60.08134766 33.94726562 59.76230469 32.984375 59.43359375 C32.12553711 59.13509521 31.26669922 58.83659668 30.38183594 58.52905273 C27.77043869 57.94900991 26.46626678 58.00807507 24 59 C22.31237149 60.6454378 20.6459651 62.31288577 19 64 C17.68724216 64.7063208 16.35660164 65.38205646 15 66 C15.08121094 67.08539063 15.16242188 68.17078125 15.24609375 69.2890625 C15.84363187 80.66878519 15.84363187 80.66878519 13.546875 84.29296875 C11.76562241 85.74865626 9.99299927 86.86053361 8 88 C5.37591332 90.37177065 3.74553438 92.92453466 2 96 C0.68 95.34 -0.64 94.68 -2 94 C-2 93.34 -2 92.68 -2 92 C-3.66215268 90.66104368 -5.32963607 89.32869858 -7 88 C-8.34736973 86.34466005 -9.68334336 84.67987227 -11 83 C-11.99 82.505 -11.99 82.505 -13 82 C-13.07418316 79.64691021 -13.08337438 77.2916663 -13.0625 74.9375 C-13.15319248 70.74929163 -13.43884242 67.73545653 -16.0625 64.296875 C-18.50785111 62.17259754 -18.50785111 62.17259754 -21.06640625 60.41796875 C-21.70449219 59.95003906 -22.34257813 59.48210938 -23 59 C-23 58.34 -23 57.68 -23 57 C-23.71655762 57.24758057 -24.43311523 57.49516113 -25.17138672 57.75024414 C-28.40331605 58.86208868 -31.63904737 59.96242303 -34.875 61.0625 C-36.00292969 61.45244141 -37.13085938 61.84238281 -38.29296875 62.24414062 C-39.90751953 62.79038086 -39.90751953 62.79038086 -41.5546875 63.34765625 C-42.54968262 63.68804932 -43.54467773 64.02844238 -44.56982422 64.37915039 C-47 65 -47 65 -49 64 C-46.4378513 62.39526997 -43.87529445 60.79119818 -41.3125 59.1875 C-40.59126953 58.73568359 -39.87003906 58.28386719 -39.12695312 57.81835938 C-38.42119141 57.37685547 -37.71542969 56.93535156 -36.98828125 56.48046875 C-35.96081787 55.81797119 -35.96081787 55.81797119 -34.91259766 55.14208984 C-33 54 -33 54 -29.98046875 52.86328125 C-27.73022998 51.14819112 -27.73022998 51.14819112 -27.70043945 48.37182617 C-27.68855808 45.56266552 -27.78605088 42.80035628 -28 40 C-28.65597168 39.88930176 -29.31194336 39.77860352 -29.98779297 39.66455078 C-32.95167151 39.15962483 -35.91328765 38.6424739 -38.875 38.125 C-39.90753906 37.95097656 -40.94007812 37.77695312 -42.00390625 37.59765625 C-42.99003906 37.42363281 -43.97617187 37.24960937 -44.9921875 37.0703125 C-45.90339355 36.91320801 -46.81459961 36.75610352 -47.75341797 36.59423828 C-50 36 -50 36 -52 34 C-44.08 33.67 -36.16 33.34 -28 33 C-24.7763932 27.67082039 -24.7763932 27.67082039 -25 24 C-26.59708116 22.29865993 -26.59708116 22.29865993 -28.6875 20.6875 C-32.2616422 17.70375784 -35.13964641 14.66482803 -38 11 C-33.70939633 12.15962261 -30.28485152 13.9883834 -26.5 16.25 C-22.20907432 18.75472086 -22.20907432 18.75472086 -17.3125 18.375 C-16.549375 17.92125 -15.78625 17.4675 -15 17 C-15.37253906 16.24074219 -15.74507812 15.48148438 -16.12890625 14.69921875 C-16.60199219 13.70535156 -17.07507813 12.71148437 -17.5625 11.6875 C-18.03816406 10.70136719 -18.51382813 9.71523437 -19.00390625 8.69921875 C-20 6 -20 6 -19 3 C-18.35933594 3.73347656 -17.71867187 4.46695312 -17.05859375 5.22265625 C-16.19363281 6.15980469 -15.32867187 7.09695313 -14.4375 8.0625 C-13.59058594 9.00222656 -12.74367187 9.94195312 -11.87109375 10.91015625 C-9.07306323 13.40655742 -9.07306323 13.40655742 -5.16015625 12.80859375 C-4.11730469 12.54175781 -3.07445312 12.27492188 -2 12 C-1.34 8.04 -0.68 4.08 0 0 Z " fill="#1C201C" transform="translate(91,3)"/>
<path d="M0 0 C-0.49630953 12.9810613 -2.07009241 25.66113116 -4 38.5 C-4.41279037 41.28875747 -4.8234919 44.07781099 -5.23291016 46.86706543 C-5.4853969 48.58267042 -5.74010505 50.29795071 -5.99755859 52.01281738 C-6.69376643 56.69301456 -7.28745581 61.36986638 -7.76855469 66.07727051 C-8.09668801 68.80323465 -8.46284996 70.69427494 -10 73 C-13.4375 74.1875 -13.4375 74.1875 -17 75 C-17.99 75.66 -18.98 76.32 -20 77 C-21.75 76.75 -21.75 76.75 -24 76 C-29.04741951 74.44694784 -33.76933014 73.55059683 -39 73 C-39 73.66 -39 74.32 -39 75 C-39.62648438 75.17015625 -40.25296875 75.3403125 -40.8984375 75.515625 C-42.12433594 75.87914062 -42.12433594 75.87914062 -43.375 76.25 C-44.18710938 76.48203125 -44.99921875 76.7140625 -45.8359375 76.953125 C-48.49968494 78.24172484 -48.89036764 79.32443787 -50 82 C-52 84 -52 84 -55.625 84.125 C-56.73875 84.08375 -57.8525 84.0425 -59 84 C-59.17013012 71.8236668 -58.83256997 59.79752962 -57.828125 47.66088867 C-57.62141383 45.14383239 -57.43123399 42.62586044 -57.2421875 40.10742188 C-57.11294597 38.48169369 -56.98277372 36.85603915 -56.8515625 35.23046875 C-56.79626373 34.48983688 -56.74096497 33.74920502 -56.68399048 32.98612976 C-56.17637308 27.06354284 -55.495186 21.68794036 -50.8125 17.6875 C-45.71663254 13.47541767 -39.99617906 10.22731132 -34.29296875 6.91796875 C-32.15775708 5.67432826 -30.05598441 4.37065628 -28 3 C-18.65871012 -0.11376329 -9.73842899 -0.11052766 0 0 Z " fill="#03D6FA" transform="translate(165,111)"/>
<path d="M0 0 C1.14984375 0.02449219 2.2996875 0.04898438 3.484375 0.07421875 C6.25 0.3125 6.25 0.3125 7.25 1.3125 C7.48287008 2.99433948 7.66264166 4.6837416 7.8125 6.375 C7.93818359 7.75365234 7.93818359 7.75365234 8.06640625 9.16015625 C8.12699219 9.87042969 8.18757813 10.58070312 8.25 11.3125 C11.96256344 12.55002115 15.00596453 12.20460346 18.875 11.95703125 C21.25 12.3125 21.25 12.3125 22.9609375 13.9375 C24.49147963 16.75740792 25.18107881 19.36972912 25.875 22.5 C26.4457186 26.21358369 26.4457186 26.21358369 28.25 29.3125 C29.9 24.0325 31.55 18.7525 33.25 13.3125 C37.87 13.3125 42.49 13.3125 47.25 13.3125 C46.4381072 20.53401194 43.99786394 26.90543193 41.37719727 33.64575195 C40.56802765 35.73572285 39.78059527 37.83303424 38.99414062 39.93164062 C35.8721003 48.11389617 32.8108985 55.6681457 25.80078125 61.26953125 C22.61950538 62.57029795 19.86466374 62.82691092 16.4375 63 C14.69533203 63.09861328 14.69533203 63.09861328 12.91796875 63.19921875 C12.03753906 63.23660156 11.15710938 63.27398437 10.25 63.3125 C7.94096728 59.32897791 8.38483472 56.81135947 9.25 52.3125 C11.89 51.9825 14.53 51.6525 17.25 51.3125 C19.21695887 45.4116234 16.04948411 39.64132595 13.9375 34.0625 C13.64166016 33.23492187 13.34582031 32.40734375 13.04101562 31.5546875 C12.74259766 30.76835938 12.44417969 29.98203125 12.13671875 29.171875 C11.87076904 28.45483398 11.60481934 27.73779297 11.33081055 26.99902344 C10.373806 25.15910384 10.373806 25.15910384 8.38208008 24.50878906 C5.9119044 24.16295239 5.9119044 24.16295239 2.25 25.3125 C1.92 33.2325 1.59 41.1525 1.25 49.3125 C-9.58984375 49.41015625 -9.58984375 49.41015625 -12.75 49.3125 C-13.75 48.3125 -13.75 48.3125 -13.86352539 45.99584961 C-13.85828857 44.99561768 -13.85305176 43.99538574 -13.84765625 42.96484375 C-13.84443359 41.88525391 -13.84121094 40.80566406 -13.83789062 39.69335938 C-13.82951172 38.55705078 -13.82113281 37.42074219 -13.8125 36.25 C-13.80798828 35.10982422 -13.80347656 33.96964844 -13.79882812 32.79492188 C-13.78699747 29.96739649 -13.7705141 27.1399736 -13.75 24.3125 C-15.07 24.3125 -16.39 24.3125 -17.75 24.3125 C-19.03571429 16.88392857 -19.03571429 16.88392857 -17.75 13.3125 C-17.09 13.3125 -16.43 13.3125 -15.75 13.3125 C-14.63317206 11.15861755 -13.68932258 9.12580025 -12.9375 6.8125 C-10.16803663 0.98205079 -6.1354445 -0.20127589 0 0 Z " fill="#010104" transform="translate(435.75,60.6875)"/>
<path d="M0 0 C6.61222328 3.85599879 11.57113386 9.0037214 13.75 16.4375 C14.86688064 24.03228836 12.64411645 29.90757861 8.58203125 36.265625 C5.80378495 39.9699534 3.21229952 41.39975592 -1.25 42.4375 C-1.25 45.0775 -1.25 47.7175 -1.25 50.4375 C-6.53 50.4375 -11.81 50.4375 -17.25 50.4375 C-17.58 48.1275 -17.91 45.8175 -18.25 43.4375 C-20.97689447 41.34106987 -20.97689447 41.34106987 -24.25 39.4375 C-29.43233124 34.37710596 -32.51644184 29.61287807 -32.625 22.1875 C-32.47770722 15.74993894 -31.01368141 10.4956172 -26.63671875 5.65234375 C-19.00650977 -1.2334546 -9.86749221 -4.45380971 0 0 Z " fill="#F7A726" transform="translate(101.25,22.5625)"/>
<path d="M0 0 C2.3565565 1.94415911 3.64918923 3.29837846 5 6 C5.19904526 9.62704691 5.34620871 13.24757893 5.4296875 16.87890625 C5.51397432 18.9263737 5.74786285 20.96636924 6 23 C6.99 23.66 7.98 24.32 9 25 C9.70052461 27.663063 9.77744818 30.24035737 10 33 C3.64042638 35.25234899 -0.91263487 35.12402541 -7.5 33.3125 C-10.54941088 32.93132364 -12.89416692 33.76585699 -15.8203125 34.56640625 C-20.36646484 35.47074838 -24.67909675 35.06275447 -28.90234375 33.12890625 C-31.37086484 31.45031191 -32.83038342 29.78023627 -33.46875 26.84375 C-33.65807151 22.11071223 -33.02137696 18.77672119 -30 15 C-28.70420353 13.63015802 -27.38007251 12.2848951 -26 11 C-28.97 10.505 -28.97 10.505 -32 10 C-31.77135767 6.03686632 -31.6254271 3.70123645 -28.9375 0.6875 C-19.9170555 -4.49445748 -9.30616776 -4.41996344 0 0 Z M-18 8 C-18 8.99 -18 9.98 -18 11 C-16.02 11 -14.04 11 -12 11 C-12 9.68 -12 8.36 -12 7 C-15.7763932 6.7018576 -15.7763932 6.7018576 -18 8 Z M-19 22 C-18.67 22.99 -18.34 23.98 -18 25 C-14.535 24.505 -14.535 24.505 -11 24 C-10.67 22.35 -10.34 20.7 -10 19 C-14.09590633 18.65867447 -15.92807025 19.26939578 -19 22 Z " fill="#010103" transform="translate(312,76)"/>
<path d="M0 0 C3.58707524 3.10679739 6.27936316 6.22578092 7 11 C7 13.64 7 16.28 7 19 C-5.375 19.495 -5.375 19.495 -18 20 C-17.67 20.99 -17.34 21.98 -17 23 C-12.38492226 24.04214691 -12.38492226 24.04214691 -8 23 C-7.67 22.01 -7.34 21.02 -7 20 C-2.38 20 2.24 20 7 20 C6.74986131 24.2523578 6.43113402 26.47564781 3.6875 29.8125 C-2.11629124 34.53651613 -7.64540955 34.91492119 -15 35 C-20.43344519 34.43138364 -24.81227233 32.52149827 -29 29 C-33.69724138 23.06664246 -33.83496759 17.40131764 -33 10 C-31.29472417 4.78943495 -28.48015417 2.10164519 -24 -1 C-15.97392965 -4.12124958 -7.66016293 -4.04207859 0 0 Z M-16 7 C-16.66 8.32 -17.32 9.64 -18 11 C-15.36 11 -12.72 11 -10 11 C-10.33 9.68 -10.66 8.36 -11 7 C-12.65 7 -14.3 7 -16 7 Z " fill="#010103" transform="translate(269,76)"/>
<path d="M0 0 C0.69738281 0.09667969 1.39476562 0.19335938 2.11328125 0.29296875 C4 0.625 4 0.625 6.1875 1.3125 C8.11625322 1.82055818 8.11625322 1.82055818 10.1875 0.625 C15.22048425 -1.16450551 20.1337848 -0.20884083 24.9375 1.9375 C27.97248918 4.42067297 28.86833498 6.52625496 29.3347168 10.41821289 C29.37250244 11.4674292 29.41028809 12.51664551 29.44921875 13.59765625 C29.49240234 14.74427734 29.53558594 15.89089844 29.58007812 17.07226562 C29.61552734 18.26529297 29.65097656 19.45832031 29.6875 20.6875 C29.73455078 21.88439453 29.78160156 23.08128906 29.83007812 24.31445312 C30.1357103 33.2178691 30.1357103 33.2178691 29 36.625 C24.38 36.625 19.76 36.625 15 36.625 C14.27412466 32.99562331 13.87920141 30.34878217 13.90234375 26.76171875 C13.90556641 25.87548828 13.90878906 24.98925781 13.91210938 24.07617188 C13.92048828 23.16416016 13.92886719 22.25214844 13.9375 21.3125 C13.94201172 20.38115234 13.94652344 19.44980469 13.95117188 18.49023438 C13.96290766 16.20175627 13.97932637 13.91341192 14 11.625 C12.02 11.625 10.04 11.625 8 11.625 C7.83031334 14.29150463 7.66418179 16.95815526 7.5 19.625 C7.42845703 20.74068359 7.42845703 20.74068359 7.35546875 21.87890625 C7.05564256 26.80462224 6.95513771 31.69014776 7 36.625 C2.05 36.625 -2.9 36.625 -8 36.625 C-8 24.745 -8 12.865 -8 0.625 C-4.60184958 -0.22453761 -3.24396722 -0.46885464 0 0 Z " fill="#010103" transform="translate(364,73.375)"/>
<path d="M0 0 C5.28 0 10.56 0 16 0 C16 10.89 16 21.78 16 33 C23.19522782 32.9604134 23.19522782 32.9604134 30.39038086 32.90991211 C31.28120361 32.90741455 32.17202637 32.90491699 33.08984375 32.90234375 C34.00628662 32.89710693 34.92272949 32.89187012 35.86694336 32.88647461 C38 33 38 33 39 34 C39.09851171 35.83115883 39.12972629 37.66619933 39.125 39.5 C39.12886719 41.00046875 39.12886719 41.00046875 39.1328125 42.53125 C39 45 39 45 38 46 C35.27275721 46.10099488 32.57137477 46.13970529 29.84375 46.1328125 C28.61754944 46.13424759 28.61754944 46.13424759 27.36657715 46.13571167 C25.63484622 46.13639345 23.90311276 46.13453929 22.17138672 46.13037109 C19.51133518 46.12502279 16.8514525 46.13031612 14.19140625 46.13671875 C12.51302046 46.13605797 10.83463477 46.1347768 9.15625 46.1328125 C8.35521851 46.13483673 7.55418701 46.13686096 6.72888184 46.13894653 C1.11495079 46.11495079 1.11495079 46.11495079 0 45 C-0.0928726 43.58774954 -0.11746772 42.17091066 -0.11352539 40.75561523 C-0.11344986 39.85475693 -0.11337433 38.95389862 -0.11329651 38.02574158 C-0.10813522 37.04658279 -0.10297394 36.06742401 -0.09765625 35.05859375 C-0.0962413 34.06118668 -0.09482635 33.0637796 -0.09336853 32.03614807 C-0.08775114 28.83656876 -0.07519571 25.63705831 -0.0625 22.4375 C-0.05748724 20.27408955 -0.05292395 18.11067801 -0.04882812 15.94726562 C-0.03777606 10.63148371 -0.02049979 5.31575354 0 0 Z " fill="#000102" transform="translate(195,64)"/>
<path d="M0 0 C18.38667596 -1.55745961 39.78108484 7.85062781 54 19 C57.79002978 22.20305744 61.42143099 25.56231954 65 29 C65.94875 28.175 66.8975 27.35 67.875 26.5 C68.52339844 25.95085937 69.17179687 25.40171875 69.83984375 24.8359375 C71.28428323 23.60829454 72.71408209 22.36322221 74.12890625 21.1015625 C88.94132898 8.41952206 111.38327698 -1.1717954 131 0 C131 0.33 131 0.66 131 1 C129.83984375 1.23074219 128.6796875 1.46148437 127.484375 1.69921875 C112.0580301 4.87026324 99.98918873 10.18041771 87 19 C88.02738281 18.52949219 89.05476563 18.05898437 90.11328125 17.57421875 C105.98830387 10.38716305 118.55517258 8.54985558 136 9 C136 9.33 136 9.66 136 10 C134.36804688 10.16435547 134.36804688 10.16435547 132.703125 10.33203125 C113.06880319 12.4002187 92.46774544 17.92597284 77.7734375 32.15625 C71.80103273 36.1266374 62.85500188 35.26796836 56 34 C52.97517403 32.44025981 51.04982023 30.73397585 48.62890625 28.359375 C34.09471098 15.31531267 13.77672099 11.35418763 -5 10 C-5 9.67 -5 9.34 -5 9 C10.38581641 4.89711563 26.01788919 11.01278845 40 17 C40.99 17.33 41.98 17.66 43 18 C29.18172779 9.01812307 16.13017055 4.2081117 0 1 C0 0.67 0 0.34 0 0 Z " fill="#F5F5F6" transform="translate(27,92)"/>
<path d="M0 0 C4.62 0 9.24 0 14 0 C14.06126636 8.9108515 14.06455399 17.82020658 14.01245117 26.73101807 C14.00401467 28.26840505 13.9970615 29.80580077 13.99145508 31.34320068 C13.9733655 36.11897208 13.92764984 40.89317607 13.84640503 45.66830444 C13.8238777 47.21753973 13.80992341 48.76692438 13.80471802 50.3163147 C13.79550162 52.50360318 13.75495261 54.68826187 13.70703125 56.875 C13.6913208 58.13054687 13.67561035 59.38609375 13.65942383 60.6796875 C12.83708011 64.82032968 11.18618815 66.33423209 8 69 C2.25 67.375 2.25 67.375 0 64 C-0.24050903 61.20954895 -0.24050903 61.20954895 -0.22705078 57.78442383 C-0.22689972 56.5033223 -0.22674866 55.22222076 -0.22659302 53.90229797 C-0.21637973 52.50387416 -0.20594774 51.10545192 -0.1953125 49.70703125 C-0.19158178 48.27642515 -0.18873509 46.84581648 -0.18673706 45.41520691 C-0.17910522 41.65207856 -0.15946069 37.88910489 -0.1373291 34.1260376 C-0.11686094 30.28521822 -0.10773327 26.44437383 -0.09765625 22.60351562 C-0.07621427 15.06893178 -0.0410359 7.53450728 0 0 Z " fill="#07CEF0" transform="translate(86,133)"/>
<path d="M0 0 C1 1 1 1 1.09765625 3.72265625 C1.08605469 4.82480469 1.07445312 5.92695312 1.0625 7.0625 C1.05347656 8.16722656 1.04445313 9.27195312 1.03515625 10.41015625 C1.02355469 11.26480469 1.01195312 12.11945313 1 13 C-2 14 -2 14 -4.5625 14.5 C-6.99414942 14.88942398 -6.99414942 14.88942398 -9 16 C-9.33 22.93 -9.66 29.86 -10 37 C-14.95 37 -19.9 37 -25 37 C-25 25.12 -25 13.24 -25 1 C-19.72 1 -14.44 1 -9 1 C-6.01787087 -0.49106457 -3.28390342 -0.11941467 0 0 Z " fill="#010102" transform="translate(349,73)"/>
<path d="M0 0 C1.1859375 0.00257812 2.371875 0.00515625 3.59375 0.0078125 C4.7796875 0.00523438 5.965625 0.00265625 7.1875 0 C10.09375 0.1328125 10.09375 0.1328125 11.09375 1.1328125 C11.1666214 4.14331211 11.08992197 7.14173813 11.03125 10.15234375 C10.96572795 12.95843066 10.96572795 12.95843066 11.5871582 14.88891602 C12.70366959 19.83438885 12.27964305 25.08540844 12.27905273 30.14208984 C12.28124987 32.25768845 12.29945777 34.37277407 12.31835938 36.48828125 C12.32129162 37.83072739 12.32327754 39.17317599 12.32421875 40.515625 C12.32832764 41.73652832 12.33243652 42.95743164 12.33666992 44.21533203 C12.09375 47.1328125 12.09375 47.1328125 10.09375 49.1328125 C7.0546875 49.328125 7.0546875 49.328125 3.46875 49.2578125 C1.68597656 49.23074219 1.68597656 49.23074219 -0.1328125 49.203125 C-1.50566406 49.16832031 -1.50566406 49.16832031 -2.90625 49.1328125 C-3.07407542 42.3153418 -3.23403898 35.49771979 -3.38842773 28.67993164 C-3.44193563 26.35859966 -3.49727145 24.03730908 -3.55444336 21.71606445 C-3.63610982 18.38762343 -3.71129119 15.05909087 -3.78515625 11.73046875 C-3.81219131 10.68568863 -3.83922638 9.64090851 -3.86708069 8.56446838 C-3.88717697 7.60354782 -3.90727325 6.64262726 -3.92797852 5.65258789 C-3.94796402 4.80209366 -3.96794952 3.95159943 -3.98854065 3.07533264 C-3.85338359 -0.11513082 -3.22840881 0.14753481 0 0 Z " fill="#000003" transform="translate(402.90625,60.8671875)"/>
<path d="M0 0 C0.89145983 2.94633495 1.03106974 5.12981979 0.57861328 8.16674805 C0.46164093 8.97826828 0.34466858 9.78978851 0.22415161 10.62590027 C0.0908847 11.49572037 -0.0423822 12.36554047 -0.1796875 13.26171875 C-0.31190704 14.16694778 -0.44412659 15.07217682 -0.58035278 16.00483704 C-1.00464975 18.90018185 -1.43944541 21.79382931 -1.875 24.6875 C-2.30128487 27.56359525 -2.72538159 30.44000132 -3.14822388 33.31660461 C-3.41176261 35.10455833 -3.67763111 36.89217081 -3.94625854 38.67936707 C-4.66105713 43.4762139 -5.27934468 48.26825245 -5.77102661 53.09333801 C-6.09773179 55.81381287 -6.46614454 57.69921681 -8 60 C-11.4375 61.1875 -11.4375 61.1875 -15 62 C-15.99 62.66 -16.98 63.32 -18 64 C-19.859375 63.72265625 -19.859375 63.72265625 -22 63 C-22.85078125 62.75121094 -23.7015625 62.50242188 -24.578125 62.24609375 C-25.45984375 61.97925781 -26.3415625 61.71242187 -27.25 61.4375 C-28.14203125 61.16808594 -29.0340625 60.89867187 -29.953125 60.62109375 C-30.62859375 60.41613281 -31.3040625 60.21117187 -32 60 C-29.77484479 55.64240438 -27.39973799 52.21458112 -24.0625 48.625 C-20.1852669 44.36862787 -17.55501606 40.13354455 -15 35 C-14.45601562 33.95972656 -13.91203125 32.91945312 -13.3515625 31.84765625 C-8.05105857 21.55912351 -3.57823796 11.02030094 0 0 Z " fill="#0A9EB7" transform="translate(163,124)"/>
<path d="M0 0 C3.43548579 1.32905655 4.14606739 3.17973747 5.60351562 6.45507812 C5.89548828 7.16212891 6.18746094 7.86917969 6.48828125 8.59765625 C6.79958984 9.30857422 7.11089844 10.01949219 7.43164062 10.75195312 C8.19669723 12.50569826 8.93851729 14.26954716 9.67578125 16.03515625 C10.99578125 16.03515625 12.31578125 16.03515625 13.67578125 16.03515625 C15.01742204 16.33329865 16.35429298 16.65758817 17.67578125 17.03515625 C18.00578125 16.37515625 18.33578125 15.71515625 18.67578125 15.03515625 C17.74765625 14.91140625 16.81953125 14.78765625 15.86328125 14.66015625 C12.67578125 14.03515625 12.67578125 14.03515625 9.67578125 12.03515625 C9.93139448 9.69203495 10.26848897 7.35672222 10.67578125 5.03515625 C13.69446559 3.52581408 16.34875354 3.86004953 19.67578125 4.03515625 C22.67578125 6.03515625 22.67578125 6.03515625 23.40625 8.19921875 C23.55707031 9.01132813 23.70789063 9.8234375 23.86328125 10.66015625 C24.02183594 11.47742188 24.18039062 12.2946875 24.34375 13.13671875 C24.45332031 13.76320312 24.56289063 14.3896875 24.67578125 15.03515625 C25.33578125 14.70515625 25.99578125 14.37515625 26.67578125 14.03515625 C26.16015625 13.64328125 25.64453125 13.25140625 25.11328125 12.84765625 C23.67578125 11.03515625 23.67578125 11.03515625 23.86328125 8.47265625 C24.67578125 6.03515625 24.67578125 6.03515625 26.67578125 4.03515625 C31.01221726 3.71977909 33.00231354 3.58617778 36.67578125 6.03515625 C36.67578125 7.35515625 36.67578125 8.67515625 36.67578125 10.03515625 C34.36578125 9.70515625 32.05578125 9.37515625 29.67578125 9.03515625 C31.37734375 9.59203125 31.37734375 9.59203125 33.11328125 10.16015625 C35.0390625 10.98046875 35.0390625 10.98046875 36.67578125 12.03515625 C37.80078125 15.03515625 37.80078125 15.03515625 37.67578125 18.03515625 C36.73828125 19.91015625 36.73828125 19.91015625 34.67578125 21.03515625 C31.20727006 21.41740034 27.86320134 21.62886629 24.67578125 20.03515625 C24.67578125 19.37515625 24.67578125 18.71515625 24.67578125 18.03515625 C24.20140625 18.53015625 23.72703125 19.02515625 23.23828125 19.53515625 C19.45169053 21.75169716 15.95865178 21.24811666 11.67578125 21.03515625 C10.68578125 21.03515625 9.69578125 21.03515625 8.67578125 21.03515625 C6.55078125 20.28515625 6.55078125 20.28515625 4.67578125 19.03515625 C3.92578125 16.91015625 3.92578125 16.91015625 3.67578125 15.03515625 C1.03578125 15.03515625 -1.60421875 15.03515625 -4.32421875 15.03515625 C-4.65421875 16.68515625 -4.98421875 18.33515625 -5.32421875 20.03515625 C-6.64421875 20.36515625 -7.96421875 20.69515625 -9.32421875 21.03515625 C-10.32421875 19.03515625 -10.32421875 19.03515625 -9.81103516 17.17163086 C-9.51890137 16.43436768 -9.22676758 15.69710449 -8.92578125 14.9375 C-8.45398438 13.73577148 -8.45398438 13.73577148 -7.97265625 12.50976562 C-7.63492187 11.67251953 -7.2971875 10.83527344 -6.94921875 9.97265625 C-6.45421875 8.71098633 -6.45421875 8.71098633 -5.94921875 7.42382812 C-3.02414405 0.04574336 -3.02414405 0.04574336 0 0 Z M-1.32421875 8.03515625 C-1.65421875 9.35515625 -1.98421875 10.67515625 -2.32421875 12.03515625 C-1.00421875 11.70515625 0.31578125 11.37515625 1.67578125 11.03515625 C1.34578125 10.04515625 1.01578125 9.05515625 0.67578125 8.03515625 C0.01578125 8.03515625 -0.64421875 8.03515625 -1.32421875 8.03515625 Z M13.67578125 8.03515625 C14.00578125 8.69515625 14.33578125 9.35515625 14.67578125 10.03515625 C17.70512616 10.69288053 17.70512616 10.69288053 20.67578125 11.03515625 C19.42693855 9.45183095 19.42693855 9.45183095 17.67578125 8.03515625 C16.35578125 8.03515625 15.03578125 8.03515625 13.67578125 8.03515625 Z M28.67578125 15.03515625 C28.34578125 15.69515625 28.01578125 16.35515625 27.67578125 17.03515625 C30.15078125 17.53015625 30.15078125 17.53015625 32.67578125 18.03515625 C32.67578125 17.04515625 32.67578125 16.05515625 32.67578125 15.03515625 C31.35578125 15.03515625 30.03578125 15.03515625 28.67578125 15.03515625 Z " fill="#F3DA73" transform="translate(310.32421875,132.96484375)"/>
<path d="M0 0 C0.66 0.33 1.32 0.66 2 1 C1.67 1.99 1.34 2.98 1 4 C2.98 4.66 4.96 5.32 7 6 C7 6.66 7 7.32 7 8 C8.98 7.67 10.96 7.34 13 7 C13.12375 7.928125 13.12375 7.928125 13.25 8.875 C13.81258459 11.18437567 13.81258459 11.18437567 16.0625 12.25 C17.0215625 12.62125 17.0215625 12.62125 18 13 C18 13.66 18 14.32 18 15 C18.78375 14.938125 19.5675 14.87625 20.375 14.8125 C21.24125 14.874375 22.1075 14.93625 23 15 C25.3639196 18.54587941 25.24355585 20.01503682 25.22705078 24.21557617 C25.22689972 25.4966777 25.22674866 26.77777924 25.22659302 28.09770203 C25.21637973 29.49612584 25.20594774 30.89454808 25.1953125 32.29296875 C25.19158178 33.72357485 25.18873509 35.15418352 25.18673706 36.58479309 C25.17910522 40.34792144 25.15946069 44.11089511 25.1373291 47.8739624 C25.11686094 51.71478178 25.10773327 55.55562617 25.09765625 59.39648438 C25.07621429 66.93106006 25.04208387 74.46550834 25 82 C23.02 81.67 21.04 81.34 19 81 C18.85430454 75.11832067 18.71208668 69.23656983 18.57275391 63.35473633 C18.52514992 61.36415474 18.47668188 59.37359358 18.42724609 57.38305664 C18.08536266 43.58561794 17.93571917 29.80163065 18 16 C17.39188477 15.70270996 16.78376953 15.40541992 16.15722656 15.09912109 C13.56224006 13.77695844 11.18693191 12.21944974 8.75 10.625 C4.27905056 7.75038955 -0.19553021 5.26625934 -5 3 C-4.360625 2.690625 -3.72125 2.38125 -3.0625 2.0625 C-1.06389179 1.1654837 -1.06389179 1.1654837 0 0 Z " fill="#0F3035" transform="translate(61,115)"/>
<path d="M0 0 C0.99 0 1.98 0 3 0 C3 0.99 3 1.98 3 3 C3.99 3.33 4.98 3.66 6 4 C5.34 5.65 4.68 7.3 4 9 C4.61875 8.195625 5.2375 7.39125 5.875 6.5625 C8 4 8 4 10 3 C16.3785558 2.53610503 16.3785558 2.53610503 18.6640625 4.2421875 C21.09771743 7.44436505 21.21311924 11.07448115 21 15 C19.5 18.0625 19.5 18.0625 17 20 C13.5 20.5625 13.5 20.5625 10 20 C7.63502561 18.13291495 6.33969285 16.67938569 5 14 C5 14.66 5 15.32 5 16 C5 17.32 5 18.64 5 20 C2.625 20.1875 2.625 20.1875 0 20 C-0.66 19.01 -1.32 18.02 -2 17 C-2.66 17.99 -3.32 18.98 -4 20 C-7.7146001 20.69757748 -11.27117415 20.57062335 -15 20 C-17.1875 18.1875 -17.1875 18.1875 -18 15 C-18.20688364 11.31747123 -18.17415587 7.6830741 -18 4 C-16.0625 3.4375 -16.0625 3.4375 -14 3 C-13 4 -13 4 -12.90234375 6.72265625 C-12.91394531 7.82480469 -12.92554688 8.92695313 -12.9375 10.0625 C-12.94652344 11.16722656 -12.95554688 12.27195313 -12.96484375 13.41015625 C-12.97644531 14.26480469 -12.98804688 15.11945313 -13 16 C-11.68 15.67 -10.36 15.34 -9 15 C-8.67 11.37 -8.34 7.74 -8 4 C-4 3 -4 3 -2 3 C-1.34 2.01 -0.68 1.02 0 0 Z M11 7 C9.61091361 8.17110184 9.61091361 8.17110184 9.75 11.4375 C9.8325 12.613125 9.915 13.78875 10 15 C11.485 15.99 11.485 15.99 13 17 C13.99 16.34 14.98 15.68 16 15 C16.25015873 11.41642759 16.25015873 11.41642759 16 8 C14.34385343 7.61781233 12.67542976 7.28604898 11 7 Z " fill="#EEDC7D" transform="translate(264,134)"/>
<path d="M0 0 C0.12375 0.53625 0.2475 1.0725 0.375 1.625 C0.58125 2.40875 0.7875 3.1925 1 4 C1.3403125 5.3303125 1.3403125 5.3303125 1.6875 6.6875 C5.38819591 16.02735159 11.29028824 22.03423126 20 27 C23.93730032 28.61588626 27.88791415 29.9091849 32 31 C30.02 31.99 30.02 31.99 28 33 C28 35.64 28 38.28 28 41 C22.72 41 17.44 41 12 41 C11.67 38.69 11.34 36.38 11 34 C8.27310553 31.90356987 8.27310553 31.90356987 5 30 C0.62714149 25.73003228 -2.59239403 21.58904999 -3.30078125 15.3515625 C-3.32625682 9.42424718 -2.79991729 5.24984491 0 0 Z " fill="#DE8D11" transform="translate(72,32)"/>
<path d="M0 0 C0.33 0.99 0.66 1.98 1 3 C15.85 5.475 15.85 5.475 31 8 C31 8.66 31 9.32 31 10 C31.99 10 32.98 10 34 10 C34 10.66 34 11.32 34 12 C33.34515625 11.80664062 32.6903125 11.61328125 32.015625 11.4140625 C21.10141665 8.3001217 10.30534151 6.79471949 -1 6 C-0.89187988 6.68320313 -0.78375977 7.36640625 -0.67236328 8.0703125 C0.88757103 18.05900139 2.3106603 28.06596251 3.71435547 38.07763672 C3.99016156 40.04041851 4.2675281 42.0029816 4.54638672 43.96533203 C4.95353813 46.83059478 5.3561924 49.69645735 5.7578125 52.5625 C5.88278107 53.43648437 6.00774963 54.31046875 6.13650513 55.2109375 C6.68642119 59.1709958 7.1629934 62.98974717 7 67 C4.91540663 64.24958128 2.88977496 61.47102744 0.9375 58.625 C0.43089844 57.89539063 -0.07570313 57.16578125 -0.59765625 56.4140625 C-4.02413278 50.51555972 -4.47682132 44.59223752 -5 37.9375 C-5.616286 30.75621176 -6.39174858 23.69645426 -7.6328125 16.59375 C-8.57171293 9.9615172 -8.57171293 9.9615172 -6.625 6.6875 C-5.820625 5.8521875 -5.820625 5.8521875 -5 5 C-4.34 5 -3.68 5 -3 5 C-2.814375 4.0409375 -2.814375 4.0409375 -2.625 3.0625 C-2.41875 2.381875 -2.2125 1.70125 -2 1 C-1.34 0.67 -0.68 0.34 0 0 Z " fill="#1A3131" transform="translate(21,105)"/>
<path d="M0 0 C0.92941406 0.35707031 1.85882813 0.71414062 2.81640625 1.08203125 C5.12874238 2.05412247 6.37308493 3.11620361 8 5 C7.67 5.66 7.34 6.32 7 7 C8.0209375 7.309375 8.0209375 7.309375 9.0625 7.625 C11.90978208 8.95777034 12.91134033 9.91654189 15 12.125 C19.19419163 15.81661965 23.25492146 15.96528636 28.6953125 15.7265625 C34.32834602 14.48809414 38.19622243 11.22813409 42 7 C42.41185547 5.97132812 42.41185547 5.97132812 42.83203125 4.921875 C44.68921466 1.86590765 47.78689543 1.18352164 51 0 C52.21558594 -0.50660156 53.43117188 -1.01320313 54.68359375 -1.53515625 C55.93452497 -2.04518139 57.18582904 -2.55429299 58.4375 -3.0625 C59.05431641 -3.31837891 59.67113281 -3.57425781 60.30664062 -3.83789062 C68.88403174 -7.3099043 76.28843306 -8.28215272 85.5 -8.125 C86.51320312 -8.11597656 87.52640625 -8.10695313 88.5703125 -8.09765625 C91.04712801 -8.07429007 93.52343379 -8.04153168 96 -8 C96 -7.67 96 -7.34 96 -7 C94.36804688 -6.83564453 94.36804688 -6.83564453 92.703125 -6.66796875 C73.06880319 -4.5997813 52.46774544 0.92597284 37.7734375 15.15625 C31.80103273 19.1266374 22.85500188 18.26796836 16 17 C12.97517403 15.44025981 11.04982023 13.73397585 8.62890625 11.359375 C-5.90528902 -1.68468733 -26.22327901 -5.64581237 -45 -7 C-45 -7.33 -45 -7.66 -45 -8 C-29.65720134 -12.09141298 -13.92906211 -6.02473891 0 0 Z " fill="#ADAEAD" transform="translate(67,109)"/>
<path d="M0 0 C0.268125 0.61875 0.53625 1.2375 0.8125 1.875 C1.95556848 4.2995233 1.95556848 4.2995233 5 6 C7.54713404 5.99077298 7.54713404 5.99077298 10 5 C11.65355724 3.00042806 11.65355724 3.00042806 13 1 C13.12397147 5.46564301 13.21450992 9.93036439 13.2746582 14.3972168 C13.29974109 15.91529801 13.3338166 17.43325918 13.37719727 18.95092773 C13.43813293 21.13815965 13.46626895 23.32379039 13.48828125 25.51171875 C13.51446533 26.82615967 13.54064941 28.14060059 13.56762695 29.49487305 C12.86658742 33.82382987 11.32839137 35.2612752 8 38 C2.25 36.375 2.25 36.375 0 33 C-0.1712914 30.45770403 -0.23242934 28.02810519 -0.1953125 25.48828125 C-0.1924826 24.76005661 -0.18965271 24.03183197 -0.18673706 23.28153992 C-0.17555257 20.95835863 -0.15045166 18.63556453 -0.125 16.3125 C-0.11496794 14.7363337 -0.10584248 13.16016135 -0.09765625 11.58398438 C-0.07561896 7.72250733 -0.04110141 3.86131929 0 0 Z " fill="#0D9DB4" transform="translate(86,164)"/>
<path d="M0 0 C0.99 0.33 1.98 0.66 3 1 C3 1.66 3 2.32 3 3 C3.99 3.33 4.98 3.66 6 4 C5.67 4.99 5.34 5.98 5 7 C4.34 7 3.68 7 3 7 C3 9.97 3 12.94 3 16 C3.66 16 4.32 16 5 16 C5 17.32 5 18.64 5 20 C3.02 19.67 1.04 19.34 -1 19 C-1.33 15.04 -1.66 11.08 -2 7 C-3.98 7.99 -3.98 7.99 -6 9 C-6.66 9 -7.32 9 -8 9 C-6.7625 9.556875 -6.7625 9.556875 -5.5 10.125 C-3 12 -3 12 -2.5 15.0625 C-2.665 16.031875 -2.83 17.00125 -3 18 C-6.72579089 20.48386059 -8.58711402 20.3804212 -13 20 C-15.9375 18.5 -15.9375 18.5 -18 17 C-18.33 17.99 -18.66 18.98 -19 20 C-19.99 19.67 -20.98 19.34 -22 19 C-22.33 14.38 -22.66 9.76 -23 5 C-21.68 4.34 -20.36 3.68 -19 3 C-18.01 3.99 -17.02 4.98 -16 6 C-15.62875 5.505 -15.2575 5.01 -14.875 4.5 C-12.20688376 2.36550701 -10.33916823 2.72741484 -7 3 C-4.625 3.5 -4.625 3.5 -3 4 C-2.01 2.68 -1.02 1.36 0 0 Z M-17 11 C-17 11.99 -17 12.98 -17 14 C-14.03 14.99 -11.06 15.98 -8 17 C-7.67 16.01 -7.34 15.02 -7 14 C-10.31114834 12.87119943 -13.58978257 11.78697325 -17 11 Z " fill="#EBDA81" transform="translate(371,134)"/>
<path d="M0 0 C2.38671875 0.05859375 2.38671875 0.05859375 5 1 C6.58203125 3.72265625 6.58203125 3.72265625 7.8125 7.0625 C8.23144531 8.16722656 8.65039062 9.27195313 9.08203125 10.41015625 C9.38496094 11.26480469 9.68789062 12.11945313 10 13 C10.66 12.67 11.32 12.34 12 12 C12.46898963 9.1840151 12.46898963 9.1840151 12.625 5.9375 C12.69976562 4.83277344 12.77453125 3.72804687 12.8515625 2.58984375 C12.90054688 1.73519531 12.94953125 0.88054687 13 0 C14.32 0 15.64 0 17 0 C17 6.93 17 13.86 17 21 C15.68 21 14.36 21 13 21 C12.67 20.01 12.34 19.02 12 18 C11.67 18.99 11.34 19.98 11 21 C9.0625 20.6875 9.0625 20.6875 7 20 C6.67 19.01 6.34 18.02 6 17 C3.36 16.67 0.72 16.34 -2 16 C-2.33 17.32 -2.66 18.64 -3 20 C-4.32 20.33 -5.64 20.66 -7 21 C-8.13088362 17.60734913 -7.92853224 17.15824799 -6.6015625 14.0234375 C-6.12976563 12.89421875 -6.12976563 12.89421875 -5.6484375 11.7421875 C-5.14183594 10.57042969 -5.14183594 10.57042969 -4.625 9.375 C-4.295 8.58609375 -3.965 7.7971875 -3.625 6.984375 C-1.16545759 1.16545759 -1.16545759 1.16545759 0 0 Z M1 7 C0.67 8.32 0.34 9.64 0 11 C1.32 10.67 2.64 10.34 4 10 C3.01 9.01 2.02 8.02 1 7 Z " fill="#F0E07C" transform="translate(203,133)"/>
<path d="M0 0 C-1.59328125 0.85271484 -1.59328125 0.85271484 -3.21875 1.72265625 C-14.6807766 7.48482871 -14.6807766 7.48482871 -24 16 C-25.10029025 20.31185335 -25.37879333 24.70985201 -25.71875 29.1328125 C-25.78155151 29.92412567 -25.84435303 30.71543884 -25.90905762 31.5307312 C-26.04158127 33.20998871 -26.1726097 34.88936479 -26.30224609 36.56884766 C-26.49561905 39.06837223 -26.69466972 41.56739319 -26.89453125 44.06640625 C-27.78585339 55.36961084 -28.45621998 66.67498147 -29 78 C-25.56593805 77.68514663 -25.56593805 77.68514663 -22 77 C-21.38125 76.21625 -20.7625 75.4325 -20.125 74.625 C-17.0990251 70.88703101 -13.53914051 70.19297924 -9 69 C-9 68.34 -9 67.68 -9 67 C-3.54175811 66.70759418 0.1461782 67.22228492 5.16796875 69.33203125 C7.50110979 70.18270741 9.54129105 70.23050396 12 70 C11.34 70.99 10.68 71.98 10 73 C7.75517484 72.50114996 5.8378716 71.92343936 3.75 70.9375 C-0.71848546 69.41415268 -4.79825743 69.13109802 -9.1875 70.86328125 C-10.55372244 71.55392679 -11.90596782 72.27335704 -13.23828125 73.02734375 C-15 74 -15 74 -18 75 C-18.70381157 76.98723268 -19.3711811 78.98777953 -20 81 C-22.58856827 82.29428413 -23.9116956 81.81364704 -26.75 81.375 C-31.42913855 80.8205356 -33.90485036 81.54291022 -38 84 C-38.66 83.67 -39.32 83.34 -40 83 C-37.94062659 80.21378891 -36.9159471 79.98612719 -33.37890625 79.40234375 C-32.26386719 79.26957031 -31.14882812 79.13679688 -30 79 C-30.00523682 78.44691162 -30.01047363 77.89382324 -30.01586914 77.32397461 C-30.06647164 70.97047833 -30.04280596 64.61914988 -30.00341797 58.265625 C-29.99288914 55.21532463 -30.01925302 52.16718202 -30.06298828 49.1171875 C-30.12541402 44.76191139 -30.13687775 40.40867158 -30.12106323 36.05300903 C-30.12367457 34.31809017 -30.14378336 32.58310402 -30.18191528 30.84860229 C-30.46850132 17.02493333 -30.46850132 17.02493333 -26.99487305 12.23510742 C-24.43363057 10.11342787 -21.9429973 8.54049993 -19 7 C-17.87513184 6.32964722 -17.87513184 6.32964722 -16.72753906 5.64575195 C-14.70727519 4.4788592 -12.66581397 3.44538036 -10.5625 2.4375 C-9.86962891 2.08365234 -9.17675781 1.72980469 -8.46289062 1.36523438 C-3.38945404 -1.12981801 -3.38945404 -1.12981801 0 0 Z " fill="#DDFAFB" transform="translate(135,117)"/>
<path d="M0 0 C15.00319762 1.70966671 35.65878642 6.13128022 45.8984375 18.24609375 C46.26195312 18.82488281 46.62546875 19.40367188 47 20 C44.23174183 18.90836612 41.48930846 17.77911053 38.7578125 16.59765625 C25.08661661 10.82047347 10.88360599 6.86660927 -4 10 C-4 9.34 -4 8.68 -4 8 C-5.98 8.99 -5.98 8.99 -8 10 C-7.67 11.32 -7.34 12.64 -7 14 C-8.32 14.33 -9.64 14.66 -11 15 C-11.36139933 11.205307 -11.09945894 9.19891788 -9.375 5.75 C-6.69083489 2.64201934 -4.92581316 1.95964322 -1 1 C-0.67 0.67 -0.34 0.34 0 0 Z " fill="#202021" transform="translate(25,92)"/>
<path d="M0 0 C0.38767027 9.77790574 -0.8070053 19.31756984 -2 29 C-1.34 28.01 -0.68 27.02 0 26 C0.66 26 1.32 26 2 26 C2.33 24.35 2.66 22.7 3 21 C3.33 21 3.66 21 4 21 C3.67690318 25.0009011 3.34226193 29.00069283 3 33 C2.91621094 33.98613281 2.83242187 34.97226563 2.74609375 35.98828125 C2.66488281 36.87902344 2.58367187 37.76976562 2.5 38.6875 C2.4278125 39.49574219 2.355625 40.30398437 2.28125 41.13671875 C2 43 2 43 1 44 C0.70536617 45.41190865 0.43909346 46.8297902 0.1875 48.25 C-0.70504223 52.46626292 -2.10633903 54.75559224 -5 58 C-6.04451438 59.97711651 -7.05698138 61.97250996 -8 64 C-9.3723694 59.88289181 -8.49785432 56.31264162 -7.85546875 52.1171875 C-7.72562088 51.22951691 -7.59577301 50.34184631 -7.46199036 49.42727661 C-7.04375601 46.57549876 -6.61611928 43.72523387 -6.1875 40.875 C-5.63586235 37.16456857 -5.0883033 33.45355027 -4.54296875 29.7421875 C-4.34294754 28.38574127 -4.34294754 28.38574127 -4.1388855 27.00189209 C-2.92575371 18.68410375 -1.9377923 10.35321341 -1 2 C-8.26 2.66 -15.52 3.32 -23 4 C-23 3.34 -23 2.68 -23 2 C-15.26134446 -0.13480153 -7.99976044 -0.20483028 0 0 Z " fill="#122D32" transform="translate(166,109)"/>
<path d="M0 0 C0.66 0.66 1.32 1.32 2 2 C2.99 2.33 3.98 2.66 5 3 C4.34 3.66 3.68 4.32 3 5 C4.32 5.99 5.64 6.98 7 8 C3.89320246 8.90528302 1.08219771 9.13537651 -2.1484375 9.17578125 C-18.09702801 9.5090085 -30.4753388 11.08731942 -44.671875 18.92578125 C-45.82429688 19.45751953 -45.82429688 19.45751953 -47 20 C-47.66 19.67 -48.32 19.34 -49 19 C-34.35649486 8.69753396 -18.46304406 0 0 0 Z " fill="#262525" transform="translate(162,92)"/>
<path d="M0 0 C0.66 0.33 1.32 0.66 2 1 C1.566875 1.78310547 1.566875 1.78310547 1.125 2.58203125 C-2.29846309 9.36952231 -3.50496539 15.83503002 -1.33984375 23.265625 C1.44768187 29.5888433 6.38258156 33.25505437 12 37 C12 39.31 12 41.62 12 44 C17.28 44 22.56 44 28 44 C28 41.36 28 38.72 28 36 C29.609375 34.265625 29.609375 34.265625 31.75 33.25 C35.071095 31.51290244 37.47778568 29.83749111 40 27 C38.66503776 30.59412911 37.30872383 33.92170156 35 37 C32.3125 37.8125 32.3125 37.8125 30 38 C29.67 38.99 29.34 39.98 29 41 C30.32 41 31.64 41 33 41 C32.67 41.99 32.34 42.98 32 44 C31.34 44 30.68 44 30 44 C29.67 44.33 29.34 44.66 29 45 C27.36527118 45.08700342 25.72685945 45.10701063 24.08984375 45.09765625 C23.10048828 45.09443359 22.11113281 45.09121094 21.09179688 45.08789062 C20.05087891 45.07951172 19.00996094 45.07113281 17.9375 45.0625 C16.89271484 45.05798828 15.84792969 45.05347656 14.77148438 45.04882812 C12.1809334 45.03699913 9.59049441 45.02051689 7 45 C7 46.65 7 48.3 7 50 C6.67 50 6.34 50 6 50 C6.03222656 49.443125 6.06445312 48.88625 6.09765625 48.3125 C6.03692967 44.31804084 5.83302977 41.87370505 3 38.90234375 C1.3720023 37.5900315 -0.26217041 36.28534384 -1.90234375 34.98828125 C-5.13502055 31.92416116 -5.40246261 29.33214609 -6 25 C-6.33 24.34 -6.66 23.68 -7 23 C-6.70996094 22.44183594 -6.41992188 21.88367188 -6.12109375 21.30859375 C-4.16754558 17.28578202 -4.14536992 12.8147658 -3.66015625 8.41015625 C-2.99433683 4.97074586 -1.9861048 2.85198156 0 0 Z " fill="#1C1F1B" transform="translate(72,29)"/>
<path d="M0 0 C0.33 0 0.66 0 1 0 C1 6.93 1 13.86 1 21 C-1.97 21.33 -4.94 21.66 -8 22 C-8.66 20.68 -9.32 19.36 -10 18 C-11.62746694 16.29503463 -13.28891311 14.62102968 -15 13 C-12.00559531 9.8520361 -8.6072978 7.34154633 -5.15625 4.71875 C-3.00818055 3.07245632 -3.00818055 3.07245632 -1.28125 1.28125 C-0.8584375 0.8584375 -0.435625 0.435625 0 0 Z " fill="#07A1BC" transform="translate(79,175)"/>
<path d="M0 0 C1.01320312 0.00902344 2.02640625 0.01804687 3.0703125 0.02734375 C5.54712801 0.05070993 8.02343379 0.08346832 10.5 0.125 C10.5 0.455 10.5 0.785 10.5 1.125 C8.86804688 1.28935547 8.86804688 1.28935547 7.203125 1.45703125 C-12.92734343 3.57748045 -31.84781094 9.37473804 -47.546875 22.88671875 C-49.5 24.125 -49.5 24.125 -51.75 23.8125 C-52.3275 23.585625 -52.905 23.35875 -53.5 23.125 C-52.80132812 22.59390625 -52.10265625 22.0628125 -51.3828125 21.515625 C-50.47273438 20.80921875 -49.56265625 20.1028125 -48.625 19.375 C-47.26761719 18.33085938 -47.26761719 18.33085938 -45.8828125 17.265625 C-43.42879654 15.364872 -43.42879654 15.364872 -42.6171875 13.046875 C-40.82422162 9.96247216 -37.69842985 9.30311632 -34.5 8.125 C-33.28441406 7.61839844 -32.06882812 7.11179687 -30.81640625 6.58984375 C-29.56547503 6.07981861 -28.31417096 5.57070701 -27.0625 5.0625 C-26.44568359 4.80662109 -25.82886719 4.55074219 -25.19335938 4.28710938 C-16.61596826 0.8150957 -9.21156694 -0.15715272 0 0 Z " fill="#B5B5B4" transform="translate(152.5,100.875)"/>
<path d="M0 0 C3.5625 0.25 3.5625 0.25 6.5625 2.25 C7.0390625 4.45703125 7.0390625 4.45703125 7.1875 7.0625 C7.4340864 10.5398715 7.76810064 13.84543132 8.5625 17.25 C7.593125 17.064375 6.62375 16.87875 5.625 16.6875 C4.614375 16.543125 3.60375 16.39875 2.5625 16.25 C2.2325 16.58 1.9025 16.91 1.5625 17.25 C-3.70467557 17.82251908 -3.70467557 17.82251908 -6.4375 15.6875 C-7.91019788 12.09779891 -6.65502358 9.83849055 -5.4375 6.25 C-5.4375 4.93 -5.4375 3.61 -5.4375 2.25 C-3.4375 0.25 -3.4375 0.25 0 0 Z M-1.4375 4.25 C-1.7675 4.91 -2.0975 5.57 -2.4375 6.25 C-0.7875 6.25 0.8625 6.25 2.5625 6.25 C2.5625 5.59 2.5625 4.93 2.5625 4.25 C1.2425 4.25 -0.0775 4.25 -1.4375 4.25 Z M-2.4375 11.25 C-2.4375 11.91 -2.4375 12.57 -2.4375 13.25 C-1.4475 13.58 -0.4575 13.91 0.5625 14.25 C1.2225 12.93 1.8825 11.61 2.5625 10.25 C-0.3629644 10.0263932 -0.3629644 10.0263932 -2.4375 11.25 Z " fill="#F1D87C" transform="translate(383.4375,136.75)"/>
<path d="M0 0 C-0.33 1.65 -0.66 3.3 -1 5 C-0.236875 4.773125 0.52625 4.54625 1.3125 4.3125 C2.199375 4.209375 3.08625 4.10625 4 4 C5.8125 5.4375 5.8125 5.4375 7 7 C5.68 7 4.36 7 3 7 C2.28826506 28.34258366 1.83913155 49.64409469 2 71 C1.34 71 0.68 71 0 71 C-0.12316171 49.63618092 0.08674846 28.34725486 1 7 C-3.62 7 -8.24 7 -13 7 C-11.68 6.67 -10.36 6.34 -9 6 C-8.814375 4.7934375 -8.814375 4.7934375 -8.625 3.5625 C-8.41875 2.716875 -8.2125 1.87125 -8 1 C-5.29120665 -0.35439668 -2.99066732 -0.06501451 0 0 Z " fill="#0C2B2F" transform="translate(99,126)"/>
<path d="M0 0 C0.88429688 -0.03738281 1.76859375 -0.07476562 2.6796875 -0.11328125 C5.125 0.3125 5.125 0.3125 6.8984375 2.046875 C8.20355235 4.45759669 8.63591726 6.15773272 8.875 8.875 C8.95234375 9.63941406 9.0296875 10.40382812 9.109375 11.19140625 C9.125 13.3125 9.125 13.3125 8.125 16.3125 C7.135 16.6425 6.145 16.9725 5.125 17.3125 C3.125 15.3125 3.125 15.3125 2.9296875 12.7109375 C2.95289063 11.71320313 2.97609375 10.71546875 3 9.6875 C3.01804687 8.68460938 3.03609375 7.68171875 3.0546875 6.6484375 C3.07789063 5.87757813 3.10109375 5.10671875 3.125 4.3125 C1.805 4.3125 0.485 4.3125 -0.875 4.3125 C-1.205 8.2725 -1.535 12.2325 -1.875 16.3125 C-3.195 16.3125 -4.515 16.3125 -5.875 16.3125 C-5.90185095 13.83326199 -5.92176547 11.3543116 -5.9375 8.875 C-5.95006836 7.81442383 -5.95006836 7.81442383 -5.96289062 6.73242188 C-5.97153588 4.92556441 -5.92720011 3.11862397 -5.875 1.3125 C-4.21607528 -0.34642472 -2.27452582 0.06263187 0 0 Z " fill="#E7D98A" transform="translate(398.875,136.6875)"/>
<path d="M0 0 C0.66 0 1.32 0 2 0 C2.66 3.63 3.32 7.26 4 11 C6.31 11.66 8.62 12.32 11 13 C12.12812303 11.89902432 13.25237811 10.79408444 14.375 9.6875 C15.00148438 9.07261719 15.62796875 8.45773437 16.2734375 7.82421875 C18.18086607 5.91187472 18.18086607 5.91187472 20 3 C20.66 3 21.32 3 22 3 C21.39254603 7.85963179 19.27241033 11.7405518 17 16 C16.38125 15.814375 15.7625 15.62875 15.125 15.4375 C12.95839822 14.76313824 12.95839822 14.76313824 11 16 C11 16.66 11 17.32 11 18 C9.7625 17.7834375 9.7625 17.7834375 8.5 17.5625 C4.67313722 16.94746848 0.84783293 16.46439363 -3 16 C-2.30834212 10.58201328 -1.24200752 5.3177215 0 0 Z " fill="#1A201D" transform="translate(91,3)"/>
<path d="M0 0 C0.33 0 0.66 0 1 0 C1 7.92 1 15.84 1 24 C7.76899512 23.85367137 7.76899512 23.85367137 9.875 20.625 C12.9009749 16.88703101 16.46085949 16.19297924 21 15 C21 14.34 21 13.68 21 13 C26.45824189 12.70759418 30.1461782 13.22228492 35.16796875 15.33203125 C37.50110979 16.18270741 39.54129105 16.23050396 42 16 C41.34 16.99 40.68 17.98 40 19 C37.75517484 18.50114996 35.8378716 17.92343936 33.75 16.9375 C29.28151454 15.41415268 25.20174257 15.13109802 20.8125 16.86328125 C19.44627756 17.55392679 18.09403218 18.27335704 16.76171875 19.02734375 C15 20 15 20 12 21 C11.29618843 22.98723268 10.6288189 24.98777953 10 27 C7.41143173 28.29428413 6.0883044 27.81364704 3.25 27.375 C-1.42913855 26.8205356 -3.90485036 27.54291022 -8 30 C-8.66 29.67 -9.32 29.34 -10 29 C-8.9375 27.5625 -8.9375 27.5625 -7 26 C-3.535 25.505 -3.535 25.505 0 25 C0 16.75 0 8.5 0 0 Z " fill="#55C5D9" transform="translate(105,171)"/>
<path d="M0 0 C1.58206057 0.00667536 3.16410534 0.0186375 4.74609375 0.03515625 C5.55240234 0.03966797 6.35871094 0.04417969 7.18945312 0.04882812 C9.18753131 0.06065107 11.18557158 0.07858711 13.18359375 0.09765625 C12.85359375 1.41765625 12.52359375 2.73765625 12.18359375 4.09765625 C10.20359375 4.09765625 8.22359375 4.09765625 6.18359375 4.09765625 C6.18359375 9.37765625 6.18359375 14.65765625 6.18359375 20.09765625 C4.86359375 20.09765625 3.54359375 20.09765625 2.18359375 20.09765625 C2.18359375 14.81765625 2.18359375 9.53765625 2.18359375 4.09765625 C0.53359375 4.09765625 -1.11640625 4.09765625 -2.81640625 4.09765625 C-3.47640625 3.10765625 -4.13640625 2.11765625 -4.81640625 1.09765625 C-3.81640625 0.09765625 -3.81640625 0.09765625 0 0 Z " fill="#F4DD6E" transform="translate(233.81640625,132.90234375)"/>
<path d="M0 0 C0.33 0 0.66 0 1 0 C1 11.55 1 23.1 1 35 C-0.32 35 -1.64 35 -3 35 C-3.04962653 30.96154588 -3.08582632 26.92321113 -3.10986328 22.88452148 C-3.11988926 21.51209417 -3.13351356 20.13968805 -3.15087891 18.76733398 C-3.17527627 16.78899473 -3.18544484 14.81049633 -3.1953125 12.83203125 C-3.20578613 11.64327393 -3.21625977 10.4545166 -3.22705078 9.22973633 C-2.98728136 5.81908082 -2.51401237 2.51401237 0 0 Z " fill="#191E20" transform="translate(84,161)"/>
<path d="M0 0 C8.75798018 0.28991934 17.0966131 1.77135121 25.64453125 3.59375 C25.31453125 4.25375 24.98453125 4.91375 24.64453125 5.59375 C20.14019169 5.80824236 16.86620435 5.12073814 12.64453125 3.59375 C8.00051047 2.33860925 3.41721365 2.50016799 -1.35546875 2.59375 C-2.43072069 5.24603812 -3.45003026 7.87743454 -4.35546875 10.59375 C-5.01546875 10.59375 -5.67546875 10.59375 -6.35546875 10.59375 C-7.35763939 14.17702753 -7.35763939 14.17702753 -6.35546875 17.59375 C-7.34546875 18.25375 -8.33546875 18.91375 -9.35546875 19.59375 C-9.72044909 22.48983399 -9.72044909 22.48983399 -9.54296875 25.71875 C-9.50236328 27.36230469 -9.50236328 27.36230469 -9.4609375 29.0390625 C-9.42613281 29.88210937 -9.39132812 30.72515625 -9.35546875 31.59375 C-10.01546875 31.92375 -10.67546875 32.25375 -11.35546875 32.59375 C-13.4301715 27.27168641 -14.08865663 22.79869784 -11.8125 17.4765625 C-10.13982109 14.01399043 -8.32100518 10.6377935 -6.36499023 7.32714844 C-5.47863716 5.80523626 -4.68602571 4.22953364 -3.91015625 2.6484375 C-2.35546875 0.59375 -2.35546875 0.59375 0 0 Z " fill="#142318" transform="translate(24.35546875,81.40625)"/>
<path d="M0 0 C20.04060914 -0.63959391 20.04060914 -0.63959391 27 4 C18.75 3.34 10.5 2.68 2 2 C2.28875 4.12179688 2.5775 6.24359375 2.875 8.4296875 C3.15456685 10.51802384 3.43187822 12.60664839 3.70898438 14.6953125 C3.90064655 16.13084933 4.09459926 17.56608249 4.29101562 19.00097656 C5.38927631 27.03621032 6.25462368 34.86795631 6 43 C5.67 43 5.34 43 5 43 C4.28556359 37.35861246 3.57354316 31.71692727 2.86376953 26.07495117 C2.62192259 24.15527079 2.37941322 22.23567373 2.13623047 20.31616211 C1.7869975 17.55864709 1.44014029 14.80084211 1.09375 12.04296875 C0.9843811 11.18350143 0.87501221 10.32403412 0.7623291 9.43852234 C0.66222534 8.63791885 0.56212158 7.83731537 0.45898438 7.01245117 C0.37015991 6.3085173 0.28133545 5.60458344 0.18981934 4.87931824 C0 3 0 3 0 0 Z " fill="#21B9D3" transform="translate(20,111)"/>
<path d="M0 0 C3 1 3 1 5 4 C4.7578125 6.91796875 4.7578125 6.91796875 4.125 10.1875 C3.92132813 11.27417969 3.71765625 12.36085937 3.5078125 13.48046875 C3.34023438 14.31191406 3.17265625 15.14335937 3 16 C3.99 16.33 4.98 16.66 6 17 C5.67 17.99 5.34 18.98 5 20 C0.125 19.125 0.125 19.125 -1 18 C-1.23630361 16.23501627 -1.41442373 14.46206484 -1.5625 12.6875 C-1.64628906 11.72199219 -1.73007812 10.75648438 -1.81640625 9.76171875 C-2.24180064 3.36270096 -2.24180064 3.36270096 0 0 Z " fill="#F8DD71" transform="translate(410,134)"/>
<path d="M0 0 C2 2 2 2 2.07421875 4.0234375 C1.05417988 10.2260981 1.05417988 10.2260981 -1.96875 12.4453125 C-4.28487445 13.4875685 -6.56507689 14.2835953 -9 15 C-9.825 15.33 -10.65 15.66 -11.5 16 C-15.73085387 16 -19.28215057 13.88727433 -23 12 C-22.360625 11.855625 -21.72125 11.71125 -21.0625 11.5625 C-19.02454854 11.18992819 -19.02454854 11.18992819 -18 10 C-16.00045254 9.95745644 -13.99958364 9.95919217 -12 10 C-9.87635519 10.22609337 -9.87635519 10.22609337 -8.375 8.5 C-7.92125 8.005 -7.4675 7.51 -7 7 C-6.67 7.66 -6.34 8.32 -6 9 C-4.35 9 -2.7 9 -1 9 C-0.67 6.03 -0.34 3.06 0 0 Z " fill="#129DB1" transform="translate(156,172)"/>
<path d="M0 0 C1.67542976 0.28604898 3.34385343 0.61781233 5 1 C5 1.66 5 2.32 5 3 C4.01 3 3.02 3 2 3 C2.3403125 3.86625 2.3403125 3.86625 2.6875 4.75 C3 7 3 7 1.6875 9.25 C1.130625 9.8275 0.57375 10.405 0 11 C-0.66 11 -1.32 11 -2 11 C-2.33 11.99 -2.66 12.98 -3 14 C-0.03 14 2.94 14 6 14 C6 14.33 6 14.66 6 15 C3.36 15 0.72 15 -2 15 C-2.33 16.65 -2.66 18.3 -3 20 C-4.32 20.33 -5.64 20.66 -7 21 C-8 19 -8 19 -7.48681641 17.13647461 C-7.19468262 16.39921143 -6.90254883 15.66194824 -6.6015625 14.90234375 C-6.12976563 13.70061523 -6.12976563 13.70061523 -5.6484375 12.47460938 C-5.31070312 11.63736328 -4.97296875 10.80011719 -4.625 9.9375 C-4.13 8.67583008 -4.13 8.67583008 -3.625 7.38867188 C-1.1527349 1.1527349 -1.1527349 1.1527349 0 0 Z " fill="#EFDA7E" transform="translate(308,133)"/>
<path d="M0 0 C10.36078964 3.26456833 19.33345303 8.51926355 28 15 C26.69140625 16.50390625 26.69140625 16.50390625 25 18 C21.9375 17.9375 21.9375 17.9375 19 17 C17.625 14.9375 17.625 14.9375 17 13 C16.34 13 15.68 13 15 13 C14.34 12.34 13.68 11.68 13 11 C12.01 11.495 12.01 11.495 11 12 C11 10.35 11 8.7 11 7 C9.9275 6.5875 8.855 6.175 7.75 5.75 C4.47734926 4.36260851 2.34482838 2.72000092 0 0 Z M19 12 C20 14 20 14 20 14 Z " fill="#17221A" transform="translate(59,89)"/>
<path d="M0 0 C0 0.33 0 0.66 0 1 C-1.63195312 1.16435547 -1.63195312 1.16435547 -3.296875 1.33203125 C-15.02178523 2.57264211 -26.01136709 4.56228286 -37 9 C-36.67 7.35 -36.34 5.7 -36 4 C-23.98508913 -0.59273044 -12.68389865 -0.44795078 0 0 Z " fill="#B5B5B5" transform="translate(163,101)"/>
<path d="M0 0 C0.33 0 0.66 0 1 0 C1.67263581 4.39494155 2.33706636 8.79108538 3 13.1875 C3.19078125 14.43337891 3.3815625 15.67925781 3.578125 16.96289062 C3.75859375 18.16494141 3.9390625 19.36699219 4.125 20.60546875 C4.29257812 21.71043701 4.46015625 22.81540527 4.6328125 23.95385742 C4.96105202 26.67689233 5.07129462 29.26184109 5 32 C3.96549509 30.69325696 2.97827929 29.34935074 2 28 C1.54367188 27.3709375 1.08734375 26.741875 0.6171875 26.09375 C0.14539063 25.4028125 -0.32640625 24.711875 -0.8125 24 C-1.27269531 23.34 -1.73289062 22.68 -2.20703125 22 C-2.46871094 21.34 -2.73039062 20.68 -3 20 C-2.36015245 18.65359095 -1.68666639 17.32314454 -1 16 C-0.7047806 13.22605167 -0.49287769 10.5299489 -0.375 7.75 C-0.33632813 7.00492188 -0.29765625 6.25984375 -0.2578125 5.4921875 C-0.16394892 3.6618476 -0.08090282 1.83095857 0 0 Z " fill="#132B2E" transform="translate(23,140)"/>
<path d="M0 0 C2.44921875 0.921875 2.44921875 0.921875 5 3 C5.83762258 6.05324334 5.79214705 9.09815963 5.8125 12.25 C5.83691162 13.16354248 5.86132324 14.07708496 5.88647461 15.01831055 C5.95567369 18.01262813 5.9830282 21.00494861 6 24 C6.00837891 25.06879395 6.01675781 26.13758789 6.02539062 27.23876953 C6.06873662 33.82637537 6.05879239 40.41253918 6 47 C5.67 47 5.34 47 5 47 C3.61231142 32.62672033 2.69344871 18.44197178 3 4 C1.68 4 0.36 4 -1 4 C-0.67 2.68 -0.34 1.36 0 0 Z " fill="#1AC5E0" transform="translate(74,128)"/>
<path d="M0 0 C1.134375 0.020625 2.26875 0.04125 3.4375 0.0625 C3.4375 1.3825 3.4375 2.7025 3.4375 4.0625 C2.4475 4.7225 1.4575 5.3825 0.4375 6.0625 C-0.14439266 8.48771494 -0.14439266 8.48771494 -0.25 11.1875 C-0.31574219 12.09757813 -0.38148438 13.00765625 -0.44921875 13.9453125 C-0.48660156 14.64398438 -0.52398437 15.34265625 -0.5625 16.0625 C-1.8825 16.0625 -3.2025 16.0625 -4.5625 16.0625 C-4.58935095 13.58326199 -4.60926547 11.1043116 -4.625 8.625 C-4.63756836 7.56442383 -4.63756836 7.56442383 -4.65039062 6.48242188 C-4.65903588 4.67556441 -4.61470011 2.86862397 -4.5625 1.0625 C-3.5625 0.0625 -3.5625 0.0625 0 0 Z " fill="#ECDB7F" transform="translate(290.5625,136.9375)"/>
<path d="M0 0 C0.495 0.99 0.495 0.99 1 2 C-0.26505179 4.94576346 -1.9503454 7.53933287 -4 10 C-6.8125 11 -6.8125 11 -9 11 C-9.33 11.99 -9.66 12.98 -10 14 C-8.68 14 -7.36 14 -6 14 C-6.33 14.99 -6.66 15.98 -7 17 C-7.66 17 -8.32 17 -9 17 C-9.33 17.33 -9.66 17.66 -10 18 C-11.34267413 18.08631874 -12.68974322 18.10706473 -14.03515625 18.09765625 C-14.84404297 18.09443359 -15.65292969 18.09121094 -16.48632812 18.08789062 C-17.33646484 18.07951172 -18.18660156 18.07113281 -19.0625 18.0625 C-19.91650391 18.05798828 -20.77050781 18.05347656 -21.65039062 18.04882812 C-23.76695663 18.03700373 -25.88348685 18.01906769 -28 18 C-28.11214844 16.88496094 -28.22429687 15.76992187 -28.33984375 14.62109375 C-28.6066945 10.84324579 -28.6066945 10.84324579 -31.5625 9.0625 C-32.366875 8.711875 -33.17125 8.36125 -34 8 C-33.67 7.34 -33.34 6.68 -33 6 C-30 7.5625 -30 7.5625 -27 10 C-27 12.31 -27 14.62 -27 17 C-21.72 17 -16.44 17 -11 17 C-11 14.36 -11 11.72 -11 9 C-9.35546875 7.265625 -9.35546875 7.265625 -7.1875 6.25 C-3.9340499 4.55129597 -1.92208986 3.24352665 0 0 Z " fill="#322009" transform="translate(111,56)"/>
<path d="M0 0 C0.33 0 0.66 0 1 0 C1.33 1.98 1.66 3.96 2 6 C2.33 6 2.66 6 3 6 C3.40379866 18.74209104 2.17467711 31.32535895 1 44 C0.67 44 0.34 44 0 44 C0 29.48 0 14.96 0 0 Z " fill="#C4ECEF" transform="translate(106,132)"/>
<path d="M0 0 C5.00363191 0.57885153 8.82523162 2.86499978 13.125 5.3125 C13.84042969 5.70373047 14.55585937 6.09496094 15.29296875 6.49804688 C18.97015903 8.57033261 21.79401211 10.26350113 24 14 C15.66666667 10.66666667 7.33333333 7.33333333 -1 4 C-0.67 2.68 -0.34 1.36 0 0 Z " fill="#2C2C2C" transform="translate(48,98)"/>
<path d="M0 0 C0.33 0 0.66 0 1 0 C1.77538632 4.18874176 2.17454013 8.23620401 2.31640625 12.4921875 C2.35830078 13.69101563 2.40019531 14.88984375 2.44335938 16.125 C2.48267578 17.3625 2.52199219 18.6 2.5625 19.875 C2.60568359 21.13570312 2.64886719 22.39640625 2.69335938 23.6953125 C2.79909102 26.79677423 2.90118571 29.89831145 3 33 C5.31 33.66 7.62 34.32 10 35 C9.34 35.99 8.68 36.98 8 38 C2.25 36.375 2.25 36.375 0 33 C-0.1712914 30.45770403 -0.23242934 28.02810519 -0.1953125 25.48828125 C-0.1924826 24.76005661 -0.18965271 24.03183197 -0.18673706 23.28153992 C-0.17555257 20.95835863 -0.15045166 18.63556453 -0.125 16.3125 C-0.11496794 14.7363337 -0.10584248 13.16016135 -0.09765625 11.58398438 C-0.07561896 7.72250733 -0.04110141 3.86131929 0 0 Z " fill="#1F8A9C" transform="translate(86,164)"/>
<path d="M0 0 C0.33 0.66 0.66 1.32 1 2 C0.34 2 -0.32 2 -1 2 C-1 2.99 -1 3.98 -1 5 C4.94 5 10.88 5 17 5 C17 3.68 17 2.36 17 1 C23.15234375 0.12109375 23.15234375 0.12109375 25 0 C26 1 26 1 26.0625 3.5625 C26.041875 4.366875 26.02125 5.17125 26 6 C22.95157135 6.90901939 20.40338364 7.06173367 17.234375 6.87890625 C16.34492187 6.83056641 15.45546875 6.78222656 14.5390625 6.73242188 C13.61867188 6.67634766 12.69828125 6.62027344 11.75 6.5625 C10.81414062 6.51029297 9.87828125 6.45808594 8.9140625 6.40429688 C6.60901113 6.27493175 4.30442711 6.13997966 2 6 C1.67 6.66 1.34 7.32 1 8 C0.01 7.34 -0.98 6.68 -2 6 C-2.1875 3.375 -2.1875 3.375 -2 1 C-1.34 0.67 -0.68 0.34 0 0 Z " fill="#242C29" transform="translate(80,79)"/>
<path d="M0 0 C0.66 0 1.32 0 2 0 C3.56380504 3.12761008 3.14320695 6.44602516 3.125 9.875 C3.12886719 10.59558594 3.13273437 11.31617188 3.13671875 12.05859375 C3.13036598 15.50815011 3.08702974 18.70440191 2 22 C1.34 22 0.68 22 0 22 C-2.53501629 8.25644063 -2.53501629 8.25644063 -1 1 C-0.67 0.67 -0.34 0.34 0 0 Z " fill="#1C1E1D" transform="translate(20,138)"/>
<path d="M0 0 C0.99 0.99 1.98 1.98 3 3 C2.67 3.66 2.34 4.32 2 5 C2.680625 5.20625 3.36125 5.4125 4.0625 5.625 C6.9294515 6.9669773 7.76826229 7.81921809 9.8125 10.0625 C15.14984106 14.98099142 23.16553972 13.98359073 30 14 C30 14.33 30 14.66 30 15 C11.35053059 16.37860554 11.35053059 16.37860554 5.125 11.1875 C3.74846177 9.79318361 2.3733799 8.39742741 1 7 C0.08992188 6.45988281 -0.82015625 5.91976562 -1.7578125 5.36328125 C-2.86769531 4.68845703 -2.86769531 4.68845703 -4 4 C-4 3.34 -4 2.68 -4 2 C-2.68 2 -1.36 2 0 2 C0 1.34 0 0.68 0 0 Z " fill="#A2A2A1" transform="translate(72,111)"/>
<path d="M0 0 C0 0.66 0 1.32 0 2 C0.33 2.33 0.66 2.66 1 3 C1 3.66 1 4.32 1 5 C-2.28734133 6.19972389 -5.58047099 7.38267208 -8.875 8.5625 C-9.81214844 8.90474609 -10.74929687 9.24699219 -11.71484375 9.59960938 C-12.61074219 9.91865234 -13.50664063 10.23769531 -14.4296875 10.56640625 C-15.25710449 10.86490479 -16.08452148 11.16340332 -16.93701172 11.47094727 C-19 12 -19 12 -21 11 C-18.3759159 9.35270289 -15.75057863 7.70741379 -13.125 6.0625 C-12.37863281 5.59392578 -11.63226563 5.12535156 -10.86328125 4.64257812 C-10.14785156 4.19462891 -9.43242188 3.74667969 -8.6953125 3.28515625 C-8.03547363 2.87144775 -7.37563477 2.45773926 -6.69580078 2.03149414 C-4.121639 0.46572484 -3.12071177 0 0 0 Z " fill="#0E2114" transform="translate(63,56)"/>
<path d="M0 0 C0 0.99 0 1.98 0 3 C0.969375 3.37125 1.93875 3.7425 2.9375 4.125 C6 6 6 6 6.875 9.1875 C6.91625 10.115625 6.9575 11.04375 7 12 C6.01 12 5.02 12 4 12 C4 11.01 4 10.02 4 9 C3.236875 9.04125 2.47375 9.0825 1.6875 9.125 C-1 9 -1 9 -4 7 C-4 6.34 -4 5.68 -4 5 C-4.99 5 -5.98 5 -7 5 C-5.22678182 1.07358831 -4.52021524 0 0 0 Z " fill="#F1D672" transform="translate(360,139)"/>
<path d="M0 0 C0 0.99 0 1.98 0 3 C-8.33333333 6.33333333 -16.66666667 9.66666667 -25 13 C-21.85465898 9.56171055 -18.48187099 7.27690842 -14.5 4.875 C-13.3759375 4.19179687 -12.251875 3.50859375 -11.09375 2.8046875 C-3.89873418 -1.39240506 -3.89873418 -1.39240506 0 0 Z " fill="#2A2A2A" transform="translate(138,99)"/>
<path d="M0 0 C6.16356805 1.6658292 11.48259656 4.87805286 17 8 C16.67 10.31 16.34 12.62 16 15 C14 15 14 15 11.9375 13.0625 C11.50953125 12.61519531 11.0815625 12.16789062 10.640625 11.70703125 C7.75544979 8.70507513 4.75867104 5.81278517 1.79296875 2.890625 C0 1 0 1 0 0 Z " fill="#18201A" transform="translate(53,14)"/>
<path d="M0 0 C3.79303725 1.00193437 6.71536341 1.81024227 10 4 C12.39737533 3.70239002 12.39737533 3.70239002 15 3 C22.1086009 1.95404782 27.70587009 1.16879049 34 5 C34.66 5.99 35.32 6.98 36 8 C30.25 6.125 30.25 6.125 28 5 C23.41787008 4.52345849 19.91390212 4.54304894 15.75 6.625 C13 8 13 8 10.625 7.4375 C9.75875 6.963125 8.8925 6.48875 8 6 C6.56396832 5.28869459 5.12637769 4.58053054 3.6875 3.875 C2.45733836 3.25196065 1.22782862 2.62762455 0 2 C0 1.34 0 0.68 0 0 Z " fill="#7ACEDE" transform="translate(30,182)"/>
<path d="M0 0 C0.33 0 0.66 0 1 0 C0.67690318 4.0009011 0.34226193 8.00069283 0 12 C-0.12568359 13.47919922 -0.12568359 13.47919922 -0.25390625 14.98828125 C-0.33511719 15.87902344 -0.41632813 16.76976562 -0.5 17.6875 C-0.5721875 18.49574219 -0.644375 19.30398437 -0.71875 20.13671875 C-1 22 -1 22 -2 23 C-2.36760731 25.32817964 -2.70241581 27.6618385 -3 30 C-3.33 30 -3.66 30 -4 30 C-4.09765625 23.84765625 -4.09765625 23.84765625 -4 22 C-3.67 21.67 -3.34 21.34 -3 21 C-2.95919217 19.00041636 -2.95745644 16.99954746 -3 15 C-3.99 15.495 -3.99 15.495 -5 16 C-6.34516765 9.64102564 -6.34516765 9.64102564 -4.6875 6.5625 C-3 5 -3 5 -1 5 C-0.67 3.35 -0.34 1.7 0 0 Z " fill="#272E2D" transform="translate(169,130)"/>
<path d="M0 0 C2.15625959 1.58696676 2.89178838 2.59257235 3.58203125 5.19140625 C3.65808594 5.97386719 3.73414063 6.75632813 3.8125 7.5625 C3.90144531 8.34753906 3.99039062 9.13257813 4.08203125 9.94140625 C4 12 4 12 2 14 C2 10.7 2 7.4 2 4 C1.34 4 0.68 4 0 4 C0 6.97 0 9.94 0 13 C-0.99 13 -1.98 13 -3 13 C-2.67 12.67 -2.34 12.34 -2 12 C-1.95907063 9.66702567 -1.95758277 7.33294775 -2 5 C-2.763125 5.020625 -3.52625 5.04125 -4.3125 5.0625 C-7 5 -7 5 -10 4 C-9.67 3.01 -9.34 2.02 -9 1 C-5.95016004 -0.52491998 -3.3576631 -0.23562548 0 0 Z " fill="#E9DA7E" transform="translate(281,137)"/>
<path d="M0 0 C-0.11376617 2.12563103 -0.24135631 4.2505261 -0.375 6.375 C-0.44460937 7.55835937 -0.51421875 8.74171875 -0.5859375 9.9609375 C-1 13 -1 13 -3 15 C-2.67 10.71 -2.34 6.42 -2 2 C-16.27877105 2.33781105 -16.27877105 2.33781105 -30 6 C-30.33 5.34 -30.66 4.68 -31 4 C-20.42383027 0.55407585 -11.08472516 -0.15207702 0 0 Z " fill="#2DC4DD" transform="translate(165,111)"/>
<path d="M0 0 C1.875 0.1875 1.875 0.1875 4 1 C6.53469227 5.49532531 6.264677 9.99568053 6.1875 15 C6.18685547 15.7940625 6.18621094 16.588125 6.18554688 17.40625 C6.15562835 21.395387 5.98093144 25.10766403 5 29 C4.01 29.33 3.02 29.66 2 30 C2.33 28.865625 2.66 27.73125 3 26.5625 C4.80002444 19.16674741 4.81546877 13.46784379 1.0703125 6.7265625 C0.08043057 5.12974567 -0.95785868 3.56321198 -2 2 C-1.34 2 -0.68 2 0 2 C0 1.34 0 0.68 0 0 Z " fill="#34230F" transform="translate(110,26)"/>
<path d="M0 0 C0.66 0.33 1.32 0.66 2 1 C1.67 1.99 1.34 2.98 1 4 C2.98 4.66 4.96 5.32 7 6 C7 6.66 7 7.32 7 8 C8.98 7.67 10.96 7.34 13 7 C13.12375 7.928125 13.12375 7.928125 13.25 8.875 C13.81258459 11.18437567 13.81258459 11.18437567 16.0625 12.25 C17.0215625 12.62125 17.0215625 12.62125 18 13 C18 13.99 18 14.98 18 16 C14.73141364 14.45734943 11.77272271 12.60272429 8.75 10.625 C4.27905056 7.75038955 -0.19553021 5.26625934 -5 3 C-4.360625 2.690625 -3.72125 2.38125 -3.0625 2.0625 C-1.06389179 1.1654837 -1.06389179 1.1654837 0 0 Z " fill="#0B3037" transform="translate(61,115)"/>
<path d="M0 0 C1.32 0 2.64 0 4 0 C4 0.99 4 1.98 4 3 C4.66 3 5.32 3 6 3 C6.66 6.3 7.32 9.6 8 13 C5.03 12.67 2.06 12.34 -1 12 C-1 11.34 -1 10.68 -1 10 C0.32 9.34 1.64 8.68 3 8 C2.505 7.236875 2.01 6.47375 1.5 5.6875 C0 3 0 3 0 0 Z " fill="#FCDE57" transform="translate(203,135)"/>
<path d="M0 0 C0.33 0 0.66 0 1 0 C1 6.93 1 13.86 1 21 C-1.97 21.33 -4.94 21.66 -8 22 C-8.66 20.68 -9.32 19.36 -10 18 C-11.62746694 16.29503463 -13.28891311 14.62102968 -15 13 C-12.3333581 11.66667905 -10.83319697 12.32897967 -8 13 C-8.33 13.66 -8.66 14.32 -9 15 C-8.62031521 17.17970092 -8.62031521 17.17970092 -7 19 C-4.69 19.33 -2.38 19.66 0 20 C0 13.4 0 6.8 0 0 Z " fill="#2A9AAE" transform="translate(79,175)"/>
<path d="M0 0 C0.66 0 1.32 0 2 0 C2.33 1.98 2.66 3.96 3 6 C3.66 6 4.32 6 5 6 C4.67 8.31 4.34 10.62 4 13 C3.01 13.33 2.02 13.66 1 14 C-1 12 -1 12 -1.23046875 9.6875 C-1.21628906 8.800625 -1.20210938 7.91375 -1.1875 7 C-1.18105469 6.113125 -1.17460937 5.22625 -1.16796875 4.3125 C-1 2 -1 2 0 0 Z " fill="#ECD78B" transform="translate(403,140)"/>
<path d="M0 0 C5.45824189 -0.29240582 9.1461782 0.22228492 14.16796875 2.33203125 C16.50110979 3.18270741 18.54129105 3.23050396 21 3 C20.01 4.485 20.01 4.485 19 6 C16.75517484 5.50114996 14.8378716 4.92343936 12.75 3.9375 C8.25946591 2.4066361 4.19146894 2.14883192 -0.22265625 3.86328125 C-2.19282188 4.84657626 -4.09950206 5.88914557 -6 7 C-6.99 7.495 -6.99 7.495 -8 8 C-7.67 6.68 -7.34 5.36 -7 4 C-4.69 3.34 -2.38 2.68 0 2 C0 1.34 0 0.68 0 0 Z " fill="#8CC6D7" transform="translate(126,184)"/>
<path d="M0 0 C0.66 0.66 1.32 1.32 2 2 C-2.29 2 -6.58 2 -11 2 C-11 2.66 -11 3.32 -11 4 C-12.60032137 4.84069415 -14.20541171 5.67231505 -15.8125 6.5 C-17.15248047 7.19609375 -17.15248047 7.19609375 -18.51953125 7.90625 C-21 9 -21 9 -24 9 C-16.46739095 2.11367989 -10.52173877 -1.32381354 0 0 Z " fill="#D49C3C" transform="translate(97,21)"/>
<path d="M0 0 C0.33 0 0.66 0 1 0 C0.9187917 4.04246865 0.80597419 8.08346536 0.6875 12.125 C0.66494141 13.26710937 0.64238281 14.40921875 0.61914062 15.5859375 C0.28449417 26.0512447 0.28449417 26.0512447 -3 31 C-4.20029908 27.39910275 -3.7817151 25.32603142 -3.22265625 21.58203125 C-3.03896484 20.32841797 -2.85527344 19.07480469 -2.66601562 17.78320312 C-2.46499498 16.45961244 -2.26382114 15.13604501 -2.0625 13.8125 C-1.86459198 12.4773086 -1.66731881 11.14202294 -1.47070312 9.80664062 C-0.98671622 6.53677787 -0.4962285 3.26802362 0 0 Z " fill="#0D3B41" transform="translate(161,142)"/>
<path d="M0 0 C0.33 0 0.66 0 1 0 C1.31233884 5.93443789 0.88774951 9.75926941 -2 15 C-2.99 15.33 -3.98 15.66 -5 16 C-5.103125 16.78375 -5.20625 17.5675 -5.3125 18.375 C-6 21 -6 21 -9 23 C-7.39306847 17.91949932 -5.42353736 13.03815871 -3.375 8.125 C-3.05015625 7.34125 -2.7253125 6.5575 -2.390625 5.75 C-1.59559238 3.83256838 -0.79805149 1.9161771 0 0 Z " fill="#02A5C0" transform="translate(160,132)"/>
<path d="M0 0 C3.625 0.1875 3.625 0.1875 6.625 2.1875 C7.171875 4.5 7.171875 4.5 7.375 7.1875 C7.45234375 8.074375 7.5296875 8.96125 7.609375 9.875 C7.625 12.1875 7.625 12.1875 6.625 14.1875 C4.60132462 12.16382462 5.18707767 8.18117397 5.00390625 5.4375 C4.87886719 4.695 4.75382812 3.9525 4.625 3.1875 C3.965 2.8575 3.305 2.5275 2.625 2.1875 C2.625 2.8475 2.625 3.5075 2.625 4.1875 C1.305 4.1875 -0.015 4.1875 -1.375 4.1875 C-1.375 3.5275 -1.375 2.8675 -1.375 2.1875 C-2.365 2.6825 -2.365 2.6825 -3.375 3.1875 C-3.375 4.1775 -3.375 5.1675 -3.375 6.1875 C-4.365 5.8575 -5.355 5.5275 -6.375 5.1875 C-3.97168508 0.22064917 -3.97168508 0.22064917 0 0 Z " fill="#E5DB9A" transform="translate(383.375,136.8125)"/>
<path d="M0 0 C-0.55728913 3.34373475 -1.35173889 6.03312999 -3 9 C-5.31 9 -7.62 9 -10 9 C-9.9375 6.75 -9.9375 6.75 -9 4 C-6.34257905 1.9101187 -3.46449449 0 0 0 Z " fill="#201D1F" transform="translate(108,122)"/>
<path d="M0 0 C0 1.66666667 0 3.33333333 0 5 C1.45833358 6.62514468 1.45833358 6.62514468 3 8 C0.14693203 10.32472205 -2.54074837 11.7508258 -6 13 C-5.67 11.68 -5.34 10.36 -5 9 C-4.34 9 -3.68 9 -3 9 C-3.34444881 6.52733235 -3.34444881 6.52733235 -4 4 C-4.66 3.67 -5.32 3.34 -6 3 C-4.02 2.01 -2.04 1.02 0 0 Z " fill="#2A2B2C" transform="translate(125,110)"/>
<path d="M0 0 C0.99 0.66 1.98 1.32 3 2 C3.1875 5.625 3.1875 5.625 3 9 C2.2575 8.360625 1.515 7.72125 0.75 7.0625 C-1.7111121 5.21666593 -3.03466926 4.43930826 -6 4 C-6 3.34 -6 2.68 -6 2 C-6.99 2.33 -7.98 2.66 -9 3 C-9 2.34 -9 1.68 -9 1 C-5.98131566 -0.50934217 -3.32702771 -0.17510672 0 0 Z " fill="#ECD681" transform="translate(330,137)"/>
<path d="M0 0 C0.33 0 0.66 0 1 0 C1 1.65 1 3.3 1 5 C5.29 5 9.58 5 14 5 C13.67 3.35 13.34 1.7 13 0 C13.99 0 14.98 0 16 0 C16 2.31 16 4.62 16 7 C10.72 7 5.44 7 0 7 C0 4.69 0 2.38 0 0 Z " fill="#B37D26" transform="translate(84,66)"/>
<path d="M0 0 C0.99 0.33 1.98 0.66 3 1 C2.67 5.29 2.34 9.58 2 14 C-0.97 14 -3.94 14 -7 14 C-7 13.01 -7 12.02 -7 11 C-5.02 11 -3.04 11 -1 11 C-0.67 7.37 -0.34 3.74 0 0 Z " fill="#FDDC62" transform="translate(257,139)"/>
<path d="M0 0 C1.2433165 3.64086451 0.80879753 6.53136133 0.22265625 10.296875 C-0.05288086 12.10478516 -0.05288086 12.10478516 -0.33398438 13.94921875 C-0.53314453 15.20347656 -0.73230469 16.45773438 -0.9375 17.75 C-1.13279297 19.01972656 -1.32808594 20.28945312 -1.52929688 21.59765625 C-2.01255218 24.73292236 -2.50304652 27.8668809 -3 31 C-3.33 31 -3.66 31 -4 31 C-4.02685412 28.68756208 -4.04632841 26.3750373 -4.0625 24.0625 C-4.07410156 22.77472656 -4.08570313 21.48695313 -4.09765625 20.16015625 C-4 17 -4 17 -3 16 C-2.62677755 13.69360186 -2.30108195 11.37941973 -2 9.0625 C-1.10866575 2.2173315 -1.10866575 2.2173315 0 0 Z " fill="#1A91A3" transform="translate(163,124)"/>
<path d="M0 0 C0.33 0.99 0.66 1.98 1 3 C4.51190809 4.22969878 4.51190809 4.22969878 8 5 C7.67 5.66 7.34 6.32 7 7 C4.03 6.505 4.03 6.505 1 6 C2.32 6.99 3.64 7.98 5 9 C1.26512223 8.5020163 -0.81237635 8.12508244 -4 6 C-4.1875 3.375 -4.1875 3.375 -4 1 C-2 0 -2 0 0 0 Z " fill="#F0DB7E" transform="translate(324,139)"/>
<path d="M0 0 C0.99 0 1.98 0 3 0 C3.22174933 1.45635371 3.42698698 2.91522956 3.625 4.375 C3.74101562 5.18710938 3.85703125 5.99921875 3.9765625 6.8359375 C3.98429687 7.55007812 3.99203125 8.26421875 4 9 C2 11 2 11 -1.625 11.125 C-2.73875 11.08375 -3.8525 11.0425 -5 11 C-4.67 9.68 -4.34 8.36 -4 7 C-1.03 7.495 -1.03 7.495 2 8 C1.67 7.4225 1.34 6.845 1 6.25 C0 4 0 4 0 0 Z " fill="#F9DF5E" transform="translate(310,136)"/>
<path d="M0 0 C1.1859375 0.00257812 2.371875 0.00515625 3.59375 0.0078125 C4.7796875 0.00523438 5.965625 0.00265625 7.1875 0 C10.09375 0.1328125 10.09375 0.1328125 11.09375 1.1328125 C11.16554964 2.65209288 11.17767007 4.17448732 11.15625 5.6953125 C11.14722656 6.52160156 11.13820313 7.34789063 11.12890625 8.19921875 C11.11730469 8.83730469 11.10570312 9.47539063 11.09375 10.1328125 C10.76375 10.1328125 10.43375 10.1328125 10.09375 10.1328125 C9.76375 7.8228125 9.43375 5.5128125 9.09375 3.1328125 C5.46375 2.8028125 1.83375 2.4728125 -1.90625 2.1328125 C-1.90625 4.7728125 -1.90625 7.4128125 -1.90625 10.1328125 C-2.23625 10.1328125 -2.56625 10.1328125 -2.90625 10.1328125 C-3.10037181 8.65450029 -3.28637131 7.17511934 -3.46875 5.6953125 C-3.57316406 4.87160156 -3.67757813 4.04789062 -3.78515625 3.19921875 C-3.82511719 2.51730469 -3.86507813 1.83539063 -3.90625 1.1328125 C-2.90625 0.1328125 -2.90625 0.1328125 0 0 Z " fill="#000316" transform="translate(402.90625,60.8671875)"/>
<path d="M0 0 C2.875 0.3125 2.875 0.3125 6 1 C6.66 1.99 7.32 2.98 8 4 C7.67 4.99 7.34 5.98 7 7 C7 6.34 7 5.68 7 5 C6.34 5 5.68 5 5 5 C4.67 5.66 4.34 6.32 4 7 C3.29875 6.814375 2.5975 6.62875 1.875 6.4375 C-1.33888698 5.94843024 -3.83560336 6.33768442 -7 7 C-6.67 5.68 -6.34 4.36 -6 3 C-5.67 3.66 -5.34 4.32 -5 5 C-4.34 4.67 -3.68 4.34 -3 4 C-3.33 3.34 -3.66 2.68 -4 2 C-1.36 2.66 1.28 3.32 4 4 C4 3.34 4 2.68 4 2 C2.68 2 1.36 2 0 2 C0 1.34 0 0.68 0 0 Z " fill="#EDDA8D" transform="translate(340,143)"/>
<path d="M0 0 C8.8795045 -0.75214626 16.59186659 1.48877082 25 4 C24.67 4.66 24.34 5.32 24 6 C22.2365625 5.5978125 22.2365625 5.5978125 20.4375 5.1875 C13.64901229 3.67532085 6.82249772 2.34831971 0 1 C0 0.67 0 0.34 0 0 Z " fill="#C3C3C3" transform="translate(27,92)"/>
<path d="M0 0 C0.66 0 1.32 0 2 0 C2.33 0.99 2.66 1.98 3 3 C2 4.5 2 4.5 0 6 C-2.79873829 6.39491399 -5.13817454 6.227129 -8 6 C-8.66 5.34 -9.32 4.68 -10 4 C-8 2 -8 2 -6.0546875 1.8046875 C-4.03645833 1.86979167 -2.01822917 1.93489583 0 2 C0 1.34 0 0.68 0 0 Z " fill="#F5DD78" transform="translate(345,148)"/>
<path d="M0 0 C3 1 3 1 5 4 C4.67 4.99 4.34 5.98 4 7 C3.01 6.34 2.02 5.68 1 5 C1 9.62 1 14.24 1 19 C0.34 18.67 -0.32 18.34 -1 18 C-1.4140625 15.63671875 -1.4140625 15.63671875 -1.625 12.6875 C-1.69976562 11.72199219 -1.77453125 10.75648438 -1.8515625 9.76171875 C-2.19895288 3.29842932 -2.19895288 3.29842932 0 0 Z " fill="#DFD395" transform="translate(410,134)"/>
<path d="M0 0 C-0.625 2.375 -0.625 2.375 -2 5 C-5.20132131 6.43037761 -7.49507445 7 -11 7 C-12.33981486 7.3062434 -13.67511887 7.63451555 -15 8 C-12.61753661 5.31874582 -10.1454496 3.88576541 -6.9375 2.3125 C-5.62072266 1.65701172 -5.62072266 1.65701172 -4.27734375 0.98828125 C-2 0 -2 0 0 0 Z " fill="#CCCDCD" transform="translate(127,106)"/>
<path d="M0 0 C-0.99 0.495 -0.99 0.495 -2 1 C-2.33 1.66 -2.66 2.32 -3 3 C-9.27 2.34 -15.54 1.68 -22 1 C-22 0.67 -22 0.34 -22 0 C-14.83171158 -1.91154358 -7.22751457 -1.25695906 0 0 Z " fill="#99989B" transform="translate(44,101)"/>
<path d="M0 0 C0.66 0 1.32 0 2 0 C2 5.94 2 11.88 2 18 C1.34 18 0.68 18 0 18 C0 16.35 0 14.7 0 13 C-0.66 13 -1.32 13 -2 13 C-1.34 8.71 -0.68 4.42 0 0 Z " fill="#FCDE5E" transform="translate(217,135)"/>
<path d="M0 0 C1.65 0 3.3 0 5 0 C7.02907167 3.3146667 7.12742133 5.4315979 6.625 9.25 C6.51414062 10.14203125 6.40328125 11.0340625 6.2890625 11.953125 C6.19367188 12.62859375 6.09828125 13.3040625 6 14 C5.67 14 5.34 14 5 14 C4.67 10.7 4.34 7.4 4 4 C3.34 4 2.68 4 2 4 C2 5.65 2 7.3 2 9 C1.67 9 1.34 9 1 9 C0.67 6.03 0.34 3.06 0 0 Z " fill="#132323" transform="translate(79,130)"/>
<path d="M0 0 C-1.14339844 0.63808594 -2.28679687 1.27617188 -3.46484375 1.93359375 C-4.95577803 2.76814187 -6.44666079 3.60278204 -7.9375 4.4375 C-8.69224609 4.85837891 -9.44699219 5.27925781 -10.22460938 5.71289062 C-10.94326172 6.11572266 -11.66191406 6.51855469 -12.40234375 6.93359375 C-13.06741943 7.30540771 -13.73249512 7.67722168 -14.41772461 8.06030273 C-15.98577832 8.90347714 -15.98577832 8.90347714 -17 10 C-18.66617115 10.04063832 -20.33388095 10.042721 -22 10 C-18.23550111 6.77226426 -14.29474933 4.38806993 -9.875 2.1875 C-9.25496094 1.86330078 -8.63492188 1.53910156 -7.99609375 1.20507812 C-3.36351754 -1.12117251 -3.36351754 -1.12117251 0 0 Z " fill="#C5F0F2" transform="translate(135,117)"/>
<path d="M0 0 C7.26 0 14.52 0 22 0 C22 0.33 22 0.66 22 1 C20.84242188 1.13277344 19.68484375 1.26554687 18.4921875 1.40234375 C16.95311592 1.58065082 15.41405393 1.75904062 13.875 1.9375 C12.73417969 2.06801758 12.73417969 2.06801758 11.5703125 2.20117188 C7.35670423 2.6915487 3.178805 3.25902978 -1 4 C-0.67 2.68 -0.34 1.36 0 0 Z " fill="#A8AAA7" transform="translate(141,101)"/>
<path d="M0 0 C1.74216797 0.05414063 1.74216797 0.05414063 3.51953125 0.109375 C4.39996094 0.15578125 5.28039062 0.2021875 6.1875 0.25 C6.5175 0.91 6.8475 1.57 7.1875 2.25 C6.15302734 2.14558594 6.15302734 2.14558594 5.09765625 2.0390625 C-2.64954126 1.5927219 -6.8766163 3.32541501 -12.8125 8.25 C-12.4933602 5.2713619 -11.7831567 4.2193156 -9.67578125 2.015625 C-6.16437379 -0.14966309 -4.08769129 -0.16515924 0 0 Z " fill="#000313" transform="translate(435.8125,60.75)"/>
<path d="M0 0 C0 0.33 0 0.66 0 1 C-1.25296875 1.27714844 -2.5059375 1.55429688 -3.796875 1.83984375 C-5.44792292 2.20570096 -7.09896424 2.57158793 -8.75 2.9375 C-9.575 3.11990234 -10.4 3.30230469 -11.25 3.49023438 C-12.44882813 3.75610352 -12.44882813 3.75610352 -13.671875 4.02734375 C-14.77160645 4.27085571 -14.77160645 4.27085571 -15.89355469 4.51928711 C-17.93661753 4.98553546 -19.96893762 5.48420649 -22 6 C-22 5.01 -22 4.02 -22 3 C-14.52678392 0.84278299 -7.78961124 -0.46530864 0 0 Z " fill="#C5C6C6" transform="translate(158,92)"/>
<path d="M0 0 C0.99 0.33 1.98 0.66 3 1 C3.33 4.96 3.66 8.92 4 13 C2.68 12.67 1.36 12.34 0 12 C0 8.04 0 4.08 0 0 Z " fill="#FADB65" transform="translate(386,139)"/>
<path d="M0 0 C1.25180279 4.21919103 0.67252421 7.96088565 0.0625 12.25 C-0.03740234 12.99507812 -0.13730469 13.74015625 -0.24023438 14.5078125 C-0.48680156 16.33945442 -0.74250391 18.16986251 -1 20 C-3.56251189 17.43748811 -3.29778372 16.36893409 -3.3125 12.8125 C-3.2397123 7.7835315 -2.35288614 4.41166152 0 0 Z " fill="#C58C2B" transform="translate(72,32)"/>
<path d="M0 0 C3.92297846 0.56340648 6.49080356 1.70090379 9.75 3.9375 C10.52859375 4.46214844 11.3071875 4.98679687 12.109375 5.52734375 C14 7 14 7 15 9 C11.34061828 7.56835889 7.76011932 6.01065704 4.1875 4.375 C3.21167969 3.92898437 2.23585937 3.48296875 1.23046875 3.0234375 C0.49441406 2.68570313 -0.24164063 2.34796875 -1 2 C-0.67 1.34 -0.34 0.68 0 0 Z " fill="#2E2E2E" transform="translate(57,103)"/>
<path d="M0 0 C2.97 0.495 2.97 0.495 6 1 C5.67 2.32 5.34 3.64 5 5 C7.97 5 10.94 5 14 5 C14 5.33 14 5.66 14 6 C12.35425434 6.02688151 10.70838587 6.04634123 9.0625 6.0625 C8.14597656 6.07410156 7.22945313 6.08570312 6.28515625 6.09765625 C4 6 4 6 3 5 C3.33 5.99 3.66 6.98 4 8 C2.68 7.67 1.36 7.34 0 7 C0 4.69 0 2.38 0 0 Z " fill="#161912" transform="translate(83,74)"/>
<path d="M0 0 C1.27230469 0.00902344 2.54460937 0.01804688 3.85546875 0.02734375 C5.31919922 0.04474609 5.31919922 0.04474609 6.8125 0.0625 C6.4825 1.0525 6.1525 2.0425 5.8125 3.0625 C5.08804688 2.95550781 4.36359375 2.84851563 3.6171875 2.73828125 C-2.35255114 1.99803366 -5.8919936 1.80372683 -11.1875 5.0625 C-11.8475 4.7325 -12.5075 4.4025 -13.1875 4.0625 C-9.23682346 -0.26443145 -5.66914617 -0.05201052 0 0 Z " fill="#9FC6CD" transform="translate(108.1875,195.9375)"/>
<path d="M0 0 C0.66 0 1.32 0 2 0 C2 5.28 2 10.56 2 16 C1.34 16 0.68 16 0 16 C-0.19441368 13.7089095 -0.38033135 11.41709663 -0.5625 9.125 C-0.71912109 7.21074219 -0.71912109 7.21074219 -0.87890625 5.2578125 C-1 2 -1 2 0 0 Z " fill="#F9DC65" transform="translate(371,136)"/>
<path d="M0 0 C5.61 0 11.22 0 17 0 C16.67 1.32 16.34 2.64 16 4 C14.02 4 12.04 4 10 4 C10 3.67 10 3.34 10 3 C11.65 3 13.3 3 15 3 C15 2.34 15 1.68 15 1 C10.71 1 6.42 1 2 1 C2.33 1.99 2.66 2.98 3 4 C1.68 3.34 0.36 2.68 -1 2 C-0.67 1.34 -0.34 0.68 0 0 Z " fill="#DEDD99" transform="translate(230,133)"/>
<path d="M0 0 C1.45903258 0.30921884 2.91720722 0.62248799 4.375 0.9375 C5.18710938 1.11152344 5.99921875 1.28554687 6.8359375 1.46484375 C9 2 9 2 11 3 C9.515 5.475 9.515 5.475 8 8 C6.68 7.34 5.36 6.68 4 6 C4 5.34 4 4.68 4 4 C2.70766393 2.62689293 1.37562854 1.28965176 0 0 Z " fill="#0A2319" transform="translate(85,91)"/>
<path d="M0 0 C6.27 0 12.54 0 19 0 C19 0.33 19 0.66 19 1 C16.69 1.33 14.38 1.66 12 2 C12 2.33 12 2.66 12 3 C10.37419034 2.88601335 8.74932843 2.75844341 7.125 2.625 C6.22007813 2.55539063 5.31515625 2.48578125 4.3828125 2.4140625 C2 2 2 2 0 0 Z " fill="#0E2414" transform="translate(39,37)"/>
<path d="M0 0 C0.33 0 0.66 0 1 0 C1.22577402 5.4185766 0.46670113 9.77487721 -1 15 C-1.66 14.34 -2.32 13.68 -3 13 C-3.99 13.66 -4.98 14.32 -6 15 C-4.79618552 12.50638429 -3.54571278 10.31856917 -2 8 C-1.63858045 5.67085177 -1.30300475 3.33746522 -1 1 C-0.67 0.67 -0.34 0.34 0 0 Z " fill="#C2D2D2" transform="translate(167,152)"/>
<path d="M0 0 C2.475 0.99 2.475 0.99 5 2 C1.83047153 5.26008643 -1.39937989 8.22237877 -5 11 C-5 10.01 -5 9.02 -5 8 C-4.34 8 -3.68 8 -3 8 C-1.58622659 5.36095629 -0.62759865 2.92879371 0 0 Z " fill="#2E2E2E" transform="translate(99,109)"/>
<path d="M0 0 C1.32 0.66 2.64 1.32 4 2 C4 4.31 4 6.62 4 9 C2.68 9 1.36 9 0 9 C0 10.65 0 12.3 0 14 C-0.33 14 -0.66 14 -1 14 C-1 10.7 -1 7.4 -1 4 C-0.67 5.32 -0.34 6.64 0 8 C0.66 7.34 1.32 6.68 2 6 C2 5.01 2 4.02 2 3 C1.01 3 0.02 3 -1 3 C-0.67 2.01 -0.34 1.02 0 0 Z " fill="#232826" transform="translate(79,65)"/>
<path d="M0 0 C3.67420866 0.30618405 4.78135513 0.75771784 7.3125 3.5625 C8.1478125 4.7690625 8.1478125 4.7690625 9 6 C7.02 5.34 5.04 4.68 3 4 C2.67 4.66 2.34 5.32 2 6 C0.68 5.34 -0.64 4.68 -2 4 C-1.34 2.68 -0.68 1.36 0 0 Z " fill="#EAA532" transform="translate(99,23)"/>
<path d="M0 0 C0.66 0 1.32 0 2 0 C1.39254603 4.85963179 -0.72758967 8.7405518 -3 13 C-4 10 -4 10 -3 7 C-3.66 6.67 -4.32 6.34 -5 6 C-3.38405168 3.95880212 -1.7143618 1.95927063 0 0 Z " fill="#112521" transform="translate(111,6)"/>
<path d="M0 0 C0.66 0 1.32 0 2 0 C2.84098656 4.01804691 3.05404945 7.01803543 2 11 C1.01 11 0.02 11 -1 11 C-1.125 3.375 -1.125 3.375 0 0 Z " fill="#FADE62" transform="translate(264,135)"/>
<path d="M0 0 C0.66 0.66 1.32 1.32 2 2 C1.95235267 5.19237122 1.28115456 8.07874672 0 11 C-2.89566591 12.50815933 -4.76908548 13 -8 13 C-8 12.34 -8 11.68 -8 11 C-7.01 11 -6.02 11 -5 11 C-5 10.34 -5 9.68 -5 9 C-3.68 9 -2.36 9 -1 9 C-0.67 6.03 -0.34 3.06 0 0 Z " fill="#429FAF" transform="translate(156,172)"/>
<path d="M0 0 C0.66 0 1.32 0 2 0 C2 3.63 2 7.26 2 11 C-0.31 11.33 -2.62 11.66 -5 12 C-4.67 11.01 -4.34 10.02 -4 9 C-3.01 9 -2.02 9 -1 9 C-0.67 6.03 -0.34 3.06 0 0 Z " fill="#FBDD5B" transform="translate(281,141)"/>
<path d="M0 0 C1.43088528 2.86177057 0.59991697 4.93375773 0 8 C-0.66 8 -1.32 8 -2 8 C-2.33 8.66 -2.66 9.32 -3 10 C-4.125 3.25 -4.125 3.25 -3 1 C-2.01 0.67 -1.02 0.34 0 0 Z " fill="#F6DB66" transform="translate(273,140)"/>
<path d="M0 0 C3.68040867 2.32446864 5.2994906 4.07965475 6.3125 8.25 C6.539375 9.4875 6.76625 10.725 7 12 C6.01 12 5.02 12 4 12 C3.32645501 10.56570999 2.66140299 9.12742943 2 7.6875 C1.62875 6.88699219 1.2575 6.08648437 0.875 5.26171875 C0 3 0 3 0 0 Z " fill="#0E2117" transform="translate(71,6)"/>
<path d="M0 0 C0 3.63327194 -0.95586411 5.04735927 -3 8 C-3.99 8.66 -4.98 9.32 -6 10 C-7.19232613 12.05003955 -7.19232613 12.05003955 -8 14 C-8.99 13.67 -9.98 13.34 -11 13 C-7.37 8.71 -3.74 4.42 0 0 Z " fill="#01AACB" transform="translate(143,168)"/>
<path d="M0 0 C1.32 0 2.64 0 4 0 C4 0.99 4 1.98 4 3 C4.66 3.33 5.32 3.66 6 4 C5.67 4.33 5.34 4.66 5 5 C4.95936168 6.66617115 4.957279 8.33388095 5 10 C1.94597912 8.47298956 1.34130519 6.04842088 0 3 C0 2.01 0 1.02 0 0 Z " fill="#F7E267" transform="translate(203,135)"/>
<path d="M0 0 C0.33 1.32 0.66 2.64 1 4 C-0.95330868 5.03041513 -2.91281528 6.0490893 -4.875 7.0625 C-5.96554688 7.63097656 -7.05609375 8.19945313 -8.1796875 8.78515625 C-9.11039062 9.18605469 -10.04109375 9.58695313 -11 10 C-11.66 9.67 -12.32 9.34 -13 9 C-8.71 6.03 -4.42 3.06 0 0 Z " fill="#3C3C3C" transform="translate(126,102)"/>
<path d="M0 0 C0.66 0.33 1.32 0.66 2 1 C1.58427734 1.78310547 1.58427734 1.78310547 1.16015625 2.58203125 C-1.85788278 8.71477249 -2.74582043 14.20069654 -3 21 C-3.33 21 -3.66 21 -4 21 C-4.33386345 13.58081218 -4.19337923 7.76996398 -1 1 C-0.67 0.67 -0.34 0.34 0 0 Z " fill="#372105" transform="translate(72,29)"/>
<path d="M0 0 C0.98052284 2.64741166 1.05565835 3.82446211 0.1875 6.5625 C-1 9 -1 9 -3 12 C-3.99 12 -4.98 12 -6 12 C-4.43358249 7.69235185 -2.31663844 3.93828536 0 0 Z " fill="#02A4C1" transform="translate(150,155)"/>
<path d="M0 0 C1.32 0.66 2.64 1.32 4 2 C3.67 3.65 3.34 5.3 3 7 C3.99 7.33 4.98 7.66 6 8 C5.34 8 4.68 8 4 8 C4 8.99 4 9.98 4 11 C3.34 11 2.68 11 2 11 C2 8.36 2 5.72 2 3 C0.68 2.67 -0.64 2.34 -2 2 C-1.34 1.34 -0.68 0.68 0 0 Z " fill="#EED895" transform="translate(350,137)"/>
<path d="M0 0 C6.625 -0.25 6.625 -0.25 10 2 C10 3.32 10 4.64 10 6 C8.68 5.67 7.36 5.34 6 5 C6.66 4.67 7.32 4.34 8 4 C8 3.34 8 2.68 8 2 C5.03 2 2.06 2 -1 2 C-0.67 1.34 -0.34 0.68 0 0 Z " fill="#E0D38E" transform="translate(337,137)"/>
<path d="M0 0 C2.97 0.33 5.94 0.66 9 1 C9.33 2.32 9.66 3.64 10 5 C6.7 4.01 3.4 3.02 0 2 C0 1.34 0 0.68 0 0 Z " fill="#AFADAE" transform="translate(42,102)"/>
<path d="M0 0 C2.475 0.495 2.475 0.495 5 1 C5 1.99 5 2.98 5 4 C5.99 4 6.98 4 8 4 C8 4.99 8 5.98 8 7 C9.32 7.33 10.64 7.66 12 8 C11.67 8.66 11.34 9.32 11 10 C6.32751069 7.17477391 3.34003602 4.32239956 0 0 Z " fill="#C48826" transform="translate(72,56)"/>
<path d="M0 0 C2.31 0 4.62 0 7 0 C7 1.32 7 2.64 7 4 C5.68 4.33 4.36 4.66 3 5 C3 4.34 3 3.68 3 3 C1.68 3 0.36 3 -1 3 C-0.67 2.01 -0.34 1.02 0 0 Z " fill="#E7DC83" transform="translate(287,137)"/>
<path d="M0 0 C0.556875 0.391875 1.11375 0.78375 1.6875 1.1875 C1.3575 2.5075 1.0275 3.8275 0.6875 5.1875 C-0.3025 5.1875 -1.2925 5.1875 -2.3125 5.1875 C-1.9825 4.5275 -1.6525 3.8675 -1.3125 3.1875 C-3.2925 3.5175 -5.2725 3.8475 -7.3125 4.1875 C-7.3125 3.5275 -7.3125 2.8675 -7.3125 2.1875 C-3.09973404 -1.08909574 -3.09973404 -1.08909574 0 0 Z " fill="#171D19" transform="translate(110.3125,97.8125)"/>
<path d="M0 0 C4.23429756 1.31061591 8.07407404 2.94356259 12 5 C10.25 6.125 10.25 6.125 8 7 C4.12890887 5.91125562 2.3151865 3.14203882 0 0 Z " fill="#081C0D" transform="translate(53,14)"/>
<path d="M0 0 C0 3 0 3 -1.6875 5.25 C-4 7 -4 7 -6.75 6.75 C-7.4925 6.5025 -8.235 6.255 -9 6 C-6.45543849 3.03134491 -3.51005335 1.6380249 0 0 Z " fill="#132720" transform="translate(129,14)"/>
<path d="M0 0 C0.99 0 1.98 0 3 0 C2.67 3.96 2.34 7.92 2 12 C1.34 12 0.68 12 0 12 C0 8.04 0 4.08 0 0 Z " fill="#FEDB5A" transform="translate(287,140)"/>
<path d="M0 0 C2.41824183 2.41824183 3.47403755 4.9480751 5 8 C5.96534522 9.35863401 6.95277149 10.70343137 8 12 C7.01 12.495 7.01 12.495 6 13 C0.11816193 7.08315098 0.11816193 7.08315098 -0.375 2.5625 C-0.25125 1.716875 -0.1275 0.87125 0 0 Z " fill="#382508" transform="translate(69,50)"/>
<path d="M0 0 C2.97 0.99 5.94 1.98 9 3 C7 5 7 5 4.5 5.25 C2 5 2 5 0 3 C0 2.01 0 1.02 0 0 Z " fill="#B9B9B9" transform="translate(51,103)"/>
<path d="M0 0 C0.33 0 0.66 0 1 0 C1 2.97 1 5.94 1 9 C1.99 9.33 2.98 9.66 4 10 C3.67 10.99 3.34 11.98 3 13 C1.68 12.67 0.36 12.34 -1 12 C-0.67 8.04 -0.34 4.08 0 0 Z " fill="#E6DB89" transform="translate(412,141)"/>
<path d="M0 0 C1.32 0 2.64 0 4 0 C4 1.98 4 3.96 4 6 C2.68 6 1.36 6 0 6 C0 4.02 0 2.04 0 0 Z " fill="#FDE44F" transform="translate(348,140)"/>
<path d="M0 0 C0.66 0.33 1.32 0.66 2 1 C2 3.31 2 5.62 2 8 C0.88625 7.071875 0.88625 7.071875 -0.25 6.125 C-2.48801188 4.39562719 -4.43739987 3.13893339 -7 2 C-5.02 1.67 -3.04 1.34 -1 1 C-0.67 1.66 -0.34 2.32 0 3 C0 2.01 0 1.02 0 0 Z " fill="#E9DC9C" transform="translate(331,138)"/>
<path d="M0 0 C0.33 0 0.66 0 1 0 C1 2.97 1 5.94 1 9 C-2.62326739 10.2077558 -3.64146369 9.54311128 -7 8 C-6.34 7.01 -5.68 6.02 -5 5 C-5 5.66 -5 6.32 -5 7 C-3.35 7.33 -1.7 7.66 0 8 C0 5.36 0 2.72 0 0 Z " fill="#00040F" transform="translate(349,77)"/>
<path d="M0 0 C1.32 0.33 2.64 0.66 4 1 C3.67 1.99 3.34 2.98 3 4 C2.34 4 1.68 4 1 4 C1 6.97 1 9.94 1 13 C0.67 13 0.34 13 0 13 C0 8.71 0 4.42 0 0 Z " fill="#ECDC9A" transform="translate(373,137)"/>
<path d="M0 0 C0.99 0 1.98 0 3 0 C3 0.99 3 1.98 3 3 C3.99 3.33 4.98 3.66 6 4 C5.34 5.98 4.68 7.96 4 10 C3.34 10 2.68 10 2 10 C2 7.03 2 4.06 2 1 C1.34 0.67 0.68 0.34 0 0 Z " fill="#E9D78D" transform="translate(264,134)"/>
<path d="M0 0 C5.15464734 0.48324819 8.81550319 3.18610761 13 6 C11 7 11 7 7 7 C6.67 6.01 6.34 5.02 6 4 C2.99992729 2.29144978 2.99992729 2.29144978 0 1 C0 0.67 0 0.34 0 0 Z " fill="#DEDDDC" transform="translate(60,107)"/>
<path d="M0 0 C1.65 0 3.3 0 5 0 C5 1.32 5 2.64 5 4 C3.35 4 1.7 4 0 4 C0 2.68 0 1.36 0 0 Z " fill="#F1DC78" transform="translate(264,150)"/>
<path d="M0 0 C0.99 0.99 1.98 1.98 3 3 C2.67 3.99 2.34 4.98 2 6 C0.35 5.67 -1.3 5.34 -3 5 C-3.33 4.01 -3.66 3.02 -4 2 C-2.68 2 -1.36 2 0 2 C0 1.34 0 0.68 0 0 Z " fill="#AEAEAF" transform="translate(72,111)"/>
<path d="M0 0 C0.88336837 2.4667645 1.1312406 3.63859372 0.22265625 6.140625 C-0.16019531 6.83671875 -0.54304688 7.5328125 -0.9375 8.25 C-1.31777344 8.95640625 -1.69804688 9.6628125 -2.08984375 10.390625 C-2.39019531 10.92171875 -2.69054687 11.4528125 -3 12 C-3.66 10.68 -4.32 9.36 -5 8 C-4.34 7.67 -3.68 7.34 -3 7 C-2.34786708 4.97536745 -2.34786708 4.97536745 -2 3 C-1.34 3 -0.68 3 0 3 C0 2.01 0 1.02 0 0 Z " fill="#E6A53C" transform="translate(113,47)"/>
<path d="M0 0 C-1.62445619 0.98006859 -3.24958261 1.95902636 -4.875 2.9375 C-5.77992187 3.48277344 -6.68484375 4.02804688 -7.6171875 4.58984375 C-9.05201636 5.43898017 -10.50875448 6.25437724 -12 7 C-11.34 5.68 -10.68 4.36 -10 3 C-9.34 3 -8.68 3 -8 3 C-8 2.01 -8 1.02 -8 0 C-4.71303767 -0.79953138 -3.28976808 -1.09658936 0 0 Z " fill="#38220A" transform="translate(86,22)"/>
<path d="M0 0 C0.53625 0.350625 1.0725 0.70125 1.625 1.0625 C4.73274763 2.28924249 6.79431703 1.72856431 10 1 C9.67 1.99 9.34 2.98 9 4 C5.4375 5.1875 5.4375 5.1875 2 6 C1.34 4.02 0.68 2.04 0 0 Z " fill="#02A5C4" transform="translate(87,168)"/>
<path d="M0 0 C3 1 3 1 5 4 C4.67 4.99 4.34 5.98 4 7 C3.01 6.34 2.02 5.68 1 5 C0.01 5.495 0.01 5.495 -1 6 C-0.67 4.02 -0.34 2.04 0 0 Z " fill="#EEDA8B" transform="translate(410,134)"/>
<path d="M0 0 C2.31 0.33 4.62 0.66 7 1 C7 1.66 7 2.32 7 3 C5.68 3 4.36 3 3 3 C3 2.34 3 1.68 3 1 C2.01 1.495 2.01 1.495 1 2 C1 2.99 1 3.98 1 5 C0.01 4.67 -0.98 4.34 -2 4 C-1.34 2.68 -0.68 1.36 0 0 Z " fill="#E5D28C" transform="translate(379,138)"/>
<path d="M0 0 C1.32 0 2.64 0 4 0 C4 1.32 4 2.64 4 4 C3.195625 4.12375 2.39125 4.2475 1.5625 4.375 C0.2940625 4.684375 0.2940625 4.684375 -1 5 C-1.33 5.66 -1.66 6.32 -2 7 C-1.67 5.68 -1.34 4.36 -1 3 C-0.34 3 0.32 3 1 3 C0.67 2.01 0.34 1.02 0 0 Z " fill="#E7DB8A" transform="translate(382,143)"/>
<path d="M0 0 C0.66 0 1.32 0 2 0 C2 2.64 2 5.28 2 8 C1.34 8 0.68 8 0 8 C-1.125 2.25 -1.125 2.25 0 0 Z " fill="#FCD957" transform="translate(403,140)"/>
<path d="M0 0 C0.99 0.33 1.98 0.66 3 1 C3.33 2.98 3.66 4.96 4 7 C3.01 7 2.02 7 1 7 C0.67 4.69 0.34 2.38 0 0 Z " fill="#F8D86A" transform="translate(363,144)"/>
<path d="M0 0 C3.34373475 0.55728913 6.03312999 1.35173889 9 3 C5.52176885 4.15941038 3.54104422 3.70820884 0 3 C0 2.01 0 1.02 0 0 Z " fill="#19C1DB" transform="translate(48,115)"/>
<path d="M0 0 C0.66 0 1.32 0 2 0 C0.55746343 3.36591866 -1.33264727 5.51047079 -4 8 C-3.67 6.35 -3.34 4.7 -3 3 C-2.34 3 -1.68 3 -1 3 C-0.67 2.01 -0.34 1.02 0 0 Z " fill="#08CEEE" transform="translate(142,166)"/>
<path d="M0 0 C0.66 1.32 1.32 2.64 2 4 C0.02 4.66 -1.96 5.32 -4 6 C-3.67 4.35 -3.34 2.7 -3 1 C-2.01 0.67 -1.02 0.34 0 0 Z " fill="#AFAFAF" transform="translate(130,104)"/>
<path d="M0 0 C0.33 0 0.66 0 1 0 C1.33 4.29 1.66 8.58 2 13 C-1 9 -1 9 -1.07421875 6.640625 C-0.94660156 5.85171875 -0.81898437 5.0628125 -0.6875 4.25 C-0.56761719 3.45078125 -0.44773437 2.6515625 -0.32421875 1.828125 C-0.21722656 1.22484375 -0.11023438 0.6215625 0 0 Z " fill="#0F5362" transform="translate(26,159)"/>
<path d="M0 0 C0.33 0 0.66 0 1 0 C1 2.64 1 5.28 1 8 C0.01 7.67 -0.98 7.34 -2 7 C-1.34 4.69 -0.68 2.38 0 0 Z " fill="#F8DD60" transform="translate(248,142)"/>
<path d="M0 0 C3.91402949 1.26941497 5.79072873 2.51167694 8 6 C4.54074837 4.7508258 1.85306797 3.32472205 -1 1 C-0.67 0.67 -0.34 0.34 0 0 Z " fill="#4A4848" transform="translate(64,106)"/>
<path d="M0 0 C4.75 1.875 4.75 1.875 7 3 C6.67 3.66 6.34 4.32 6 5 C4.02 4.34 2.04 3.68 0 3 C0 2.01 0 1.02 0 0 Z " fill="#061B15" transform="translate(134,63)"/>
<path d="M0 0 C0.99 0.33 1.98 0.66 3 1 C3 2.98 3 4.96 3 7 C0.64046906 4.64046906 0.50858587 3.22104383 0 0 Z " fill="#E8E8B4" transform="translate(211,138)"/>
<path d="M0 0 C1.32 0.33 2.64 0.66 4 1 C3.67 1.99 3.34 2.98 3 4 C2.01 3.67 1.02 3.34 0 3 C0 2.01 0 1.02 0 0 Z " fill="#DED194" transform="translate(349,132)"/>
<path d="" fill="#FFFFFF" transform="translate(0,0)"/>
<path d="" fill="#FFFFFF" transform="translate(0,0)"/>
<path d="" fill="#000000" transform="translate(0,0)"/>
<path d="" fill="#000000" transform="translate(0,0)"/>
<path d="" fill="#000000" transform="translate(0,0)"/>
<path d="" fill="#000000" transform="translate(0,0)"/>
<path d="" fill="#000000" transform="translate(0,0)"/>
<path d="" fill="#000000" transform="translate(0,0)"/>
</svg>
