<?xml version="1.0" encoding="UTF-8"?>
<svg version="1.1" xmlns="http://www.w3.org/2000/svg" width="1050" height="600">
<path d="M0 0 C22.73739508 0.70069014 44.89564655 8.74476584 62 24 C65.5373156 22.74147321 67.99829717 21.33957682 70.8125 18.875 C84.13628754 8.28655957 101.06677386 2.66300455 117.75 0.375 C118.51296387 0.25656738 119.27592773 0.13813477 120.06201172 0.01611328 C122.234375 -0.2265625 122.234375 -0.2265625 126 0 C128.2421875 2.0859375 128.2421875 2.0859375 130 5 C131.09441406 6.46179688 131.09441406 6.46179688 132.2109375 7.953125 C136.4252389 14.37346865 138.74327731 18.95227914 137.40234375 26.7890625 C137.29698807 27.51624481 137.19163239 28.24342712 137.08308411 28.99264526 C136.85653657 30.53962102 136.61991447 32.08515061 136.37390137 33.62915039 C136.00118631 35.99247777 135.66491685 38.35833368 135.33886719 40.72851562 C134.78399284 44.72733535 134.18358667 48.71736191 133.56030273 52.70605469 C133.30919396 54.33538393 133.06618567 55.96597982 132.83081055 57.59765625 C132.48242673 60.00840543 132.10918995 62.41416557 131.73046875 64.8203125 C131.63130661 65.54018341 131.53214447 66.26005432 131.42997742 67.0017395 C130.65063508 71.71645061 129.12039353 74.75772105 126.11035156 78.47517395 C124.49386281 80.6950692 124.20697768 82.87927061 123.8125 85.5625 C122.98641416 89.07457253 122.44695457 90.61071698 119.69921875 93.00390625 C116.21568096 95.09604545 112.85423628 96.71525457 109 98 C107.6627486 97.34122773 106.32992465 96.6734409 105 96 C99.82820918 95.31887594 94.69808722 95.21324085 90 97.6875 C86.86249022 99.73264753 86.86249022 99.73264753 85.75 102.75 C85.1725 103.4925 84.595 104.235 84 105 C81.25882666 105.20593122 78.60751496 105.05191137 75.86328125 104.91015625 C72.13531548 105.02713198 69.79277537 106.21118791 66.65625 108.125 C65 109 65 109 62 109 C60.31503702 108.03114628 58.64821244 107.03013277 57 106 C53.89924309 104.96641436 52.26164769 105.06715183 49.0625 105.3125 C46.36328125 105.3515625 46.36328125 105.3515625 44 105 C41.75 102.1875 41.75 102.1875 40 99 C34.69937063 95.02452797 28.3588166 95.34101093 22 96 C20.74896484 96.58394531 20.74896484 96.58394531 19.47265625 97.1796875 C17 98 17 98 14.28125 97.12109375 C7.22164306 92.84765191 4.44462921 89.09868878 2.09765625 81.18359375 C1.14562653 77.92204933 1.14562653 77.92204933 -0.98242188 75.26293945 C-3.26898112 71.56498879 -3.81005896 68.90156176 -4.37890625 64.609375 C-4.47656784 63.91150879 -4.57422943 63.21364258 -4.67485046 62.49462891 C-4.9861023 60.24819041 -5.27553107 57.99965921 -5.5625 55.75 C-5.9702511 52.66598677 -6.3849013 49.5829263 -6.80078125 46.5 C-6.90023041 45.75087341 -6.99967957 45.00174683 -7.10214233 44.22991943 C-7.76050034 39.38447443 -8.67609722 34.65909607 -9.77294922 29.89257812 C-11.64669836 21.47700879 -10.35216192 16.33862999 -6.02734375 9.015625 C-5.35832031 8.02046875 -4.68929688 7.0253125 -4 6 C-3.25117883 4.86987332 -2.50247714 3.73966747 -1.75390625 2.609375 C-1.17511719 1.74828125 -0.59632813 0.8871875 0 0 Z " fill="#00D5F9" transform="translate(462,272)"/>
<path d="M0 0 C22.73739508 0.70069014 44.89564655 8.74476584 62 24 C65.5373156 22.74147321 67.99829717 21.33957682 70.8125 18.875 C84.13628754 8.28655957 101.06677386 2.66300455 117.75 0.375 C118.51296387 0.25656738 119.27592773 0.13813477 120.06201172 0.01611328 C122.234375 -0.2265625 122.234375 -0.2265625 126 0 C128.2421875 2.0859375 128.2421875 2.0859375 130 5 C131.09441406 6.46179688 131.09441406 6.46179688 132.2109375 7.953125 C136.4252389 14.37346865 138.74327731 18.95227914 137.40234375 26.7890625 C137.29698807 27.51624481 137.19163239 28.24342712 137.08308411 28.99264526 C136.85653657 30.53962102 136.61991447 32.08515061 136.37390137 33.62915039 C136.00118631 35.99247777 135.66491685 38.35833368 135.33886719 40.72851562 C134.78399284 44.72733535 134.18358667 48.71736191 133.56030273 52.70605469 C133.30919396 54.33538393 133.06618567 55.96597982 132.83081055 57.59765625 C132.48242673 60.00840543 132.10918995 62.41416557 131.73046875 64.8203125 C131.63130661 65.54018341 131.53214447 66.26005432 131.42997742 67.0017395 C130.65230979 71.70631927 129.12877775 74.74979327 126.13056946 78.46334839 C124.78820807 80.12288514 124.78820807 80.12288514 124 83 C123.34 83 122.68 83 122 83 C122.64597934 74.73523349 123.72135438 66.57330511 124.9375 58.375 C126.46080013 47.93226803 127.8609264 37.49146741 129 27 C111.15761232 28.06030583 90.36788958 31.63211042 77 45 C76.85404635 46.34137232 76.77263124 47.68987268 76.71875 49.03808594 C76.68201172 49.89698425 76.64527344 50.75588257 76.60742188 51.64080811 C76.55424805 53.04837372 76.55424805 53.04837372 76.5 54.484375 C76.4390918 55.93423798 76.4390918 55.93423798 76.37695312 57.41339111 C76.24681306 60.52542788 76.12301304 63.637674 76 66.75 C75.83629646 70.80741788 75.66965064 74.86470145 75.5 78.921875 C75.4594751 79.89451294 75.4189502 80.86715088 75.37719727 81.8692627 C75.07238762 88.92847299 74.63765575 95.96204423 74 103 C72.68 103.33 71.36 103.66 70 104 C70 85.19 70 66.38 70 47 C65.71 47 61.42 47 57 47 C57.10828125 49.27583984 57.10828125 49.27583984 57.21875 51.59765625 C57.99695052 69.07873097 58.11410112 86.50566576 58 104 C56.35 103.67 54.7 103.34 53 103 C52.31977285 95.69597296 51.95140285 88.46547988 51.95803833 81.13327026 C51.95666452 77.3013066 51.89883294 73.47084938 51.83911133 69.6394043 C51.8212904 67.66258886 51.82703707 65.68542801 51.85571289 63.70874023 C52.40113226 52.92924301 52.40113226 52.92924301 48.64065552 43.23388672 C44.87736283 39.85645036 40.63935527 37.9147793 36 36 C34.89011719 35.48042725 33.78023438 34.96085449 32.63671875 34.42553711 C29.79653082 33.11764628 26.95240016 32.02727348 24 31 C23.12085938 30.69320313 22.24171875 30.38640625 21.3359375 30.0703125 C15.96644509 28.40719538 10.74253871 27.73390727 5.14453125 27.421875 C4.45476196 27.37981934 3.76499268 27.33776367 3.05432129 27.29443359 C1.36978487 27.19229626 -0.3150792 27.09558698 -2 27 C-1.81824219 28.25546631 -1.63648438 29.51093262 -1.44921875 30.80444336 C-0.77194441 35.49446031 -0.10302185 40.18563787 0.56347656 44.87719727 C0.85223979 46.90160837 1.14322037 48.92570455 1.43652344 50.94946289 C1.85945753 53.87044135 2.27421492 56.79248635 2.6875 59.71484375 C2.81874268 60.60896469 2.94998535 61.50308563 3.08520508 62.42430115 C3.86481305 68.00707985 4.11989237 73.36256096 4 79 C-0.12001885 77.62666038 -0.90435316 75.75206205 -3 72 C-3.86547852 68.48339844 -3.86547852 68.48339844 -4.37890625 64.609375 C-4.47656784 63.91150879 -4.57422943 63.21364258 -4.67485046 62.49462891 C-4.9861023 60.24819041 -5.27553107 57.99965921 -5.5625 55.75 C-5.9702511 52.66598677 -6.3849013 49.5829263 -6.80078125 46.5 C-6.90023041 45.75087341 -6.99967957 45.00174683 -7.10214233 44.22991943 C-7.76050034 39.38447443 -8.67609722 34.65909607 -9.77294922 29.89257812 C-11.64669836 21.47700879 -10.35216192 16.33862999 -6.02734375 9.015625 C-5.35832031 8.02046875 -4.68929688 7.0253125 -4 6 C-3.25117883 4.86987332 -2.50247714 3.73966747 -1.75390625 2.609375 C-1.17511719 1.74828125 -0.59632813 0.8871875 0 0 Z " fill="#1E2121" transform="translate(462,272)"/>
<path d="M0 0 C2.0343459 1.41519715 2.90410393 2.54982123 3.421875 4.98046875 C3.66273952 6.98176954 3.83532741 8.9909944 4 11 C7.20232099 11.67174175 7.20232099 11.67174175 11 11 C13.71294856 8.61176729 15.86481726 5.90748288 18 3 C18.99 3.33 19.98 3.66 21 4 C20.69964844 4.60328125 20.39929688 5.2065625 20.08984375 5.828125 C19.70957031 6.62734375 19.32929687 7.4265625 18.9375 8.25 C18.55464844 9.03890625 18.17179688 9.8278125 17.77734375 10.640625 C16.91435909 13.25993522 17.06954067 14.44855176 18 17 C22.77864955 15.65217577 26.71857875 13.55159197 30.94921875 11.0234375 C33 10 33 10 36 10 C34.15082658 14.61782534 30.69835075 16.72408249 26.80078125 19.609375 C24.12965906 22.57830458 24.12965906 22.57830458 26 30 C33.26 30 40.52 30 48 30 C48 30.99 48 31.98 48 33 C41.35751464 34.91610155 34.88940671 35.56367091 28 36 C27.505 40.95 27.505 40.95 27 46 C32.94 49.3 38.88 52.6 45 56 C45 56.99 45 57.98 45 59 C39.00811908 58.22123872 33.82555398 56.09062422 28.2421875 53.86328125 C25.15151668 52.72175152 25.15151668 52.72175152 22.76953125 53.74609375 C22.18558594 54.15988281 21.60164062 54.57367188 21 55 C19.948125 55.5775 18.89625 56.155 17.8125 56.75 C15.23172625 58.86739292 15.0021687 59.98427234 14.53515625 63.37109375 C14.42966307 65.88491897 14.38263024 68.40198064 14.3984375 70.91796875 C14.20121094 72.44357422 14.20121094 72.44357422 14 74 C12.2734375 75.07421875 12.2734375 75.07421875 10 76 C8.35137373 77.81785612 6.77211542 79.69997167 5.25 81.625 C4.45078125 82.62789063 3.6515625 83.63078125 2.828125 84.6640625 C2.22484375 85.43492187 1.6215625 86.20578125 1 87 C0.01 86.34 -0.98 85.68 -2 85 C-2 84.01 -2 83.02 -2 82 C-2.99 81.67 -3.98 81.34 -5 81 C-6.35386936 79.34997172 -7.68678142 77.6825613 -9 76 C-9.99 75.34 -10.98 74.68 -12 74 C-12.29296875 70.7421875 -12.29296875 70.7421875 -12.1875 66.875 C-12.14689453 64.95300781 -12.14689453 64.95300781 -12.10546875 62.9921875 C-12.07066406 62.00476563 -12.03585937 61.01734375 -12 60 C-12.77730469 59.72414063 -13.55460937 59.44828125 -14.35546875 59.1640625 C-17.61444429 57.7295356 -18.96297163 55.86692882 -21 53 C-27.12275 54.61365934 -33.16240114 56.31189012 -39.125 58.44921875 C-41 59 -41 59 -44 59 C-42.63790536 55.71886535 -41.42073837 54.32230325 -38.3046875 52.640625 C-37.23154297 52.05087891 -37.23154297 52.05087891 -36.13671875 51.44921875 C-35.39035156 51.05347656 -34.64398438 50.65773437 -33.875 50.25 C-32.74384766 49.63318359 -32.74384766 49.63318359 -31.58984375 49.00390625 C-29.73194799 47.99264653 -27.86666168 46.99498595 -26 46 C-26 42.7 -26 39.4 -26 36 C-26.7734375 35.95101562 -27.546875 35.90203125 -28.34375 35.8515625 C-34.424165 35.41509707 -40.20763156 34.96721947 -46 33 C-46.33 32.01 -46.66 31.02 -47 30 C-39.74 29.67 -32.48 29.34 -25 29 C-24.34 27.02 -23.68 25.04 -23 23 C-23.45890625 22.54109375 -23.9178125 22.0821875 -24.390625 21.609375 C-25.6536465 20.3463535 -26.91531905 19.08198189 -28.17578125 17.81640625 C-29.57739201 16.4207981 -31.0025785 15.04883578 -32.4375 13.6875 C-34 12 -34 12 -34 10 C-29.22230897 11.34755388 -25.40624224 13.44168272 -21.24609375 16.07421875 C-18.43929787 17.23110679 -16.86835267 16.83177186 -14 16 C-14.54140625 14.84371094 -14.54140625 14.84371094 -15.09375 13.6640625 C-15.5578125 12.66117188 -16.021875 11.65828125 -16.5 10.625 C-16.9640625 9.62726563 -17.428125 8.62953125 -17.90625 7.6015625 C-19 5 -19 5 -19 3 C-15.95588917 4.17081186 -14.29599382 5.72821346 -12.1875 8.125 C-9.58620541 10.86600606 -9.18897621 10.98171198 -5.125 11.375 C-4.09375 11.25125 -3.0625 11.1275 -2 11 C-1.90912109 9.93458984 -1.90912109 9.93458984 -1.81640625 8.84765625 C-1.73261719 7.92855469 -1.64882813 7.00945312 -1.5625 6.0625 C-1.48128906 5.14597656 -1.40007813 4.22945312 -1.31640625 3.28515625 C-1 1 -1 1 0 0 Z " fill="#272521" transform="translate(524,202)"/>
<path d="M0 0 C-0.16798155 9.46805092 -1.93239019 16.51026393 -6 25 C-6.73669609 26.64218988 -7.47086254 28.28551585 -8.203125 29.9296875 C-22.1811093 60.84064856 -22.1811093 60.84064856 -34.37890625 67.25 C-35.45978516 67.62125 -35.45978516 67.62125 -36.5625 68 C-39.85904229 69.29663997 -41.54634426 70.33474777 -43.5625 73.25 C-46 76 -46 76 -47.98803711 76.26855469 C-49.99202474 76.17903646 -51.99601237 76.08951823 -54 76 C-54.02506445 70.31152656 -54.04302899 64.62308655 -54.05493164 58.93457031 C-54.05990335 57.00683023 -54.06668307 55.0790938 -54.07543945 53.15136719 C-54.10367572 46.76664939 -54.08944363 40.38421858 -54 34 C-53.98881134 33.18854523 -53.97762268 32.37709045 -53.96609497 31.54104614 C-53.92253815 29.31854835 -53.84740027 27.09997074 -53.7578125 24.87890625 C-53.71414551 23.63955322 -53.67047852 22.4002002 -53.62548828 21.12329102 C-52.87799357 17.39077743 -51.79784127 16.21924763 -48.8125 13.9375 C-46.9070165 12.89740084 -44.96497535 11.92279222 -43 11 C-41.85789062 10.38769531 -40.71578125 9.77539062 -39.5390625 9.14453125 C-26.2661996 2.07495487 -14.98709632 -0.22480644 0 0 Z " fill="#01D6FB" transform="translate(591,299)"/>
<path d="M0 0 C1.21376536 3.59194278 0.82936224 6.41327965 0.2578125 10.12890625 C0.07863281 11.32966797 -0.10054687 12.53042969 -0.28515625 13.76757812 C-0.47980469 15.01990234 -0.67445313 16.27222656 -0.875 17.5625 C-3.24696994 31.32381016 -3.24696994 31.32381016 -3.92504883 45.22998047 C-3.9375 47.3125 -3.9375 47.3125 -5 51 C-8.92273096 54.21397277 -13.20312061 56.4010402 -18 58 C-19.3372514 57.34122773 -20.67007535 56.6734409 -22 56 C-27.17179082 55.31887594 -32.30191278 55.21324085 -37 57.6875 C-40.13750978 59.73264753 -40.13750978 59.73264753 -41.25 62.75 C-42.11625 63.86375 -42.11625 63.86375 -43 65 C-45.74117334 65.20593122 -48.39248504 65.05191137 -51.13671875 64.91015625 C-54.86468452 65.02713198 -57.20722463 66.21118791 -60.34375 68.125 C-62 69 -62 69 -65 69 C-66.68496298 68.03114628 -68.35178756 67.03013277 -70 66 C-73.10075691 64.96641436 -74.73835231 65.06715183 -77.9375 65.3125 C-80.6328125 65.34765625 -80.6328125 65.34765625 -83 65 C-85.3125 62.25 -85.3125 62.25 -87 59 C-88.62981574 57.62186495 -90.29283445 56.28107039 -92 55 C-91.19175781 54.62488281 -90.38351562 54.24976563 -89.55078125 53.86328125 C-81.45537394 50.01988005 -81.45537394 50.01988005 -75 44 C-73.99073521 48.15626368 -73.89760421 52.04365094 -73.9375 56.3125 C-73.94652344 57.56675781 -73.95554687 58.82101562 -73.96484375 60.11328125 C-73.97644531 61.06589844 -73.98804688 62.01851563 -74 63 C-72.35 63.33 -70.7 63.66 -69 64 C-69.03029297 63.1970752 -69.06058594 62.39415039 -69.09179688 61.56689453 C-69.7646445 43.36636626 -70.13928814 25.21579404 -70 7 C-65.71 7 -61.42 7 -57 7 C-56.67 25.48 -56.34 43.96 -56 63 C-55.01 63 -54.02 63 -53 63 C-53 58.71 -53 54.42 -53 50 C-52.67 50 -52.34 50 -52 50 C-52 54.29 -52 58.58 -52 63 C-46.75024228 63.06833445 -46.75024228 63.06833445 -42.44921875 60.515625 C-41.50114527 59.26577038 -40.55868151 58.01164592 -39.62109375 56.75390625 C-37.73339844 54.71155638 -36.21905266 54.07836978 -33.625 53.125 C-18.12161005 46.91845025 -10.32567397 24.26794543 -4 10 C-2.59706502 6.69012659 -1.24037597 3.37416959 0 0 Z " fill="#099FB7" transform="translate(589,312)"/>
<path d="M0 0 C4.95829864 2.93161764 9.02042066 6.89631007 11.6171875 12.08984375 C12.4755314 20.27127358 12.48790185 26.75176616 7.27734375 33.37890625 C5.23751999 35.48112462 3.32863197 36.96007522 0.6171875 38.08984375 C-0.0428125 38.08984375 -0.7028125 38.08984375 -1.3828125 38.08984375 C-1.3828125 40.39984375 -1.3828125 42.70984375 -1.3828125 45.08984375 C-6.0028125 45.08984375 -10.6228125 45.08984375 -15.3828125 45.08984375 C-15.7128125 43.10984375 -16.0428125 41.12984375 -16.3828125 39.08984375 C-19.16452146 37.01277893 -19.16452146 37.01277893 -22.3828125 35.08984375 C-26.94795197 30.52470428 -29.66479252 26.35124268 -29.7578125 19.83984375 C-29.62627342 13.67394959 -28.19398305 9.1089639 -23.95703125 4.55859375 C-17.38364312 -1.28441792 -8.33413345 -3.18336573 0 0 Z " fill="#F6A624" transform="translate(533.3828125,219.91015625)"/>
<path d="M0 0 C5.9979661 -0.24991525 11.23001703 0.27198445 17 2 C18.41732422 2.36738281 18.41732422 2.36738281 19.86328125 2.7421875 C32.27417931 6.1669286 50.55084714 13.45163548 57.29296875 25.265625 C57.52628906 25.83796875 57.75960937 26.4103125 58 27 C58.47308594 26.57589844 58.94617188 26.15179688 59.43359375 25.71484375 C61.60492164 23.78900712 63.79954203 21.89246807 66 20 C66.65097656 19.42507813 67.30195312 18.85015625 67.97265625 18.2578125 C79.99781658 8.20209076 97.96659908 -0.29900598 113.8125 -0.0625 C114.99779297 -0.04896484 114.99779297 -0.04896484 116.20703125 -0.03515625 C117.09455078 -0.01775391 117.09455078 -0.01775391 118 0 C118 0.33 118 0.66 118 1 C116.9584375 1.1959375 115.916875 1.391875 114.84375 1.59375 C104.06926469 3.78384042 91.03134882 6.96865118 83 15 C84.02480469 14.57847656 85.04960938 14.15695312 86.10546875 13.72265625 C87.46605181 13.1690397 88.82673416 12.61566714 90.1875 12.0625 C91.19780273 11.64581055 91.19780273 11.64581055 92.22851562 11.22070312 C93.21948242 10.81948242 93.21948242 10.81948242 94.23046875 10.41015625 C94.83270264 10.16402588 95.43493652 9.91789551 96.05541992 9.66430664 C99.98996323 8.32018959 103.72115255 7.87562034 107.86328125 7.90234375 C109.19262695 7.90717773 109.19262695 7.90717773 110.54882812 7.91210938 C111.9168457 7.92467773 111.9168457 7.92467773 113.3125 7.9375 C114.24384766 7.94201172 115.17519531 7.94652344 116.13476562 7.95117188 C118.42324373 7.96290766 120.71158808 7.97932637 123 8 C123 8.33 123 8.66 123 9 C122.04480469 9.10957031 121.08960938 9.21914063 120.10546875 9.33203125 C104.00156057 11.30688739 85.47959706 15.25129085 73.5 27.0625 C68.19352251 31.60177592 61.22048322 31.16245906 54.578125 30.74609375 C49.14848554 30.09431719 45.9332848 27.85838119 41.84765625 24.296875 C29.15097036 14.05592671 10.97782822 9.67702662 -5 9 C-5 8.67 -5 8.34 -5 8 C10.37534523 7.58978822 22.75045742 8.78946927 37 15 C25.47252249 7.55114582 13.61379354 3.14617451 0 1 C0 0.67 0 0.34 0 0 Z " fill="#EFEFEF" transform="translate(466,282)"/>
<path d="M0 0 C4.29 0 8.58 0 13 0 C13.08105241 4.20872148 13.14053316 8.4158763 13.1875 12.625 C13.22520508 14.40970703 13.22520508 14.40970703 13.26367188 16.23046875 C13.35591658 27.23833629 13.35591658 27.23833629 10 32 C9.34 32.66 8.68 33.32 8 34 C5.18227369 33.81821121 4.21175447 33.23528275 2.3125 31.125 C-0.01391382 27.35842525 -0.11878529 24.35098543 -0.09765625 20.01953125 C-0.09443359 18.85615234 -0.09121094 17.69277344 -0.08789062 16.49414062 C-0.07951172 15.27919922 -0.07113281 14.06425781 -0.0625 12.8125 C-0.05798828 11.58595703 -0.05347656 10.35941406 -0.04882812 9.09570312 C-0.03703076 6.06378135 -0.01909514 3.0318846 0 0 Z " fill="#01CFF2" transform="translate(519,319)"/>
<path d="M0 0 C2.08299593 2.70789471 3.94116944 5.47883871 5.75 8.375 C11.94010219 17.66015329 20.33651862 22.33412965 31 25 C29.02 25.99 29.02 25.99 27 27 C27 29.31 27 31.62 27 34 C22.38 34 17.76 34 13 34 C12.67 32.02 12.34 30.04 12 28 C9.21829104 25.92293518 9.21829104 25.92293518 6 24 C2.34817709 20.34817709 -0.78080778 16.55971926 -1.23046875 11.30859375 C-1.21628906 10.36113281 -1.20210938 9.41367188 -1.1875 8.4375 C-1.18105469 7.48746094 -1.17460937 6.53742188 -1.16796875 5.55859375 C-1 3 -1 3 0 0 Z " fill="#D98A10" transform="translate(505,231)"/>
<path d="M0 0 C0.61746094 0.66128906 1.23492188 1.32257813 1.87109375 2.00390625 C3.76471452 4.24996026 3.76471452 4.24996026 6.0625 3.9375 C8.3828463 2.94567432 8.3828463 2.94567432 11 0 C11 9.57 11 19.14 11 29 C9.02 29.99 7.04 30.98 5 32 C2.53051758 30.40722656 2.53051758 30.40722656 0 28 C-0.56762695 24.97558594 -0.56762695 24.97558594 -0.48828125 21.484375 C-0.47216797 20.23398437 -0.45605469 18.98359375 -0.43945312 17.6953125 C-0.39755859 16.39335937 -0.35566406 15.09140625 -0.3125 13.75 C-0.28994141 12.43257813 -0.26738281 11.11515625 -0.24414062 9.7578125 C-0.18519594 6.50406596 -0.10295053 3.25260329 0 0 Z " fill="#08A0B9" transform="translate(520,348)"/>
<path d="M0 0 C8.58 0 17.16 0 26 0 C26 1.32 26 2.64 26 4 C25.15695312 4.32097656 25.15695312 4.32097656 24.296875 4.6484375 C21.2043371 6.4681962 19.46907414 8.81852388 17.25 11.625 C16.45078125 12.62789063 15.6515625 13.63078125 14.828125 14.6640625 C14.22484375 15.43492187 13.6215625 16.20578125 13 17 C12.01 16.34 11.02 15.68 10 15 C10 14.01 10 13.02 10 12 C9.01 11.67 8.02 11.34 7 11 C5.64613064 9.34997172 4.31321858 7.6825613 3 6 C2.01 5.34 1.02 4.68 0 4 C0 2.68 0 1.36 0 0 Z " fill="#1D1D1D" transform="translate(512,272)"/>
<path d="M0 0 C1.3293457 0.00483398 1.3293457 0.00483398 2.68554688 0.00976562 C4.05356445 0.02233398 4.05356445 0.02233398 5.44921875 0.03515625 C6.38056641 0.03966797 7.31191406 0.04417969 8.27148438 0.04882812 C10.55996248 0.06056391 12.84830683 0.07698262 15.13671875 0.09765625 C15.13671875 0.42765625 15.13671875 0.75765625 15.13671875 1.09765625 C13.70392578 1.26201172 13.70392578 1.26201172 12.2421875 1.4296875 C-5.36403755 3.58877592 -23.87042694 8.48432757 -37.171875 20.98046875 C-38.86328125 22.09765625 -38.86328125 22.09765625 -41.0859375 21.77734375 C-41.96572266 21.44089844 -41.96572266 21.44089844 -42.86328125 21.09765625 C-42.15300781 20.55496094 -41.44273437 20.01226562 -40.7109375 19.453125 C-39.79183594 18.73769531 -38.87273438 18.02226562 -37.92578125 17.28515625 C-36.55099609 16.22361328 -36.55099609 16.22361328 -35.1484375 15.140625 C-32.63191612 13.23103767 -32.63191612 13.23103767 -31.86328125 10.09765625 C-30.25390625 9.10546875 -30.25390625 9.10546875 -28.11328125 8.22265625 C-26.90671875 7.72185547 -26.90671875 7.72185547 -25.67578125 7.2109375 C-24.74765625 6.84355469 -23.81953125 6.47617187 -22.86328125 6.09765625 C-21.22359375 5.43830078 -21.22359375 5.43830078 -19.55078125 4.765625 C-12.95083916 2.16314784 -7.15741922 -0.0461769 0 0 Z " fill="#B0B0B0" transform="translate(573.86328125,289.90234375)"/>
<path d="M0 0 C14.84841669 -0.39615341 26.93099647 0.23355938 40.52734375 6.81640625 C42.98210333 7.99143335 45.46366986 9.01541388 48 10 C48 10.99 48 11.98 48 13 C49.93215707 14.59026137 49.93215707 14.59026137 52.375 16 C55.50518933 17.90792492 56.92375324 18.88562986 59 22 C55.05386477 21.45499181 52.8580203 20.39149444 49.75 17.9375 C35.19106405 7.43951355 17.8916943 1.75812264 0 1 C0 0.67 0 0.34 0 0 Z " fill="#B7B7B7" transform="translate(461,290)"/>
<path d="M0 0 C0.33 0 0.66 0 1 0 C1 6.27 1 12.54 1 19 C-1.64 19 -4.28 19 -7 19 C-7.185625 18.401875 -7.37125 17.80375 -7.5625 17.1875 C-9.72273753 13.90018201 -12.35107655 13.35145313 -16 12 C-12.55167303 9.70111535 -8.97697824 7.68036561 -5.375 5.6328125 C-2.96625292 3.97679888 -1.64928986 2.38116224 0 0 Z " fill="#09A1BA" transform="translate(513,356)"/>
<path d="M0 0 C-0.99 0.49628906 -1.98 0.99257813 -3 1.50390625 C-7.057122 3.57020911 -11.0412885 5.75151902 -15 8 C-15.89332031 8.50402344 -16.78664063 9.00804687 -17.70703125 9.52734375 C-21.20618684 11.97480508 -22.70659931 13.93321132 -23.84765625 18.08203125 C-24.33168944 21.50611789 -24.64044427 24.86216247 -24.83789062 28.31103516 C-25.02932344 31.48639808 -25.28663648 34.65376261 -25.546875 37.82421875 C-26.06646358 44.21376578 -26.54471926 50.60557462 -27 57 C-27.33 57 -27.66 57 -28 57 C-28.05600957 48.82432626 -28.05496985 40.65080536 -28.00341797 32.47509766 C-28.00057777 29.58742448 -28.04937369 26.710367 -28.12890625 23.82421875 C-28.23359397 14.55202712 -28.23359397 14.55202712 -25.19921875 10.734375 C-22.56854772 8.75383707 -19.97913208 7.40348559 -17 6 C-15.77278738 5.34065698 -14.54896002 4.6749844 -13.328125 4.00390625 C-3.61456006 -1.20485335 -3.61456006 -1.20485335 0 0 Z " fill="#D8E5E8" transform="translate(565,304)"/>
<path d="M0 0 C0.33 0 0.66 0 1 0 C1.33 9.9 1.66 19.8 2 30 C2.99 30 3.98 30 5 30 C5 25.71 5 21.42 5 17 C5.33 17 5.66 17 6 17 C6 21.62 6 26.24 6 31 C-3.625 36 -3.625 36 -7 36 C-8.68496298 35.03114628 -10.35178756 34.03013277 -12 33 C-15.01490557 31.99503148 -17.04181692 31.89664697 -20.1875 31.9375 C-21.08855469 31.94652344 -21.98960937 31.95554687 -22.91796875 31.96484375 C-23.94857422 31.98224609 -23.94857422 31.98224609 -25 32 C-26.32 29.69 -27.64 27.38 -29 25 C-27.02 25.99 -27.02 25.99 -25 27 C-25 27.99 -25 28.98 -25 30 C-22.36 30 -19.72 30 -17 30 C-17 25.38 -17 20.76 -17 16 C-16.67 16 -16.34 16 -16 16 C-16 20.62 -16 25.24 -16 30 C-14.9275 30.103125 -13.855 30.20625 -12.75 30.3125 C-9 31 -9 31 -6.875 32.6875 C-6.25625 33.120625 -5.6375 33.55375 -5 34 C-3.35 33.34 -1.7 32.68 0 32 C0 21.44 0 10.88 0 0 Z " fill="#136B7C" transform="translate(531,345)"/>
<path d="M0 0 C-1.49199564 3.56153799 -3.51442696 5.68403747 -6.375 8.25 C-7.14585937 8.95640625 -7.91671875 9.6628125 -8.7109375 10.390625 C-11 12 -11 12 -15 12 C-15.33 10.35 -15.66 8.7 -16 7 C-13.89983377 5.82558465 -11.79541245 4.66035988 -9.6875 3.5 C-9.09259766 3.16613281 -8.49769531 2.83226562 -7.88476562 2.48828125 C-5.04171156 0.93174886 -3.29339012 0 0 0 Z " fill="#1A1813" transform="translate(560,212)"/>
<path d="M0 0 C0.66 0.33 1.32 0.66 2 1 C3.32860925 1.35169068 4.66158328 1.68770276 6 2 C3.23113877 3.00577013 0.46015896 4.00480147 -2.3125 5 C-3.49102539 5.42925781 -3.49102539 5.42925781 -4.69335938 5.8671875 C-5.45068359 6.13789063 -6.20800781 6.40859375 -6.98828125 6.6875 C-7.68477783 6.93886719 -8.38127441 7.19023437 -9.09887695 7.44921875 C-11 8 -11 8 -14 8 C-12.56684975 4.38226397 -10.95412036 3.030893 -7.5625 1.1875 C-6.78003906 0.74792969 -5.99757813 0.30835938 -5.19140625 -0.14453125 C-3 -1 -3 -1 0 0 Z " fill="#2C241A" transform="translate(494,253)"/>
<path d="M0 0 C10.22183768 4.76067821 19.25242148 9.8428903 28 17 C27.34 17.66 26.68 18.32 26 19 C25.30777344 18.443125 24.61554687 17.88625 23.90234375 17.3125 C16.0467316 11.18532953 7.89628323 6.46029501 -1 2 C-0.67 1.34 -0.34 0.68 0 0 Z " fill="#131313" transform="translate(498,280)"/>
<path d="M0 0 C7.16821867 0.8145703 10.0760719 3.93929612 15 9 C13.26982492 8.54548816 11.54090123 8.08621143 9.8125 7.625 C8.84957031 7.36976563 7.88664063 7.11453125 6.89453125 6.8515625 C4.17789793 6.05233704 1.60862825 5.0968638 -1 4 C-0.67 2.68 -0.34 1.36 0 0 Z " fill="#1E1B18" transform="translate(549,249)"/>
<path d="M0 0 C0.33 0.66 0.66 1.32 1 2 C1.99 2.33 2.98 2.66 4 3 C3.00419922 3.12955078 3.00419922 3.12955078 1.98828125 3.26171875 C-3.8759707 4.19486249 -7.1940477 5.12362362 -11 10 C-11.99 11.485 -11.99 11.485 -13 13 C-15.97 12.67 -18.94 12.34 -22 12 C-22 11.67 -22 11.34 -22 11 C-20.205625 10.9690625 -20.205625 10.9690625 -18.375 10.9375 C-15.68839843 10.62170648 -14.38662735 10.37043852 -12.4140625 8.48046875 C-11.46380402 7.23358262 -10.52118139 5.98084347 -9.5859375 4.72265625 C-6.88915472 1.79339219 -3.76113258 1.10240093 0 0 Z " fill="#16C0D7" transform="translate(559,364)"/>
<path d="M0 0 C3.20831391 -0.0292483 6.41659307 -0.04688189 9.625 -0.0625 C10.98044922 -0.07506836 10.98044922 -0.07506836 12.36328125 -0.08789062 C17.02904289 -0.10491895 21.41013285 0.03170577 26 1 C25.01 1.33 24.02 1.66 23 2 C23 2.66 23 3.32 23 4 C22.26136719 3.86722656 21.52273438 3.73445313 20.76171875 3.59765625 C13.85186083 2.39479661 6.9938043 1.52315859 0 1 C0 0.67 0 0.34 0 0 Z " fill="#B2B2B2" transform="translate(461,290)"/>
<path d="M0 0 C6.27 0 12.54 0 19 0 C16.60236815 2.39763185 15.66726502 2.34280586 12.375 2.625 C11.55773437 2.69976562 10.74046875 2.77453125 9.8984375 2.8515625 C9.27195312 2.90054688 8.64546875 2.94953125 8 3 C8 3.33 8 3.66 8 4 C5.69 3.67 3.38 3.34 1 3 C0.67 2.01 0.34 1.02 0 0 Z " fill="#5F523D" transform="translate(477,232)"/>
<path d="M0 0 C4.61513112 1.31860889 8.09897612 3.21355437 12 6 C11.67 6.66 11.34 7.32 11 8 C4.99522721 7.35083537 -0.400781 5.14204997 -6 3 C-2.61682513 2.02408417 -0.4342662 2.14143345 3 3 C2.01 2.01 1.02 1.02 0 0 Z " fill="#4E3D24" transform="translate(558,253)"/>
<path d="M0 0 C1.32 0.33 2.64 0.66 4 1 C3.34 1 2.68 1 2 1 C1.814375 1.70125 1.62875 2.4025 1.4375 3.125 C-0.48397951 6.96795902 -3.2271497 9.88274646 -7 12 C-9.2265625 11.6640625 -9.2265625 11.6640625 -11 11 C-10.28972656 10.45730469 -9.57945312 9.91460937 -8.84765625 9.35546875 C-7.92855469 8.64003906 -7.00945313 7.92460937 -6.0625 7.1875 C-4.68771484 6.12595703 -4.68771484 6.12595703 -3.28515625 5.04296875 C-0.76863487 3.13338142 -0.76863487 3.13338142 0 0 Z " fill="#BABABA" transform="translate(542,300)"/>
<path d="M0 0 C5.61 0 11.22 0 17 0 C17 0.99 17 1.98 17 3 C16.01 3.33 15.02 3.66 14 4 C13.67 3.67 13.34 3.34 13 3 C10.19176801 2.71602148 7.38353365 2.55153335 4.56640625 2.37890625 C2 2 2 2 0 0 Z " fill="#4D4334" transform="translate(555,232)"/>
<path d="M0 0 C4.05281712 1.22527029 7.44360764 2.69880494 11 5 C9 6 9 6 7 6 C8.32 7.65 9.64 9.3 11 11 C7.08149058 9.34216909 4.09708904 6.89061644 1 4 C0.125 1.6875 0.125 1.6875 0 0 Z " fill="#2C2821" transform="translate(490,212)"/>
<path d="M0 0 C0.99 0.33 1.98 0.66 3 1 C2.3125 3.375 2.3125 3.375 1 6 C-1.4375 7.125 -1.4375 7.125 -4 8 C-5.77277259 9.52007842 -5.77277259 9.52007842 -7 11 C-7.99 10.67 -8.98 10.34 -10 10 C-9.0925 9.278125 -8.185 8.55625 -7.25 7.8125 C-4.4298006 5.47347206 -2.19093342 2.94933345 0 0 Z " fill="#302415" transform="translate(542,205)"/>
<path d="M0 0 C2.3149807 0.06438632 4.62813201 0.20150433 6.9375 0.375 C8.83822266 0.51035156 8.83822266 0.51035156 10.77734375 0.6484375 C14 1 14 1 16 2 C16 2.66 16 3.32 16 4 C14.06183265 3.8858134 12.12444901 3.75826577 10.1875 3.625 C9.10855469 3.55539062 8.02960938 3.48578125 6.91796875 3.4140625 C4 3 4 3 1 1 C0.67 1.99 0.34 2.98 0 4 C-0.33 3.01 -0.66 2.02 -1 1 C-0.67 0.67 -0.34 0.34 0 0 Z " fill="#0C0C0C" transform="translate(462,272)"/>
<path d="M0 0 C1.5 1.125 1.5 1.125 3 3 C3.1875 6.1875 3.1875 6.1875 3 9 C2.34 8.67 1.68 8.34 1 8 C0.01 8.33 -0.98 8.66 -2 9 C-1.125 1.125 -1.125 1.125 0 0 Z " fill="#413623" transform="translate(524,202)"/>
<path d="M0 0 C0.33 0.99 0.66 1.98 1 3 C1.99 3 2.98 3 4 3 C3.5359375 4.1446875 3.5359375 4.1446875 3.0625 5.3125 C2.32106407 7.18789677 1.63771783 9.08684652 1 11 C0.34 11 -0.32 11 -1 11 C-0.67 7.37 -0.34 3.74 0 0 Z " fill="#114A53" transform="translate(585,344)"/>
<path d="M0 0 C-0.98141939 2.45354848 -1.72245592 3.79646768 -3.875 5.375 C-6 6 -6 6 -8.25 5.125 C-8.8275 4.75375 -9.405 4.3825 -10 4 C-3.375 0 -3.375 0 0 0 Z " fill="#3E3727" transform="translate(560,212)"/>
<path d="M0 0 C-3.96 1.98 -3.96 1.98 -8 4 C-8.66 3.34 -9.32 2.68 -10 2 C-3.375 -1.125 -3.375 -1.125 0 0 Z M-10 4 C-9.34 4.33 -8.68 4.66 -8 5 C-9.32 6.32 -10.64 7.64 -12 9 C-11.34 7.35 -10.68 5.7 -10 4 Z " fill="#B6B6B6" transform="translate(554,297)"/>
<path d="M0 0 C3.3 0.33 6.6 0.66 10 1 C9.01 1.33 8.02 1.66 7 2 C7 2.66 7 3.32 7 4 C4.36 3.67 1.72 3.34 -1 3 C-0.67 2.01 -0.34 1.02 0 0 Z " fill="#979797" transform="translate(477,290)"/>
<path d="M0 0 C-1.26839526 0.50615298 -2.53983102 1.00469099 -3.8125 1.5 C-4.87404297 1.91765625 -4.87404297 1.91765625 -5.95703125 2.34375 C-8 3 -8 3 -11 3 C-10.67 2.01 -10.34 1.02 -10 0 C-6.26432828 -0.76411467 -3.65188082 -1.07174763 0 0 Z " fill="#5B4A29" transform="translate(491,258)"/>
<path d="M0 0 C-4.625 4 -4.625 4 -8 4 C-7 1 -7 1 -5.125 -0.25 C-3 -1 -3 -1 0 0 Z " fill="#E4F2F5" transform="translate(553,310)"/>
<path d="M0 0 C0.66 0.33 1.32 0.66 2 1 C2 1.66 2 2.32 2 3 C-2.455 4.485 -2.455 4.485 -7 6 C-4.74259377 3.66475218 -2.7194239 1.81294927 0 0 Z " fill="#3A3A3A" transform="translate(554,292)"/>
<path d="M0 0 C-2.62198774 2.15377564 -4.64404172 3.40072174 -8 4 C-8.33 3.01 -8.66 2.02 -9 1 C-5.8035914 -0.06546953 -3.34252724 -0.07427838 0 0 Z " fill="#E5E5E5" transform="translate(569,285)"/>
<path d="M0 0 C1.98 0 3.96 0 6 0 C6 0.99 6 1.98 6 3 C5.01 3.33 4.02 3.66 3 4 C2.01 3.34 1.02 2.68 0 2 C0 1.34 0 0.68 0 0 Z " fill="#7E6F51" transform="translate(566,232)"/>
<path d="M0 0 C4.05281712 1.22527029 7.44360764 2.69880494 11 5 C10.01 5.495 10.01 5.495 9 6 C5.92379901 4.79149247 2.9555643 3.47778215 0 2 C0 1.34 0 0.68 0 0 Z " fill="#4D3D2A" transform="translate(490,212)"/>
<path d="M0 0 C2.0625 0.4375 2.0625 0.4375 4 1 C3.34 1 2.68 1 2 1 C1.731875 1.78375 1.46375 2.5675 1.1875 3.375 C0 6 0 6 -3 8 C-1.125 1.125 -1.125 1.125 0 0 Z " fill="#C8C8C8" transform="translate(542,300)"/>
<path d="M0 0 C0.99 0.33 1.98 0.66 3 1 C0.36 2.98 -2.28 4.96 -5 7 C-5 6.01 -5 5.02 -5 4 C-2.6875 1.75 -2.6875 1.75 0 0 Z " fill="#111111" transform="translate(532,291)"/>
<path d="M0 0 C7.75 -0.125 7.75 -0.125 10 1 C10 1.66 10 2.32 10 3 C6.7 2.34 3.4 1.68 0 1 C0 0.67 0 0.34 0 0 Z " fill="#131313" transform="translate(468,273)"/>
</svg>
