<?xml version="1.0" encoding="UTF-8"?>
<svg version="1.1" xmlns="http://www.w3.org/2000/svg" width="500" height="500">
<path d="M0 0 C1.04181427 -0.00137466 2.08362854 -0.00274933 3.15701294 -0.00416565 C4.85525963 0.00122726 4.85525963 0.00122726 6.58781433 0.00672913 C7.78823364 0.0065831 8.98865295 0.00643707 10.22544861 0.00628662 C13.50812281 0.00686304 16.79075413 0.01187112 20.07341981 0.01886058 C23.50738987 0.02512074 26.94136081 0.02570002 30.37533569 0.02688599 C36.87400727 0.02999145 43.37266199 0.03819426 49.87132615 0.04823548 C57.2715408 0.05942098 64.67175626 0.06491321 72.07197726 0.06993091 C87.29105185 0.08037753 102.51010962 0.09796178 117.72917175 0.12025452 C117.72917175 0.78025452 117.72917175 1.44025452 117.72917175 2.12025452 C118.35565613 2.36259827 118.9821405 2.60494202 119.62760925 2.85462952 C120.44487488 3.18978577 121.2621405 3.52494202 122.10417175 3.87025452 C123.32233582 4.35752014 123.32233582 4.35752014 124.56510925 4.85462952 C127.06232314 6.31509396 127.71161434 7.45895052 128.72917175 10.12025452 C129.38917175 10.12025452 130.04917175 10.12025452 130.72917175 10.12025452 C130.83723319 13.03791343 130.91650052 15.95156576 130.97917175 18.87025452 C131.01268738 19.69525452 131.046203 20.52025452 131.08073425 21.37025452 C131.17925387 27.47847076 131.17925387 27.47847076 129.04167175 30.52650452 C126.58878266 32.21700916 124.17182175 33.59478873 121.47917175 34.87025452 C120.5871405 35.29822327 119.69510925 35.72619202 118.77604675 36.16712952 C118.100578 36.48166077 117.42510925 36.79619202 116.72917175 37.12025452 C116.72917175 37.45025452 116.72917175 37.78025452 116.72917175 38.12025452 C116.09287433 38.12264287 115.4565769 38.12503122 114.80099773 38.12749195 C99.32782345 38.18659427 83.85482995 38.26211344 68.38183117 38.35596943 C60.899237 38.40096021 53.41669078 38.44036718 45.93400574 38.46669006 C39.41308797 38.4896437 32.89232151 38.52301193 26.37152368 38.56895608 C22.91787828 38.59292417 19.46438307 38.6116293 16.01065636 38.61786842 C12.15779012 38.62502353 8.30530086 38.65542721 4.45256042 38.68788147 C2.7295018 38.68572884 2.7295018 38.68572884 0.97163391 38.68353271 C-0.07584518 38.69607086 -1.12332428 38.70860901 -2.20254517 38.7215271 C-3.11419843 38.72613606 -4.02585169 38.73074503 -4.96513081 38.73549366 C-7.72792807 39.19653257 -8.55435428 39.95826187 -10.27082825 42.12025452 C-11.16191806 43.40797184 -12.01561377 44.72223964 -12.83332825 46.05775452 C-13.24711731 46.72677795 -13.66090637 47.39580139 -14.0872345 48.08509827 C-15.23646201 50.06116273 -16.27276225 52.06433055 -17.27082825 54.12025452 C-17.60082825 54.12025452 -17.93082825 54.12025452 -18.27082825 54.12025452 C-18.340946 78.47695234 -18.39383002 102.83363501 -18.42626476 127.19041348 C-18.44172585 138.49998793 -18.46280095 149.80949964 -18.49714661 161.11903381 C-18.52707209 170.97777714 -18.54640876 180.83647501 -18.55309373 190.69526249 C-18.55700063 195.91418242 -18.56616674 201.13297231 -18.58801842 206.35185051 C-18.60843325 211.26755328 -18.61465193 216.18307287 -18.61015129 221.09881401 C-18.61097425 222.89949541 -18.61691004 224.70018315 -18.62844467 226.50082779 C-18.86552711 239.14361755 -18.86552711 239.14361755 -15.27082825 251.12025452 C-12.59440336 253.30515458 -12.59440336 253.30515458 -10.27082825 253.12025452 C-10.27082825 254.11025452 -10.27082825 255.10025452 -10.27082825 256.12025452 C-5.52837759 258.92379295 -1.62511783 259.55049203 3.77531433 259.50120544 C4.56841664 259.50588542 5.36151896 259.51056539 6.17865467 259.51538718 C8.82717594 259.5273207 11.4751782 259.51788648 14.123703 259.50843811 C16.02616172 259.51250454 17.92861807 259.51784682 19.83106995 259.52436829 C24.99216889 259.53803913 30.15308783 259.53274414 35.31418991 259.52323103 C40.71660089 259.51563328 46.1189965 259.52268037 51.52140808 259.52738953 C60.59362046 259.53284673 69.66575956 259.52565636 78.73796082 259.5113678 C89.22512974 259.49504138 99.71212369 259.50032991 110.19928837 259.51684701 C119.20496397 259.53046285 128.21058692 259.53238105 137.21626949 259.52453101 C142.59426682 259.51985504 147.97218191 259.51922758 153.35017395 259.52914047 C158.40633455 259.53780924 163.46226966 259.53178976 168.51840591 259.5144577 C170.37355296 259.5104924 172.22871901 259.51162765 174.08385849 259.5182457 C176.61717121 259.52644954 179.14976236 259.51615385 181.68302917 259.50120544 C182.41630338 259.50789761 183.14957758 259.51458977 183.90507221 259.52148473 C188.56931306 259.46813947 191.77868757 258.60627636 195.72917175 256.12025452 C197.48240112 253.58836803 197.48240112 253.58836803 198.72917175 251.12025452 C199.38917175 250.79025452 200.04917175 250.46025452 200.72917175 250.12025452 C201.42854707 248.80378333 202.09646309 247.470033 202.72917175 246.12025452 C203.05917175 245.79025452 203.38917175 245.46025452 203.72917175 245.12025452 C203.83302771 243.49726292 203.86714002 241.86976616 203.87393188 240.24346924 C203.88083038 239.1876918 203.88772888 238.13191437 203.89483643 237.04414368 C203.8974498 235.87583008 203.90006317 234.70751648 203.90275574 233.50379944 C203.90944275 232.28112869 203.91612976 231.05845795 203.92301941 229.79873657 C203.93710949 227.13317699 203.94942943 224.46767288 203.95896721 221.80209923 C203.97438861 217.58765901 203.99833826 213.37329459 204.02386475 209.15890503 C204.09514771 197.17268154 204.154834 185.18641422 204.20597839 173.2000885 C204.23428118 166.58470462 204.26966415 159.96939575 204.31263214 153.35409051 C204.33941415 149.16455304 204.35731367 144.97510047 204.36866939 140.78549421 C204.3799387 137.5652436 204.40406143 134.34508469 204.42619324 131.12489319 C204.42678238 129.96265228 204.42737152 128.80041138 204.42797852 127.60295105 C204.43769684 126.53871414 204.44741516 125.47447723 204.45742798 124.37799072 C204.46165992 123.45380939 204.46589186 122.52962805 204.47025204 121.57744122 C204.75024877 118.92023051 205.24258343 117.33500075 206.72917175 115.12025452 C210.04167175 113.49525452 210.04167175 113.49525452 213.72917175 112.12025452 C214.55417175 111.72837952 215.37917175 111.33650452 216.22917175 110.93275452 C220.77028722 109.45689199 224.43285966 109.60172968 228.85417175 111.37025452 C231.69016858 113.09651346 234.18144419 114.99714821 236.72917175 117.12025452 C237.38917175 117.45025452 238.04917175 117.78025452 238.72917175 118.12025452 C239.1222759 120.44314263 239.2366687 122.73870628 239.38542175 125.08900452 C239.49885925 125.75931702 239.61229675 126.42962952 239.72917175 127.12025452 C240.38917175 127.45025452 241.04917175 127.78025452 241.72917175 128.12025452 C241.72917175 165.08025452 241.72917175 202.04025452 241.72917175 240.12025452 C241.06917175 239.79025452 240.40917175 239.46025452 239.72917175 239.12025452 C239.36682735 241.89024274 239.01399658 244.66087833 238.66667175 247.43275452 C238.51101746 248.61127991 238.51101746 248.61127991 238.35221863 249.81361389 C238.21203308 250.94960022 238.21203308 250.94960022 238.0690155 252.10853577 C237.97998962 252.80503235 237.89096375 253.50152893 237.79924011 254.21913147 C237.60949394 256.34614515 237.60949394 256.34614515 238.72917175 259.12025452 C238.06917175 259.12025452 237.40917175 259.12025452 236.72917175 259.12025452 C236.38885925 260.63619202 236.38885925 260.63619202 236.04167175 262.18275452 C234.81837178 266.4512906 232.71759056 269.84466033 229.72917175 273.12025452 C228.40349977 273.80202868 227.07163487 274.47216887 225.72917175 275.12025452 C224.5596376 277.54408528 224.5596376 277.54408528 223.72917175 280.12025452 C221.72917175 283.12025452 221.72917175 283.12025452 219.389328 283.63197327 C218.51147644 283.79310608 217.63362488 283.95423889 216.72917175 284.12025452 C214.43048951 285.37733277 214.43048951 285.37733277 212.16667175 286.93275452 C200.04074421 294.34298498 188.70909589 294.70152673 174.92253113 294.63783264 C172.94025154 294.64326153 170.957976 294.65038847 168.97570801 294.65907288 C163.62237607 294.67721793 158.26935449 294.67027522 152.91601753 294.65755653 C147.29623239 294.64738302 141.67647266 294.65683425 136.0566864 294.6631012 C126.62178306 294.67036496 117.18700523 294.66082328 107.75212097 294.64173889 C96.86614151 294.61997268 85.98046178 294.62702495 75.09448957 294.64904451 C65.72426026 294.66723475 56.35412084 294.66973913 46.98387957 294.65928984 C41.39784366 294.65307482 35.81194834 294.65216427 30.22592163 294.66543579 C24.97261815 294.67704648 19.71969867 294.66887356 14.46643639 294.64585876 C12.54607974 294.64059947 10.62569041 294.64203742 8.70534706 294.65090942 C-9.67739422 294.7279652 -23.44916214 291.10075586 -37.0091095 278.10853577 C-39.1295726 276.06651855 -39.1295726 276.06651855 -41.501297 275.03822327 C-43.27082825 274.12025452 -43.27082825 274.12025452 -44.27082825 271.12025452 C-45.26805434 270.11748828 -46.26837427 269.1177945 -47.27082825 268.12025452 C-51.72724838 261.0823715 -54.05754121 253.32851271 -55.27082825 245.12025452 C-54.94082825 244.79025452 -54.61082825 244.46025452 -54.27082825 244.12025452 C-54.60082825 244.12025452 -54.93082825 244.12025452 -55.27082825 244.12025452 C-55.60082825 180.43025452 -55.93082825 116.74025452 -56.27082825 51.12025452 C-55.28082825 50.62525452 -55.28082825 50.62525452 -54.27082825 50.12025452 C-53.91315923 47.3403966 -53.82673391 44.58401244 -53.7122345 41.78431702 C-53.20558776 38.72650218 -52.48280582 38.14554345 -50.27082825 36.12025452 C-49.91313722 34.7932481 -49.58186677 33.45896432 -49.27082825 32.12025452 C-48.001297 29.83119202 -48.001297 29.83119202 -46.45832825 27.49525452 C-45.95688293 26.71923889 -45.45543762 25.94322327 -44.938797 25.14369202 C-43.14379351 22.9661468 -41.78150501 22.30977904 -39.27082825 21.12025452 C-38.10893735 19.94735043 -36.9868374 18.73436446 -35.89582825 17.49525452 C-28.94555031 10.34937776 -19.89463579 5.54766075 -10.27082825 3.12025452 C-10.27082825 2.46025452 -10.27082825 1.80025452 -10.27082825 1.12025452 C-6.78399373 0.32912224 -3.57254366 -0.00364918 0 0 Z M-5.27082825 1.12025452 C-5.27082825 1.45025452 -5.27082825 1.78025452 -5.27082825 2.12025452 C-2.96082825 2.12025452 -0.65082825 2.12025452 1.72917175 2.12025452 C1.72917175 1.79025452 1.72917175 1.46025452 1.72917175 1.12025452 C-0.58082825 1.12025452 -2.89082825 1.12025452 -5.27082825 1.12025452 Z M-5.27082825 37.12025452 C-1.27082825 38.12025452 -1.27082825 38.12025452 -1.27082825 38.12025452 Z M-51.27082825 39.12025452 C-50.27082825 41.12025452 -50.27082825 41.12025452 -50.27082825 41.12025452 Z M-52.27082825 41.12025452 C-51.27082825 45.12025452 -51.27082825 45.12025452 -51.27082825 45.12025452 Z M-53.27082825 46.12025452 C-52.27082825 50.12025452 -52.27082825 50.12025452 -52.27082825 50.12025452 Z M-17.27082825 48.12025452 C-16.27082825 50.12025452 -16.27082825 50.12025452 -16.27082825 50.12025452 Z M-53.27082825 246.12025452 C-53.27082825 247.77025452 -53.27082825 249.42025452 -53.27082825 251.12025452 C-52.94082825 251.12025452 -52.61082825 251.12025452 -52.27082825 251.12025452 C-52.27082825 249.47025452 -52.27082825 247.82025452 -52.27082825 246.12025452 C-52.60082825 246.12025452 -52.93082825 246.12025452 -53.27082825 246.12025452 Z M-52.27082825 252.12025452 C-51.27082825 254.12025452 -51.27082825 254.12025452 -51.27082825 254.12025452 Z M-51.27082825 255.12025452 C-50.27082825 258.12025452 -50.27082825 258.12025452 -50.27082825 258.12025452 Z M235.72917175 257.12025452 C236.72917175 259.12025452 236.72917175 259.12025452 236.72917175 259.12025452 Z M-50.27082825 258.12025452 C-49.27082825 260.12025452 -49.27082825 260.12025452 -49.27082825 260.12025452 Z " fill="#000000" transform="translate(147.2708282470703,106.87974548339844)"/>
<path d="M0 0 C3.80815064 1.55146878 6.18712828 4.11422569 9 7 C10.24341406 8.25576402 11.48779915 9.51056695 12.73291016 10.76464844 C13.42357574 11.46176941 14.11424133 12.15889038 14.82583618 12.87713623 C17.93562444 16.01363875 21.05067166 19.14489567 24.16601562 22.27587891 C25.81069953 23.93068696 27.45359349 25.58727586 29.09472656 27.24560547 C31.4673361 29.64238662 33.84626936 32.03272756 36.2265625 34.421875 C36.96097565 35.16661072 37.69538879 35.91134644 38.45205688 36.6786499 C39.13641815 37.36316223 39.82077942 38.04767456 40.52587891 38.75292969 C41.12590729 39.35739929 41.72593567 39.9618689 42.34414673 40.58465576 C44.05621465 42.22763751 44.05621465 42.22763751 47 43 C47.33 43.99 47.66 44.98 48 46 C48.83333333 48.16666667 48.83333333 48.16666667 51 49 C50.67 49.33 50.34 49.66 50 50 C49.86457458 53.15240277 49.75202487 56.29776854 49.74609375 59.453125 C49.671875 61.4609375 49.671875 61.4609375 49 65 C47.35765894 66.03946795 45.68546974 67.03202814 44 68 C42.07162368 69.74580996 40.22801096 71.49823665 38.39941406 73.34179688 C37.86384384 73.87386246 37.32827362 74.40592804 36.776474 74.95411682 C35.01781257 76.7040167 33.26651973 78.46108159 31.515625 80.21875 C30.29234549 81.44068166 29.06876927 82.66231634 27.84490967 83.88366699 C25.28640794 86.43922535 22.7315459 88.99835336 20.17919922 91.56005859 C16.90513756 94.84553844 13.62214685 98.121926 10.33639908 101.39571381 C7.81067257 103.91422111 5.2897193 106.43746279 2.77019501 108.96217346 C1.56118379 110.17251975 0.35068263 111.3813796 -0.8613205 112.58872986 C-2.55142681 114.2737674 -4.23500644 115.96506492 -5.91699219 117.65820312 C-6.41983231 118.15699478 -6.92267242 118.65578644 -7.44075012 119.16969299 C-9.697019 121.45380999 -10.96802794 122.90408382 -12 126 C-12.5775 126.268125 -13.155 126.53625 -13.75 126.8125 C-16.996138 128.5257395 -18.74345671 131.14962952 -21 134 C-22.74674399 135.74674399 -24.52624887 137.25472758 -26.4375 138.8125 C-29.36787955 141.28879181 -31.06367264 143.68058166 -33 147 C-34.32467746 147.6837045 -35.65863633 148.34964186 -37 149 C-38.38232443 150.62626404 -39.71937515 152.2925002 -41 154 C-42.66886175 155.66886175 -44.3525228 157.15004101 -46.16235352 158.6574707 C-50.1396068 162.05221417 -53.76707237 165.72655218 -57.40234375 169.48046875 C-58.80082652 170.90619341 -60.199934 172.33130551 -61.59960938 173.75585938 C-63.77565319 175.97517329 -65.94760136 178.19793751 -68.10913086 180.43139648 C-70.21613627 182.60525306 -72.33892826 184.76262231 -74.46484375 186.91796875 C-75.41991066 187.91645088 -75.41991066 187.91645088 -76.39427185 188.93510437 C-80.64714858 193.21281339 -84.21018201 195.26525758 -90 197 C-90 197.66 -90 198.32 -90 199 C-93.68628903 199.36759406 -97.37411305 199.71664399 -101.0625 200.0625 C-102.10083984 200.16626953 -103.13917969 200.27003906 -104.20898438 200.37695312 C-109.7075974 200.88317464 -114.57699644 201.07557491 -120 200 C-120.33 200 -120.66 200 -121 200 C-121 200.33 -121 200.66 -121 201 C-125.62 201 -130.24 201 -135 201 C-135 200.34 -135 199.68 -135 199 C-136.26457031 198.40251953 -136.26457031 198.40251953 -137.5546875 197.79296875 C-138.65039062 197.26316406 -139.74609375 196.73335937 -140.875 196.1875 C-141.96554688 195.66542969 -143.05609375 195.14335937 -144.1796875 194.60546875 C-147 193 -147 193 -149 190 C-149.1953125 187.30078125 -149.1953125 187.30078125 -149.125 184.3125 C-149.10695312 183.31863281 -149.08890625 182.32476562 -149.0703125 181.30078125 C-149.04710937 180.54152344 -149.02390625 179.78226563 -149 179 C-149.33 179 -149.66 179 -150 179 C-150 173.72 -150 168.44 -150 163 C-149.34 163.33 -148.68 163.66 -148 164 C-147.91923037 161.54101345 -147.85962857 159.08466258 -147.8125 156.625 C-147.78736328 155.92632812 -147.76222656 155.22765625 -147.73632812 154.5078125 C-147.67021439 152.23252323 -147.67021439 152.23252323 -148 149 C-148.99 148.34 -149.98 147.68 -151 147 C-150.34 147 -149.68 147 -149 147 C-148.67 146.01 -148.34 145.02 -148 144 C-147.67 144.33 -147.34 144.66 -147 145 C-146.98582031 144.16855469 -146.97164062 143.33710938 -146.95703125 142.48046875 C-146.90933594 141.39378906 -146.86164063 140.30710938 -146.8125 139.1875 C-146.77769531 138.10855469 -146.74289063 137.02960938 -146.70703125 135.91796875 C-146 133 -146 133 -143.51171875 131.30078125 C-142.26841797 130.65689453 -142.26841797 130.65689453 -141 130 C-140.67 129.01 -140.34 128.02 -140 127 C-139.01 126.505 -139.01 126.505 -138 126 C-137.01 125.01 -137.01 125.01 -136 124 C-134.96276463 123.11975161 -133.92048848 122.24542994 -132.875 121.375 C-125.06969181 115.17629849 -125.06969181 115.17629849 -120 107 C-118.67426203 106.31835415 -117.3392824 105.65463339 -116 105 C-114.3772615 103.56192095 -112.80485756 102.06620971 -111.26953125 100.53515625 C-110.38458984 99.65279297 -109.49964844 98.77042969 -108.58789062 97.86132812 C-107.21407227 96.4759082 -107.21407227 96.4759082 -105.8125 95.0625 C-104.88501953 94.14275391 -103.95753906 93.22300781 -103.00195312 92.27539062 C-102.12087891 91.39173828 -101.23980469 90.50808594 -100.33203125 89.59765625 C-99.52483643 88.78820557 -98.7176416 87.97875488 -97.88598633 87.14477539 C-95.80249272 85.05579039 -95.80249272 85.05579039 -95 82 C-93.66666667 81.33333333 -92.33333333 80.66666667 -91 80 C-90.505 78.515 -90.505 78.515 -90 77 C-89.15248169 76.57738892 -89.15248169 76.57738892 -88.2878418 76.14624023 C-85.11207563 74.55513767 -82.86835449 72.15396235 -80.39453125 69.66015625 C-79.86985764 69.13739609 -79.34518402 68.61463593 -78.80461121 68.07603455 C-77.70036991 66.97315058 -76.59863563 65.8677515 -75.49926758 64.76000977 C-73.81484308 63.064858 -72.11999487 61.38065892 -70.42382812 59.69726562 C-69.35092046 58.6230367 -68.27863317 57.54818773 -67.20703125 56.47265625 C-66.69977005 55.96944351 -66.19250885 55.46623077 -65.6698761 54.94776917 C-63.38424908 52.63132083 -62.04490817 51.1347245 -61 48 C-60.34 47.67 -59.68 47.34 -59 47 C-58.01 46.01 -58.01 46.01 -57 45 C-55.96538902 44.12266856 -54.92580278 43.25119165 -53.88305664 42.38354492 C-49.64610846 38.76678464 -45.76770228 34.83979501 -41.87109375 30.86328125 C-40.32646188 29.30114548 -38.78153109 27.73930524 -37.23632812 26.17773438 C-34.82812247 23.73851227 -32.42233533 21.29704414 -30.02172852 18.8503418 C-27.68662214 16.47286118 -25.34213248 14.10496805 -22.99609375 11.73828125 C-21.92711098 10.64136711 -21.92711098 10.64136711 -20.83653259 9.52229309 C-16.59604759 5.26019338 -12.68721027 1.42284521 -6.4453125 0.70703125 C-5.29675781 0.75923828 -5.29675781 0.75923828 -4.125 0.8125 C-3.34382812 0.83957031 -2.56265625 0.86664063 -1.7578125 0.89453125 C-1.17773438 0.92933594 -0.59765625 0.96414062 0 1 C0 0.67 0 0.34 0 0 Z M-7.03125 43.8984375 C-7.8459375 44.71570313 -8.660625 45.53296875 -9.5 46.375 C-10.3146875 47.18710938 -11.129375 47.99921875 -11.96875 48.8359375 C-14.03382977 50.82928315 -14.03382977 50.82928315 -15 53 C-16.60202808 54.36342815 -18.20554941 55.72513921 -19.81640625 57.078125 C-27.3103287 63.31111191 -27.3103287 63.31111191 -33 71 C-34.97758598 73.11884212 -36.98404994 74.98755895 -39.27050781 76.77099609 C-42.3363996 79.27471631 -45.13209657 81.98838014 -47.921875 84.7890625 C-48.46732971 85.33356049 -49.01278442 85.87805847 -49.57476807 86.4390564 C-50.71888013 87.58249172 -51.86174541 88.7271758 -53.00341797 89.87304688 C-54.75505946 91.63007501 -56.51201353 93.38166437 -58.26953125 95.1328125 C-59.38313355 96.24707506 -60.4964259 97.3616475 -61.609375 98.4765625 C-62.13537292 99.00053619 -62.66137085 99.52450989 -63.20330811 100.06436157 C-65.9420335 102.7754642 -65.9420335 102.7754642 -68 106 C-69.58498062 107.34614792 -71.17126924 108.690775 -72.76269531 110.02929688 C-76.97961566 113.74372082 -80.90888624 117.76158194 -84.87255859 121.7421875 C-86.3891595 123.26421012 -87.91111323 124.78073612 -89.43359375 126.296875 C-90.40136298 127.26530401 -91.36882253 128.23404262 -92.3359375 129.203125 C-93.20782715 130.07614258 -94.0797168 130.94916016 -94.97802734 131.84863281 C-97.03516993 133.83144315 -97.03516993 133.83144315 -98 136 C-100.0294278 138.17438693 -102.07804046 140.06003112 -104.4375 141.875 C-108.90255604 145.38477068 -108.90255604 145.38477068 -112 150 C-112.12162426 153.83380819 -111.60559198 157.18011214 -111 161 C-106.71 161.33 -102.42 161.66 -98 162 C-97.34 161.01 -96.68 160.02 -96 159 C-94.94355663 158.05246832 -93.85716927 157.13773031 -92.75 156.25 C-89.05802168 153.1694814 -86.01533975 149.73327779 -83 146 C-83.495 145.01 -83.495 145.01 -84 144 C-82.89156738 143.86839478 -82.89156738 143.86839478 -81.76074219 143.73413086 C-78.46779374 142.85847681 -77.19664026 141.67323959 -74.828125 139.25390625 C-74.08175781 138.49916016 -73.33539063 137.74441406 -72.56640625 136.96679688 C-71.80199219 136.17337891 -71.03757812 135.37996094 -70.25 134.5625 C-69.47011719 133.77294922 -68.69023437 132.98339844 -67.88671875 132.16992188 C-63.9896852 128.42190949 -63.9896852 128.42190949 -61 124 C-59.97731014 123.05981197 -58.92186286 122.15492051 -57.84936523 121.27197266 C-54.21179358 118.21133283 -50.7930272 114.98623955 -47.41015625 111.6484375 C-46.82076767 111.06712067 -46.23137909 110.48580383 -45.62413025 109.88687134 C-44.39340366 108.66985346 -43.16413242 107.45136218 -41.9362793 106.23144531 C-40.67897039 104.98576754 -39.41717941 103.74459869 -38.15112305 102.5078125 C-36.31101676 100.71013556 -34.48430256 98.89979019 -32.66015625 97.0859375 C-31.80720726 96.25925064 -31.80720726 96.25925064 -30.93702698 95.41586304 C-27.4281238 91.9353965 -27.4281238 91.9353965 -27 87 C-25.515 87.495 -25.515 87.495 -24 88 C-19.8689165 84.01755776 -15.75819212 80.01555404 -11.66479492 75.99438477 C-10.2704336 74.63014204 -8.87072734 73.2713396 -7.46557617 71.91821289 C-5.44310463 69.9687651 -3.44085566 68.00036395 -1.44140625 66.02734375 C-0.81222794 65.42913315 -0.18304962 64.83092255 0.4651947 64.21458435 C3.49141267 61.19072879 4.87315625 59.46256068 6.03100586 55.24023438 C6.30867081 51.8507839 6.30867081 51.8507839 3.9453125 49.12890625 C3.01460938 48.28199219 2.08390625 47.43507813 1.125 46.5625 C0.19945312 45.69753906 -0.72609375 44.83257812 -1.6796875 43.94140625 C-4.45052084 41.3552774 -4.45052084 41.3552774 -7.03125 43.8984375 Z M7 54 C8 56 8 56 8 56 Z M-113 152 C-113 155.3 -113 158.6 -113 162 C-112.67 162 -112.34 162 -112 162 C-112 158.7 -112 155.4 -112 152 C-112.33 152 -112.66 152 -113 152 Z M-107 162 C-107 162.33 -107 162.66 -107 163 C-104.36 163 -101.72 163 -99 163 C-99 162.67 -99 162.34 -99 162 C-101.64 162 -104.28 162 -107 162 Z M-109 162 C-110.98 162.99 -110.98 162.99 -113 164 C-111.35 164 -109.7 164 -108 164 C-108.33 163.34 -108.66 162.68 -109 162 Z M-103 197 C-102.67 197.66 -102.34 198.32 -102 199 C-101.67 198.34 -101.34 197.68 -101 197 C-101.66 197 -102.32 197 -103 197 Z " fill="#000000" transform="translate(383,62)"/>
<path d="M0 0 C4 3 4 3 4.49219131 5.11828899 C4.48850414 5.94145013 4.48481697 6.76461126 4.48101807 7.61271667 C4.48651672 8.55922592 4.49201538 9.50573517 4.49768066 10.48092651 C4.48329956 11.5174234 4.46891846 12.55392029 4.45410156 13.62182617 C4.45468567 14.71466415 4.45526978 15.80750214 4.45587158 16.93345642 C4.45307996 20.55361452 4.42193575 24.1729541 4.390625 27.79296875 C4.38316648 30.29974416 4.37747172 32.8065254 4.37347412 35.31330872 C4.35975067 41.24197477 4.32821025 47.17037723 4.28807616 53.09890777 C4.2389905 60.51054755 4.21749883 67.92222369 4.1953125 75.33398438 C4.15238792 88.55613942 4.08486618 101.77805107 4 115 C3.34 114.67 2.68 114.34 2 114 C1.67 115.65 1.34 117.3 1 119 C0.67 119 0.34 119 0 119 C0 79.73 0 40.46 0 0 Z " fill="#0B0B0B" transform="translate(385,232)"/>
<path d="M0 0 C66.99 0 133.98 0 203 0 C203 0.33 203 0.66 203 1 C177.41804815 1.15392236 151.83606811 1.30195508 126.25404167 1.4429636 C114.37604878 1.50857281 102.49807272 1.5761141 90.62011719 1.64819336 C80.26810539 1.71100781 69.91608033 1.7702078 59.56402314 1.82505554 C54.08198792 1.85422725 48.5999765 1.88521699 43.11797714 1.92053413 C37.95857878 1.95371588 32.79917646 1.98206612 27.63973045 2.00670624 C25.74587298 2.01660331 23.85202379 2.02826764 21.95818901 2.04183006 C19.37226124 2.06008449 16.78637881 2.07197621 14.20040894 2.08229065 C13.45136917 2.08909444 12.7023294 2.09589823 11.93059146 2.10290819 C7.84434328 2.11164254 4.00841949 1.79743283 0 1 C0 0.67 0 0.34 0 0 Z " fill="#030303" transform="translate(139,402)"/>
<path d="M0 0 C0.33 0.66 0.66 1.32 1 2 C3.64 2 6.28 2 9 2 C9 2.33 9 2.66 9 3 C-55.02 3 -119.04 3 -185 3 C-181.4050905 0.60339366 -178.8753504 0.73986282 -174.72981262 0.79745483 C-173.61115792 0.80101689 -173.61115792 0.80101689 -172.46990412 0.8046509 C-169.96391576 0.81509119 -167.45827722 0.83997076 -164.95239258 0.86474609 C-163.15887425 0.87516921 -161.36535058 0.88470499 -159.57182312 0.89341736 C-154.69603268 0.9196276 -149.8204102 0.95829316 -144.94472337 0.99914122 C-139.85183996 1.03970854 -134.75889188 1.06889586 -129.66593933 1.09927368 C-120.01866331 1.15855432 -110.37148972 1.22811712 -100.72431058 1.30134451 C-89.74263783 1.38420301 -78.76090019 1.45564395 -67.77914202 1.52611041 C-45.18599922 1.67134005 -22.59297629 1.83095819 0 2 C0 1.34 0 0.68 0 0 Z " fill="#030303" transform="translate(328,363)"/>
<path d="M0 0 C0.33 0 0.66 0 1 0 C1 62.04 1 124.08 1 188 C0.67 188 0.34 188 0 188 C0 125.96 0 63.92 0 0 Z " fill="#010101" transform="translate(129,161)"/>
<path d="M0 0 C0.33 0 0.66 0 1 0 C1 39.6 1 79.2 1 120 C0.67 120 0.34 120 0 120 C0 80.4 0 40.8 0 0 Z " fill="#030303" transform="translate(350,232)"/>
<path d="M0 0 C0.33 0 0.66 0 1 0 C1 3.96 1 7.92 1 12 C0.67 12 0.34 12 0 12 C-0.19477739 10.37585622 -0.38059458 8.75063577 -0.5625 7.125 C-0.66691406 6.22007812 -0.77132812 5.31515625 -0.87890625 4.3828125 C-1 2 -1 2 0 0 Z " fill="#030303" transform="translate(234,212)"/>
<path d="M0 0 C0.33 0 0.66 0 1 0 C1 3.3 1 6.6 1 10 C0.67 10 0.34 10 0 10 C0 6.7 0 3.4 0 0 Z " fill="#010101" transform="translate(279,121)"/>
<path d="M0 0 C0.33 0 0.66 0 1 0 C1 2.97 1 5.94 1 9 C0.67 9 0.34 9 0 9 C0 6.03 0 3.06 0 0 Z " fill="#030303" transform="translate(387,347)"/>
<path d="M0 0 C2.64 0 5.28 0 8 0 C8 0.33 8 0.66 8 1 C5.36 1 2.72 1 0 1 C0 0.67 0 0.34 0 0 Z " fill="#030303" transform="translate(374,61)"/>
<path d="M0 0 C0.33 0.66 0.66 1.32 1 2 C0.0625 4.125 0.0625 4.125 -1 6 C-1.042721 4.33388095 -1.04063832 2.66617115 -1 1 C-0.67 0.67 -0.34 0.34 0 0 Z " fill="#040404" transform="translate(434,117)"/>
<path d="M0 0 C0.33 0 0.66 0 1 0 C1 1.98 1 3.96 1 6 C0.67 6 0.34 6 0 6 C0 4.02 0 2.04 0 0 Z " fill="#060606" transform="translate(235,200)"/>
<path d="M0 0 C0.66 0.33 1.32 0.66 2 1 C0.68 1.33 -0.64 1.66 -2 2 C-1.34 1.34 -0.68 0.68 0 0 Z " fill="#000000" transform="translate(299,257)"/>
<path d="M0 0 C0.33 0 0.66 0 1 0 C1 1.65 1 3.3 1 5 C0.67 5 0.34 5 0 5 C0 3.35 0 1.7 0 0 Z " fill="#020202" transform="translate(387,229)"/>
<path d="M0 0 C0.99 0.33 1.98 0.66 3 1 C2.67 1.66 2.34 2.32 2 3 C1.34 2.01 0.68 1.02 0 0 Z " fill="#000000" transform="translate(381,221)"/>
<path d="M0 0 C1.65 0 3.3 0 5 0 C5 0.33 5 0.66 5 1 C3.35 1 1.7 1 0 1 C0 0.67 0 0.34 0 0 Z " fill="#040404" transform="translate(368,215)"/>
<path d="M0 0 C0.66 0.33 1.32 0.66 2 1 C1.01 1.66 0.02 2.32 -1 3 C-0.67 2.01 -0.34 1.02 0 0 Z " fill="#010101" transform="translate(108,125)"/>
<path d="M0 0 C0.66 0.33 1.32 0.66 2 1 C1.01 1.66 0.02 2.32 -1 3 C-0.67 2.01 -0.34 1.02 0 0 Z " fill="#010101" transform="translate(111,122)"/>
<path d="M0 0 C0.33 0 0.66 0 1 0 C1 1.65 1 3.3 1 5 C0.67 5 0.34 5 0 5 C0 3.35 0 1.7 0 0 Z " fill="#020202" transform="translate(433,112)"/>
<path d="M0 0 C1 4 1 4 1 4 Z " fill="#020202" transform="translate(386,356)"/>
<path d="M0 0 C0.99 0.495 0.99 0.495 2 1 C1.67 1.66 1.34 2.32 1 3 C0.67 2.01 0.34 1.02 0 0 Z " fill="#000000" transform="translate(132,356)"/>
<path d="M0 0 C1 4 1 4 1 4 Z " fill="#050505" transform="translate(130,349)"/>
<path d="M0 0 C4 1 4 1 4 1 Z " fill="#010101" transform="translate(293,259)"/>
<path d="M0 0 C1 4 1 4 1 4 Z " fill="#040404" transform="translate(233,245)"/>
<path d="M0 0 C1 4 1 4 1 4 Z " fill="#070707" transform="translate(351,228)"/>
<path d="M0 0 C4 1 4 1 4 1 Z " fill="#040404" transform="translate(133,109)"/>
<path d="M0 0 C3 1 3 1 3 1 Z " fill="#010101" transform="translate(342,401)"/>
<path d="M0 0 C3 1 3 1 3 1 Z " fill="#010101" transform="translate(135,401)"/>
<path d="M0 0 C3 1 3 1 3 1 Z " fill="#010101" transform="translate(345,400)"/>
<path d="M0 0 C3 1 3 1 3 1 Z " fill="#010101" transform="translate(132,400)"/>
<path d="M0 0 C3 1 3 1 3 1 Z " fill="#010101" transform="translate(129,399)"/>
<path d="M0 0 C3 1 3 1 3 1 Z " fill="#010101" transform="translate(351,398)"/>
<path d="M0 0 C0.33 0.66 0.66 1.32 1 2 C0.34 1.67 -0.32 1.34 -1 1 C-0.67 0.67 -0.34 0.34 0 0 Z " fill="#000000" transform="translate(373,382)"/>
<path d="M0 0 C3 1 3 1 3 1 Z " fill="#030303" transform="translate(337,364)"/>
<path d="" fill="#010101" transform="translate(0,0)"/>
<path d="M0 0 C0.33 0.66 0.66 1.32 1 2 C0.34 1.67 -0.32 1.34 -1 1 C-0.67 0.67 -0.34 0.34 0 0 Z " fill="#000000" transform="translate(138,361)"/>
<path d="" fill="#010101" transform="translate(0,0)"/>
<path d="" fill="#020202" transform="translate(0,0)"/>
<path d="M0 0 C3 1 3 1 3 1 Z " fill="#060606" transform="translate(373,216)"/>
<path d="M0 0 C3 1 3 1 3 1 Z " fill="#050505" transform="translate(363,216)"/>
<path d="M0 0 C0.33 0.66 0.66 1.32 1 2 C0.34 1.67 -0.32 1.34 -1 1 C-0.67 0.67 -0.34 0.34 0 0 Z " fill="#000000" transform="translate(347,210)"/>
<path d="M0 0 C0.99 0.495 0.99 0.495 2 1 C1.01 1.495 1.01 1.495 0 2 C0 1.34 0 0.68 0 0 Z " fill="#000000" transform="translate(304,201)"/>
<path d="M0 0 C0.33 0.66 0.66 1.32 1 2 C0.34 1.67 -0.32 1.34 -1 1 C-0.67 0.67 -0.34 0.34 0 0 Z " fill="#000000" transform="translate(283,200)"/>
<path d="" fill="#040404" transform="translate(0,0)"/>
<path d="M0 0 C0.33 0.66 0.66 1.32 1 2 C0.34 1.67 -0.32 1.34 -1 1 C-0.67 0.67 -0.34 0.34 0 0 Z " fill="#000000" transform="translate(376,181)"/>
<path d="M0 0 C0.33 0.66 0.66 1.32 1 2 C0.34 1.67 -0.32 1.34 -1 1 C-0.67 0.67 -0.34 0.34 0 0 Z " fill="#000000" transform="translate(302,181)"/>
<path d="M0 0 C0.33 0.66 0.66 1.32 1 2 C0.34 1.67 -0.32 1.34 -1 1 C-0.67 0.67 -0.34 0.34 0 0 Z " fill="#000000" transform="translate(379,178)"/>
<path d="M0 0 C0.33 0.66 0.66 1.32 1 2 C0.34 1.67 -0.32 1.34 -1 1 C-0.67 0.67 -0.34 0.34 0 0 Z " fill="#000000" transform="translate(384,173)"/>
<path d="M0 0 C0.33 0.66 0.66 1.32 1 2 C0.34 1.67 -0.32 1.34 -1 1 C-0.67 0.67 -0.34 0.34 0 0 Z " fill="#000000" transform="translate(390,167)"/>
<path d="M0 0 C0.33 0.66 0.66 1.32 1 2 C0.34 1.67 -0.32 1.34 -1 1 C-0.67 0.67 -0.34 0.34 0 0 Z " fill="#000000" transform="translate(392,165)"/>
<path d="M0 0 C0.99 0.495 0.99 0.495 2 1 C1.01 1.495 1.01 1.495 0 2 C0 1.34 0 0.68 0 0 Z " fill="#000000" transform="translate(340,165)"/>
<path d="M0 0 C0.99 0.495 0.99 0.495 2 1 C1.01 1.495 1.01 1.495 0 2 C0 1.34 0 0.68 0 0 Z " fill="#000000" transform="translate(349,156)"/>
<path d="M0 0 C0.99 0.495 0.99 0.495 2 1 C1.01 1.495 1.01 1.495 0 2 C0 1.34 0 0.68 0 0 Z " fill="#000000" transform="translate(277,154)"/>
<path d="M0 0 C0.33 0.66 0.66 1.32 1 2 C0.34 1.67 -0.32 1.34 -1 1 C-0.67 0.67 -0.34 0.34 0 0 Z " fill="#000000" transform="translate(404,153)"/>
<path d="M0 0 C0.33 0.66 0.66 1.32 1 2 C0.34 1.67 -0.32 1.34 -1 1 C-0.67 0.67 -0.34 0.34 0 0 Z " fill="#000000" transform="translate(336,147)"/>
<path d="M0 0 C0.99 0.495 0.99 0.495 2 1 C1.01 1.495 1.01 1.495 0 2 C0 1.34 0 0.68 0 0 Z " fill="#000000" transform="translate(360,145)"/>
<path d="M0 0 C3 1 3 1 3 1 Z " fill="#000000" transform="translate(265,143)"/>
<path d="M0 0 C0.99 0.495 0.99 0.495 2 1 C1.01 1.495 1.01 1.495 0 2 C0 1.34 0 0.68 0 0 Z " fill="#000000" transform="translate(374,131)"/>
<path d="M0 0 C0.99 0.495 0.99 0.495 2 1 C1.01 1.495 1.01 1.495 0 2 C0 1.34 0 0.68 0 0 Z " fill="#000000" transform="translate(303,128)"/>
<path d="M0 0 C0.66 0 1.32 0 2 0 C1.67 0.66 1.34 1.32 1 2 C0.67 1.34 0.34 0.68 0 0 Z " fill="#000000" transform="translate(275,115)"/>
<path d="M0 0 C3 1 3 1 3 1 Z " fill="#050505" transform="translate(130,110)"/>
<path d="M0 0 C0.66 0.66 1.32 1.32 2 2 C1.34 2 0.68 2 0 2 C0 1.34 0 0.68 0 0 Z " fill="#000000" transform="translate(368,63)"/>
<path d="" fill="#030303" transform="translate(0,0)"/>
<path d="M0 0 C2 1 2 1 2 1 Z " fill="#010101" transform="translate(349,399)"/>
<path d="M0 0 C2 1 2 1 2 1 Z " fill="#010101" transform="translate(127,398)"/>
<path d="M0 0 C2 1 2 1 2 1 Z " fill="#010101" transform="translate(354,397)"/>
<path d="M0 0 C2 1 2 1 2 1 Z " fill="#020202" transform="translate(125,397)"/>
<path d="M0 0 C2 1 2 1 2 1 Z " fill="#000000" transform="translate(356,396)"/>
<path d="M0 0 C2 1 2 1 2 1 Z " fill="#000000" transform="translate(121,395)"/>
<path d="M0 0 C2 1 2 1 2 1 Z " fill="#000000" transform="translate(359,394)"/>
<path d="M0 0 C2 1 2 1 2 1 Z " fill="#000000" transform="translate(119,394)"/>
<path d="M0 0 C2 1 2 1 2 1 Z " fill="#000000" transform="translate(362,392)"/>
<path d="M0 0 C2 1 2 1 2 1 Z " fill="#000000" transform="translate(115,391)"/>
<path d="M0 0 C2 1 2 1 2 1 Z " fill="#010101" transform="translate(141,364)"/>
<path d="M0 0 C2 1 2 1 2 1 Z " fill="#010101" transform="translate(340,363)"/>
<path d="M0 0 C2 1 2 1 2 1 Z " fill="#000000" transform="translate(139,363)"/>
<path d="M0 0 C2 1 2 1 2 1 Z " fill="#010101" transform="translate(246,261)"/>
<path d="M0 0 C2 1 2 1 2 1 Z " fill="#000000" transform="translate(243,260)"/>
<path d="M0 0 C2 1 2 1 2 1 Z " fill="#000000" transform="translate(240,258)"/>
<path d="" fill="#020202" transform="translate(0,0)"/>
<path d="" fill="#000000" transform="translate(0,0)"/>
<path d="M0 0 C2 1 2 1 2 1 Z " fill="#000000" transform="translate(358,219)"/>
<path d="M0 0 C2 1 2 1 2 1 Z " fill="#000000" transform="translate(376,217)"/>
<path d="M0 0 C2 1 2 1 2 1 Z " fill="#010101" transform="translate(361,217)"/>
<path d="M0 0 C2 1 2 1 2 1 Z " fill="#020202" transform="translate(315,173)"/>
<path d="" fill="#020202" transform="translate(0,0)"/>
<path d="M0 0 C2 1 2 1 2 1 Z " fill="#020202" transform="translate(90,151)"/>
<path d="M0 0 C2 1 2 1 2 1 Z " fill="#000000" transform="translate(138,147)"/>
<path d="M0 0 C2 1 2 1 2 1 Z " fill="#000000" transform="translate(140,146)"/>
<path d="M0 0 C2 1 2 1 2 1 Z " fill="#000000" transform="translate(268,142)"/>
<path d="" fill="#000000" transform="translate(0,0)"/>
<path d="M0 0 C2 1 2 1 2 1 Z " fill="#000000" transform="translate(271,140)"/>
<path d="" fill="#000000" transform="translate(0,0)"/>
<path d="" fill="#000000" transform="translate(0,0)"/>
<path d="" fill="#000000" transform="translate(0,0)"/>
<path d="M0 0 C2 1 2 1 2 1 Z " fill="#000000" transform="translate(116,118)"/>
<path d="M0 0 C2 1 2 1 2 1 Z " fill="#000000" transform="translate(122,114)"/>
<path d="M0 0 C2 1 2 1 2 1 Z " fill="#000000" transform="translate(124,113)"/>
<path d="M0 0 C2 1 2 1 2 1 Z " fill="#010101" transform="translate(126,112)"/>
<path d="M0 0 C2 1 2 1 2 1 Z " fill="#060606" transform="translate(128,111)"/>
<path d="M0 0 C2 1 2 1 2 1 Z " fill="#010101" transform="translate(268,109)"/>
<path d="M0 0 C2 1 2 1 2 1 Z " fill="#030303" transform="translate(266,108)"/>
<path d="M0 0 C2 1 2 1 2 1 Z " fill="#030303" transform="translate(261,105)"/>
<path d="M0 0 C2 1 2 1 2 1 Z " fill="#000000" transform="translate(388,65)"/>
<path d="M0 0 C2 1 2 1 2 1 Z " fill="#000000" transform="translate(370,63)"/>
<path d="M0 0 C2 1 2 1 2 1 Z " fill="#050505" transform="translate(372,62)"/>
<path d="" fill="#030303" transform="translate(0,0)"/>
<path d="" fill="#030303" transform="translate(0,0)"/>
<path d="" fill="#030303" transform="translate(0,0)"/>
<path d="" fill="#030303" transform="translate(0,0)"/>
<path d="" fill="#030303" transform="translate(0,0)"/>
<path d="" fill="#020202" transform="translate(0,0)"/>
<path d="" fill="#000000" transform="translate(0,0)"/>
<path d="" fill="#030303" transform="translate(0,0)"/>
<path d="" fill="#000000" transform="translate(0,0)"/>
<path d="" fill="#000000" transform="translate(0,0)"/>
<path d="" fill="#000000" transform="translate(0,0)"/>
<path d="" fill="#020202" transform="translate(0,0)"/>
<path d="" fill="#010101" transform="translate(0,0)"/>
<path d="" fill="#000000" transform="translate(0,0)"/>
<path d="" fill="#020202" transform="translate(0,0)"/>
<path d="" fill="#000000" transform="translate(0,0)"/>
<path d="" fill="#000000" transform="translate(0,0)"/>
<path d="" fill="#000000" transform="translate(0,0)"/>
<path d="" fill="#020202" transform="translate(0,0)"/>
<path d="" fill="#000000" transform="translate(0,0)"/>
<path d="" fill="#030303" transform="translate(0,0)"/>
<path d="" fill="#000000" transform="translate(0,0)"/>
<path d="" fill="#000000" transform="translate(0,0)"/>
<path d="" fill="#030303" transform="translate(0,0)"/>
<path d="" fill="#000000" transform="translate(0,0)"/>
<path d="" fill="#000000" transform="translate(0,0)"/>
<path d="" fill="#000000" transform="translate(0,0)"/>
<path d="" fill="#000000" transform="translate(0,0)"/>
<path d="" fill="#000000" transform="translate(0,0)"/>
<path d="" fill="#030303" transform="translate(0,0)"/>
<path d="" fill="#000000" transform="translate(0,0)"/>
<path d="" fill="#000000" transform="translate(0,0)"/>
<path d="" fill="#000000" transform="translate(0,0)"/>
<path d="" fill="#000000" transform="translate(0,0)"/>
<path d="" fill="#010101" transform="translate(0,0)"/>
<path d="" fill="#030303" transform="translate(0,0)"/>
<path d="" fill="#030303" transform="translate(0,0)"/>
<path d="" fill="#020202" transform="translate(0,0)"/>
<path d="" fill="#030303" transform="translate(0,0)"/>
<path d="" fill="#030303" transform="translate(0,0)"/>
<path d="" fill="#020202" transform="translate(0,0)"/>
<path d="" fill="#020202" transform="translate(0,0)"/>
<path d="" fill="#030303" transform="translate(0,0)"/>
<path d="" fill="#030303" transform="translate(0,0)"/>
<path d="" fill="#000000" transform="translate(0,0)"/>
<path d="" fill="#010101" transform="translate(0,0)"/>
<path d="" fill="#020202" transform="translate(0,0)"/>
<path d="" fill="#030303" transform="translate(0,0)"/>
<path d="" fill="#020202" transform="translate(0,0)"/>
<path d="" fill="#030303" transform="translate(0,0)"/>
<path d="" fill="#020202" transform="translate(0,0)"/>
<path d="" fill="#000000" transform="translate(0,0)"/>
<path d="" fill="#000000" transform="translate(0,0)"/>
<path d="" fill="#000000" transform="translate(0,0)"/>
<path d="" fill="#020202" transform="translate(0,0)"/>
<path d="" fill="#020202" transform="translate(0,0)"/>
<path d="" fill="#000000" transform="translate(0,0)"/>
<path d="" fill="#000000" transform="translate(0,0)"/>
<path d="" fill="#000000" transform="translate(0,0)"/>
<path d="" fill="#000000" transform="translate(0,0)"/>
<path d="" fill="#000000" transform="translate(0,0)"/>
<path d="" fill="#000000" transform="translate(0,0)"/>
<path d="" fill="#000000" transform="translate(0,0)"/>
<path d="" fill="#000000" transform="translate(0,0)"/>
<path d="" fill="#000000" transform="translate(0,0)"/>
<path d="" fill="#000000" transform="translate(0,0)"/>
<path d="" fill="#000000" transform="translate(0,0)"/>
<path d="" fill="#000000" transform="translate(0,0)"/>
<path d="" fill="#000000" transform="translate(0,0)"/>
<path d="" fill="#000000" transform="translate(0,0)"/>
<path d="" fill="#000000" transform="translate(0,0)"/>
<path d="" fill="#000000" transform="translate(0,0)"/>
<path d="" fill="#000000" transform="translate(0,0)"/>
<path d="" fill="#030303" transform="translate(0,0)"/>
<path d="" fill="#000000" transform="translate(0,0)"/>
<path d="" fill="#000000" transform="translate(0,0)"/>
<path d="" fill="#030303" transform="translate(0,0)"/>
<path d="" fill="#000000" transform="translate(0,0)"/>
<path d="" fill="#000000" transform="translate(0,0)"/>
<path d="" fill="#000000" transform="translate(0,0)"/>
<path d="" fill="#000000" transform="translate(0,0)"/>
<path d="" fill="#020202" transform="translate(0,0)"/>
<path d="" fill="#000000" transform="translate(0,0)"/>
<path d="" fill="#000000" transform="translate(0,0)"/>
<path d="" fill="#000000" transform="translate(0,0)"/>
<path d="" fill="#000000" transform="translate(0,0)"/>
<path d="" fill="#000000" transform="translate(0,0)"/>
<path d="" fill="#000000" transform="translate(0,0)"/>
<path d="" fill="#000000" transform="translate(0,0)"/>
<path d="" fill="#000000" transform="translate(0,0)"/>
<path d="" fill="#000000" transform="translate(0,0)"/>
<path d="" fill="#030303" transform="translate(0,0)"/>
<path d="" fill="#000000" transform="translate(0,0)"/>
<path d="" fill="#000000" transform="translate(0,0)"/>
<path d="" fill="#000000" transform="translate(0,0)"/>
<path d="" fill="#000000" transform="translate(0,0)"/>
<path d="" fill="#000000" transform="translate(0,0)"/>
<path d="" fill="#000000" transform="translate(0,0)"/>
<path d="" fill="#000000" transform="translate(0,0)"/>
<path d="" fill="#000000" transform="translate(0,0)"/>
<path d="" fill="#000000" transform="translate(0,0)"/>
<path d="" fill="#000000" transform="translate(0,0)"/>
<path d="" fill="#010101" transform="translate(0,0)"/>
<path d="" fill="#000000" transform="translate(0,0)"/>
<path d="" fill="#000000" transform="translate(0,0)"/>
<path d="" fill="#030303" transform="translate(0,0)"/>
<path d="" fill="#010101" transform="translate(0,0)"/>
<path d="" fill="#000000" transform="translate(0,0)"/>
<path d="" fill="#020202" transform="translate(0,0)"/>
<path d="" fill="#000000" transform="translate(0,0)"/>
<path d="" fill="#000000" transform="translate(0,0)"/>
<path d="" fill="#000000" transform="translate(0,0)"/>
<path d="" fill="#010101" transform="translate(0,0)"/>
<path d="" fill="#000000" transform="translate(0,0)"/>
<path d="" fill="#000000" transform="translate(0,0)"/>
<path d="" fill="#020202" transform="translate(0,0)"/>
<path d="" fill="#030303" transform="translate(0,0)"/>
<path d="" fill="#000000" transform="translate(0,0)"/>
<path d="" fill="#000000" transform="translate(0,0)"/>
<path d="" fill="#000000" transform="translate(0,0)"/>
<path d="" fill="#000000" transform="translate(0,0)"/>
<path d="" fill="#000000" transform="translate(0,0)"/>
<path d="" fill="#020202" transform="translate(0,0)"/>
<path d="" fill="#000000" transform="translate(0,0)"/>
<path d="" fill="#000000" transform="translate(0,0)"/>
<path d="" fill="#000000" transform="translate(0,0)"/>
<path d="" fill="#000000" transform="translate(0,0)"/>
<path d="" fill="#000000" transform="translate(0,0)"/>
<path d="" fill="#000000" transform="translate(0,0)"/>
<path d="" fill="#000000" transform="translate(0,0)"/>
<path d="" fill="#020202" transform="translate(0,0)"/>
<path d="" fill="#000000" transform="translate(0,0)"/>
<path d="" fill="#000000" transform="translate(0,0)"/>
<path d="" fill="#000000" transform="translate(0,0)"/>
<path d="" fill="#000000" transform="translate(0,0)"/>
<path d="" fill="#000000" transform="translate(0,0)"/>
<path d="" fill="#020202" transform="translate(0,0)"/>
<path d="" fill="#000000" transform="translate(0,0)"/>
<path d="" fill="#010101" transform="translate(0,0)"/>
<path d="" fill="#000000" transform="translate(0,0)"/>
<path d="" fill="#020202" transform="translate(0,0)"/>
<path d="" fill="#000000" transform="translate(0,0)"/>
<path d="" fill="#000000" transform="translate(0,0)"/>
<path d="" fill="#000000" transform="translate(0,0)"/>
<path d="" fill="#000000" transform="translate(0,0)"/>
<path d="" fill="#000000" transform="translate(0,0)"/>
<path d="" fill="#000000" transform="translate(0,0)"/>
<path d="" fill="#020202" transform="translate(0,0)"/>
<path d="" fill="#000000" transform="translate(0,0)"/>
<path d="" fill="#030303" transform="translate(0,0)"/>
<path d="" fill="#000000" transform="translate(0,0)"/>
<path d="" fill="#020202" transform="translate(0,0)"/>
<path d="" fill="#000000" transform="translate(0,0)"/>
<path d="" fill="#000000" transform="translate(0,0)"/>
<path d="" fill="#010101" transform="translate(0,0)"/>
<path d="" fill="#000000" transform="translate(0,0)"/>
<path d="" fill="#000000" transform="translate(0,0)"/>
<path d="" fill="#000000" transform="translate(0,0)"/>
<path d="" fill="#020202" transform="translate(0,0)"/>
<path d="" fill="#030303" transform="translate(0,0)"/>
<path d="" fill="#000000" transform="translate(0,0)"/>
<path d="" fill="#000000" transform="translate(0,0)"/>
<path d="" fill="#030303" transform="translate(0,0)"/>
<path d="" fill="#000000" transform="translate(0,0)"/>
<path d="" fill="#000000" transform="translate(0,0)"/>
<path d="" fill="#000000" transform="translate(0,0)"/>
<path d="" fill="#000000" transform="translate(0,0)"/>
<path d="" fill="#000000" transform="translate(0,0)"/>
<path d="" fill="#000000" transform="translate(0,0)"/>
<path d="" fill="#000000" transform="translate(0,0)"/>
<path d="" fill="#000000" transform="translate(0,0)"/>
<path d="" fill="#000000" transform="translate(0,0)"/>
<path d="" fill="#000000" transform="translate(0,0)"/>
<path d="" fill="#000000" transform="translate(0,0)"/>
<path d="" fill="#000000" transform="translate(0,0)"/>
<path d="" fill="#000000" transform="translate(0,0)"/>
<path d="" fill="#000000" transform="translate(0,0)"/>
<path d="" fill="#020202" transform="translate(0,0)"/>
<path d="" fill="#000000" transform="translate(0,0)"/>
<path d="" fill="#000000" transform="translate(0,0)"/>
<path d="" fill="#000000" transform="translate(0,0)"/>
<path d="" fill="#000000" transform="translate(0,0)"/>
<path d="" fill="#000000" transform="translate(0,0)"/>
<path d="" fill="#000000" transform="translate(0,0)"/>
<path d="" fill="#000000" transform="translate(0,0)"/>
<path d="" fill="#020202" transform="translate(0,0)"/>
<path d="" fill="#000000" transform="translate(0,0)"/>
<path d="" fill="#000000" transform="translate(0,0)"/>
<path d="" fill="#020202" transform="translate(0,0)"/>
<path d="" fill="#000000" transform="translate(0,0)"/>
<path d="" fill="#000000" transform="translate(0,0)"/>
<path d="" fill="#000000" transform="translate(0,0)"/>
<path d="" fill="#020202" transform="translate(0,0)"/>
<path d="" fill="#000000" transform="translate(0,0)"/>
<path d="" fill="#000000" transform="translate(0,0)"/>
<path d="" fill="#000000" transform="translate(0,0)"/>
<path d="" fill="#000000" transform="translate(0,0)"/>
<path d="" fill="#000000" transform="translate(0,0)"/>
<path d="" fill="#000000" transform="translate(0,0)"/>
<path d="" fill="#000000" transform="translate(0,0)"/>
<path d="" fill="#000000" transform="translate(0,0)"/>
<path d="" fill="#000000" transform="translate(0,0)"/>
<path d="" fill="#000000" transform="translate(0,0)"/>
<path d="" fill="#000000" transform="translate(0,0)"/>
<path d="" fill="#000000" transform="translate(0,0)"/>
<path d="" fill="#000000" transform="translate(0,0)"/>
<path d="" fill="#000000" transform="translate(0,0)"/>
<path d="" fill="#000000" transform="translate(0,0)"/>
<path d="" fill="#000000" transform="translate(0,0)"/>
<path d="" fill="#000000" transform="translate(0,0)"/>
<path d="" fill="#000000" transform="translate(0,0)"/>
<path d="" fill="#000000" transform="translate(0,0)"/>
<path d="" fill="#000000" transform="translate(0,0)"/>
<path d="" fill="#000000" transform="translate(0,0)"/>
<path d="" fill="#000000" transform="translate(0,0)"/>
<path d="" fill="#000000" transform="translate(0,0)"/>
<path d="" fill="#000000" transform="translate(0,0)"/>
<path d="" fill="#000000" transform="translate(0,0)"/>
<path d="" fill="#020202" transform="translate(0,0)"/>
<path d="" fill="#000000" transform="translate(0,0)"/>
<path d="" fill="#000000" transform="translate(0,0)"/>
<path d="" fill="#000000" transform="translate(0,0)"/>
<path d="" fill="#000000" transform="translate(0,0)"/>
<path d="" fill="#000000" transform="translate(0,0)"/>
<path d="" fill="#000000" transform="translate(0,0)"/>
<path d="" fill="#030303" transform="translate(0,0)"/>
<path d="" fill="#000000" transform="translate(0,0)"/>
<path d="" fill="#000000" transform="translate(0,0)"/>
<path d="" fill="#000000" transform="translate(0,0)"/>
<path d="" fill="#000000" transform="translate(0,0)"/>
<path d="" fill="#000000" transform="translate(0,0)"/>
<path d="" fill="#000000" transform="translate(0,0)"/>
<path d="" fill="#020202" transform="translate(0,0)"/>
<path d="" fill="#000000" transform="translate(0,0)"/>
<path d="" fill="#000000" transform="translate(0,0)"/>
<path d="" fill="#020202" transform="translate(0,0)"/>
<path d="" fill="#000000" transform="translate(0,0)"/>
<path d="" fill="#000000" transform="translate(0,0)"/>
<path d="" fill="#000000" transform="translate(0,0)"/>
<path d="" fill="#000000" transform="translate(0,0)"/>
<path d="" fill="#000000" transform="translate(0,0)"/>
<path d="" fill="#020202" transform="translate(0,0)"/>
<path d="" fill="#000000" transform="translate(0,0)"/>
<path d="" fill="#000000" transform="translate(0,0)"/>
<path d="" fill="#000000" transform="translate(0,0)"/>
<path d="" fill="#000000" transform="translate(0,0)"/>
<path d="" fill="#000000" transform="translate(0,0)"/>
<path d="" fill="#000000" transform="translate(0,0)"/>
<path d="" fill="#020202" transform="translate(0,0)"/>
<path d="" fill="#000000" transform="translate(0,0)"/>
<path d="" fill="#000000" transform="translate(0,0)"/>
<path d="" fill="#000000" transform="translate(0,0)"/>
<path d="" fill="#000000" transform="translate(0,0)"/>
<path d="" fill="#000000" transform="translate(0,0)"/>
<path d="" fill="#000000" transform="translate(0,0)"/>
<path d="" fill="#000000" transform="translate(0,0)"/>
<path d="" fill="#000000" transform="translate(0,0)"/>
<path d="" fill="#020202" transform="translate(0,0)"/>
<path d="" fill="#000000" transform="translate(0,0)"/>
<path d="" fill="#000000" transform="translate(0,0)"/>
<path d="" fill="#000000" transform="translate(0,0)"/>
<path d="" fill="#000000" transform="translate(0,0)"/>
<path d="" fill="#000000" transform="translate(0,0)"/>
<path d="" fill="#000000" transform="translate(0,0)"/>
<path d="" fill="#000000" transform="translate(0,0)"/>
<path d="" fill="#020202" transform="translate(0,0)"/>
<path d="" fill="#000000" transform="translate(0,0)"/>
<path d="" fill="#000000" transform="translate(0,0)"/>
<path d="" fill="#000000" transform="translate(0,0)"/>
<path d="" fill="#000000" transform="translate(0,0)"/>
<path d="" fill="#010101" transform="translate(0,0)"/>
<path d="" fill="#020202" transform="translate(0,0)"/>
<path d="" fill="#000000" transform="translate(0,0)"/>
<path d="" fill="#000000" transform="translate(0,0)"/>
<path d="" fill="#030303" transform="translate(0,0)"/>
<path d="" fill="#000000" transform="translate(0,0)"/>
<path d="" fill="#000000" transform="translate(0,0)"/>
<path d="" fill="#000000" transform="translate(0,0)"/>
<path d="" fill="#000000" transform="translate(0,0)"/>
<path d="" fill="#020202" transform="translate(0,0)"/>
<path d="" fill="#000000" transform="translate(0,0)"/>
<path d="" fill="#000000" transform="translate(0,0)"/>
<path d="" fill="#020202" transform="translate(0,0)"/>
<path d="" fill="#000000" transform="translate(0,0)"/>
<path d="" fill="#000000" transform="translate(0,0)"/>
<path d="" fill="#000000" transform="translate(0,0)"/>
<path d="" fill="#000000" transform="translate(0,0)"/>
<path d="" fill="#000000" transform="translate(0,0)"/>
<path d="" fill="#000000" transform="translate(0,0)"/>
<path d="" fill="#000000" transform="translate(0,0)"/>
<path d="" fill="#010101" transform="translate(0,0)"/>
<path d="" fill="#000000" transform="translate(0,0)"/>
<path d="" fill="#000000" transform="translate(0,0)"/>
<path d="" fill="#000000" transform="translate(0,0)"/>
<path d="" fill="#010101" transform="translate(0,0)"/>
<path d="" fill="#000000" transform="translate(0,0)"/>
<path d="" fill="#000000" transform="translate(0,0)"/>
<path d="" fill="#000000" transform="translate(0,0)"/>
<path d="" fill="#000000" transform="translate(0,0)"/>
<path d="" fill="#020202" transform="translate(0,0)"/>
<path d="" fill="#000000" transform="translate(0,0)"/>
<path d="" fill="#000000" transform="translate(0,0)"/>
<path d="" fill="#000000" transform="translate(0,0)"/>
<path d="" fill="#000000" transform="translate(0,0)"/>
<path d="" fill="#000000" transform="translate(0,0)"/>
<path d="" fill="#000000" transform="translate(0,0)"/>
<path d="" fill="#000000" transform="translate(0,0)"/>
<path d="" fill="#000000" transform="translate(0,0)"/>
<path d="" fill="#030303" transform="translate(0,0)"/>
<path d="" fill="#000000" transform="translate(0,0)"/>
<path d="" fill="#000000" transform="translate(0,0)"/>
<path d="" fill="#000000" transform="translate(0,0)"/>
<path d="" fill="#000000" transform="translate(0,0)"/>
<path d="" fill="#000000" transform="translate(0,0)"/>
<path d="" fill="#000000" transform="translate(0,0)"/>
<path d="" fill="#020202" transform="translate(0,0)"/>
<path d="" fill="#000000" transform="translate(0,0)"/>
<path d="" fill="#000000" transform="translate(0,0)"/>
<path d="" fill="#030303" transform="translate(0,0)"/>
<path d="" fill="#000000" transform="translate(0,0)"/>
<path d="" fill="#000000" transform="translate(0,0)"/>
<path d="" fill="#020202" transform="translate(0,0)"/>
<path d="" fill="#020202" transform="translate(0,0)"/>
<path d="" fill="#000000" transform="translate(0,0)"/>
<path d="" fill="#000000" transform="translate(0,0)"/>
<path d="" fill="#030303" transform="translate(0,0)"/>
<path d="" fill="#000000" transform="translate(0,0)"/>
<path d="" fill="#000000" transform="translate(0,0)"/>
<path d="" fill="#000000" transform="translate(0,0)"/>
<path d="" fill="#000000" transform="translate(0,0)"/>
<path d="" fill="#020202" transform="translate(0,0)"/>
<path d="" fill="#000000" transform="translate(0,0)"/>
<path d="" fill="#000000" transform="translate(0,0)"/>
<path d="" fill="#020202" transform="translate(0,0)"/>
<path d="" fill="#000000" transform="translate(0,0)"/>
<path d="" fill="#000000" transform="translate(0,0)"/>
<path d="" fill="#000000" transform="translate(0,0)"/>
<path d="" fill="#000000" transform="translate(0,0)"/>
<path d="" fill="#000000" transform="translate(0,0)"/>
<path d="" fill="#000000" transform="translate(0,0)"/>
<path d="" fill="#020202" transform="translate(0,0)"/>
<path d="" fill="#000000" transform="translate(0,0)"/>
<path d="" fill="#000000" transform="translate(0,0)"/>
<path d="" fill="#000000" transform="translate(0,0)"/>
<path d="" fill="#000000" transform="translate(0,0)"/>
<path d="" fill="#030303" transform="translate(0,0)"/>
<path d="" fill="#020202" transform="translate(0,0)"/>
<path d="" fill="#000000" transform="translate(0,0)"/>
<path d="" fill="#000000" transform="translate(0,0)"/>
<path d="" fill="#000000" transform="translate(0,0)"/>
<path d="" fill="#000000" transform="translate(0,0)"/>
<path d="" fill="#000000" transform="translate(0,0)"/>
<path d="" fill="#000000" transform="translate(0,0)"/>
<path d="" fill="#000000" transform="translate(0,0)"/>
<path d="" fill="#000000" transform="translate(0,0)"/>
<path d="" fill="#000000" transform="translate(0,0)"/>
<path d="" fill="#000000" transform="translate(0,0)"/>
<path d="" fill="#000000" transform="translate(0,0)"/>
<path d="" fill="#000000" transform="translate(0,0)"/>
<path d="" fill="#020202" transform="translate(0,0)"/>
<path d="" fill="#000000" transform="translate(0,0)"/>
<path d="" fill="#000000" transform="translate(0,0)"/>
<path d="" fill="#000000" transform="translate(0,0)"/>
<path d="" fill="#020202" transform="translate(0,0)"/>
<path d="" fill="#000000" transform="translate(0,0)"/>
<path d="" fill="#020202" transform="translate(0,0)"/>
<path d="" fill="#000000" transform="translate(0,0)"/>
<path d="" fill="#000000" transform="translate(0,0)"/>
<path d="" fill="#020202" transform="translate(0,0)"/>
<path d="" fill="#000000" transform="translate(0,0)"/>
<path d="" fill="#020202" transform="translate(0,0)"/>
<path d="" fill="#020202" transform="translate(0,0)"/>
<path d="" fill="#000000" transform="translate(0,0)"/>
<path d="" fill="#000000" transform="translate(0,0)"/>
<path d="" fill="#020202" transform="translate(0,0)"/>
<path d="" fill="#000000" transform="translate(0,0)"/>
<path d="" fill="#000000" transform="translate(0,0)"/>
<path d="" fill="#000000" transform="translate(0,0)"/>
<path d="" fill="#000000" transform="translate(0,0)"/>
<path d="" fill="#000000" transform="translate(0,0)"/>
<path d="" fill="#000000" transform="translate(0,0)"/>
<path d="" fill="#000000" transform="translate(0,0)"/>
<path d="" fill="#000000" transform="translate(0,0)"/>
<path d="" fill="#000000" transform="translate(0,0)"/>
<path d="" fill="#000000" transform="translate(0,0)"/>
<path d="" fill="#000000" transform="translate(0,0)"/>
<path d="" fill="#000000" transform="translate(0,0)"/>
<path d="" fill="#000000" transform="translate(0,0)"/>
<path d="" fill="#000000" transform="translate(0,0)"/>
<path d="" fill="#020202" transform="translate(0,0)"/>
<path d="" fill="#000000" transform="translate(0,0)"/>
<path d="" fill="#000000" transform="translate(0,0)"/>
<path d="" fill="#000000" transform="translate(0,0)"/>
<path d="" fill="#000000" transform="translate(0,0)"/>
<path d="" fill="#000000" transform="translate(0,0)"/>
<path d="" fill="#000000" transform="translate(0,0)"/>
<path d="" fill="#030303" transform="translate(0,0)"/>
<path d="" fill="#000000" transform="translate(0,0)"/>
<path d="" fill="#000000" transform="translate(0,0)"/>
<path d="" fill="#000000" transform="translate(0,0)"/>
<path d="" fill="#020202" transform="translate(0,0)"/>
<path d="" fill="#020202" transform="translate(0,0)"/>
<path d="" fill="#000000" transform="translate(0,0)"/>
<path d="" fill="#000000" transform="translate(0,0)"/>
<path d="" fill="#000000" transform="translate(0,0)"/>
<path d="" fill="#000000" transform="translate(0,0)"/>
<path d="" fill="#000000" transform="translate(0,0)"/>
<path d="" fill="#000000" transform="translate(0,0)"/>
<path d="" fill="#000000" transform="translate(0,0)"/>
<path d="" fill="#020202" transform="translate(0,0)"/>
<path d="" fill="#000000" transform="translate(0,0)"/>
<path d="" fill="#000000" transform="translate(0,0)"/>
<path d="" fill="#000000" transform="translate(0,0)"/>
<path d="" fill="#000000" transform="translate(0,0)"/>
<path d="" fill="#000000" transform="translate(0,0)"/>
<path d="" fill="#020202" transform="translate(0,0)"/>
<path d="" fill="#000000" transform="translate(0,0)"/>
<path d="" fill="#000000" transform="translate(0,0)"/>
<path d="" fill="#040404" transform="translate(0,0)"/>
<path d="" fill="#020202" transform="translate(0,0)"/>
<path d="" fill="#000000" transform="translate(0,0)"/>
<path d="" fill="#000000" transform="translate(0,0)"/>
<path d="" fill="#000000" transform="translate(0,0)"/>
<path d="" fill="#000000" transform="translate(0,0)"/>
<path d="" fill="#000000" transform="translate(0,0)"/>
<path d="" fill="#020202" transform="translate(0,0)"/>
<path d="" fill="#000000" transform="translate(0,0)"/>
<path d="" fill="#000000" transform="translate(0,0)"/>
<path d="" fill="#000000" transform="translate(0,0)"/>
<path d="" fill="#000000" transform="translate(0,0)"/>
<path d="" fill="#000000" transform="translate(0,0)"/>
<path d="" fill="#000000" transform="translate(0,0)"/>
<path d="" fill="#000000" transform="translate(0,0)"/>
<path d="" fill="#000000" transform="translate(0,0)"/>
<path d="" fill="#000000" transform="translate(0,0)"/>
<path d="" fill="#000000" transform="translate(0,0)"/>
<path d="" fill="#000000" transform="translate(0,0)"/>
<path d="" fill="#000000" transform="translate(0,0)"/>
<path d="" fill="#000000" transform="translate(0,0)"/>
<path d="" fill="#000000" transform="translate(0,0)"/>
<path d="" fill="#000000" transform="translate(0,0)"/>
<path d="" fill="#000000" transform="translate(0,0)"/>
<path d="" fill="#000000" transform="translate(0,0)"/>
<path d="" fill="#020202" transform="translate(0,0)"/>
<path d="" fill="#010101" transform="translate(0,0)"/>
<path d="" fill="#000000" transform="translate(0,0)"/>
<path d="" fill="#000000" transform="translate(0,0)"/>
<path d="" fill="#000000" transform="translate(0,0)"/>
<path d="" fill="#010101" transform="translate(0,0)"/>
<path d="" fill="#000000" transform="translate(0,0)"/>
<path d="" fill="#000000" transform="translate(0,0)"/>
<path d="" fill="#010101" transform="translate(0,0)"/>
<path d="" fill="#000000" transform="translate(0,0)"/>
<path d="" fill="#000000" transform="translate(0,0)"/>
<path d="" fill="#020202" transform="translate(0,0)"/>
<path d="" fill="#010101" transform="translate(0,0)"/>
<path d="" fill="#000000" transform="translate(0,0)"/>
<path d="" fill="#000000" transform="translate(0,0)"/>
<path d="" fill="#010101" transform="translate(0,0)"/>
<path d="" fill="#000000" transform="translate(0,0)"/>
<path d="" fill="#000000" transform="translate(0,0)"/>
<path d="" fill="#010101" transform="translate(0,0)"/>
<path d="" fill="#000000" transform="translate(0,0)"/>
<path d="" fill="#000000" transform="translate(0,0)"/>
<path d="" fill="#020202" transform="translate(0,0)"/>
<path d="" fill="#010101" transform="translate(0,0)"/>
<path d="" fill="#000000" transform="translate(0,0)"/>
<path d="" fill="#030303" transform="translate(0,0)"/>
<path d="" fill="#000000" transform="translate(0,0)"/>
<path d="" fill="#000000" transform="translate(0,0)"/>
<path d="" fill="#020202" transform="translate(0,0)"/>
<path d="" fill="#010101" transform="translate(0,0)"/>
<path d="" fill="#000000" transform="translate(0,0)"/>
<path d="" fill="#000000" transform="translate(0,0)"/>
<path d="" fill="#030303" transform="translate(0,0)"/>
<path d="" fill="#010101" transform="translate(0,0)"/>
<path d="" fill="#000000" transform="translate(0,0)"/>
<path d="" fill="#000000" transform="translate(0,0)"/>
<path d="" fill="#010101" transform="translate(0,0)"/>
<path d="" fill="#000000" transform="translate(0,0)"/>
<path d="" fill="#030303" transform="translate(0,0)"/>
<path d="" fill="#010101" transform="translate(0,0)"/>
<path d="" fill="#000000" transform="translate(0,0)"/>
<path d="" fill="#010101" transform="translate(0,0)"/>
<path d="" fill="#020202" transform="translate(0,0)"/>
<path d="" fill="#020202" transform="translate(0,0)"/>
<path d="" fill="#010101" transform="translate(0,0)"/>
<path d="" fill="#000000" transform="translate(0,0)"/>
<path d="" fill="#010101" transform="translate(0,0)"/>
<path d="" fill="#000000" transform="translate(0,0)"/>
<path d="" fill="#000000" transform="translate(0,0)"/>
<path d="" fill="#000000" transform="translate(0,0)"/>
<path d="" fill="#000000" transform="translate(0,0)"/>
<path d="" fill="#020202" transform="translate(0,0)"/>
<path d="" fill="#020202" transform="translate(0,0)"/>
<path d="" fill="#000000" transform="translate(0,0)"/>
<path d="" fill="#010101" transform="translate(0,0)"/>
<path d="" fill="#000000" transform="translate(0,0)"/>
<path d="" fill="#020202" transform="translate(0,0)"/>
<path d="" fill="#000000" transform="translate(0,0)"/>
<path d="" fill="#010101" transform="translate(0,0)"/>
<path d="" fill="#000000" transform="translate(0,0)"/>
<path d="" fill="#010101" transform="translate(0,0)"/>
<path d="" fill="#000000" transform="translate(0,0)"/>
<path d="" fill="#010101" transform="translate(0,0)"/>
<path d="" fill="#000000" transform="translate(0,0)"/>
<path d="" fill="#000000" transform="translate(0,0)"/>
<path d="" fill="#000000" transform="translate(0,0)"/>
<path d="" fill="#000000" transform="translate(0,0)"/>
<path d="" fill="#000000" transform="translate(0,0)"/>
<path d="" fill="#000000" transform="translate(0,0)"/>
<path d="" fill="#000000" transform="translate(0,0)"/>
<path d="" fill="#000000" transform="translate(0,0)"/>
<path d="" fill="#020202" transform="translate(0,0)"/>
<path d="" fill="#000000" transform="translate(0,0)"/>
<path d="" fill="#000000" transform="translate(0,0)"/>
<path d="" fill="#000000" transform="translate(0,0)"/>
<path d="" fill="#000000" transform="translate(0,0)"/>
<path d="" fill="#030303" transform="translate(0,0)"/>
<path d="" fill="#000000" transform="translate(0,0)"/>
<path d="" fill="#000000" transform="translate(0,0)"/>
<path d="" fill="#000000" transform="translate(0,0)"/>
<path d="" fill="#000000" transform="translate(0,0)"/>
<path d="" fill="#000000" transform="translate(0,0)"/>
<path d="" fill="#030303" transform="translate(0,0)"/>
<path d="" fill="#020202" transform="translate(0,0)"/>
<path d="" fill="#000000" transform="translate(0,0)"/>
<path d="" fill="#000000" transform="translate(0,0)"/>
<path d="" fill="#000000" transform="translate(0,0)"/>
<path d="" fill="#000000" transform="translate(0,0)"/>
<path d="" fill="#020202" transform="translate(0,0)"/>
<path d="" fill="#000000" transform="translate(0,0)"/>
<path d="" fill="#000000" transform="translate(0,0)"/>
<path d="" fill="#000000" transform="translate(0,0)"/>
<path d="" fill="#000000" transform="translate(0,0)"/>
<path d="" fill="#020202" transform="translate(0,0)"/>
<path d="" fill="#000000" transform="translate(0,0)"/>
<path d="" fill="#000000" transform="translate(0,0)"/>
<path d="" fill="#000000" transform="translate(0,0)"/>
<path d="" fill="#000000" transform="translate(0,0)"/>
<path d="" fill="#020202" transform="translate(0,0)"/>
<path d="" fill="#000000" transform="translate(0,0)"/>
<path d="" fill="#000000" transform="translate(0,0)"/>
<path d="" fill="#020202" transform="translate(0,0)"/>
<path d="" fill="#000000" transform="translate(0,0)"/>
<path d="" fill="#000000" transform="translate(0,0)"/>
<path d="" fill="#000000" transform="translate(0,0)"/>
<path d="" fill="#000000" transform="translate(0,0)"/>
<path d="" fill="#020202" transform="translate(0,0)"/>
<path d="" fill="#020202" transform="translate(0,0)"/>
<path d="" fill="#000000" transform="translate(0,0)"/>
<path d="" fill="#000000" transform="translate(0,0)"/>
<path d="" fill="#000000" transform="translate(0,0)"/>
<path d="" fill="#000000" transform="translate(0,0)"/>
<path d="" fill="#020202" transform="translate(0,0)"/>
<path d="" fill="#000000" transform="translate(0,0)"/>
<path d="" fill="#000000" transform="translate(0,0)"/>
<path d="" fill="#000000" transform="translate(0,0)"/>
<path d="" fill="#000000" transform="translate(0,0)"/>
<path d="" fill="#020202" transform="translate(0,0)"/>
<path d="" fill="#000000" transform="translate(0,0)"/>
<path d="" fill="#000000" transform="translate(0,0)"/>
<path d="" fill="#000000" transform="translate(0,0)"/>
<path d="" fill="#000000" transform="translate(0,0)"/>
<path d="" fill="#020202" transform="translate(0,0)"/>
<path d="" fill="#000000" transform="translate(0,0)"/>
<path d="" fill="#000000" transform="translate(0,0)"/>
<path d="" fill="#020202" transform="translate(0,0)"/>
<path d="" fill="#000000" transform="translate(0,0)"/>
<path d="" fill="#000000" transform="translate(0,0)"/>
<path d="" fill="#000000" transform="translate(0,0)"/>
<path d="" fill="#000000" transform="translate(0,0)"/>
<path d="" fill="#000000" transform="translate(0,0)"/>
<path d="" fill="#000000" transform="translate(0,0)"/>
<path d="" fill="#020202" transform="translate(0,0)"/>
<path d="" fill="#000000" transform="translate(0,0)"/>
<path d="" fill="#000000" transform="translate(0,0)"/>
<path d="" fill="#020202" transform="translate(0,0)"/>
<path d="" fill="#000000" transform="translate(0,0)"/>
<path d="" fill="#000000" transform="translate(0,0)"/>
<path d="" fill="#000000" transform="translate(0,0)"/>
<path d="" fill="#000000" transform="translate(0,0)"/>
<path d="" fill="#000000" transform="translate(0,0)"/>
<path d="" fill="#000000" transform="translate(0,0)"/>
<path d="" fill="#000000" transform="translate(0,0)"/>
<path d="" fill="#020202" transform="translate(0,0)"/>
<path d="" fill="#000000" transform="translate(0,0)"/>
<path d="" fill="#000000" transform="translate(0,0)"/>
<path d="" fill="#000000" transform="translate(0,0)"/>
<path d="" fill="#000000" transform="translate(0,0)"/>
<path d="" fill="#000000" transform="translate(0,0)"/>
<path d="" fill="#000000" transform="translate(0,0)"/>
<path d="" fill="#020202" transform="translate(0,0)"/>
<path d="" fill="#000000" transform="translate(0,0)"/>
<path d="" fill="#000000" transform="translate(0,0)"/>
<path d="" fill="#000000" transform="translate(0,0)"/>
<path d="" fill="#000000" transform="translate(0,0)"/>
<path d="" fill="#000000" transform="translate(0,0)"/>
<path d="" fill="#000000" transform="translate(0,0)"/>
<path d="" fill="#000000" transform="translate(0,0)"/>
<path d="" fill="#000000" transform="translate(0,0)"/>
<path d="" fill="#000000" transform="translate(0,0)"/>
<path d="" fill="#000000" transform="translate(0,0)"/>
<path d="" fill="#000000" transform="translate(0,0)"/>
<path d="" fill="#000000" transform="translate(0,0)"/>
<path d="" fill="#000000" transform="translate(0,0)"/>
<path d="" fill="#020202" transform="translate(0,0)"/>
<path d="" fill="#000000" transform="translate(0,0)"/>
<path d="" fill="#000000" transform="translate(0,0)"/>
<path d="" fill="#000000" transform="translate(0,0)"/>
<path d="" fill="#000000" transform="translate(0,0)"/>
<path d="" fill="#000000" transform="translate(0,0)"/>
<path d="" fill="#000000" transform="translate(0,0)"/>
<path d="" fill="#000000" transform="translate(0,0)"/>
<path d="" fill="#000000" transform="translate(0,0)"/>
<path d="" fill="#000000" transform="translate(0,0)"/>
<path d="" fill="#000000" transform="translate(0,0)"/>
<path d="" fill="#020202" transform="translate(0,0)"/>
<path d="" fill="#000000" transform="translate(0,0)"/>
<path d="" fill="#000000" transform="translate(0,0)"/>
<path d="" fill="#000000" transform="translate(0,0)"/>
<path d="" fill="#000000" transform="translate(0,0)"/>
<path d="" fill="#000000" transform="translate(0,0)"/>
<path d="" fill="#000000" transform="translate(0,0)"/>
<path d="" fill="#020202" transform="translate(0,0)"/>
<path d="" fill="#020202" transform="translate(0,0)"/>
<path d="" fill="#020202" transform="translate(0,0)"/>
<path d="" fill="#020202" transform="translate(0,0)"/>
</svg>
