<?xml version="1.0" encoding="UTF-8"?>
<svg version="1.1" xmlns="http://www.w3.org/2000/svg" width="1050" height="600">
<path d="M0 0 C21.44780862 0.30552434 40.22450251 9.90013755 57.0625 22.3125 C58.0525 22.9725 59.0425 23.6325 60.0625 24.3125 C60.47757813 23.9 60.89265625 23.4875 61.3203125 23.0625 C75.09953903 10.14807848 94.44746418 2.55574956 113.0625 0.3125 C114.27486328 0.1410144 114.27486328 0.1410144 115.51171875 -0.03393555 C121.90006437 -0.57328144 121.90006437 -0.57328144 124.92333984 1.73046875 C126.64202596 3.80490866 127.96939182 5.91591658 129.3125 8.25 C129.80878906 8.96607422 130.30507813 9.68214844 130.81640625 10.41992188 C135.28827283 17.82054614 133.84200155 24.89862735 132.45452881 32.97891235 C132.06027735 35.32573051 131.72058103 37.67445078 131.39697266 40.03198242 C130.84575691 44.03426475 130.24653843 48.02697092 129.62280273 52.01855469 C129.37169396 53.64788393 129.12868567 55.27847982 128.89331055 56.91015625 C128.54492673 59.32090543 128.17168995 61.72666557 127.79296875 64.1328125 C127.69380661 64.85268341 127.59464447 65.57255432 127.49247742 66.3142395 C126.71456314 71.02031141 125.19009714 74.06333901 122.1900177 77.77737427 C120.5273565 80.04110281 120.08657985 82.33420193 119.5625 85.0625 C118.33650102 90.08293158 118.33650102 90.08293158 115.75 92.25 C114.863125 92.600625 113.97625 92.95125 113.0625 93.3125 C112.093125 94.075625 111.12375 94.83875 110.125 95.625 C107.0625 97.3125 107.0625 97.3125 104.375 96.5625 C103.281875 96.15 102.18875 95.7375 101.0625 95.3125 C94.88296697 94.71209694 89.24805597 94.51819075 84.0625 98.3125 C83.505625 99.364375 82.94875 100.41625 82.375 101.5 C80.0625 104.3125 80.0625 104.3125 77.6171875 104.59375 C75.68786082 104.53066575 73.75919875 104.44296593 71.83203125 104.33203125 C67.84440481 104.30390977 65.50760376 105.36526744 62.0625 107.3125 C61.7325 107.9725 61.4025 108.6325 61.0625 109.3125 C60.546875 109.044375 60.03125 108.77625 59.5 108.5 C58.695625 108.108125 57.89125 107.71625 57.0625 107.3125 C56.03125 106.77625 55 106.24 53.9375 105.6875 C50.77032128 104.28062018 48.49108017 104.32799534 45.0625 104.625 C41.76842978 104.76538655 40.54440728 104.712438 37.97265625 102.578125 C36.125 100.375 36.125 100.375 34.53515625 98.16015625 C33.1075835 96.02487905 33.1075835 96.02487905 30.0625 95.3125 C28.06508264 95.1932098 26.06343876 95.13726065 24.0625 95.125 C22.4846875 95.10373047 22.4846875 95.10373047 20.875 95.08203125 C17.85491312 95.10069074 17.85491312 95.10069074 15.0625 97.3125 C11.63605568 96.98090861 9.74354894 95.34359768 7.0625 93.3125 C6.23621094 93.06628906 5.40992188 92.82007813 4.55859375 92.56640625 C2.0625 91.3125 2.0625 91.3125 0.875 88.7734375 C0.606875 87.75507813 0.33875 86.73671875 0.0625 85.6875 C-0.95787185 81.87091682 -2.05411791 79.09453202 -4.39453125 75.96484375 C-8.49389755 69.66159796 -8.71874652 61.79911981 -9.625 54.5 C-9.92261041 52.24770188 -10.225609 49.996174 -10.52908325 47.74465942 C-10.72485655 46.28420396 -10.91749605 44.82332477 -11.10690308 43.36203003 C-11.63753276 39.30947643 -12.28676296 35.30924063 -13.08203125 31.30078125 C-14.74040407 22.28049695 -14.39529758 16.68657502 -9.5 8.8125 C-9.07912109 8.09835938 -8.65824219 7.38421875 -8.22460938 6.6484375 C-4.48626284 0.35605261 -4.48626284 0.35605261 0 0 Z " fill="#1E2122" transform="translate(465.9375,174.6875)"/>
<path d="M0 0 C11.74358587 -0.36890846 21.16301869 0.95433322 31.9375 5.625 C32.65244629 5.93115234 33.36739258 6.23730469 34.10400391 6.55273438 C35.591338 7.2277321 37.05887678 7.94763393 38.50634766 8.7043457 C41.07601855 10.08493862 41.07601855 10.08493862 44.17724609 11.31713867 C48.40767663 13.43235394 52.11062529 15.3515618 53.69625854 20.07336426 C54.88264255 26.34804269 54.77134045 32.70037851 54.75 39.0625 C54.78631484 40.97081248 54.82793942 42.87903166 54.875 44.78710938 C54.99185842 50.19216122 55.00784346 55.59389739 55 61 C55.00269662 62.57145288 55.00592192 64.14290498 55.00976562 65.71435547 C55.01610157 69.14295215 55.01200556 72.57141165 55 76 C56.65 76.33 58.3 76.66 60 77 C59.96970703 76.1970752 59.93941406 75.39415039 59.90820312 74.56689453 C59.2353555 56.36636626 58.86071186 38.21579404 59 20 C63.29 20 67.58 20 72 20 C72 39.47 72 58.94 72 79 C70.02 79.99 70.02 79.99 68 81 C67.67 81.66 67.34 82.32 67 83 C66.484375 82.731875 65.96875 82.46375 65.4375 82.1875 C64.633125 81.795625 63.82875 81.40375 63 81 C61.96875 80.46375 60.9375 79.9275 59.875 79.375 C56.70782128 77.96812018 54.42858017 78.01549534 51 78.3125 C47.70592978 78.45288655 46.48190728 78.399938 43.91015625 76.265625 C42.0625 74.0625 42.0625 74.0625 40.47265625 71.84765625 C39.0450835 69.71237905 39.0450835 69.71237905 36 69 C34.00258264 68.8807098 32.00093876 68.82476065 30 68.8125 C28.948125 68.79832031 27.89625 68.78414063 26.8125 68.76953125 C23.79241312 68.78819074 23.79241312 68.78819074 21 71 C17.57355568 70.66840861 15.68104894 69.03109768 13 67 C11.700625 66.7215625 11.700625 66.7215625 10.375 66.4375 C8 65 8 65 7.30859375 63.3203125 C5.92846039 57.03907563 5.51098693 50.56410202 4.89428711 44.1706543 C4.03046097 35.54153834 2.69714428 26.98859256 1.32080078 18.42797852 C0.34928994 12.19587896 -0.20002767 6.30753934 0 0 Z " fill="#00D5FA" transform="translate(460,201)"/>
<path d="M0 0 C0.99 0 1.98 0 3 0 C3.07476563 0.62648438 3.14953125 1.25296875 3.2265625 1.8984375 C3.62998447 4.40598191 4.06609491 6.63497183 5 9 C7.98283157 10.69165301 7.98283157 10.69165301 11 11 C13.64 8.03 16.28 5.06 19 2 C19.99 2.33 20.98 2.66 22 3 C20.35 6.63 18.7 10.26 17 14 C18.32 14.99 19.64 15.98 21 17 C21.81984375 16.48308594 22.6396875 15.96617188 23.484375 15.43359375 C24.56203125 14.77488281 25.6396875 14.11617187 26.75 13.4375 C27.81734375 12.77621094 28.8846875 12.11492187 29.984375 11.43359375 C33 10 33 10 35.390625 10.28515625 C36.18726563 10.63900391 36.18726563 10.63900391 37 11 C35.73232923 12.29477062 34.46073776 13.58570339 33.1875 14.875 C32.47980469 15.59429687 31.77210938 16.31359375 31.04296875 17.0546875 C29 19 29 19 26 21 C26.56739868 25.12973628 26.56739868 25.12973628 28 29 C34.6 29.33 41.2 29.66 48 30 C48 30.99 48 31.98 48 33 C46.79601562 33.20496094 45.59203125 33.40992188 44.3515625 33.62109375 C42.77601308 33.89306359 41.20049379 34.16520807 39.625 34.4375 C38.8309375 34.57220703 38.036875 34.70691406 37.21875 34.84570312 C32.98605017 35.51417589 32.98605017 35.51417589 29 37 C28.53476937 38.89533342 28.53476937 38.89533342 28.375 41.0625 C28.25125 42.361875 28.1275 43.66125 28 45 C28.50974365 45.28721924 29.0194873 45.57443848 29.54467773 45.87036133 C31.8477503 47.17502394 34.14259592 48.49352635 36.4375 49.8125 C37.23994141 50.26431641 38.04238281 50.71613281 38.86914062 51.18164062 C39.63291016 51.62314453 40.39667969 52.06464844 41.18359375 52.51953125 C41.89056396 52.92276611 42.59753418 53.32600098 43.32592773 53.74145508 C45 55 45 55 46 58 C44.39583333 57.5625 42.79166667 57.125 41.1875 56.6875 C40.18460938 56.42582031 39.18171875 56.16414063 38.1484375 55.89453125 C35 55 35 55 32.1015625 53.88671875 C26.88470513 51.97910555 26.88470513 51.97910555 21.56640625 52.87890625 C18.95965865 54.7329032 17.56410261 56.19569613 16 59 C15.50379328 62.61105062 15.43702315 66.10337938 15.39453125 69.74609375 C14.95315828 73.38632822 14.42125882 74.36136191 11.625 76.625 C10.42417305 77.42800698 9.21667639 78.22121625 8 79 C6.21655822 81.06954847 6.21655822 81.06954847 5 83 C4.34 83.99 3.68 84.98 3 86 C1.68 85.34 0.36 84.68 -1 84 C-1 83.34 -1 82.68 -1 82 C-3.53274102 79.90144315 -6.07449914 77.95033391 -8.8125 76.125 C-12.42990193 70.95728296 -11.37222298 65.11272848 -11 59 C-11.77730469 58.71125 -12.55460937 58.4225 -13.35546875 58.125 C-16.32728037 56.8607729 -17.92824628 55.45541182 -20 53 C-20 52.34 -20 51.68 -20 51 C-20.88522339 51.31807617 -20.88522339 51.31807617 -21.78833008 51.64257812 C-24.46133024 52.5999451 -27.13685693 53.55004585 -29.8125 54.5 C-30.74126953 54.83386719 -31.67003906 55.16773438 -32.62695312 55.51171875 C-33.51962891 55.82753906 -34.41230469 56.14335937 -35.33203125 56.46875 C-36.15421143 56.76201172 -36.9763916 57.05527344 -37.82348633 57.35742188 C-40 58 -40 58 -43 58 C-41.86351798 54.59055395 -41.46011714 54.39306229 -38.47265625 52.73828125 C-37.76302734 52.34189453 -37.05339844 51.94550781 -36.32226562 51.53710938 C-35.57654297 51.13298828 -34.83082031 50.72886719 -34.0625 50.3125 C-33.32064453 49.89677734 -32.57878906 49.48105469 -31.81445312 49.05273438 C-26.28544489 46 -26.28544489 46 -24 46 C-24.66 42.7 -25.32 39.4 -26 36 C-35.405 34.515 -35.405 34.515 -45 33 C-45 32.01 -45 31.02 -45 30 C-34.605 29.505 -34.605 29.505 -24 29 C-23.01 25.535 -23.01 25.535 -22 22 C-22.7940625 21.30132812 -23.588125 20.60265625 -24.40625 19.8828125 C-25.43775873 18.963832 -26.4689947 18.04454527 -27.5 17.125 C-28.02464844 16.66480469 -28.54929687 16.20460938 -29.08984375 15.73046875 C-30.43141755 14.52827924 -31.71999185 13.26754054 -33 12 C-33 11.34 -33 10.68 -33 10 C-28.31740846 10.70898393 -25.22348473 12.52658192 -21.28125 15.0390625 C-18.44790868 16.23255901 -16.90245998 15.84825415 -14 15 C-14.20496094 14.38511719 -14.40992188 13.77023438 -14.62109375 13.13671875 C-15.74739583 9.7578125 -16.87369792 6.37890625 -18 3 C-17.01 3 -16.02 3 -15 3 C-13.421875 4.78515625 -13.421875 4.78515625 -11.75 7.0625 C-10.00311127 9.29606728 -10.00311127 9.29606728 -8 11 C-4.14939633 11.20370117 -4.14939633 11.20370117 -1 10 C-0.67 6.7 -0.34 3.4 0 0 Z " fill="#221E18" transform="translate(523,105)"/>
<path d="M0 0 C1.59279785 0.00761353 1.59279785 0.00761353 3.21777344 0.01538086 C4.01731445 0.02190674 4.81685547 0.02843262 5.640625 0.03515625 C4.1164898 14.34762864 2.39119181 28.57738232 -0.08886719 42.75952148 C-1.03136376 48.2900289 -1.50396406 53.42761528 -1.359375 59.03515625 C-1.80876422 62.78006646 -2.59713209 64.40595938 -5.5078125 66.80859375 C-8.07605336 68.51304189 -10.49217343 69.90254474 -13.359375 71.03515625 C-16.296875 70.41015625 -16.296875 70.41015625 -19.359375 69.03515625 C-25.52844232 68.41361112 -31.18636 68.25002332 -36.359375 72.03515625 C-38.72639559 75.08312998 -38.72639559 75.08312998 -40.359375 78.03515625 C-43.329375 77.70515625 -46.299375 77.37515625 -49.359375 77.03515625 C-49.39874997 70.80967087 -49.43795734 64.58466403 -49.39892578 58.35913086 C-49.39439392 57.62921432 -49.38986206 56.89929779 -49.38519287 56.14726257 C-49.37573863 54.65239689 -49.36584593 53.15753393 -49.35552979 51.66267395 C-49.33338642 46.83761408 -49.44860487 42.03651167 -49.62890625 37.21484375 C-50.02445319 20.76649937 -50.02445319 20.76649937 -47.19580078 16.12646484 C-44.13104089 12.93644509 -40.53182133 11.30220415 -36.42236328 9.80615234 C-34.29855918 9.01242769 -32.31910172 8.07043341 -30.29296875 7.0546875 C-20.38071314 2.18737064 -11.10479296 -0.0692127 0 0 Z " fill="#01D6FB" transform="translate(586.359375,200.96484375)"/>
<path d="M0 0 C6.06876208 3.36523256 9.59911451 7.88451861 11.53515625 14.55078125 C12.53837977 20.81362322 11.36104922 25.80984522 7.8125 31.0625 C5.12280724 33.90759723 2.32243081 36.30753459 -1.1875 38.0625 C-1.5175 40.0425 -1.8475 42.0225 -2.1875 44.0625 C-6.8075 44.0625 -11.4275 44.0625 -16.1875 44.0625 C-16.1875 42.0825 -16.1875 40.1025 -16.1875 38.0625 C-16.909375 37.815 -17.63125 37.5675 -18.375 37.3125 C-23.81003206 34.8969302 -27.01315236 31.77228354 -29.453125 26.40234375 C-31.08327693 21.20840224 -31.25719818 15.92653061 -29.33984375 10.79296875 C-23.11349221 -0.24561381 -11.79051312 -5.18283885 0 0 Z " fill="#F6A624" transform="translate(534.1875,122.9375)"/>
<path d="M0 0 C12 0 12 0 15.9453125 3.2109375 C17.04204183 4.57004227 18.10211068 5.9594865 19.125 7.375 C19.94871094 8.42300781 19.94871094 8.42300781 20.7890625 9.4921875 C21.79972669 10.78028892 22.79541492 12.08039994 23.77001953 13.39599609 C25.04863997 15.13586886 25.04863997 15.13586886 27 17 C26.98839844 15.94039063 26.97679687 14.88078125 26.96484375 13.7890625 C26.95546524 12.40104342 26.94636511 11.01302245 26.9375 9.625 C26.92912109 8.92632812 26.92074219 8.22765625 26.91210938 7.5078125 C26.88671875 2.2265625 26.88671875 2.2265625 28 0 C29.97909398 -0.02686553 31.95828971 -0.04633375 33.9375 -0.0625 C35.03964844 -0.07410156 36.14179687 -0.08570313 37.27734375 -0.09765625 C40 0 40 0 41 1 C41.08868299 3.95705321 41.11520296 6.89065056 41.09765625 9.84765625 C41.0962413 10.7340831 41.09482635 11.62050995 41.09336853 12.53379822 C41.08775215 15.37673254 41.07519691 18.21958931 41.0625 21.0625 C41.05748711 22.98502491 41.05292384 24.90755104 41.04882812 26.83007812 C41.03777741 31.55341549 41.02050183 36.27669458 41 41 C28.16353748 41.81220036 28.16353748 41.81220036 23.8046875 38.76953125 C23.16789063 37.79371094 22.53109375 36.81789063 21.875 35.8125 C20.88113281 34.36810547 20.88113281 34.36810547 19.8671875 32.89453125 C19.25101563 31.93933594 18.63484375 30.98414063 18 30 C16.68 28.35 15.36 26.7 14 25 C13.67 30.28 13.34 35.56 13 41 C8.71 41 4.42 41 0 41 C0 27.47 0 13.94 0 0 Z " fill="#000000" transform="translate(537,312)"/>
<path d="M0 0 C1.21623047 -0.020625 2.43246094 -0.04125 3.68554688 -0.0625 C11.09219317 -0.09465039 17.92618546 -0.11432833 23.875 4.875 C26.11275876 9.877049 26.53996919 14.50601024 24.75 19.6875 C22.9375 22.25 22.9375 22.25 18.9375 24.25 C21.5775 29.86 24.2175 35.47 26.9375 41.25 C21.6575 41.25 16.3775 41.25 10.9375 41.25 C7.625 34.8125 7.625 34.8125 6.6003418 32.78344727 C4.69167115 29.01262139 4.69167115 29.01262139 0.9375 27.25 C0.9375 31.87 0.9375 36.49 0.9375 41.25 C-4.0125 41.25 -8.9625 41.25 -14.0625 41.25 C-14.08714705 35.57169922 -14.10533462 29.89342931 -14.11743164 24.21508789 C-14.12247256 22.28181415 -14.12930519 20.34854424 -14.13793945 18.4152832 C-14.15001565 15.64273128 -14.15573057 12.87022959 -14.16015625 10.09765625 C-14.16531754 9.22786636 -14.17047882 8.35807648 -14.17579651 7.46192932 C-14.17599185 5.39094186 -14.12458168 3.32005676 -14.0625 1.25 C-11.38966669 -1.42283331 -3.59301011 0.01490103 0 0 Z M0.9375 11.25 C0.9375 13.23 0.9375 15.21 0.9375 17.25 C3.9075 17.25 6.8775 17.25 9.9375 17.25 C10.5975 15.93 11.2575 14.61 11.9375 13.25 C10.15092243 11.03629949 10.15092243 11.03629949 7.7734375 11.0546875 C6.96132813 11.07789063 6.14921875 11.10109375 5.3125 11.125 C4.08660156 11.15207031 4.08660156 11.15207031 2.8359375 11.1796875 C1.89621094 11.21449219 1.89621094 11.21449219 0.9375 11.25 Z " fill="#000000" transform="translate(505.0625,311.75)"/>
<path d="M0 0 C0.73541016 0.00202423 1.47082031 0.00404846 2.22851562 0.00613403 C2.97939453 0.00517731 3.73027344 0.00422058 4.50390625 0.00323486 C6.09440189 0.00255315 7.6849003 0.00440682 9.27539062 0.00857544 C11.71816217 0.01392386 14.16074984 0.00863019 16.60351562 0.00222778 C18.1451827 0.00288857 19.68684966 0.00416973 21.22851562 0.00613403 C21.96392578 0.0041098 22.69933594 0.00208557 23.45703125 0 C28.61356402 0.02399493 28.61356402 0.02399493 29.72851562 1.13894653 C29.80057074 2.82503619 29.8123763 4.51395313 29.79101562 6.20144653 C29.78199219 7.1205481 29.77296875 8.03964966 29.76367188 8.98660278 C29.75207031 9.69687622 29.74046875 10.40714966 29.72851562 11.13894653 C26.44707044 12.77966913 22.83061566 12.28169087 19.22851562 12.26394653 C18.44347656 12.26781372 17.6584375 12.27168091 16.84960938 12.27566528 C10.9818235 12.26560047 10.9818235 12.26560047 8.72851562 11.13894653 C8.72851562 12.45894653 8.72851562 13.77894653 8.72851562 15.13894653 C10.42621094 15.12154419 10.42621094 15.12154419 12.15820312 15.10379028 C13.63997231 15.094412 15.12174328 15.08531184 16.60351562 15.07644653 C17.34988281 15.06806763 18.09625 15.05968872 18.86523438 15.05105591 C24.50195312 15.02566528 24.50195312 15.02566528 26.72851562 16.13894653 C26.72851562 19.43894653 26.72851562 22.73894653 26.72851562 26.13894653 C20.78851563 26.13894653 14.84851563 26.13894653 8.72851562 26.13894653 C8.72851562 27.78894653 8.72851562 29.43894653 8.72851562 31.13894653 C15.98851562 31.13894653 23.24851562 31.13894653 30.72851562 31.13894653 C30.72851562 34.43894653 30.72851562 37.73894653 30.72851562 41.13894653 C27.43712112 42.23607803 24.98568835 42.26826765 21.52148438 42.27175903 C19.68166992 42.27369263 19.68166992 42.27369263 17.8046875 42.27566528 C16.52142578 42.2717981 15.23816406 42.26793091 13.91601562 42.26394653 C12.00852539 42.26974731 12.00852539 42.26974731 10.0625 42.27566528 C8.83208984 42.27437622 7.60167969 42.27308716 6.33398438 42.27175903 C5.21145264 42.2706311 4.0889209 42.26950317 2.93237305 42.26834106 C-0.21547305 42.14120867 -3.17944391 41.72660054 -6.27148438 41.13894653 C-6.29613142 35.46064575 -6.314319 29.78237584 -6.32641602 24.10403442 C-6.33145693 22.17076068 -6.33828956 20.23749077 -6.34692383 18.30422974 C-6.35900002 15.53167782 -6.36471494 12.75917612 -6.36914062 9.98660278 C-6.37430191 9.1168129 -6.3794632 8.24702301 -6.38478088 7.35087585 C-6.38497623 5.27988839 -6.33356605 3.20900329 -6.27148438 1.13894653 C-4.53855458 -0.59398326 -2.30934102 0.01074607 0 0 Z " fill="#000000" transform="translate(410.271484375,311.8610534667969)"/>
<path d="M0 0 C1.39456452 0.00667256 2.78911118 0.01863093 4.18359375 0.03515625 C4.89451172 0.03966797 5.60542969 0.04417969 6.33789062 0.04882812 C8.09899388 0.06064761 9.86005411 0.07858362 11.62109375 0.09765625 C15.74834542 10.25816418 19.81114771 20.43829209 23.62109375 30.72265625 C23.92345947 31.53323486 24.2258252 32.34381348 24.53735352 33.17895508 C26.62109375 38.85295228 26.62109375 38.85295228 26.62109375 41.09765625 C21.67109375 41.09765625 16.72109375 41.09765625 11.62109375 41.09765625 C11.12609375 38.62265625 11.12609375 38.62265625 10.62109375 36.09765625 C8.49530362 36.15753766 6.37030962 36.24628369 4.24609375 36.34765625 C3.06273437 36.3940625 1.879375 36.44046875 0.66015625 36.48828125 C-0.84417969 36.78992188 -0.84417969 36.78992188 -2.37890625 37.09765625 C-2.70890625 37.75765625 -3.03890625 38.41765625 -3.37890625 39.09765625 C-3.70890625 39.75765625 -4.03890625 40.41765625 -4.37890625 41.09765625 C-7.41796875 41.70703125 -7.41796875 41.70703125 -11.00390625 41.84765625 C-12.78667969 41.93273437 -12.78667969 41.93273437 -14.60546875 42.01953125 C-15.52070313 42.0453125 -16.4359375 42.07109375 -17.37890625 42.09765625 C-18.38724945 38.99575466 -18.38893907 37.29790275 -17.22314453 34.26293945 C-16.80743698 33.15708244 -16.80743698 33.15708244 -16.3833313 32.02888489 C-15.92094559 30.85056343 -15.92094559 30.85056343 -15.44921875 29.6484375 C-15.13943085 28.8352153 -14.82964294 28.0219931 -14.51046753 27.18412781 C-13.85468789 25.46836921 -13.19367814 23.75460178 -12.52783203 22.04272461 C-11.50515284 19.4133613 -10.49729171 16.77870352 -9.4921875 14.14257812 C-8.8537146 12.47753839 -8.21441985 10.81281351 -7.57421875 9.1484375 C-7.27001007 8.35681717 -6.96580139 7.56519684 -6.65237427 6.74958801 C-4.06947789 0.11761497 -4.06947789 0.11761497 0 0 Z M3.62109375 15.09765625 C3.08880049 16.36373232 2.57064831 17.63576037 2.05859375 18.91015625 C1.76855469 19.61785156 1.47851562 20.32554687 1.1796875 21.0546875 C0.37046351 23.27116295 0.37046351 23.27116295 1.62109375 26.09765625 C3.27109375 25.76765625 4.92109375 25.43765625 6.62109375 25.09765625 C5.96109375 21.79765625 5.30109375 18.49765625 4.62109375 15.09765625 C4.29109375 15.09765625 3.96109375 15.09765625 3.62109375 15.09765625 Z " fill="#000000" transform="translate(461.37890625,311.90234375)"/>
<path d="M0 0 C1.05617271 -0.0049926 1.05617271 -0.0049926 2.13368225 -0.01008606 C3.62581731 -0.0151578 5.11796375 -0.01749431 6.61010742 -0.01733398 C8.89716232 -0.01951884 11.18373378 -0.03766674 13.47070312 -0.05664062 C14.91796709 -0.05957479 16.36523336 -0.06155943 17.8125 -0.0625 C18.49900131 -0.06968552 19.18550262 -0.07687103 19.89280701 -0.08427429 C24.74383256 -0.06085494 24.74383256 -0.06085494 26.97265625 2.16796875 C27.30017859 4.88251831 27.10349875 7.42027634 26.97265625 10.16796875 C24.8596158 12.2810092 20.4610611 11.63134281 17.53515625 11.79296875 C16.74560547 11.84453125 15.95605469 11.89609375 15.14257812 11.94921875 C9.22164164 12.29246144 9.22164164 12.29246144 6.97265625 11.16796875 C6.97265625 13.14796875 6.97265625 15.12796875 6.97265625 17.16796875 C8.11605469 17.15636719 9.25945313 17.14476562 10.4375 17.1328125 C11.92838379 17.12343587 13.41926934 17.11433554 14.91015625 17.10546875 C15.66490234 17.09708984 16.41964844 17.08871094 17.19726562 17.08007812 C19.12259938 17.07144434 21.04801206 17.11572542 22.97265625 17.16796875 C23.97265625 18.16796875 23.97265625 18.16796875 24.0703125 20.234375 C24.05871094 21.05808594 24.04710937 21.88179688 24.03515625 22.73046875 C24.02613281 23.55675781 24.01710938 24.38304687 24.0078125 25.234375 C23.99621094 25.87246094 23.98460937 26.51054687 23.97265625 27.16796875 C21.51468772 27.36233366 19.05656331 27.54874295 16.59765625 27.73046875 C15.89898438 27.78654297 15.2003125 27.84261719 14.48046875 27.90039062 C9.19921875 28.28125 9.19921875 28.28125 6.97265625 27.16796875 C6.97265625 31.78796875 6.97265625 36.40796875 6.97265625 41.16796875 C2.02265625 41.16796875 -2.92734375 41.16796875 -8.02734375 41.16796875 C-8.0519908 35.48966797 -8.07017837 29.81139806 -8.08227539 24.13305664 C-8.08731631 22.1997829 -8.09414894 20.26651299 -8.1027832 18.33325195 C-8.1148594 15.56070003 -8.12057432 12.78819834 -8.125 10.015625 C-8.13016129 9.14583511 -8.13532257 8.27604523 -8.14064026 7.37989807 C-8.1408356 5.30891061 -8.08942543 3.23802551 -8.02734375 1.16796875 C-6.11444757 -0.74492743 -2.60510292 0.00421048 0 0 Z " fill="#000000" transform="translate(615.02734375,311.83203125)"/>
<path d="M0 0 C4.29 0 8.58 0 13 0 C13 19.47 13 38.94 13 59 C11.68 59.66 10.36 60.32 9 61 C8.67 61.66 8.34 62.32 8 63 C7.484375 62.731875 6.96875 62.46375 6.4375 62.1875 C5.633125 61.795625 4.82875 61.40375 4 61 C2.96875 60.46375 1.9375 59.9275 0.875 59.375 C-2.29217872 57.96812018 -4.57141983 58.01549534 -8 58.3125 C-11.34499008 58.46082525 -12.55128084 58.36169 -15.1953125 56.23046875 C-16.93345763 54.22139816 -18.51570941 52.20186153 -20 50 C-15.61553492 45.25016283 -10.35720631 41.57147087 -5 38 C-3.7937748 41.61867559 -3.89183082 44.92506251 -3.9375 48.6875 C-3.94201172 49.38939453 -3.94652344 50.09128906 -3.95117188 50.81445312 C-3.96293073 52.54300538 -3.98086546 54.27151365 -4 56 C-2.35 56.33 -0.7 56.66 1 57 C0.96970703 56.1970752 0.93941406 55.39415039 0.90820312 54.56689453 C0.2353555 36.36636626 -0.13928814 18.21579404 0 0 Z " fill="#089DB7" transform="translate(519,221)"/>
<path d="M0 0 C4.77354868 -0.52966773 9.24774054 -0.79380726 14 0 C16.98272358 2.57936594 18.40239302 5.44225215 20 9 C20.99 10.485 20.99 10.485 22 12 C22.34289062 11.13375 22.68578125 10.2675 23.0390625 9.375 C24.74569582 5.74314979 26.2573514 2.94501043 29 0 C33.81208453 -1.07051826 38.15001976 -0.72648802 43 0 C43.495 0.99 43.495 0.99 44 2 C42.53077134 4.62062418 41.01219634 7.11220005 39.375 9.625 C38.93542969 10.31207031 38.49585938 10.99914062 38.04296875 11.70703125 C37.60339844 12.39410156 37.16382813 13.08117187 36.7109375 13.7890625 C36.26613037 14.48676758 35.82132324 15.18447266 35.36303711 15.90332031 C34.45891542 17.29407744 33.52998297 18.6690347 32.57641602 20.02636719 C29.28234435 24.85790856 28.34441938 28.14167659 28.1875 34 C28.16236328 34.67933594 28.13722656 35.35867188 28.11132812 36.05859375 C28.05335161 37.70512675 28.02359535 39.35261557 28 41 C24.6888987 42.10370043 22.75251051 41.92673641 19.3125 41.5625 C18.31863281 41.46066406 17.32476563 41.35882813 16.30078125 41.25390625 C15.54152344 41.17011719 14.78226563 41.08632813 14 41 C14.12761719 40.11441406 14.25523437 39.22882813 14.38671875 38.31640625 C15.44549734 25.10229941 9.35988391 17.50960188 1.71289062 7.27783203 C0.578125 5.69140625 0.578125 5.69140625 -1 3 C-0.67 2.01 -0.34 1.02 0 0 Z " fill="#000000" transform="translate(644,312)"/>
<path d="M0 0 C1.1859375 0.00257813 2.371875 0.00515625 3.59375 0.0078125 C4.7796875 0.00523437 5.965625 0.00265625 7.1875 0 C10.09375 0.1328125 10.09375 0.1328125 11.09375 1.1328125 C11.18150605 3.27840077 11.20070219 5.42685671 11.19140625 7.57421875 C11.18818359 8.87939453 11.18496094 10.18457031 11.18164062 11.52929688 C11.17328401 12.9179694 11.16481905 14.30664127 11.15625 15.6953125 C11.15123666 17.08788906 11.14667347 18.48046731 11.14257812 19.87304688 C11.13074434 23.2930112 11.1142588 26.71289094 11.09375 30.1328125 C11.69437256 30.12757568 12.29499512 30.12233887 12.91381836 30.11694336 C15.61961838 30.09623236 18.32540177 30.08317125 21.03125 30.0703125 C21.97677734 30.06193359 22.92230469 30.05355469 23.89648438 30.04492188 C25.24516602 30.04008789 25.24516602 30.04008789 26.62109375 30.03515625 C27.87007446 30.02730103 27.87007446 30.02730103 29.14428711 30.01928711 C31.09375 30.1328125 31.09375 30.1328125 32.09375 31.1328125 C32.16580511 32.81890216 32.17761068 34.50781909 32.15625 36.1953125 C32.14722656 37.11441406 32.13820313 38.03351563 32.12890625 38.98046875 C32.11730469 39.69074219 32.10570312 40.40101563 32.09375 41.1328125 C28.28360295 42.02106764 24.74844151 42.26154109 20.83984375 42.265625 C19.65583984 42.26691406 18.47183594 42.26820313 17.25195312 42.26953125 C16.02412109 42.26566406 14.79628906 42.26179688 13.53125 42.2578125 C12.29955078 42.26167969 11.06785156 42.26554687 9.79882812 42.26953125 C8.02475586 42.26759766 8.02475586 42.26759766 6.21484375 42.265625 C5.1364624 42.26449707 4.05808105 42.26336914 2.94702148 42.26220703 C0.46577213 42.14968353 -1.5289985 41.77475105 -3.90625 41.1328125 C-3.93089705 35.45451172 -3.94908462 29.77624181 -3.96118164 24.09790039 C-3.96622256 22.16462665 -3.97305519 20.23135674 -3.98168945 18.2980957 C-3.99376565 15.52554378 -3.99948057 12.75304209 -4.00390625 9.98046875 C-4.00906754 9.11067886 -4.01422882 8.24088898 -4.01954651 7.34474182 C-4.01974185 5.27375436 -3.96833168 3.20286926 -3.90625 1.1328125 C-2.90625 0.1328125 -2.90625 0.1328125 0 0 Z " fill="#000000" transform="translate(368.90625,311.8671875)"/>
<path d="M0 0 C21.17715821 1.18788702 41.39413833 9.60344864 57 24 C57.495 24.99 57.495 24.99 58 26 C61.23128051 24.57823657 63.35909765 22.83216533 65.875 20.375 C78.81750517 8.7034446 98.79608022 -0.11715293 116.3125 -0.1875 C117.199375 -0.125625 118.08625 -0.06375 119 0 C116.27314619 2.72685381 114.17420911 2.55711822 110.375 3.125 C100.18088665 4.88463119 90.06185592 9.46887622 82 16 C82.66644531 15.67386719 83.33289063 15.34773437 84.01953125 15.01171875 C97.04567398 8.83568744 107.7716815 7.57737668 122 8 C122 8.33 122 8.66 122 9 C121.41734375 9.08451416 120.8346875 9.16902832 120.234375 9.25610352 C102.32313023 11.94384632 84.35174139 16.30577003 70.70703125 29.16015625 C67.15881609 31.57171374 64.03880159 31.76847499 59.875 31.75 C59.11582275 31.74677734 58.35664551 31.74355469 57.57446289 31.74023438 C51.21029583 31.46426667 47.7113534 29.44311109 42.859375 25.296875 C29.95408273 14.93032875 13.05400633 11.02675163 -3 9 C-3 8.67 -3 8.34 -3 8 C10.25337298 7.15404002 20.69940817 9.05587218 33 14 C33.99386719 14.39445313 34.98773438 14.78890625 36.01171875 15.1953125 C36.66785156 15.46085938 37.32398438 15.72640625 38 16 C25.92505128 8.5019964 14.04462357 3.71036595 0 1 C0 0.67 0 0.34 0 0 Z " fill="#F5F5F5" transform="translate(466,184)"/>
<path d="M0 0 C2.14576637 -0.02685938 4.29162645 -0.04633088 6.4375 -0.0625 C7.63246094 -0.07410156 8.82742188 -0.08570313 10.05859375 -0.09765625 C13 0 13 0 14 1 C14.08868299 3.95705321 14.11520296 6.89065056 14.09765625 9.84765625 C14.0962413 10.7340831 14.09482635 11.62050995 14.09336853 12.53379822 C14.08775215 15.37673254 14.07519691 18.21958931 14.0625 21.0625 C14.05748711 22.98502491 14.05292384 24.90755104 14.04882812 26.83007812 C14.03777741 31.55341549 14.02050183 36.27669458 14 41 C7.565 41.495 7.565 41.495 1 42 C-1.64103866 38.03844201 -1.15246173 34.75182976 -0.9765625 30.17578125 C-0.95153656 29.31438034 -0.92651062 28.45297943 -0.90072632 27.56547546 C-0.81855141 24.81408183 -0.72195255 22.06340871 -0.625 19.3125 C-0.56675785 17.44729506 -0.50945462 15.58206055 -0.453125 13.71679688 C-0.31297636 9.14411681 -0.15988994 4.57203064 0 0 Z " fill="#000000" transform="translate(586,312)"/>
<path d="M0 0 C1.21376536 3.59194278 0.82936224 6.41327965 0.2578125 10.12890625 C0.07863281 11.32966797 -0.10054687 12.53042969 -0.28515625 13.76757812 C-0.47980469 15.01990234 -0.67445313 16.27222656 -0.875 17.5625 C-2.98859648 31.39478832 -2.98859648 31.39478832 -4.10205078 45.33618164 C-4.25 47.5 -4.25 47.5 -5 51 C-7.1875 52.75 -7.1875 52.75 -10 54 C-10.969375 54.763125 -11.93875 55.52625 -12.9375 56.3125 C-16 58 -16 58 -18.625 57.3125 C-19.73875 56.879375 -20.8525 56.44625 -22 56 C-25.99006069 55.51403107 -29.98864987 55.2466526 -34 55 C-33 53 -33 53 -30.734375 52.2265625 C-14.77817367 45.06906647 -5.6923974 14.7079021 0 0 Z " fill="#089EB7" transform="translate(589,214)"/>
<path d="M0 0 C4.29 0 8.58 0 13 0 C13.08102542 4.37537287 13.14052099 8.74924085 13.1875 13.125 C13.22520508 14.98125 13.22520508 14.98125 13.26367188 16.875 C13.27817383 18.67324219 13.27817383 18.67324219 13.29296875 20.5078125 C13.31653442 22.15740967 13.31653442 22.15740967 13.34057617 23.84033203 C12.92982465 27.65104616 11.78071497 31.21928503 9 34 C6.625 34.3125 6.625 34.3125 4 34 C0.76937466 30.76937466 0.06489967 27.62402707 -0.11352539 23.15917969 C-0.10567017 21.55671387 -0.10567017 21.55671387 -0.09765625 19.921875 C-0.09443359 18.76171875 -0.09121094 17.6015625 -0.08789062 16.40625 C-0.07951172 15.1996875 -0.07113281 13.993125 -0.0625 12.75 C-0.05798828 11.52796875 -0.05347656 10.3059375 -0.04882812 9.046875 C-0.03704826 6.03122908 -0.01911301 3.01560835 0 0 Z " fill="#01CDF0" transform="translate(519,221)"/>
<path d="M0 0 C2.56920669 2.30780485 3.92678509 4.63220154 5.5 7.6875 C10.10665303 15.48688284 17.06987503 20.37192997 25.6875 23 C27.11947452 23.35632336 28.55534996 23.69916181 30 24 C30 24.66 30 25.32 30 26 C29.34 26.33 28.68 26.66 28 27 C27.67 28.98 27.34 30.96 27 33 C22.38 33 17.76 33 13 33 C13 31.02 13 29.04 13 27 C12.278125 26.7525 11.55625 26.505 10.8125 26.25 C5.37036948 23.83127532 2.21319055 20.70420034 -0.28125 15.36328125 C-1.70682128 10.67594089 -2.23692193 4.47384387 0 0 Z " fill="#DA8B10" transform="translate(505,134)"/>
<path d="M0 0 C17.50485505 -1.11733117 31.37159007 3.22021885 47 11 C46.01 11.33 45.02 11.66 44 12 C45.60387267 13.1254191 47.20810916 14.25031972 48.8125 15.375 C49.70582031 16.00148437 50.59914063 16.62796875 51.51953125 17.2734375 C57.24359624 21.2577473 61.04450829 22.21043622 68 21 C71.75069042 19.13957796 75.05180159 16.98656976 78 14 C78 13.01 78 12.02 78 11 C102.67572706 -0.41332079 102.67572706 -0.41332079 116.4375 -0.125 C117.67790039 -0.11146484 117.67790039 -0.11146484 118.94335938 -0.09765625 C120.96236708 -0.07431512 122.98122356 -0.03845288 125 0 C125 0.33 125 0.66 125 1 C124.41734375 1.08451416 123.8346875 1.16902832 123.234375 1.25610352 C105.32313023 3.94384632 87.35174139 8.30577003 73.70703125 21.16015625 C70.15881609 23.57171374 67.03880159 23.76847499 62.875 23.75 C62.11582275 23.74677734 61.35664551 23.74355469 60.57446289 23.74023438 C54.21029583 23.46426667 50.7113534 21.44311109 45.859375 17.296875 C32.95408273 6.93032875 16.05400633 3.02675163 0 1 C0 0.67 0 0.34 0 0 Z " fill="#B6B6B6" transform="translate(463,192)"/>
<path d="M0 0 C8.25 0 16.5 0 25 0 C25 7 25 7 23.57421875 8.85546875 C22.95160156 9.29503906 22.32898438 9.73460937 21.6875 10.1875 C18.94912521 12.26336476 16.90357752 14.09453958 15 17 C14.34 17.99 13.68 18.98 13 20 C11.68 19.34 10.36 18.68 9 18 C9 17.34 9 16.68 9 16 C7.35648543 14.63823078 5.68477344 13.31037934 4 12 C1.125 9.6875 1.125 9.6875 -1 7 C-0.67 4.69 -0.34 2.38 0 0 Z " fill="#1C1C1C" transform="translate(513,171)"/>
<path d="M0 0 C6.4201253 -0.5669237 6.4201253 -0.5669237 9.39331055 1.87426758 C11.07894549 4.05586215 12.4175415 6.25123971 13.73608398 8.67211914 C14.44510864 9.89886353 14.44510864 9.89886353 15.16845703 11.15039062 C18.19191214 16.72999456 19.62176185 21.1071164 18.34936523 27.48852539 C17.54858398 29.35961914 17.54858398 29.35961914 15.54858398 30.35961914 C15.65299805 29.66739258 15.75741211 28.97516602 15.86499023 28.26196289 C16.58500185 19.58753729 14.13057771 13.2850674 9.21655273 6.29321289 C6.85178523 3.29776138 6.85178523 3.29776138 4.09936523 2.26977539 C1.03481442 2.15244956 -1.46548687 2.64503781 -4.45141602 3.35961914 C-5.7443457 3.59165039 -7.03727539 3.82368164 -8.36938477 4.06274414 C-26.56438874 7.55740044 -41.94436401 16.01169594 -56.45141602 27.35961914 C-58.55767633 25.75814018 -60.6614534 24.15357039 -62.76391602 22.54711914 C-63.35881836 22.09530273 -63.9537207 21.64348633 -64.56665039 21.17797852 C-67.35547263 19.04351681 -70.06866575 16.94881708 -72.45141602 14.35961914 C-67.39404509 15.1128446 -63.94156459 18.60942302 -60.01000977 21.64477539 C-57.54942705 23.63799273 -57.54942705 23.63799273 -54.45141602 23.35961914 C-53.52329102 22.53461914 -52.59516602 21.70961914 -51.63891602 20.85961914 C-37.43321887 8.2587497 -18.36234736 2.69372948 0 0 Z " fill="#080908" transform="translate(581.451416015625,174.640380859375)"/>
<path d="M0 0 C1.24040039 0.01353516 1.24040039 0.01353516 2.50585938 0.02734375 C4.52486708 0.05068488 6.54372356 0.08654712 8.5625 0.125 C8.5625 0.455 8.5625 0.785 8.5625 1.125 C7.97984375 1.20951416 7.3971875 1.29402832 6.796875 1.38110352 C-11.32640311 4.10066382 -28.23580966 8.5998778 -42.484375 20.890625 C-44.4375 22.125 -44.4375 22.125 -46.6875 21.8125 C-47.265 21.585625 -47.8425 21.35875 -48.4375 21.125 C-47.3546875 20.41923828 -47.3546875 20.41923828 -46.25 19.69921875 C-45.321875 19.07660156 -44.39375 18.45398438 -43.4375 17.8125 C-42.509375 17.19761719 -41.58125 16.58273438 -40.625 15.94921875 C-39.5421875 15.04623047 -39.5421875 15.04623047 -38.4375 14.125 C-38.4375 13.135 -38.4375 12.145 -38.4375 11.125 C-13.76177294 -0.28832079 -13.76177294 -0.28832079 0 0 Z " fill="#C6C6C6" transform="translate(579.4375,191.875)"/>
<path d="M0 0 C-0.72703125 0.27972656 -1.4540625 0.55945313 -2.203125 0.84765625 C-9.87782198 3.90769569 -17.0980529 7.4373683 -24 12 C-25.06863281 12.62003906 -26.13726563 13.24007812 -27.23828125 13.87890625 C-31.16507367 17.25253976 -31.0843182 21.81806563 -31.54492188 26.70898438 C-31.63322266 27.93939453 -31.72152344 29.16980469 -31.8125 30.4375 C-31.92013672 31.63310547 -32.02777344 32.82871094 -32.13867188 34.06054688 C-32.45893654 37.70527667 -32.73655252 41.35074669 -33 45 C-33.0483197 45.6615509 -33.0966394 46.32310181 -33.14642334 47.00469971 C-33.43834394 51.00262761 -33.72248109 55.00104818 -34 59 C-34.33 59 -34.66 59 -35 59 C-35.04850178 55.17913756 -35.05573521 51.36390608 -35.01171875 47.54296875 C-34.97113763 43.41058577 -35.10258442 39.30470338 -35.26953125 35.17578125 C-35.69246435 17.8721468 -35.69246435 17.8721468 -32.83642578 13.02539062 C-29.79653457 9.87653178 -26.16347287 8.26408041 -22.09814453 6.78417969 C-19.87253576 5.95236035 -17.78333313 4.96359026 -15.65234375 3.9140625 C-3.91893185 -1.73069579 -3.91893185 -1.73069579 0 0 Z " fill="#EAF1F3" transform="translate(572,204)"/>
<path d="M0 0 C0.33 0 0.66 0 1 0 C1 5.94 1 11.88 1 18 C-1.64 18 -4.28 18 -7 18 C-9.54824808 15.05971376 -10.77605246 12.67184262 -12 9 C-11.38511719 8.60167969 -10.77023437 8.20335937 -10.13671875 7.79296875 C-9.32847656 7.26316406 -8.52023437 6.73335938 -7.6875 6.1875 C-6.88699219 5.66542969 -6.08648437 5.14335937 -5.26171875 4.60546875 C-3.27556687 3.19560965 -1.69273299 1.73440027 0 0 Z " fill="#08A0B9" transform="translate(513,259)"/>
<path d="M0 0 C8.25 0 16.5 0 25 0 C25 1.32 25 2.64 25 4 C17.08 4 9.16 4 1 4 C3.475 7.465 3.475 7.465 6 11 C5.01 11.495 5.01 11.495 4 12 C1.4375 9.9375 1.4375 9.9375 -1 7 C-0.67 4.69 -0.34 2.38 0 0 Z " fill="#080807" transform="translate(513,171)"/>
<path d="M0 0 C1.24040039 0.01353516 1.24040039 0.01353516 2.50585938 0.02734375 C4.52486708 0.05068488 6.54372356 0.08654712 8.5625 0.125 C8.5625 0.455 8.5625 0.785 8.5625 1.125 C7.91700195 1.24093506 7.27150391 1.35687012 6.60644531 1.47631836 C3.67487767 2.00365267 0.74368703 2.53305434 -2.1875 3.0625 C-3.20328125 3.24490234 -4.2190625 3.42730469 -5.265625 3.61523438 C-6.73515625 3.88110352 -6.73515625 3.88110352 -8.234375 4.15234375 C-9.13510742 4.31468506 -10.03583984 4.47702637 -10.96386719 4.64428711 C-13.14617016 5.06838448 -15.28766521 5.56121679 -17.4375 6.125 C-17.1075 4.805 -16.7775 3.485 -16.4375 2.125 C-10.81492839 0.2080427 -5.91380615 -0.12389924 0 0 Z " fill="#B1B1B1" transform="translate(579.4375,191.875)"/>
<path d="M0 0 C-2.78538057 2.78538057 -5.20140161 2.71795623 -9.0625 3.375 C-14.5288555 4.3613363 -19.39755374 5.70504162 -24.36328125 8.23046875 C-26 9 -26 9 -28 9 C-27.67 7.68 -27.34 6.36 -27 5 C-24.79290017 4.34996375 -22.58426108 3.70515255 -20.375 3.0625 C-19.14523437 2.70285156 -17.91546875 2.34320313 -16.6484375 1.97265625 C-10.97658979 0.46056837 -5.86968067 -0.11739361 0 0 Z " fill="#E3E3E3" transform="translate(585,184)"/>
<path d="M0 0 C-2.05091565 3.07637348 -2.72227002 3.58998859 -5.9140625 5.04296875 C-6.67460938 5.39423828 -7.43515625 5.74550781 -8.21875 6.10742188 C-9.0128125 6.46384766 -9.806875 6.82027344 -10.625 7.1875 C-11.42679688 7.55552734 -12.22859375 7.92355469 -13.0546875 8.30273438 C-15.03310482 9.20950898 -17.01479395 10.1082107 -19 11 C-17.524172 7.8227192 -16.60437282 6.44851927 -13.4375 4.875 C-9.96468026 3.40524759 -9.96468026 3.40524759 -9 1 C-5.62083804 -0.73524533 -3.60583914 -1.33549598 0 0 Z " fill="#B7B7B7" transform="translate(563,196)"/>
<path d="M0 0 C0.33 0 0.66 0 1 0 C1 4.95 1 9.9 1 15 C3.475 15.495 3.475 15.495 6 16 C1.30877601 17.28334633 -3.19454515 18.06706119 -8 17 C-10.86644894 14.68147404 -12.9457069 12.04742817 -15 9 C-14.34 8.34 -13.68 7.68 -13 7 C-8 12.75 -8 12.75 -8 15 C-5.36 15 -2.72 15 0 15 C0 10.05 0 5.1 0 0 Z " fill="#05768A" transform="translate(514,262)"/>
<path d="M0 0 C0.66 0.33 1.32 0.66 2 1 C-2.75 6.75 -2.75 6.75 -5 9 C-5.99 10.485 -5.99 10.485 -7 12 C-8.32 11.34 -9.64 10.68 -11 10 C-11 9.34 -11 8.68 -11 8 C-11.99 7.34 -12.98 6.68 -14 6 C-13.67 5.34 -13.34 4.68 -13 4 C-12.39671875 4.04640625 -11.7934375 4.0928125 -11.171875 4.140625 C-5.91586667 4.47810312 -5.91586667 4.47810312 -1.4375 2 C-0.7259375 1.01 -0.7259375 1.01 0 0 Z " fill="#050504" transform="translate(533,179)"/>
<path d="M0 0 C-0.72703125 0.27972656 -1.4540625 0.55945313 -2.203125 0.84765625 C-9.91971327 3.9243985 -16.90419271 7.70091154 -24 12 C-24.99 12.495 -24.99 12.495 -26 13 C-25.40889936 10.20570605 -24.70313748 8.47130083 -22.28955078 6.85351562 C-20.07559618 5.73855222 -17.84022009 4.72804661 -15.5625 3.75 C-14.78583984 3.399375 -14.00917969 3.04875 -13.20898438 2.6875 C-4.25813964 -1.32149161 -4.25813964 -1.32149161 0 0 Z " fill="#D0E5E9" transform="translate(572,204)"/>
<path d="M0 0 C4.75481646 0.57634139 7.97048212 2.55068521 12 5 C11.01 5.495 11.01 5.495 10 6 C9.34 5.67 8.68 5.34 8 5 C8.99 5.928125 8.99 5.928125 10 6.875 C12 9 12 9 12 11 C8.81293058 9.56438314 6.37830895 7.79733671 3.75 5.5 C3.04359375 4.8915625 2.3371875 4.283125 1.609375 3.65625 C0 2 0 2 0 0 Z " fill="#231E12" transform="translate(490,115)"/>
<path d="M0 0 C3.375 -0.125 3.375 -0.125 7 0 C7.66 0.66 8.32 1.32 9 2 C11.88717605 2.6837613 11.88717605 2.6837613 15.125 3.125 C16.22070312 3.29257813 17.31640625 3.46015625 18.4453125 3.6328125 C19.28835938 3.75398437 20.13140625 3.87515625 21 4 C21 5.65 21 7.3 21 9 C20.34 8.01 19.68 7.02 19 6 C16.98731855 5.31227272 16.98731855 5.31227272 14.6484375 5.05078125 C13.79765625 4.92509766 12.946875 4.79941406 12.0703125 4.66992188 C11.18085938 4.55197266 10.29140625 4.43402344 9.375 4.3125 C8.02921875 4.11817383 8.02921875 4.11817383 6.65625 3.91992188 C4.43889381 3.60147178 2.2205282 3.29537394 0 3 C0 2.01 0 1.02 0 0 Z " fill="#2E240C" transform="translate(478,135)"/>
<path d="M0 0 C2.71224618 1.61268692 5.37352812 3.24901874 8 5 C10.38677076 5.29452584 12.78626094 5.4928217 15.1875 5.625 C17.09595703 5.73714844 17.09595703 5.73714844 19.04296875 5.8515625 C20.01878906 5.90054688 20.99460937 5.94953125 22 6 C22 6.33 22 6.66 22 7 C19.2697611 7.1083667 16.54385457 7.18746694 13.8125 7.25 C13.04357422 7.28351563 12.27464844 7.31703125 11.48242188 7.3515625 C7.48105198 7.42025555 5.46571561 7.27907158 1.94921875 5.171875 C0 3 0 3 0 0 Z " fill="#9C9C9C" transform="translate(512,208)"/>
<path d="M0 0 C7.6700283 0.4302337 14.65896942 1.74231361 22 4 C21.67 4.66 21.34 5.32 21 6 C19.85724609 5.70996094 19.85724609 5.70996094 18.69140625 5.4140625 C12.47874359 3.8473236 6.26186932 2.35673835 0 1 C0 0.67 0 0.34 0 0 Z " fill="#BBBBBB" transform="translate(466,184)"/>
<path d="M0 0 C-2.31 2.31 -4.62 4.62 -7 7 C-7.33 6.01 -7.66 5.02 -8 4 C-9.98 4.66 -11.96 5.32 -14 6 C-10.24413492 1.5813352 -5.76189903 -1.44047476 0 0 Z " fill="#433014" transform="translate(560,116)"/>
<path d="M0 0 C3.4789459 1.54619818 6.33449889 3.26045719 9 6 C9.3125 9.75 9.3125 9.75 9 13 C8.01 13.495 8.01 13.495 7 14 C7 11.36 7 8.72 7 6 C6.21625 5.7525 5.4325 5.505 4.625 5.25 C1.67682892 3.84610901 1.0975223 2.99324263 0 0 Z " fill="#161410" transform="translate(505,158)"/>
<path d="M0 0 C4.95 0 9.9 0 15 0 C15 0.33 15 0.66 15 1 C10.15758367 2.33583899 6.06562383 3.25328119 1 3 C0.67 2.01 0.34 1.02 0 0 Z " fill="#15130E" transform="translate(553,136)"/>
<path d="M0 0 C-2.69095476 2.69095476 -4.76853804 2.67211872 -8.5 3.25 C-9.6653125 3.44078125 -10.830625 3.6315625 -12.03125 3.828125 C-13.50078125 3.91320312 -13.50078125 3.91320312 -15 4 C-15.66 3.34 -16.32 2.68 -17 2 C-11.23918159 0.7017874 -5.91260345 -0.25706972 0 0 Z " fill="#A3A3A3" transform="translate(585,184)"/>
<path d="M0 0 C4.95 0 9.9 0 15 0 C14.67 0.99 14.34 1.98 14 3 C4.58997722 2.03644647 4.58997722 2.03644647 0 1 C0 0.67 0 0.34 0 0 Z " fill="#151310" transform="translate(482,136)"/>
<path d="M0 0 C5.94 0 11.88 0 18 0 C17.01 0.33 16.02 0.66 15 1 C15 1.66 15 2.32 15 3 C7.575 2.01 7.575 2.01 0 1 C0 0.67 0 0.34 0 0 Z " fill="#A3A3A3" transform="translate(463,192)"/>
<path d="M0 0 C5.94 0 11.88 0 18 0 C18 0.33 18 0.66 18 1 C16.41913952 1.36504603 14.83516093 1.71660506 13.25 2.0625 C12.36828125 2.25972656 11.4865625 2.45695313 10.578125 2.66015625 C6.19522089 3.2379027 3.9783778 1.9891889 0 0 Z " fill="#989898" transform="translate(570,192)"/>
<path d="M0 0 C0.99 0.33 1.98 0.66 3 1 C1.02 5.455 1.02 5.455 -1 10 C-1.33 9.01 -1.66 8.02 -2 7 C-1.67 6.34 -1.34 5.68 -1 5 C-1.66 4.67 -2.32 4.34 -3 4 C-2.01 2.68 -1.02 1.36 0 0 Z " fill="#743D13" transform="translate(542,107)"/>
<path d="M0 0 C0.33 1.32 0.66 2.64 1 4 C1.99 4.33 2.98 4.66 4 5 C3.01 6.98 2.02 8.96 1 11 C0.34 11 -0.32 11 -1 11 C-0.67 7.37 -0.34 3.74 0 0 Z " fill="#0B4A56" transform="translate(585,246)"/>
<path d="M0 0 C0.66 0.33 1.32 0.66 2 1 C2 1.66 2 2.32 2 3 C0.54618103 3.69699552 -0.91322953 4.38233866 -2.375 5.0625 C-3.18710937 5.44535156 -3.99921875 5.82820312 -4.8359375 6.22265625 C-5.55007813 6.47917969 -6.26421875 6.73570312 -7 7 C-7.66 6.67 -8.32 6.34 -9 6 C-6.03 4.02 -3.06 2.04 0 0 Z " fill="#363636" transform="translate(555,194)"/>
<path d="M0 0 C5.66153846 1.47692308 5.66153846 1.47692308 7.375 4.125 C7.684375 5.053125 7.684375 5.053125 8 6 C5.36 5.34 2.72 4.68 0 4 C0 2.66666667 0 1.33333333 0 0 Z " fill="#433B25" transform="translate(561,157)"/>
<path d="M0 0 C0 0.99 0 1.98 0 3 C-3.63 3.33 -7.26 3.66 -11 4 C-4.625 -0.25 -4.625 -0.25 0 0 Z " fill="#4F3F17" transform="translate(571,135)"/>
<path d="M0 0 C4.75481646 0.57634139 7.97048212 2.55068521 12 5 C11.01 5.495 11.01 5.495 10 6 C7.99152635 5.01712992 5.99180409 4.01622658 4 3 C3.01 3 2.02 3 1 3 C0.67 2.01 0.34 1.02 0 0 Z " fill="#614C23" transform="translate(490,115)"/>
<path d="M0 0 C1.65 0.33 3.3 0.66 5 1 C4.34 2.32 3.68 3.64 3 5 C1.68 4.34 0.36 3.68 -1 3 C-0.67 2.01 -0.34 1.02 0 0 Z " fill="#0C0C07" transform="translate(523,186)"/>
<path d="M0 0 C2.31 0 4.62 0 7 0 C7 0.99 7 1.98 7 3 C4.69 3 2.38 3 0 3 C0 2.01 0 1.02 0 0 Z " fill="#4F3F15" transform="translate(478,135)"/>
<path d="M0 0 C2.64752004 2.57784846 4.94432065 4.91648098 7 8 C6.01 8.495 6.01 8.495 5 9 C2.5 6.75 2.5 6.75 0 4 C0 2.68 0 1.36 0 0 Z " fill="#0B0B0B" transform="translate(512,174)"/>
<path d="M0 0 C1.625 2 1.625 2 3 4 C0.03 3.67 -2.94 3.34 -6 3 C-2.25 0 -2.25 0 0 0 Z " fill="#232011" transform="translate(561,156)"/>
<path d="M0 0 C0 0.99 0 1.98 0 3 C-3 5 -3 5 -5.1875 4.625 C-5.785625 4.41875 -6.38375 4.2125 -7 4 C-2.25 0 -2.25 0 0 0 Z " fill="#BCBCBC" transform="translate(538,209)"/>
<path d="M0 0 C0.99 0 1.98 0 3 0 C3.33 2.31 3.66 4.62 4 7 C2.68 6.34 1.36 5.68 0 5 C0 3.35 0 1.7 0 0 Z " fill="#916425" transform="translate(523,105)"/>
</svg>
