<?xml version="1.0" encoding="UTF-8"?>
<svg version="1.1" xmlns="http://www.w3.org/2000/svg" width="500" height="500">
<path d="M0 0 C0.61549713 0.19507141 1.23099426 0.39014282 1.86514282 0.59112549 C3.87561044 1.23090317 5.88116435 1.88480918 7.88696289 2.5390625 C9.28915093 2.9883512 10.69162679 3.43674255 12.09437561 3.88427734 C15.76822738 5.05902475 19.43806504 6.24584972 23.10717773 7.43530273 C26.85888143 8.64913707 30.61428434 9.85141137 34.36938477 11.0546875 C41.72394812 13.41323286 49.07430593 15.7845602 56.42211914 18.1640625 C55.42211914 21.1640625 55.42211914 21.1640625 52.84594727 22.5234375 C51.72639648 22.98234375 50.6068457 23.44125 49.45336914 23.9140625 C48.22983497 24.44459446 47.00720447 24.97721448 45.78540039 25.51171875 C43.85718421 26.34412344 41.9271989 27.16202218 39.97827148 27.94482422 C35.82221783 29.62902505 31.95246575 31.34084857 28.42211914 34.1640625 C27.04913624 37.96576894 27.14295008 41.17987201 27.42211914 45.1640625 C27.09211914 45.4940625 26.76211914 45.8240625 26.42211914 46.1640625 C27.24711914 46.6178125 28.07211914 47.0715625 28.92211914 47.5390625 C38.16595451 53.74532549 44.70933747 65.27804856 47.09790039 76.015625 C47.63471476 79.57282866 47.82365457 83.15401799 47.98071289 86.74609375 C48.50794805 89.63422262 49.37064911 90.16299714 51.42211914 92.1640625 C58.07614204 107.07979169 52.66729142 127.69686417 47.29907227 142.29663086 C44.22316448 150.19112796 40.71645327 158.37805671 33.42211914 163.1640625 C30.92211914 163.6640625 30.92211914 163.6640625 28.42211914 163.1640625 C24.86823081 159.80761241 23.86982143 156.97686211 23.42211914 152.1640625 C22.71249023 152.80021484 22.71249023 152.80021484 21.98852539 153.44921875 C19.81717178 155.37507819 17.62315267 157.27220425 15.42211914 159.1640625 C14.71313477 159.78539062 14.00415039 160.40671875 13.27368164 161.046875 C4.50361023 168.36054466 -3.94571411 170.85738584 -15.34741211 170.484375 C-19.56914644 170.06577498 -22.85952288 169.17817307 -26.57788086 167.1640625 C-27.52147461 166.67099609 -27.52147461 166.67099609 -28.48413086 166.16796875 C-34.54614447 162.69193317 -39.51136382 157.92949553 -44.57788086 153.1640625 C-44.83182617 153.71835937 -45.08577148 154.27265625 -45.34741211 154.84375 C-45.6915918 155.56820312 -46.03577148 156.29265625 -46.39038086 157.0390625 C-46.72682617 157.75835937 -47.06327148 158.47765625 -47.40991211 159.21875 C-48.57788086 161.1640625 -48.57788086 161.1640625 -51.57788086 163.1640625 C-54.74100441 163.66350306 -56.21482138 163.36886529 -59.01538086 161.7890625 C-71.96660008 148.52195988 -76.62721893 125.8814401 -76.82788086 107.9140625 C-76.83746826 107.15649658 -76.84705566 106.39893066 -76.85693359 105.6184082 C-76.82797684 100.83106772 -76.27133822 96.70252822 -74.57788086 92.1640625 C-74.0609668 91.68066406 -73.54405273 91.19726562 -73.01147461 90.69921875 C-70.64848067 88.16881925 -70.9017315 84.91060502 -70.64038086 81.6015625 C-69.20433285 67.87060401 -63.78937539 58.0980168 -53.05834961 49.2578125 C-51.57788086 48.1640625 -51.57788086 48.1640625 -49.57788086 47.1640625 C-50.07288086 46.6690625 -50.07288086 46.6690625 -50.57788086 46.1640625 C-50.65047032 43.97766797 -50.66161869 41.78905861 -50.64038086 39.6015625 C-50.63135742 38.40402344 -50.62233398 37.20648438 -50.61303711 35.97265625 C-50.60143555 35.04582031 -50.58983398 34.11898437 -50.57788086 33.1640625 C-51.13475586 32.99390625 -51.69163086 32.82375 -52.26538086 32.6484375 C-53.02850586 32.40609375 -53.79163086 32.16375 -54.57788086 31.9140625 C-55.32038086 31.68203125 -56.06288086 31.45 -56.82788086 31.2109375 C-60.54949388 29.79418709 -64.04307665 27.99067038 -67.57788086 26.1640625 C-67.51729492 26.71755371 -67.45670898 27.27104492 -67.39428711 27.84130859 C-67.11666261 30.40666572 -66.84724476 32.97282536 -66.57788086 35.5390625 C-66.48249023 36.40917969 -66.38709961 37.27929688 -66.28881836 38.17578125 C-65.66466971 44.19435753 -65.4606418 50.11485262 -65.57788086 56.1640625 C-67.55788086 56.1640625 -69.53788086 56.1640625 -71.57788086 56.1640625 C-70.91788086 45.9340625 -70.25788086 35.7040625 -69.57788086 25.1640625 C-72.87788086 23.5140625 -76.17788086 21.8640625 -79.57788086 20.1640625 C-78.57788086 18.1640625 -78.57788086 18.1640625 -76.03707886 17.16427612 C-74.90569489 16.81341949 -73.77431091 16.46256287 -72.60864258 16.10107422 C-71.98575851 15.90571075 -71.36287445 15.71034729 -70.72111511 15.50906372 C-68.65231155 14.86267479 -66.58017769 14.22782112 -64.50756836 13.59375 C-63.06832962 13.14859555 -61.62921376 12.70304363 -60.19021606 12.2571106 C-57.16703352 11.32231459 -54.14212618 10.39337362 -51.1159668 9.46826172 C-47.24878487 8.28538761 -43.38669382 7.08678303 -39.52583122 5.88346672 C-36.55101459 4.95852612 -33.57340373 4.04285956 -30.59491348 3.12982559 C-29.17072013 2.69188732 -27.74745059 2.25093251 -26.32516098 1.80685043 C-24.32738435 1.18444786 -22.32610836 0.57486408 -20.32348633 -0.03173828 C-19.1873288 -0.38100372 -18.05117126 -0.73026917 -16.88058472 -1.09011841 C-10.77499742 -2.46888677 -5.90894026 -1.90227453 0 0 Z M-21.57788086 36.1640625 C-21.57788086 36.4940625 -21.57788086 36.8240625 -21.57788086 37.1640625 C-8.21288086 37.6590625 -8.21288086 37.6590625 5.42211914 38.1640625 C5.42211914 37.8340625 5.42211914 37.5040625 5.42211914 37.1640625 C1.92219218 36.36699482 -1.29210396 36.04543223 -4.87866211 36.06640625 C-5.85512695 36.06962891 -6.8315918 36.07285156 -7.83764648 36.07617188 C-9.34875 36.08874023 -9.34875 36.08874023 -10.89038086 36.1015625 C-11.91711914 36.10607422 -12.94385742 36.11058594 -14.00170898 36.11523438 C-16.52715968 36.12698066 -19.05248991 36.14340685 -21.57788086 36.1640625 Z M-27.57788086 37.1640625 C-27.57788086 37.4940625 -27.57788086 37.8240625 -27.57788086 38.1640625 C-25.92788086 38.1640625 -24.27788086 38.1640625 -22.57788086 38.1640625 C-22.57788086 37.8340625 -22.57788086 37.5040625 -22.57788086 37.1640625 C-24.22788086 37.1640625 -25.87788086 37.1640625 -27.57788086 37.1640625 Z M5.42211914 38.1640625 C5.42211914 38.4940625 5.42211914 38.8240625 5.42211914 39.1640625 C7.07211914 39.1640625 8.72211914 39.1640625 10.42211914 39.1640625 C10.42211914 38.8340625 10.42211914 38.5040625 10.42211914 38.1640625 C8.77211914 38.1640625 7.12211914 38.1640625 5.42211914 38.1640625 Z M-52.57788086 66.1640625 C-56.53861772 72.22552167 -58.92873052 77.90005959 -57.57788086 85.1640625 C-55.70422405 91.79901191 -52.42163822 96.45856147 -46.57788086 100.1640625 C-41.02264372 102.83131212 -35.63006333 102.92648029 -29.57788086 102.1640625 C-23.26252085 99.75180204 -18.34018207 94.90584993 -15.46850586 88.80859375 C-13.50956678 82.99191937 -13.61847104 76.47985909 -16.14038086 70.8515625 C-19.11010573 65.74111723 -23.19520898 62.27935572 -28.51538086 59.7890625 C-37.40032414 57.97580877 -46.13277105 59.37056838 -52.57788086 66.1640625 Z M-3.57788086 66.1640625 C-7.5019434 72.16939578 -10.07548516 77.95837623 -8.57788086 85.1640625 C-6.13917959 92.53609981 -2.33684188 97.33209924 4.42211914 101.1640625 C9.90517045 102.99174627 16.35265549 103.32765003 21.81274414 101.2578125 C27.8591202 97.65768019 32.15644755 92.89151719 34.42211914 86.1640625 C35.33080485 79.09533294 34.74866403 72.96239393 30.42211914 67.1640625 C25.48788109 61.79972138 20.87696542 59.44267914 13.54711914 58.8515625 C7.05542861 59.03774865 0.91027529 61.43330332 -3.57788086 66.1640625 Z M-19.57788086 101.1640625 C-16.11288086 105.6190625 -16.11288086 105.6190625 -12.57788086 110.1640625 C-8.59751867 108.17388141 -7.91317508 107.63040255 -5.82788086 104.0390625 C-5.39991211 103.31460938 -4.97194336 102.59015625 -4.53100586 101.84375 C-4.21647461 101.28945313 -3.90194336 100.73515625 -3.57788086 100.1640625 C-6.29438818 99.40610845 -8.75791091 99.00410127 -11.57788086 98.9765625 C-12.23788086 98.96238281 -12.89788086 98.94820313 -13.57788086 98.93359375 C-16.01822144 99.09933079 -16.01822144 99.09933079 -19.57788086 101.1640625 Z M-46.01538086 124.1640625 C-48.57788086 125.1640625 -48.57788086 125.1640625 -51.57788086 125.1640625 C-49.10288086 127.1440625 -49.10288086 127.1440625 -46.57788086 129.1640625 C-44.92788086 127.1840625 -43.27788086 125.2040625 -41.57788086 123.1640625 C-43.70860046 123.03754371 -43.70860046 123.03754371 -46.01538086 124.1640625 Z M-30.57788086 123.1640625 C-28.92788086 125.1440625 -27.27788086 127.1240625 -25.57788086 129.1640625 C-22.21067699 127.77073676 -20.59192846 126.1851339 -18.57788086 123.1640625 C-19.62975586 123.5353125 -20.68163086 123.9065625 -21.76538086 124.2890625 C-25.764203 125.20682496 -27.06916302 125.07790859 -30.57788086 123.1640625 Z M-4.57788086 123.1640625 C-2.92788086 125.1440625 -1.27788086 127.1240625 0.42211914 129.1640625 C3.5832769 127.79422747 4.41482834 127.1749987 6.42211914 124.1640625 C5.53524414 124.3703125 4.64836914 124.5765625 3.73461914 124.7890625 C0.19684804 125.18956489 -1.44421053 124.73089766 -4.57788086 123.1640625 Z M19.42211914 124.1640625 C20.74211914 125.8140625 22.06211914 127.4640625 23.42211914 129.1640625 C26.5832769 127.79422747 27.41482834 127.1749987 29.42211914 124.1640625 C28.51461914 124.3496875 27.60711914 124.5353125 26.67211914 124.7265625 C23.7389759 125.12140871 22.15765344 125.11097822 19.42211914 124.1640625 Z M-41.57788086 138.1640625 C-39.59788086 140.4740625 -37.61788086 142.7840625 -35.57788086 145.1640625 C-33.92788086 143.5140625 -32.27788086 141.8640625 -30.57788086 140.1640625 C-31.56788086 140.1640625 -32.55788086 140.1640625 -33.57788086 140.1640625 C-36.3626829 139.67672214 -38.89026003 139.05993611 -41.57788086 138.1640625 Z M-17.57788086 138.1640625 C-15.59788086 140.4740625 -13.61788086 142.7840625 -11.57788086 145.1640625 C-9.92788086 143.5140625 -8.27788086 141.8640625 -6.57788086 140.1640625 C-7.56788086 140.1640625 -8.55788086 140.1640625 -9.57788086 140.1640625 C-12.3626829 139.67672214 -14.89026003 139.05993611 -17.57788086 138.1640625 Z M17.42211914 138.1640625 C16.43211914 138.8240625 15.44211914 139.4840625 14.42211914 140.1640625 C11.73461914 140.2890625 11.73461914 140.2890625 9.42211914 140.1640625 C10.41211914 141.8140625 11.40211914 143.4640625 12.42211914 145.1640625 C14.73211914 143.1840625 17.04211914 141.2040625 19.42211914 139.1640625 C18.76211914 138.8340625 18.10211914 138.5040625 17.42211914 138.1640625 Z M-20.57788086 154.1640625 C-23.26538086 154.2890625 -23.26538086 154.2890625 -25.57788086 154.1640625 C-24.91788086 155.4840625 -24.25788086 156.8040625 -23.57788086 158.1640625 C-20.62279223 158.50776455 -20.62279223 158.50776455 -19.19116211 156.8515625 C-18.7619043 156.2946875 -18.33264648 155.7378125 -17.89038086 155.1640625 C-16.74569336 153.6790625 -16.74569336 153.6790625 -15.57788086 152.1640625 C-17.90145597 151.97916243 -17.90145597 151.97916243 -20.57788086 154.1640625 Z M2.42211914 154.1640625 C-0.26538086 154.2890625 -0.26538086 154.2890625 -2.57788086 154.1640625 C-1.91788086 155.4840625 -1.25788086 156.8040625 -0.57788086 158.1640625 C2.37720777 158.50776455 2.37720777 158.50776455 3.80883789 156.8515625 C4.2380957 156.2946875 4.66735352 155.7378125 5.10961914 155.1640625 C6.25430664 153.6790625 6.25430664 153.6790625 7.42211914 152.1640625 C5.09854403 151.97916243 5.09854403 151.97916243 2.42211914 154.1640625 Z " fill="#1D73BA" transform="translate(261.577880859375,165.8359375)"/>
<path d="M0 0 C0.72767578 0.36996094 1.45535156 0.73992187 2.20507812 1.12109375 C16.77344454 8.6331001 29.09444545 17.71806973 41 29 C41.89460938 29.84175781 42.78921875 30.68351562 43.7109375 31.55078125 C72.0004818 58.9290377 89.1989816 98.46251599 90.203125 137.828125 C90.55309704 166.31540615 85.82232977 192.40269902 73 218 C72.66129883 218.67869141 72.32259766 219.35738281 71.97363281 220.05664062 C52.65052554 258.04223611 18.30928554 285.54984391 -21.83740234 298.88037109 C-63.7164025 312.09466145 -108.76095377 307.26047323 -147.5625 287.25 C-159.96652425 280.67769072 -170.87366497 272.74904982 -181 263 C-181.53093262 262.50016602 -182.06186523 262.00033203 -182.60888672 261.48535156 C-196.20998124 248.64775995 -206.42006272 234.59229784 -215 218 C-215.31952637 217.38688965 -215.63905273 216.7737793 -215.96826172 216.14208984 C-235.0811497 178.94539254 -236.96976543 134.56204068 -224.6640625 94.94140625 C-222.29701026 87.71029921 -219.35622405 80.82225596 -216 74 C-215.69336426 73.36900391 -215.38672852 72.73800781 -215.07080078 72.08789062 C-207.90318208 57.50741588 -198.71356853 45.11363404 -187.41992188 33.47119141 C-186.12189974 32.12630121 -184.8486296 30.7576342 -183.578125 29.38671875 C-137.91679598 -18.64961228 -58.29522669 -29.81467315 0 0 Z M-119.10839844 -3.69140625 C-121.06635025 -2.97574808 -123.0352838 -2.29933622 -125.0078125 -1.625 C-147.86776443 6.3611176 -167.00839865 19.88133014 -184 37 C-184.48581543 37.48855469 -184.97163086 37.97710937 -185.47216797 38.48046875 C-213.99031873 67.55859749 -227.60859826 108.17471141 -227.35375977 148.34838867 C-226.52019802 188.5403038 -210.39541251 224.93831911 -183 254 C-182.35160156 254.71285156 -181.70320313 255.42570312 -181.03515625 256.16015625 C-159.00496832 279.45887707 -129.06081483 292.94064331 -98 299 C-97.08009277 299.18546387 -96.16018555 299.37092773 -95.21240234 299.56201172 C-69.48349162 304.3538557 -42.42930616 300.99512124 -18 292 C-16.97447021 291.62319092 -16.97447021 291.62319092 -15.92822266 291.23876953 C5.85755945 283.0734764 23.23316939 270.9163392 40 255 C40.68320312 254.39285156 41.36640625 253.78570312 42.0703125 253.16015625 C68.25402056 229.00322058 83.54290768 189.33217348 85.12109375 154.31298828 C86.6209392 109.73008232 72.26062281 69.95278634 42.04296875 37.16796875 C41.03169922 36.09482422 41.03169922 36.09482422 40 35 C39.41863281 34.37738281 38.83726562 33.75476563 38.23828125 33.11328125 C10.9937988 4.85268757 -29.09506753 -10.38713917 -67.86010742 -11.28540039 C-85.29141963 -11.45625034 -102.67226561 -9.71196772 -119.10839844 -3.69140625 Z " fill="#2670AD" transform="translate(321,105)"/>
<path d="M0 0 C1.9480957 -0.02416992 1.9480957 -0.02416992 3.93554688 -0.04882812 C34.64193376 -0.06409734 62.652505 13.36634191 84.375 34.5625 C107.14421674 57.69028708 116.96704674 87.25722127 117.00439453 119.26635742 C116.67717743 150.60850411 103.59065146 179.02781077 81.43286133 200.99145508 C72.7002202 209.31109398 62.52468128 216.05901877 51.6875 221.3125 C50.63304687 221.82554687 49.57859375 222.33859375 48.4921875 222.8671875 C22.19134391 234.90925939 -10.12463673 236.44775569 -37.44921875 226.921875 C-41.14534014 225.54605055 -44.72955252 223.96139971 -48.3125 222.3125 C-49.88064453 221.61833984 -49.88064453 221.61833984 -51.48046875 220.91015625 C-63.25774722 215.41003008 -72.89750057 207.14938543 -82.3125 198.3125 C-83.19808594 197.54099609 -83.19808594 197.54099609 -84.1015625 196.75390625 C-102.61543685 179.86328628 -114.09127342 151.69688824 -115.49707031 127.08056641 C-116.69839991 95.56511039 -110.17873998 64.20201527 -88.1484375 40.296875 C-87.20350184 39.30172537 -86.25818795 38.30693475 -85.3125 37.3125 C-84.36701902 36.27619535 -83.42170772 35.23973588 -82.4765625 34.203125 C-61.06762419 11.26394321 -30.94303476 -0.07610191 0 0 Z M-80.78125 39.7109375 C-100.35552917 60.45691648 -110.7600989 87.68980016 -110.625 116.0625 C-110.61936035 117.30169189 -110.6137207 118.54088379 -110.60791016 119.81762695 C-110.49010674 128.69778865 -109.88774656 136.76736369 -107.3125 145.3125 C-107.11914062 145.97185547 -106.92578125 146.63121094 -106.7265625 147.31054688 C-102.13882901 162.6171515 -94.88071931 176.28446829 -84.3125 188.3125 C-83.64992187 189.11816406 -82.98734375 189.92382812 -82.3046875 190.75390625 C-63.56024147 212.85298561 -36.14955061 225.18088157 -7.66137695 227.88232422 C7.05614294 228.99086581 21.78465964 227.34520239 35.6875 222.3125 C36.35201172 222.07402344 37.01652344 221.83554687 37.70117188 221.58984375 C66.35680746 211.1169852 88.93181074 190.63565246 102.21484375 163.15234375 C108.79741276 147.96641706 112.07867085 133.08450177 112 116.5625 C111.99154053 114.70371216 111.99154053 114.70371216 111.98291016 112.80737305 C111.86510674 103.92721135 111.26274656 95.85763631 108.6875 87.3125 C108.49414062 86.65314453 108.30078125 85.99378906 108.1015625 85.31445312 C103.51382901 70.0078485 96.25571931 56.34053171 85.6875 44.3125 C85.02492188 43.50683594 84.36234375 42.70117188 83.6796875 41.87109375 C64.82352978 19.64031002 36.80545902 7.03191231 8.0625 4.5 C-26.13840155 2.51977116 -56.53353919 16.15382605 -80.78125 39.7109375 Z " fill="#2771AC" transform="translate(249.3125,133.6875)"/>
<path d="M0 0 C0.61549713 0.19507141 1.23099426 0.39014282 1.86514282 0.59112549 C3.87561044 1.23090317 5.88116435 1.88480918 7.88696289 2.5390625 C9.28915093 2.9883512 10.69162679 3.43674255 12.09437561 3.88427734 C15.76822738 5.05902475 19.43806504 6.24584972 23.10717773 7.43530273 C26.85888143 8.64913707 30.61428434 9.85141137 34.36938477 11.0546875 C41.72394812 13.41323286 49.07430593 15.7845602 56.42211914 18.1640625 C55.42211914 21.1640625 55.42211914 21.1640625 52.84594727 22.5234375 C51.72639648 22.98234375 50.6068457 23.44125 49.45336914 23.9140625 C48.22983497 24.44459446 47.00720447 24.97721448 45.78540039 25.51171875 C43.85718421 26.34412344 41.9271989 27.16202218 39.97827148 27.94482422 C35.82189547 29.62915568 31.95220604 31.33999298 28.42211914 34.1640625 C27.0254886 37.94980095 26.95046826 41.18203297 27.42211914 45.1640625 C22.78092677 44.06758547 18.50940427 42.22303624 14.10180664 40.41796875 C4.64592414 37.19574127 -4.25857714 36.90592558 -14.20288086 37.0390625 C-15.49323242 37.04808594 -16.78358398 37.05710938 -18.11303711 37.06640625 C-21.26818335 37.0897777 -24.42293011 37.12254159 -27.57788086 37.1640625 C-28.07288086 38.1540625 -28.07288086 38.1540625 -28.57788086 39.1640625 C-30.29272461 39.62109375 -30.29272461 39.62109375 -32.51538086 39.9765625 C-37.30071187 40.91831564 -41.15825191 42.80344089 -45.41381836 45.140625 C-47.57788086 46.1640625 -47.57788086 46.1640625 -50.57788086 46.1640625 C-50.57788086 41.8740625 -50.57788086 37.5840625 -50.57788086 33.1640625 C-52.55788086 32.5453125 -52.55788086 32.5453125 -54.57788086 31.9140625 C-59.1654637 30.48044286 -63.32092132 28.3638437 -67.57788086 26.1640625 C-67.51729492 26.71755371 -67.45670898 27.27104492 -67.39428711 27.84130859 C-67.11666261 30.40666572 -66.84724476 32.97282536 -66.57788086 35.5390625 C-66.48249023 36.40917969 -66.38709961 37.27929688 -66.28881836 38.17578125 C-65.66466971 44.19435753 -65.4606418 50.11485262 -65.57788086 56.1640625 C-67.55788086 56.1640625 -69.53788086 56.1640625 -71.57788086 56.1640625 C-70.91788086 45.9340625 -70.25788086 35.7040625 -69.57788086 25.1640625 C-72.87788086 23.5140625 -76.17788086 21.8640625 -79.57788086 20.1640625 C-78.57788086 18.1640625 -78.57788086 18.1640625 -76.03707886 17.16427612 C-74.90569489 16.81341949 -73.77431091 16.46256287 -72.60864258 16.10107422 C-71.98575851 15.90571075 -71.36287445 15.71034729 -70.72111511 15.50906372 C-68.65231155 14.86267479 -66.58017769 14.22782112 -64.50756836 13.59375 C-63.06832962 13.14859555 -61.62921376 12.70304363 -60.19021606 12.2571106 C-57.16703352 11.32231459 -54.14212618 10.39337362 -51.1159668 9.46826172 C-47.24878487 8.28538761 -43.38669382 7.08678303 -39.52583122 5.88346672 C-36.55101459 4.95852612 -33.57340373 4.04285956 -30.59491348 3.12982559 C-29.17072013 2.69188732 -27.74745059 2.25093251 -26.32516098 1.80685043 C-24.32738435 1.18444786 -22.32610836 0.57486408 -20.32348633 -0.03173828 C-19.1873288 -0.38100372 -18.05117126 -0.73026917 -16.88058472 -1.09011841 C-10.77499742 -2.46888677 -5.90894026 -1.90227453 0 0 Z " fill="#020102" transform="translate(261.577880859375,165.8359375)"/>
<path d="M0 0 C-0.01160156 0.89203125 -0.02320313 1.7840625 -0.03515625 2.703125 C-0.04417969 3.87359375 -0.05320312 5.0440625 -0.0625 6.25 C-0.07410156 7.41015625 -0.08570313 8.5703125 -0.09765625 9.765625 C-0.01782092 12.40977128 0.21356222 14.49826091 1 17 C1.66 17 2.32 17 3 17 C2 20 2 20 0.1875 21.1875 C-2 22 -2 22 -6 22 C-5.9071875 21.25363281 -5.814375 20.50726563 -5.71875 19.73828125 C-5.72777679 16.86090964 -5.72777679 16.86090964 -7.96875 14.98046875 C-8.8040625 14.38878906 -9.639375 13.79710937 -10.5 13.1875 C-11.3353125 12.58292969 -12.170625 11.97835938 -13.03125 11.35546875 C-13.6809375 10.90816406 -14.330625 10.46085937 -15 10 C-15 10.99 -15 11.98 -15 13 C-17.31 12.67 -19.62 12.34 -22 12 C-21.65213292 13.97536745 -21.65213292 13.97536745 -21 16 C-20.34 16.33 -19.68 16.66 -19 17 C-18.67 16.01 -18.34 15.02 -18 14 C-16.62437146 15.28965176 -15.29233607 16.62689293 -14 18 C-14 18.66 -14 19.32 -14 20 C-15.98 20 -17.96 20 -20 20 C-19.67 21.65 -19.34 23.3 -19 25 C-18.01 25 -17.02 25 -16 25 C-16.33 25.99 -16.66 26.98 -17 28 C-18.84765625 28.73046875 -18.84765625 28.73046875 -21.0625 29.1875 C-21.79597656 29.34605469 -22.52945312 29.50460937 -23.28515625 29.66796875 C-23.85105469 29.77753906 -24.41695313 29.88710938 -25 30 C-26 28 -26 28 -26.4375 24.75 C-26.96065356 21.26230958 -27.67878741 18.26417229 -29 15 C-29.66 14.67 -30.32 14.34 -31 14 C-31 13.01 -31 12.02 -31 11 C-29.83082031 10.59007812 -28.66164063 10.18015625 -27.45703125 9.7578125 C-25.90883441 9.21359785 -24.36065843 8.6693239 -22.8125 8.125 C-22.04357422 7.85558594 -21.27464844 7.58617187 -20.48242188 7.30859375 C-16.62038452 5.94942181 -12.78575768 4.56285788 -9 3 C-8.896875 3.61875 -8.79375 4.2375 -8.6875 4.875 C-8.12474627 7.36526484 -8.12474627 7.36526484 -5 9 C-4.67 7.35 -4.34 5.7 -4 4 C-4.66 4 -5.32 4 -6 4 C-6 3.01 -6 2.02 -6 1 C-4 0 -4 0 0 0 Z " fill="#2770AB" transform="translate(315,359)"/>
<path d="M0 0 C0.07347656 0.97839844 0.07347656 0.97839844 0.1484375 1.9765625 C0.57307005 6.94037064 1.17417706 11.32132871 3 16 C3.495 17.485 3.495 17.485 4 19 C0.52674819 20.1577506 -2.36067448 20.06866652 -6 20 C-5.81566406 19.46890625 -5.63132812 18.9378125 -5.44140625 18.390625 C-4.86972091 15.29441769 -5.36677646 12.83862151 -5.9375 9.75 C-6.13214844 8.67234375 -6.32679688 7.5946875 -6.52734375 6.484375 C-6.68332031 5.66453125 -6.83929688 4.8446875 -7 4 C-7.99 4.33 -8.98 4.66 -10 5 C-9.9278125 5.89203125 -9.855625 6.7840625 -9.78125 7.703125 C-9.6884375 8.87359375 -9.595625 10.0440625 -9.5 11.25 C-9.4071875 12.41015625 -9.314375 13.5703125 -9.21875 14.765625 C-9.05595356 17.17268658 -9 19.58743951 -9 22 C-11.5625 22.5 -11.5625 22.5 -15 22 C-17.65876127 19.58004962 -19.83803429 16.86556402 -22 14 C-22 15.98 -22 17.96 -22 20 C-21.34 20 -20.68 20 -20 20 C-20 20.99 -20 21.98 -20 23 C-22.31 23 -24.62 23 -27 23 C-26.814375 22.01 -26.62875 21.02 -26.4375 20 C-25.65491175 14.48834278 -25.97994968 8.83208052 -29 4 C-26.21409835 3.53568306 -24.68968705 3.31626647 -22 4 C-18.99851833 6.38030546 -16.49292384 9.09914316 -14 12 C-14.66 9.03 -15.32 6.06 -16 3 C-14.948125 2.87625 -13.89625 2.7525 -12.8125 2.625 C-8.18396006 1.86622296 -4.71241451 0 0 0 Z " fill="#2372B3" transform="translate(283,371)"/>
<path d="M0 0 C3.90407022 1.66130648 5.40671263 3.14039871 7 7 C7.78719533 11.22159621 8.10206005 15.25047966 5.75 18.984375 C2.62071218 22.02673815 -0.19595098 23.39886371 -4.5625 23.6875 C-9.44039884 23.36230674 -11.68499001 21.48076049 -15 18 C-16.74221711 14.51556578 -16.58675154 10.80112955 -16 7 C-12.16381515 0.07196467 -7.33233785 -0.71039951 0 0 Z M-9 11 C-11.2491908 12.82703227 -11.2491908 12.82703227 -11.25 15.5 C-11.2491908 18.17296773 -11.2491908 18.17296773 -9 20 C-6.5 20.33333333 -6.5 20.33333333 -4 20 C-3.34 19.34 -2.68 18.68 -2 18 C-2.32198966 14.90073181 -2.32198966 14.90073181 -3 12 C-5.90073181 11.32198966 -5.90073181 11.32198966 -9 11 Z " fill="#030203" transform="translate(279,235)"/>
<path d="M0 0 C3.90371556 1.66115556 5.39930166 3.14440488 7 7 C7.65528607 10.79376145 7.86351149 14.4527415 5.94921875 17.8828125 C3.6398404 20.70311526 1.72062589 22.75911238 -1.953125 23.2734375 C-6.24672199 23.46329043 -9.09582964 23.4342668 -12.5 20.625 C-16.13542732 16.80780131 -16.39236502 14.44157848 -16.359375 9.328125 C-15.75455722 5.40995764 -13.83123243 3.69641184 -11 1 C-7.5507568 -0.7246216 -3.77868569 -0.36610104 0 0 Z M-5.8125 12.1875 C-7.27508617 14.00808993 -7.27508617 14.00808993 -6.75 16.625 C-6.22254355 18.9312407 -6.22254355 18.9312407 -5 20 C-2.04195427 20.33340471 -2.04195427 20.33340471 1 20 C3.264384 17.30844799 3.264384 17.30844799 2.75 14.9375 C2.07467282 12.80523025 2.07467282 12.80523025 0 11 C-3.80350374 10.63464916 -3.80350374 10.63464916 -5.8125 12.1875 Z " fill="#040203" transform="translate(230,235)"/>
<path d="M0 0 C1.91731918 0.11455681 3.8338675 0.24206258 5.75 0.375 C6.81734375 0.44460938 7.8846875 0.51421875 8.984375 0.5859375 C11.82762031 0.97633129 13.61137097 1.44850731 16 3 C17.63482597 6.26965194 17.36749111 9.71378112 16.375 13.1875 C16.25125 13.785625 16.1275 14.38375 16 15 C16.99 16.485 16.99 16.485 18 18 C18 18.99 18 19.98 18 21 C15.36 20.67 12.72 20.34 10 20 C9.67 18.02 9.34 16.04 9 14 C8.01 14 7.02 14 6 14 C6.66 15.98 7.32 17.96 8 20 C5.03 20 2.06 20 -1 20 C-1 16.51971731 -0.50549355 13.25617483 0 9.8125 C0.185625 8.54019531 0.37125 7.26789063 0.5625 5.95703125 C0.706875 4.98121094 0.85125 4.00539063 1 3 C0.34 3 -0.32 3 -1 3 C-0.67 2.01 -0.34 1.02 0 0 Z M7 4 C7 6.31 7 8.62 7 11 C8.32 10.67 9.64 10.34 11 10 C11 8.35 11 6.7 11 5 C9.68 4.67 8.36 4.34 7 4 Z " fill="#2371AF" transform="translate(236,374)"/>
<path d="M0 0 C5.45479185 0.56820748 9.91059256 1.94637945 15 4 C14.67 5.98 14.34 7.96 14 10 C13.01 9.67 12.02 9.34 11 9 C10.67 8.01 10.34 7.02 10 6 C9.01 6 8.02 6 7 6 C6.67 6.99 6.34 7.98 6 9 C7.65 9.33 9.3 9.66 11 10 C10.67 11.98 10.34 13.96 10 16 C10.66 16 11.32 16 12 16 C11.75 18.375 11.75 18.375 11 21 C9.34375 22.3125 9.34375 22.3125 7 23 C3.984375 22.1015625 3.984375 22.1015625 0.75 20.625 C-0.32765625 20.14289063 -1.4053125 19.66078125 -2.515625 19.1640625 C-3.74539062 18.58785156 -3.74539062 18.58785156 -5 18 C-5 17.34 -5 16.68 -5 16 C-4.34 16 -3.68 16 -3 16 C-2.87625 15.360625 -2.7525 14.72125 -2.625 14.0625 C-1.937031 10.69145189 -1.17430532 7.34096106 -0.40234375 3.98828125 C0.0661125 2.01138565 0.0661125 2.01138565 0 0 Z M4 12 C3.67 13.98 3.34 15.96 3 18 C4.83700789 18.77242269 4.83700789 18.77242269 7 19 C8.77190909 17.64555699 8.77190909 17.64555699 10 16 C7.28996707 13.32668287 7.28996707 13.32668287 4 12 Z " fill="#2072B4" transform="translate(201,366)"/>
<path d="M0 0 C3.3 0.33 6.6 0.66 10 1 C10 1.99 10 2.98 10 4 C10.12930296 5.33893906 10.2768337 6.67618013 10.4375 8.01171875 C10.52773437 8.76904297 10.61796875 9.52636719 10.7109375 10.30664062 C10.80632812 11.09232422 10.90171875 11.87800781 11 12.6875 C11.09539062 13.48478516 11.19078125 14.28207031 11.2890625 15.10351562 C11.52447366 17.06919884 11.76203026 19.0346249 12 21 C9.03 20.67 6.06 20.34 3 20 C3.33 18.35 3.66 16.7 4 15 C2.35 14.67 0.7 14.34 -1 14 C-1 15.65 -1 17.3 -1 19 C-2.98 18.67 -4.96 18.34 -7 18 C-7 17.01 -7 16.02 -7 15 C-6.34 15 -5.68 15 -5 15 C-4.731875 14.29875 -4.46375 13.5975 -4.1875 12.875 C-3 10 -3 10 -1.375 6.9375 C0.28262674 3.9367703 0.28262674 3.9367703 0 0 Z M3 5 C2.34 6.98 1.68 8.96 1 11 C1.99 11 2.98 11 4 11 C4 9.02 4 7.04 4 5 C3.67 5 3.34 5 3 5 Z " fill="#256EAC" transform="translate(220,372)"/>
<path d="M0 0 C0.66 0 1.32 0 2 0 C2.66 2.31 3.32 4.62 4 7 C6.31 7 8.62 7 11 7 C10.1875 8.9375 10.1875 8.9375 9 11 C8.01 11.33 7.02 11.66 6 12 C6.66 14.64 7.32 17.28 8 20 C5.84789964 19.46197491 3.6975351 18.91468939 1.5625 18.3125 C-1.52682539 17.935753 -3.23486261 18.65693327 -6 20 C-5.5978125 18.4221875 -5.5978125 18.4221875 -5.1875 16.8125 C-4.5625 12.85416667 -4.5625 12.85416667 -7.4375 10.0625 C-8.283125 9.381875 -9.12875 8.70125 -10 8 C-9 7 -9 7 -5.4375 6.9375 C-4.303125 6.958125 -3.16875 6.97875 -2 7 C-1.855625 6.21625 -1.71125 5.4325 -1.5625 4.625 C-1 2 -1 2 0 0 Z " fill="#F1AB1B" transform="translate(114,252)"/>
<path d="M0 0 C0.66 0 1.32 0 2 0 C3.4606285 2.64738916 4 3.89448334 4 7 C6.31 7 8.62 7 11 7 C10.6875 8.875 10.6875 8.875 10 11 C9.01 11.66 8.02 12.32 7 13 C7.33 15.31 7.66 17.62 8 20 C6.9171875 19.4740625 6.9171875 19.4740625 5.8125 18.9375 C2.61723066 17.87241022 1.19318629 18.09935771 -2 19 C-3.32 19.33 -4.64 19.66 -6 20 C-5.34 17.36 -4.68 14.72 -4 12 C-4.639375 11.731875 -5.27875 11.46375 -5.9375 11.1875 C-8 10 -8 10 -9 7 C-6.69 7 -4.38 7 -2 7 C-1.34 4.69 -0.68 2.38 0 0 Z " fill="#E8A72B" transform="translate(384,252)"/>
<path d="M0 0 C1.41678795 0.00424484 1.41678795 0.00424484 2.86219788 0.00857544 C5.85748349 0.01970566 8.85246211 0.0447969 11.84765625 0.0703125 C13.88736545 0.08035155 15.92707937 0.08947578 17.96679688 0.09765625 C22.94803365 0.11962154 27.92904303 0.15410174 32.91015625 0.1953125 C32.91015625 0.8553125 32.91015625 1.5153125 32.91015625 2.1953125 C34.89583333 2.13020833 36.88151042 2.06510417 38.8671875 2 C40.91015625 2.1953125 40.91015625 2.1953125 43.91015625 4.1953125 C23.12015625 4.1953125 2.33015625 4.1953125 -19.08984375 4.1953125 C-14.12209457 -0.77243668 -6.553108 -0.07479176 0 0 Z " fill="#1F73B5" transform="translate(239.08984375,90.8046875)"/>
<path d="M0 0 C4.31392226 0.4793247 6.16569547 1.7457985 9 5 C8.13375 5.7115625 8.13375 5.7115625 7.25 6.4375 C4.20326654 9.90739088 2.70847299 13.74699277 1 18 C4.96 17.505 4.96 17.505 9 17 C8.42655063 19.86724686 8.1385485 20.8614515 6 23 C2.22254703 22.65082368 -0.5638478 21.32850651 -3.8125 19.4375 C-4.60269531 18.98246094 -5.39289063 18.52742188 -6.20703125 18.05859375 C-6.79871094 17.70925781 -7.39039063 17.35992187 -8 17 C-8 16.34 -8 15.68 -8 15 C-7.01 15 -6.02 15 -5 15 C-4.731875 14.195625 -4.46375 13.39125 -4.1875 12.5625 C-2.79166667 8.375 -1.39583333 4.1875 0 0 Z " fill="#2670AB" transform="translate(187,359)"/>
<path d="M0 0 C1.32 0 2.64 0 4 0 C3.42655063 2.86724686 3.1385485 3.8614515 1 6 C0.60235737 7.98821313 0.26224651 9.98944339 0 12 C0.99 11.67 1.98 11.34 3 11 C3.33 10.34 3.66 9.68 4 9 C5.65 9 7.3 9 9 9 C5.40831545 13.40797649 0.31011032 16.13635551 -5 18 C-7.3125 17.63671875 -7.3125 17.63671875 -9 17 C-8.01 16.01 -7.02 15.02 -6 14 C-6.66 13.01 -7.32 12.02 -8 11 C-9.56462585 4.1292517 -9.56462585 4.1292517 -8 1 C-6.865625 1.020625 -5.73125 1.04125 -4.5625 1.0625 C-1.18424326 1.41577477 -1.18424326 1.41577477 0 0 Z M-2 3 C-4.6875 3.125 -4.6875 3.125 -7 3 C-6.34 4.32 -5.68 5.64 -5 7 C-2.04491137 7.34370205 -2.04491137 7.34370205 -0.61328125 5.6875 C-0.18402344 5.130625 0.24523437 4.57375 0.6875 4 C1.8321875 2.515 1.8321875 2.515 3 1 C0.67642489 0.81509993 0.67642489 0.81509993 -2 3 Z " fill="#2772B0" transform="translate(266,317)"/>
<path d="M0 0 C0.33 0.99 0.66 1.98 1 3 C2.79932579 4.06716704 2.79932579 4.06716704 5 5 C6.67334039 5.98879205 8.34151823 6.98648336 10 8 C9.34 9.32 8.68 10.64 8 12 C7.34 12 6.68 12 6 12 C5.34 11.34 4.68 10.68 4 10 C4.33 11.65 4.66 13.3 5 15 C2.69 14.67 0.38 14.34 -2 14 C0.475 14.99 0.475 14.99 3 16 C2.34 17.32 1.68 18.64 1 20 C0.34 20 -0.32 20 -1 20 C-1.433125 19.2575 -1.86625 18.515 -2.3125 17.75 C-4.16677714 14.72821504 -6.15621943 13.07519122 -9 11 C-8.67 10.34 -8.34 9.68 -8 9 C-5.03 9.33 -2.06 9.66 1 10 C0.46375 8.906875 -0.0725 7.81375 -0.625 6.6875 C-1.07875 5.470625 -1.5325 4.25375 -2 3 C-1.34 2.01 -0.68 1.02 0 0 Z " fill="#0C0B0C" transform="translate(148,149)"/>
<path d="M0 0 C-0.99 0.33 -1.98 0.66 -3 1 C-3 1.66 -3 2.32 -3 3 C-1.700625 2.855625 -0.40125 2.71125 0.9375 2.5625 C1.66839844 2.48128906 2.39929688 2.40007812 3.15234375 2.31640625 C5.01140229 2.18113386 5.01140229 2.18113386 6 1 C7.51928038 0.92820036 9.04167482 0.91607993 10.5625 0.9375 C11.38878906 0.94652344 12.21507812 0.95554687 13.06640625 0.96484375 C13.70449219 0.97644531 14.34257812 0.98804688 15 1 C11.34706037 3.16366424 7.49748062 3.82883819 3.375 4.5625 C2.71371094 4.68818359 2.05242187 4.81386719 1.37109375 4.94335938 C-8.23681555 6.70450206 -17.7430073 7.18152145 -27.5 7.1875 C-29.12421875 7.20586914 -29.12421875 7.20586914 -30.78125 7.22460938 C-31.8125 7.22654297 -32.84375 7.22847656 -33.90625 7.23046875 C-34.83759766 7.23457764 -35.76894531 7.23868652 -36.72851562 7.24291992 C-39 7 -39 7 -41 5 C-29.45 5 -17.9 5 -6 5 C-6 4.34 -6 3.68 -6 3 C-7.32 2.67 -8.64 2.34 -10 2 C-6.5980513 -0.09350689 -3.94727588 -0.17942163 0 0 Z " fill="#286CA5" transform="translate(277,404)"/>
<path d="M0 0 C0.66 0 1.32 0 2 0 C2.34197019 3.12411592 2.67192253 6.24939708 3 9.375 C3.09539062 10.24511719 3.19078125 11.11523438 3.2890625 12.01171875 C3.91321115 18.03029503 4.11723906 23.95079012 4 30 C2.02 30 0.04 30 -2 30 C-1.34 20.1 -0.68 10.2 0 0 Z " fill="#F09E17" transform="translate(192,192)"/>
<path d="M0 0 C2.00730575 0.01073165 4.01371703 0.00003067 6.02099609 -0.01269531 C14.04954321 0.00315572 21.64306641 0.63949026 29.50927734 2.26074219 C29.50927734 2.59074219 29.50927734 2.92074219 29.50927734 3.26074219 C26.20927734 3.26074219 22.90927734 3.26074219 19.50927734 3.26074219 C19.50927734 3.92074219 19.50927734 4.58074219 19.50927734 5.26074219 C18.51927734 4.93074219 17.52927734 4.60074219 16.50927734 4.26074219 C16.01427734 3.27074219 16.01427734 3.27074219 15.50927734 2.26074219 C11.23850342 2.20190987 6.96783595 2.16686911 2.69677734 2.13574219 C1.50117188 2.11898437 0.30556641 2.10222656 -0.92626953 2.08496094 C-13.78563877 1.79565294 -13.78563877 1.79565294 -25.49072266 6.26074219 C-27.42523589 6.49026071 -29.36044906 6.71602856 -31.29931641 6.90527344 C-33.63334969 7.28387777 -35.5589987 7.98450668 -37.74072266 8.88574219 C-41.43984046 10.24208538 -42.04190603 10.40526098 -45.49072266 9.26074219 C-42.41353613 8.11843941 -39.32803426 7.00035899 -36.24072266 5.88574219 C-35.38736328 5.56863281 -34.53400391 5.25152344 -33.65478516 4.92480469 C-22.51202152 0.93336697 -11.79973457 -0.07480934 0 0 Z " fill="#2E70A5" transform="translate(247.49072265625,133.7392578125)"/>
<path d="M0 0 C0.99 0 1.98 0 3 0 C3 0.66 3 1.32 3 2 C3.66 2 4.32 2 5 2 C6.625 3.5 6.625 3.5 8 5 C8.33 4.01 8.66 3.02 9 2 C9.66 2.33 10.32 2.66 11 3 C11 2.34 11 1.68 11 1 C11.66 1 12.32 1 13 1 C13.99 4.3 14.98 7.6 16 11 C18.475 11.495 18.475 11.495 21 12 C22.33542939 12.32483418 23.66961551 12.6550855 25 13 C21.75846834 15.1610211 20.76307099 15.64247553 17 15 C13.44611167 11.64354991 12.44770229 8.81279961 12 4 C11.44570313 4.49371094 10.89140625 4.98742187 10.3203125 5.49609375 C9.23363281 6.45708984 9.23363281 6.45708984 8.125 7.4375 C7.40570313 8.07558594 6.68640625 8.71367187 5.9453125 9.37109375 C4 11 4 11 2 12 C0.875 6.25 0.875 6.25 2 4 C1.01 4 0.02 4 -1 4 C-0.67 2.68 -0.34 1.36 0 0 Z " fill="#2473B3" transform="translate(273,314)"/>
<path d="M0 0 C1.78069592 1.78069592 1 4.59661951 1 7 C1.66868314 10.11332248 1.66868314 10.11332248 4.0625 11.1875 C4.701875 11.455625 5.34125 11.72375 6 12 C3.75 12.75 3.75 12.75 1 13 C-1.3125 11.0625 -1.3125 11.0625 -3 9 C-2.67 10.32 -2.34 11.64 -2 13 C-3.98 13 -5.96 13 -8 13 C-7.67 12.34 -7.34 11.68 -7 11 C-7.0870204 9.28766312 -7.24097162 7.57824594 -7.4375 5.875 C-7.53933594 4.96492188 -7.64117187 4.05484375 -7.74609375 3.1171875 C-7.82988281 2.41851562 -7.91367188 1.71984375 -8 1 C-5.26752652 -0.36623674 -3.01801098 -0.128426 0 0 Z M-4 2 C-4 3.32 -4 4.64 -4 6 C-3.34 6 -2.68 6 -2 6 C-2 4.68 -2 3.36 -2 2 C-2.66 2 -3.32 2 -4 2 Z " fill="#0C0A0B" transform="translate(244,107)"/>
<path d="M0 0 C3.16115776 1.36983503 3.9927092 1.9890638 6 5 C5.625 7.1875 5.625 7.1875 5 9 C3.68 9 2.36 9 1 9 C1 11.64 1 14.28 1 17 C-0.32 16.34 -1.64 15.68 -3 15 C-2.67 12.69 -2.34 10.38 -2 8 C-2.99 9.32 -3.98 10.64 -5 12 C-6.5 10.625 -6.5 10.625 -8 9 C-8 8.34 -8 7.68 -8 7 C-6.50390625 5.78125 -6.50390625 5.78125 -4.5625 4.5 C-1.77468153 2.7134637 -1.77468153 2.7134637 0 0 Z M2 4 C1.01 5.485 1.01 5.485 0 7 C0.99 6.67 1.98 6.34 3 6 C2.67 5.34 2.34 4.68 2 4 Z " fill="#0D0F12" transform="translate(352,152)"/>
<path d="M0 0 C0.33 0 0.66 0 1 0 C0.67 3.3 0.34 6.6 0 10 C-0.66 10 -1.32 10 -2 10 C-1.95875 10.845625 -1.9175 11.69125 -1.875 12.5625 C-2.01535028 16.42213269 -2.82780164 19.33688013 -4 23 C-3.34 23 -2.68 23 -2 23 C-1.814375 21.329375 -1.814375 21.329375 -1.625 19.625 C-1 16 -1 16 1 14 C-0.33333333 21.33333333 -1.66666667 28.66666667 -3 36 C-3.33 36 -3.66 36 -4 36 C-4 33.36 -4 30.72 -4 28 C-4.66 28 -5.32 28 -6 28 C-6.33 30.31 -6.66 32.62 -7 35 C-7.33 35 -7.66 35 -8 35 C-7.94388848 23.02018942 -3.75579125 11.26737374 0 0 Z " fill="#2C6FA5" transform="translate(99,192)"/>
<path d="M0 0 C1.33332095 2.6666419 0.67102033 4.16680303 0 7 C2.64 7.66 5.28 8.32 8 9 C7.67 9.99 7.34 10.98 7 12 C4.69 12 2.38 12 0 12 C0.99 12.66 1.98 13.32 3 14 C0.525 15.485 0.525 15.485 -2 17 C-2.94401042 15.2421875 -3.88802083 13.484375 -4.83203125 11.7265625 C-6.04763493 9.69497635 -6.04763493 9.69497635 -9 8 C-9 7.34 -9 6.68 -9 6 C-7.03125 4.4921875 -7.03125 4.4921875 -4.5 2.875 C-3.6646875 2.33617187 -2.829375 1.79734375 -1.96875 1.2421875 C-1.3190625 0.83226562 -0.669375 0.42234375 0 0 Z M-4 4 C-4 4.99 -4 5.98 -4 7 C-3.34 6.67 -2.68 6.34 -2 6 C-2 5.34 -2 4.68 -2 4 C-2.66 4 -3.32 4 -4 4 Z " fill="#0C0C0D" transform="translate(173,129)"/>
<path d="M0 0 C-1 1 -1 1 -4.5625 1.0625 C-5.696875 1.041875 -6.83125 1.02125 -8 1 C-8 1.66 -8 2.32 -8 3 C-4.37 3 -0.74 3 3 3 C3 3.33 3 3.66 3 4 C-4.09705662 5.34495828 -10.7725395 6.24091535 -18 6 C-18 5.67 -18 5.34 -18 5 C-16.35 4.67 -14.7 4.34 -13 4 C-19.27 3.67 -25.54 3.34 -32 3 C-32.33 2.34 -32.66 1.68 -33 1 C-32.10861328 1.01848999 -32.10861328 1.01848999 -31.19921875 1.03735352 C-23.76752572 1.12331497 -16.53083514 0.43781856 -9.15234375 -0.37695312 C-7.80849609 -0.51713867 -7.80849609 -0.51713867 -6.4375 -0.66015625 C-5.63183594 -0.74918213 -4.82617188 -0.83820801 -3.99609375 -0.92993164 C-2 -1 -2 -1 0 0 Z " fill="#2B70A6" transform="translate(273,360)"/>
<path d="M0 0 C0.98967773 -0.00080566 1.97935547 -0.00161133 2.99902344 -0.00244141 C9.21763619 0.04455852 15.32519695 0.45284723 21.5 1.1875 C21.5 1.5175 21.5 1.8475 21.5 2.1875 C-7.6503227 3.33483815 -7.6503227 3.33483815 -19.0078125 3.125 C-21.50093067 3.01102813 -21.50093067 3.01102813 -23.5 4.1875 C-25.37379605 4.25783769 -27.25001102 4.2718022 -29.125 4.25 C-30.12789062 4.24097656 -31.13078125 4.23195313 -32.1640625 4.22265625 C-32.93492187 4.21105469 -33.70578125 4.19945313 -34.5 4.1875 C-30.80843797 1.92308824 -26.970982 1.51481448 -22.75 1.0625 C-21.97720703 0.97830811 -21.20441406 0.89411621 -20.40820312 0.80737305 C-13.60693565 0.14821643 -6.83018527 0.005298 0 0 Z " fill="#2E6FA5" transform="translate(250.5,88.8125)"/>
<path d="M0 0 C0.33 0 0.66 0 1 0 C1.02886984 3.97915159 1.04675406 7.95827653 1.0625 11.9375 C1.07087891 13.07380859 1.07925781 14.21011719 1.08789062 15.38085938 C1.09111328 16.46044922 1.09433594 17.54003906 1.09765625 18.65234375 C1.10289307 19.65257568 1.10812988 20.65280762 1.11352539 21.68334961 C1 24 1 24 0 25 C-0.04080783 26.99958364 -0.04254356 29.00045254 0 31 C-0.99 31.33 -1.98 31.66 -3 32 C-3.11668589 25.15442764 -2.99420037 18.33530194 -2.625 11.5 C-2.5787146 10.47712891 -2.5787146 10.47712891 -2.53149414 9.43359375 C-2.31703206 5.84525523 -1.92743942 3.07136688 0 0 Z " fill="#1F73B9" transform="translate(364,238)"/>
<path d="M0 0 C2.1875 -0.375 2.1875 -0.375 5 0 C6.99022836 1.83961648 8.38989899 3.79186148 10 6 C9.67 4.02 9.34 2.04 9 0 C10.65 0 12.3 0 14 0 C13.34 4.29 12.68 8.58 12 13 C8.65001479 11.88333826 8.20659778 11.25305075 6.3125 8.4375 C5.87550781 7.79683594 5.43851562 7.15617187 4.98828125 6.49609375 C4.66214844 6.00238281 4.33601562 5.50867188 4 5 C4 7.31 4 9.62 4 12 C2.68 11.67 1.36 11.34 0 11 C0.33 10.34 0.66 9.68 1 9 C1.3052622 4.34724024 1.3052622 4.34724024 0 0 Z " fill="#0A090A" transform="translate(251,107)"/>
<path d="M0 0 C0.99 0.33 1.98 0.66 3 1 C3 1.66 3 2.32 3 3 C1.68 3.33 0.36 3.66 -1 4 C-1 4.66 -1 5.32 -1 6 C-0.01 6 0.98 6 2 6 C2.33 5.34 2.66 4.68 3 4 C3.33 4.99 3.66 5.98 4 7 C6.00016466 8.20882096 6.00016466 8.20882096 8 9 C7 12 7 12 4.0625 13.75 C3.051875 14.1625 2.04125 14.575 1 15 C-1.82059747 13.58970126 -1.98101714 11.92108419 -3 9 C-3.165 8.2575 -3.33 7.515 -3.5 6.75 C-3.665 6.1725 -3.83 5.595 -4 5 C-4.66 4.67 -5.32 4.34 -6 4 C-3.1875 1.9375 -3.1875 1.9375 0 0 Z M2 7 C1.67 7.66 1.34 8.32 1 9 C1.33 9.66 1.66 10.32 2 11 C2.99 11 3.98 11 5 11 C5 10.01 5 9.02 5 8 C4.01 7.67 3.02 7.34 2 7 Z " fill="#070709" transform="translate(183,123)"/>
<path d="M0 0 C2.97 0.99 5.94 1.98 9 3 C8.566875 4.0209375 8.566875 4.0209375 8.125 5.0625 C6.87402645 8.32893093 5.92552045 11.62846123 5 15 C2.03 14.01 -0.94 13.02 -4 12 C-3.34 11.67 -2.68 11.34 -2 11 C-1.37722015 8.72502965 -1.37722015 8.72502965 -1 6 C-0.814375 4.906875 -0.62875 3.81375 -0.4375 2.6875 C-0.2209375 1.3571875 -0.2209375 1.3571875 0 0 Z M4 3 C3.67 4.32 3.34 5.64 3 7 C4.32 6.67 5.64 6.34 7 6 C6.01 5.01 5.02 4.02 4 3 Z M2 8 C1.67 9.32 1.34 10.64 1 12 C1.99 12.495 1.99 12.495 3 13 C3.66 12.34 4.32 11.68 5 11 C4.01 10.01 3.02 9.02 2 8 Z " fill="#0F0E11" transform="translate(299,116)"/>
<path d="M0 0 C0.66 0.33 1.32 0.66 2 1 C2 2.65 2 4.3 2 6 C0.68 4.68 -0.64 3.36 -2 2 C-3.98 2.99 -3.98 2.99 -6 4 C-6 6.31 -6 8.62 -6 11 C-5.01 11 -4.02 11 -3 11 C-2.67 9.68 -2.34 8.36 -2 7 C-0.68 7.33 0.64 7.66 2 8 C1.67 9.65 1.34 11.3 1 13 C-2.49186021 13.20145347 -5.19917389 13.34907805 -8.4375 11.9375 C-10 10 -10 10 -10.4375 6.5 C-10 3 -10 3 -8.9375 1.0625 C-5.95126663 -0.57511185 -3.33436766 -0.24249947 0 0 Z " fill="#121111" transform="translate(286,111)"/>
<path d="M0 0 C1.26761762 4.29581527 2 7.50944298 2 12 C-0.64 12.66 -3.28 13.32 -6 14 C-6.13277344 13.31292969 -6.26554688 12.62585938 -6.40234375 11.91796875 C-6.57894531 11.01691406 -6.75554687 10.11585937 -6.9375 9.1875 C-7.11152344 8.29417969 -7.28554687 7.40085937 -7.46484375 6.48046875 C-7.97741153 3.88602829 -7.97741153 3.88602829 -9 1 C-2.25 -1.125 -2.25 -1.125 0 0 Z M-5 2 C-4.67 2.99 -4.34 3.98 -4 5 C-3.01 4.67 -2.02 4.34 -1 4 C-1 3.34 -1 2.68 -1 2 C-2.32 2 -3.64 2 -5 2 Z M-3 7 C-3 8.32 -3 9.64 -3 11 C-1.68 10.67 -0.36 10.34 1 10 C1 9.34 1 8.68 1 8 C-0.32 7.67 -1.64 7.34 -3 7 Z " fill="#0B0B0B" transform="translate(216,112)"/>
<path d="M0 0 C1.98 1.65 3.96 3.3 6 5 C5.67 6.32 5.34 7.64 5 9 C4.34 8.01 3.68 7.02 3 6 C2.01 6.495 2.01 6.495 1 7 C1.66 7.33 2.32 7.66 3 8 C2.34 9.32 1.68 10.64 1 12 C0.67 11.01 0.34 10.02 0 9 C-0.99 9.66 -1.98 10.32 -3 11 C-1.68 11.99 -0.36 12.98 1 14 C-0.32 14.33 -1.64 14.66 -3 15 C-4.65 13.02 -6.3 11.04 -8 9 C-7.50628906 8.60167969 -7.01257813 8.20335937 -6.50390625 7.79296875 C-5.86324219 7.26316406 -5.22257812 6.73335937 -4.5625 6.1875 C-3.92441406 5.66542969 -3.28632813 5.14335937 -2.62890625 4.60546875 C-0.7451725 2.99165589 -0.7451725 2.99165589 0 0 Z " fill="#0C080C" transform="translate(343,142)"/>
<path d="M0 0 C1.58468677 0.45363171 3.16769924 0.91311452 4.75 1.375 C5.63171875 1.63023437 6.5134375 1.88546875 7.421875 2.1484375 C9.76080572 2.9209934 11.83442562 3.83625676 14 5 C12.8125 6.5625 12.8125 6.5625 11 8 C8.3125 7.6875 8.3125 7.6875 6 7 C6 7.99 6 8.98 6 10 C6 10.99 6 11.98 6 13 C5.01 13.33 4.02 13.66 3 14 C2.49528803 12.23050388 1.99639315 10.45934777 1.5 8.6875 C1.2215625 7.70136719 0.943125 6.71523437 0.65625 5.69921875 C0 3 0 3 0 0 Z " fill="#090909" transform="translate(156,142)"/>
<path d="M0 0 C0 4.95 0 9.9 0 15 C-2.475 14.01 -2.475 14.01 -5 13 C-5 11.35 -5 9.7 -5 8 C-7.88214887 8.88214887 -7.88214887 8.88214887 -10 10 C-10.99 9.01 -11.98 8.02 -13 7 C-11.9275 6.401875 -10.855 5.80375 -9.75 5.1875 C-7.59546359 3.96441973 -5.66935555 2.74978258 -3.6875 1.25 C-2 0 -2 0 0 0 Z M-4 4 C-4.33 4.66 -4.66 5.32 -5 6 C-4.34 6 -3.68 6 -3 6 C-3.33 5.34 -3.66 4.68 -4 4 Z " fill="#08080B" transform="translate(318,124)"/>
<path d="M0 0 C0.33 0 0.66 0 1 0 C1.02708567 1.60407328 1.04643483 3.2082785 1.0625 4.8125 C1.07410156 5.70582031 1.08570313 6.59914062 1.09765625 7.51953125 C1 10 1 10 0 13 C-0.12317073 14.45674076 -0.20054059 15.91767746 -0.24609375 17.37890625 C-0.27896484 18.21744141 -0.31183594 19.05597656 -0.34570312 19.91992188 C-0.40703202 21.68541125 -0.46430676 23.451046 -0.51757812 25.21679688 C-0.55173828 26.05404297 -0.58589844 26.89128906 -0.62109375 27.75390625 C-0.6461499 28.52033447 -0.67120605 29.2867627 -0.69702148 30.07641602 C-1 32 -1 32 -3 34 C-3.08755672 29.64596135 -3.14057969 25.29215123 -3.1875 20.9375 C-3.21263672 19.70837891 -3.23777344 18.47925781 -3.26367188 17.21289062 C-3.31631874 10.70222829 -3.23999169 5.72313493 0 0 Z " fill="#1E73BB" transform="translate(138,227)"/>
<path d="M0 0 C0.66 0 1.32 0 2 0 C2.66 2.31 3.32 4.62 4 7 C6.31 7 8.62 7 11 7 C10.1875 8.9375 10.1875 8.9375 9 11 C8.01 11.33 7.02 11.66 6 12 C6.66 14.64 7.32 17.28 8 20 C6.68 19.67 5.36 19.34 4 19 C3.67 18.34 3.34 17.68 3 17 C3.66 17 4.32 17 5 17 C3.73025028 12.58477891 3.73025028 12.58477891 1 9 C1.66 9 2.32 9 3 9 C3 8.01 3 7.02 3 6 C2.01 6 1.02 6 0 6 C-1.125 2.25 -1.125 2.25 0 0 Z " fill="#E4A638" transform="translate(114,252)"/>
<path d="M0 0 C0 3.3 0 6.6 0 10 C-2.1519437 6.77208445 -2.20086443 5.71599191 -2 2 C-3.65 2 -5.3 2 -7 2 C-7 2.66 -7 3.32 -7 4 C-7.99 4.33 -8.98 4.66 -10 5 C-9.979375 6.216875 -9.95875 7.43375 -9.9375 8.6875 C-9.93175884 11.91977322 -10.21233685 14.84934741 -11 18 C-12.73169596 14.8377726 -13.7128976 11.73257278 -14.625 8.25 C-14.88539063 7.26515625 -15.14578125 6.2803125 -15.4140625 5.265625 C-15.60742188 4.51796875 -15.80078125 3.7703125 -16 3 C-14.948125 2.87625 -13.89625 2.7525 -12.8125 2.625 C-8.18396006 1.86622296 -4.71241451 0 0 0 Z " fill="#2870A7" transform="translate(283,371)"/>
<path d="M0 0 C0.93423645 3.01031744 1.04449911 3.86650268 0 7 C-0.103125 8.03125 -0.20625 9.0625 -0.3125 10.125 C-1.02714072 14.15297496 -2.296984 17.23236025 -4.0625 20.88671875 C-4.96285013 22.91625801 -5.53077247 24.83471045 -6 27 C-6.66 27 -7.32 27 -8 27 C-8.23509196 22.18061476 -7.45184478 18.53701494 -6 14 C-5.34 14 -4.68 14 -4 14 C-3.96261719 13.32453125 -3.92523438 12.6490625 -3.88671875 11.953125 C-3.82097656 11.06109375 -3.75523438 10.1690625 -3.6875 9.25 C-3.62949219 8.36828125 -3.57148437 7.4865625 -3.51171875 6.578125 C-2.9358819 3.67696226 -1.92403852 2.20774393 0 0 Z " fill="#2073B8" transform="translate(103,188)"/>
<path d="M0 0 C0.66 0 1.32 0 2 0 C3.4375 1.8984375 3.4375 1.8984375 5 4.375 C6.57112484 6.84952162 7.92383041 8.92383041 10 11 C8.02 11.33 6.04 11.66 4 12 C3.67 11.01 3.34 10.02 3 9 C2.01 9 1.02 9 0 9 C-0.33 9.99 -0.66 10.98 -1 12 C-0.34 12.33 0.32 12.66 1 13 C-0.98 13 -2.96 13 -5 13 C-4.34 12.67 -3.68 12.34 -3 12 C-2.34625258 9.45293768 -2.34625258 9.45293768 -1.9375 6.5 C-1.09465649 1.09465649 -1.09465649 1.09465649 0 0 Z M0 5 C0 5.66 0 6.32 0 7 C0.66 6.67 1.32 6.34 2 6 C1.34 5.67 0.68 5.34 0 5 Z " fill="#080707" transform="translate(225,109)"/>
<path d="M0 0 C2.625 0.375 2.625 0.375 5 1 C5.33 2.32 5.66 3.64 6 5 C5.01 5.495 5.01 5.495 4 6 C4 4.68 4 3.36 4 2 C3.01 2 2.02 2 1 2 C1.350625 2.721875 1.70125 3.44375 2.0625 4.1875 C3.10409017 7.3122705 2.89096572 8.88161996 2 12 C-0.31 11.67 -2.62 11.34 -5 11 C-5.33 9.68 -5.66 8.36 -6 7 C-5.01 6.34 -4.02 5.68 -3 5 C-3 6.65 -3 8.3 -3 10 C-2.34 9.67 -1.68 9.34 -1 9 C-1.20625 7.88625 -1.4125 6.7725 -1.625 5.625 C-1.74875 4.42875 -1.8725 3.2325 -2 2 C-1.34 1.34 -0.68 0.68 0 0 Z " fill="#0D0D0D" transform="translate(326,131)"/>
<path d="M0 0 C0.99 0.33 1.98 0.66 3 1 C2.34 2.98 1.68 4.96 1 7 C2.32 6.67 3.64 6.34 5 6 C5 6.66 5 7.32 5 8 C3.02 8.66 1.04 9.32 -1 10 C-1 11.65 -1 13.3 -1 15 C-3.97 14.505 -3.97 14.505 -7 14 C-7 13.01 -7 12.02 -7 11 C-6.34 11 -5.68 11 -5 11 C-4.731875 10.29875 -4.46375 9.5975 -4.1875 8.875 C-2.9318551 5.8350176 -1.49764877 2.9272226 0 0 Z " fill="#2B6BA0" transform="translate(220,376)"/>
<path d="M0 0 C0.33 0 0.66 0 1 0 C1.01981934 0.75095947 1.03963867 1.50191895 1.06005859 2.27563477 C1.15579401 5.70491957 1.26527633 9.13363542 1.375 12.5625 C1.42140625 14.33463867 1.42140625 14.33463867 1.46875 16.14257812 C1.64161266 23.25167341 1.64161266 23.25167341 3.1640625 30.15234375 C3.57785156 31.56193359 3.57785156 31.56193359 4 33 C3.34 33.99 2.68 34.98 2 36 C-1.05458883 24.69074848 -3.19212949 11.5306882 0 0 Z " fill="#3072A8" transform="translate(186,261)"/>
<path d="M0 0 C-0.33 2.31 -0.66 4.62 -1 7 C-1.66 7 -2.32 7 -3 7 C-3 8.65 -3 10.3 -3 12 C-3.99 12.495 -3.99 12.495 -5 13 C-5.33 14.32 -5.66 15.64 -6 17 C-8.31 15.02 -10.62 13.04 -13 11 C-10.37886292 11 -8.49064888 11.31292445 -6 12 C-6.99 11.01 -7.98 10.02 -9 9 C-8.67 8.34 -8.34 7.68 -8 7 C-7.01 7.66 -6.02 8.32 -5 9 C-4.67 7.35 -4.34 5.7 -4 4 C-4.66 4 -5.32 4 -6 4 C-6 3.01 -6 2.02 -6 1 C-4 0 -4 0 0 0 Z " fill="#2D71A7" transform="translate(315,359)"/>
<path d="M0 0 C0.66 0.33 1.32 0.66 2 1 C2.35919668 2.66128463 2.68911632 4.32900023 3 6 C3.99083967 8.23408113 3.99083967 8.23408113 5 10 C5.66 10 6.32 10 7 10 C7.66 8.68 8.32 7.36 9 6 C9.33 7.65 9.66 9.3 10 11 C5.545 12.485 5.545 12.485 1 14 C0.80664062 13.21753906 0.61328125 12.43507812 0.4140625 11.62890625 C0.15367187 10.61699219 -0.10671875 9.60507813 -0.375 8.5625 C-0.63023437 7.55316406 -0.88546875 6.54382813 -1.1484375 5.50390625 C-1.72573954 2.84429676 -1.72573954 2.84429676 -4 2 C-2.125 0.9375 -2.125 0.9375 0 0 Z " fill="#0C0C0C" transform="translate(198,116)"/>
<path d="M0 0 C3.36025535 4.18253378 4.92858846 8.56673543 6.75 13.5625 C7.07871094 14.42552734 7.40742188 15.28855469 7.74609375 16.17773438 C8.05160156 17.00724609 8.35710937 17.83675781 8.671875 18.69140625 C8.9512793 19.44623291 9.23068359 20.20105957 9.51855469 20.97875977 C10 23 10 23 9 26 C6.84705349 20.71169451 4.72066106 15.44876003 3 10 C2.01 10.99 1.02 11.98 0 13 C-0.66 10.69 -1.32 8.38 -2 6 C-1.34 6 -0.68 6 0 6 C0 4.02 0 2.04 0 0 Z " fill="#2E70A5" transform="translate(395,181)"/>
<path d="M0 0 C0.33 0 0.66 0 1 0 C1 1.65 1 3.3 1 5 C2.41655793 5.0272415 3.83327045 5.04650467 5.25 5.0625 C6.03890625 5.07410156 6.8278125 5.08570313 7.640625 5.09765625 C9.90691002 5.00385306 11.8288895 4.63241063 14 4 C13.42655063 6.86724686 13.1385485 7.8614515 11 10 C7.22254703 9.65082368 4.4361522 8.32850651 1.1875 6.4375 C0.39730469 5.98246094 -0.39289063 5.52742188 -1.20703125 5.05859375 C-1.79871094 4.70925781 -2.39039063 4.35992187 -3 4 C-3 3.34 -3 2.68 -3 2 C-2.01 2 -1.02 2 0 2 C0 1.34 0 0.68 0 0 Z " fill="#2D71A6" transform="translate(182,372)"/>
<path d="M0 0 C3.95819611 -0.08678303 7.91614934 -0.14031733 11.875 -0.1875 C13.00292969 -0.21263672 14.13085938 -0.23777344 15.29296875 -0.26367188 C16.36933594 -0.27333984 17.44570313 -0.28300781 18.5546875 -0.29296875 C20.04718018 -0.31653442 20.04718018 -0.31653442 21.56982422 -0.34057617 C22.37178223 -0.22818604 23.17374023 -0.1157959 24 0 C24.66 0.99 25.32 1.98 26 3 C25.01 3.33 24.02 3.66 23 4 C22.34 3.67 21.68 3.34 21 3 C19.40737934 2.84824451 17.80935144 2.75099675 16.2109375 2.68359375 C15.26992187 2.64169922 14.32890625 2.59980469 13.359375 2.55664062 C12.37453125 2.51732422 11.3896875 2.47800781 10.375 2.4375 C9.38242188 2.39431641 8.38984375 2.35113281 7.3671875 2.30664062 C4.91160162 2.20038931 2.45591297 2.09835036 0 2 C0 1.34 0 0.68 0 0 Z " fill="#1C75B9" transform="translate(239,135)"/>
<path d="M0 0 C4.83628305 0.99043705 9.47618873 1.95698846 14 4 C9.74938644 5.41687119 7.28148375 4.19320039 3 3 C3 3.66 3 4.32 3 5 C4.65 5 6.3 5 8 5 C8 5.66 8 6.32 8 7 C9.32 7 10.64 7 12 7 C12 7.66 12 8.32 12 9 C5.33333333 7 -1.33333333 5 -8 3 C-4.61682513 2.02408417 -2.4342662 2.14143345 1 3 C0.67 2.01 0.34 1.02 0 0 Z " fill="#2F6FA5" transform="translate(296,96)"/>
<path d="M0 0 C-2.61941217 1.74627478 -4.03824877 2.38722388 -7 3 C-7 3.66 -7 4.32 -7 5 C-10.67410785 6.17571451 -14.16929183 6.07366746 -18 6 C-18.33 5.34 -18.66 4.68 -19 4 C-12.36543779 0.45128068 -7.3830972 -0.12513724 0 0 Z " fill="#1F73B6" transform="translate(216,95)"/>
<path d="M0 0 C0.66 0 1.32 0 2 0 C2.33 5.28 2.66 10.56 3 16 C2.34 16 1.68 16 1 16 C1 17.98 1 19.96 1 22 C0.34 22 -0.32 22 -1 22 C-0.67 14.74 -0.34 7.48 0 0 Z " fill="#E5A135" transform="translate(192,192)"/>
<path d="M0 0 C2.31 0.66 4.62 1.32 7 2 C7.12375 2.721875 7.2475 3.44375 7.375 4.1875 C7.88552728 6.95974174 7.88552728 6.95974174 9.0234375 9.203125 C10.26507872 12.75918544 10.26493711 15.8020828 10.25 19.5625 C10.25515625 20.86316406 10.2603125 22.16382813 10.265625 23.50390625 C10.02520223 26.66829413 9.68411971 28.37357522 8 31 C7.34 31 6.68 31 6 31 C6.33 30.071875 6.66 29.14375 7 28.1875 C8.81204393 21.70090795 9.21244324 14.79481289 6.25 8.625 C4.4554793 5.51022479 2.3694348 2.70792549 0 0 Z " fill="#3570A3" transform="translate(287,228)"/>
<path d="M0 0 C0.99 0 1.98 0 3 0 C4 3 5 6 6 9 C2.52674819 10.1577506 -0.36067448 10.06866652 -4 10 C-3.34 9.01 -2.68 8.02 -2 7 C-1.29187186 4.67891331 -0.61975848 2.34622853 0 0 Z " fill="#2770AC" transform="translate(281,381)"/>
<path d="M0 0 C2 1 2 1 3 3.75 C3.33 4.8225 3.66 5.895 4 7 C4.37125 7.825 4.7425 8.65 5.125 9.5 C6.15669981 12.44771374 6.14422195 14.89922808 6 18 C5.34 17.67 4.68 17.34 4 17 C4 15.68 4 14.36 4 13 C3.01 12.67 2.02 12.34 1 12 C-1.00581763 8.30507279 -1.28372644 5.16132107 -1 1 C-0.67 0.67 -0.34 0.34 0 0 Z " fill="#2074B7" transform="translate(397,190)"/>
<path d="M0 0 C0.33 0.99 0.66 1.98 1 3 C-0.4375 5.6875 -0.4375 5.6875 -2 8 C-0.68 8.33 0.64 8.66 2 9 C1.01 9.33 0.02 9.66 -1 10 C0.65 11.98 2.3 13.96 4 16 C3.67 16.66 3.34 17.32 3 18 C2.278125 17.05125 1.55625 16.1025 0.8125 15.125 C-1.53555112 12.32718134 -3.34214515 10.82301734 -7 10 C-9.7336432 10.29519768 -9.7336432 10.29519768 -12 11 C-11.484375 10.62875 -10.96875 10.2575 -10.4375 9.875 C-8.35213845 8.27087573 -6.3249777 6.63112835 -4.3125 4.9375 C-3.40951172 4.17759766 -3.40951172 4.17759766 -2.48828125 3.40234375 C-0.88117886 2.04925751 -0.88117886 2.04925751 0 0 Z " fill="#2D6FA9" transform="translate(244,257)"/>
<path d="M0 0 C3.58770251 1.42893505 4.96510596 3.01508697 6.8125 6.375 C7.25207031 7.14585937 7.69164062 7.91671875 8.14453125 8.7109375 C9.11623296 11.31101605 8.95272312 12.43992191 8 15 C7.34 15 6.68 15 6 15 C6 14.34 6 13.68 6 13 C5.01 12.67 4.02 12.34 3 12 C2.67 8.7 2.34 5.4 2 2 C1.34 2 0.68 2 0 2 C0 1.34 0 0.68 0 0 Z " fill="#2172B4" transform="translate(143,291)"/>
<path d="M0 0 C0.97646484 0.00322266 1.95292969 0.00644531 2.95898438 0.00976562 C3.96638672 0.01814453 4.97378906 0.02652344 6.01171875 0.03515625 C7.03845703 0.03966797 8.06519531 0.04417969 9.12304688 0.04882812 C11.64849757 0.06057441 14.1738278 0.0770006 16.69921875 0.09765625 C13.83773706 1.71252792 11.71873909 2.35637592 8.44140625 2.44140625 C7.25611328 2.48587891 7.25611328 2.48587891 6.046875 2.53125 C4.39063062 2.5757305 2.73438054 2.61999936 1.078125 2.6640625 C0.29050781 2.69371094 -0.49710938 2.72335938 -1.30859375 2.75390625 C-2.38584717 2.78194336 -2.38584717 2.78194336 -3.48486328 2.81054688 C-5.5497356 2.95460781 -5.5497356 2.95460781 -7.30078125 5.09765625 C-7.30078125 4.43765625 -7.30078125 3.77765625 -7.30078125 3.09765625 C-8.29078125 2.76765625 -9.28078125 2.43765625 -10.30078125 2.09765625 C-10.30078125 1.76765625 -10.30078125 1.43765625 -10.30078125 1.09765625 C-6.80085429 0.30058857 -3.58655815 -0.02097402 0 0 Z " fill="#266598" transform="translate(244.30078125,202.90234375)"/>
<path d="M0 0 C3.1875 0 3.1875 0 7 1 C9.09704436 3.45520293 10.57276992 6.11265436 12 9 C9.9375 9.4375 9.9375 9.4375 7 9 C4.37017309 6.92982634 2.06715867 4.63309548 0 2 C0 1.34 0 0.68 0 0 Z " fill="#2272B3" transform="translate(325,166)"/>
<path d="M0 0 C3.3 0 6.6 0 10 0 C10 0.66 10 1.32 10 2 C11.98 2 13.96 2 16 2 C16 2.66 16 3.32 16 4 C3.33029613 4.18451025 3.33029613 4.18451025 -2 3 C-1.34 2.67 -0.68 2.34 0 2 C0 1.34 0 0.68 0 0 Z " fill="#2173B5" transform="translate(267,137)"/>
<path d="M0 0 C1.32 0.66 2.64 1.32 4 2 C4 4 4 4 1.6875 6.375 C0.800625 7.24125 -0.08625 8.1075 -1 9 C-2.02813611 10.31175986 -3.04084432 11.6369893 -4 13 C-5.32 11.68 -6.64 10.36 -8 9 C-6.8553125 8.1646875 -6.8553125 8.1646875 -5.6875 7.3125 C-3.03859112 5.03320631 -1.61711178 3.06400128 0 0 Z " fill="#0E0E10" transform="translate(336,137)"/>
<path d="M0 0 C3.57410797 2.68058098 6.31941902 5.42589203 9 9 C8.67 9.66 8.34 10.32 8 11 C7.01 10.34 6.02 9.68 5 9 C5.66 10.98 6.32 12.96 7 15 C4.03595495 12.19195732 1.55500981 9.81684226 0 6 C0.66 6 1.32 6 2 6 C1.34 4.02 0.68 2.04 0 0 Z " fill="#2D6FA6" transform="translate(368,141)"/>
<path d="M0 0 C2.97 0.495 2.97 0.495 6 1 C5.01 1.495 5.01 1.495 4 2 C4 5.63 4 9.26 4 13 C2.02 13 0.04 13 -2 13 C-2 12.34 -2 11.68 -2 11 C-1.34 11 -0.68 11 0 11 C0 7.37 0 3.74 0 0 Z " fill="#0B0A0A" transform="translate(268,108)"/>
<path d="M0 0 C0.66 0 1.32 0 2 0 C2.66 2.97 3.32 5.94 4 9 C4.66 9 5.32 9 6 9 C5.67 6.36 5.34 3.72 5 1 C7.34914492 3.34914492 7.73140357 4.95679446 8.625 8.125 C8.88539063 9.03507813 9.14578125 9.94515625 9.4140625 10.8828125 C9.70410156 11.93082031 9.70410156 11.93082031 10 13 C9.01 12.34 8.02 11.68 7 11 C6.34 12.32 5.68 13.64 5 15 C4.16260219 12.8765984 3.33019717 10.7512272 2.5 8.625 C1.80390625 6.84996094 1.80390625 6.84996094 1.09375 5.0390625 C0 2 0 2 0 0 Z " fill="#2F6FA4" transform="translate(351,202)"/>
<path d="M0 0 C5.23272633 1.63958758 10.15196636 3.38952035 15 6 C13.68 6.33 12.36 6.66 11 7 C11 7.66 11 8.32 11 9 C12.65 9.33 14.3 9.66 16 10 C16 10.66 16 11.32 16 12 C12.27566618 10.7874262 8.62197194 9.49140021 5 8 C5 7.67 5 7.34 5 7 C6.65 7 8.3 7 10 7 C10 6.34 10 5.68 10 5 C9.0925 4.9175 8.185 4.835 7.25 4.75 C3.59922161 3.90751268 2.36615417 2.82118382 0 0 Z " fill="#2F72A7" transform="translate(288,140)"/>
<path d="M0 0 C0.45375 0.495 0.9075 0.99 1.375 1.5 C2.87635519 3.22609337 2.87635519 3.22609337 5 3 C5.66 2.34 6.32 1.68 7 1 C7 1.99 7 2.98 7 4 C7.99 4 8.98 4 10 4 C9.67 4.99 9.34 5.98 9 7 C7.15234375 7.73046875 7.15234375 7.73046875 4.9375 8.1875 C4.20402344 8.34605469 3.47054688 8.50460937 2.71484375 8.66796875 C2.14894531 8.77753906 1.58304687 8.88710938 1 9 C-0.4783226 6.04335481 -0.06032783 3.25770263 0 0 Z " fill="#2570AB" transform="translate(289,380)"/>
<path d="M0 0 C1.23556641 0.01740234 1.23556641 0.01740234 2.49609375 0.03515625 C3.32238281 0.04417969 4.14867187 0.05320312 5 0.0625 C5.63808594 0.07410156 6.27617187 0.08570313 6.93359375 0.09765625 C6.93359375 0.75765625 6.93359375 1.41765625 6.93359375 2.09765625 C3.00501621 3.94897108 -0.05415737 4.31770568 -4.37890625 4.22265625 C-5.44753906 4.20460938 -6.51617187 4.1865625 -7.6171875 4.16796875 C-8.42542969 4.14476562 -9.23367188 4.1215625 -10.06640625 4.09765625 C-10.06640625 3.43765625 -10.06640625 2.77765625 -10.06640625 2.09765625 C-8.93203125 1.95328125 -7.79765625 1.80890625 -6.62890625 1.66015625 C-3.60888417 1.18331066 -2.70258268 0.1277213 0 0 Z " fill="#1D74B9" transform="translate(275.06640625,358.90234375)"/>
<path d="M0 0 C0.33 0 0.66 0 1 0 C1.10541952 5.06672565 0.72702304 9.9318481 0 14.9375 C-0.09539062 15.62134766 -0.19078125 16.30519531 -0.2890625 17.00976562 C-0.52179137 18.67377707 -0.76028548 20.33698053 -1 22 C-1.99 22 -2.98 22 -4 22 C-3.7161296 19.45724602 -3.42316578 16.91608446 -3.125 14.375 C-3.04636719 13.66214844 -2.96773437 12.94929687 -2.88671875 12.21484375 C-2.37424854 7.91797815 -1.53115573 4.078793 0 0 Z " fill="#2E72A8" transform="translate(194,233)"/>
<path d="M0 0 C0 0.33 0 0.66 0 1 C-1.65 1 -3.3 1 -5 1 C-5 1.66 -5 2.32 -5 3 C-7.05078125 3.22786458 -9.1015625 3.45572917 -11.15234375 3.68359375 C-13.01140229 3.81886614 -13.01140229 3.81886614 -14 5 C-16.67058851 5.14115161 -19.32432238 5.04247107 -22 5 C-22 4.34 -22 3.68 -22 3 C-19.45953542 2.49311395 -16.91791124 1.99433126 -14.375 1.5 C-13.66214844 1.35691406 -12.94929688 1.21382813 -12.21484375 1.06640625 C-8.07855065 0.26950574 -4.23566321 -0.16034056 0 0 Z " fill="#1B74BD" transform="translate(296,402)"/>
<path d="M0 0 C0.33 0.66 0.66 1.32 1 2 C4.02419525 1.41196203 7.01758453 0.77321882 10 0 C9.52693208 4.4941452 9.52693208 4.4941452 7.4375 6.5 C3.56970973 7.29339288 0.51166825 5.58536479 -3 4 C-2.01 3.67 -1.02 3.34 0 3 C0 2.01 0 1.02 0 0 Z " fill="#2B6AA2" transform="translate(203,382)"/>
<path d="M0 0 C0.33 0 0.66 0 1 0 C1.0292483 3.20831391 1.04688189 6.41659307 1.0625 9.625 C1.07087891 10.52863281 1.07925781 11.43226563 1.08789062 12.36328125 C1.10491895 17.02904289 0.96829423 21.41013285 0 26 C-0.33 26 -0.66 26 -1 26 C-1.33 19.4 -1.66 12.8 -2 6 C-1.34 6 -0.68 6 0 6 C0 4.02 0 2.04 0 0 Z " fill="#2D73AA" transform="translate(314,264)"/>
<path d="M0 0 C0.53625 0.721875 1.0725 1.44375 1.625 2.1875 C4.2092888 5.247842 6.87248014 7.51220011 10 10 C9.01 10.495 9.01 10.495 8 11 C5.61979068 10.05689819 3.32214518 9.06639285 1 8 C-0.6642135 7.32723284 -2.32986582 6.65793165 -4 6 C-3.67 5.01 -3.34 4.02 -3 3 C-2.01 3 -1.02 3 0 3 C0 2.01 0 1.02 0 0 Z " fill="#2871AD" transform="translate(205,255)"/>
<path d="M0 0 C5.63281599 -0.2396943 10.54538831 0.61470179 16 2 C16 2.66 16 3.32 16 4 C14.27119018 4.05449838 12.54187288 4.09301688 10.8125 4.125 C9.84957031 4.14820313 8.88664063 4.17140625 7.89453125 4.1953125 C4.87187222 3.9913544 2.73230015 3.26874632 0 2 C0 1.34 0 0.68 0 0 Z " fill="#1C74BA" transform="translate(211,403)"/>
<path d="M0 0 C2.64 0 5.28 0 8 0 C8.33 1.32 8.66 2.64 9 4 C9.66 4 10.32 4 11 4 C10.67 5.98 10.34 7.96 10 10 C8.5393715 7.35261084 8 6.10551666 8 3 C5.69 3 3.38 3 1 3 C1 3.66 1 4.32 1 5 C0.34 5 -0.32 5 -1 5 C-0.67 3.35 -0.34 1.7 0 0 Z " fill="#1E77B8" transform="translate(240,375)"/>
<path d="M0 0 C0.66 0 1.32 0 2 0 C2 0.66 2 1.32 2 2 C3.32 1.34 4.64 0.68 6 0 C7.32 1.98 8.64 3.96 10 6 C9.67 6.66 9.34 7.32 9 8 C8.01 7.34 7.02 6.68 6 6 C6.33 7.65 6.66 9.3 7 11 C3.18699218 7.7129243 1.77027754 4.60272162 0 0 Z " fill="#2B71A9" transform="translate(147,304)"/>
<path d="M0 0 C0.66 0.33 1.32 0.66 2 1 C1.67 1.66 1.34 2.32 1 3 C1.99 3 2.98 3 4 3 C4 2.34 4 1.68 4 1 C5.32 1.33 6.64 1.66 8 2 C3.545 4.97 3.545 4.97 -1 8 C-3.13093906 6.93453047 -4.36587557 5.70840281 -6 4 C-4.02 2.68 -2.04 1.36 0 0 Z " fill="#2A6EA7" transform="translate(332,382)"/>
<path d="M0 0 C0.33 0 0.66 0 1 0 C1.28307925 7.24997422 0.50974035 13.90961228 -1 21 C-1.33 21 -1.66 21 -2 21 C-2 19.35 -2 17.7 -2 16 C-2.99 16 -3.98 16 -5 16 C-5.33 16.99 -5.66 17.98 -6 19 C-5.67 15.7 -5.34 12.4 -5 9 C-4.67 9 -4.34 9 -4 9 C-4 10.98 -4 12.96 -4 15 C-3.34 15 -2.68 15 -2 15 C-2 13.02 -2 11.04 -2 9 C-1.34 9 -0.68 9 0 9 C0 6.03 0 3.06 0 0 Z " fill="#246BA2" transform="translate(409,263)"/>
<path d="M0 0 C0.33 1.32 0.66 2.64 1 4 C-0.32 4.33 -1.64 4.66 -3 5 C-2.34 5.33 -1.68 5.66 -1 6 C-1.33 8.31 -1.66 10.62 -2 13 C-1.34 13.33 -0.68 13.66 0 14 C-1.32 14.33 -2.64 14.66 -4 15 C-3.731875 13.948125 -3.46375 12.89625 -3.1875 11.8125 C-2.5625 7.85416667 -2.5625 7.85416667 -5.4375 5.0625 C-6.283125 4.381875 -7.12875 3.70125 -8 3 C-7 2 -7 2 -3.4375 1.9375 C-2.303125 1.958125 -1.16875 1.97875 0 2 C0 1.34 0 0.68 0 0 Z " fill="#DEAA41" transform="translate(112,257)"/>
<path d="M0 0 C0 0.66 0 1.32 0 2 C-0.73605469 2.37511719 -1.47210938 2.75023437 -2.23046875 3.13671875 C-7.56201772 5.93278868 -12.075569 8.39894296 -16 13 C-16.99 12.67 -17.98 12.34 -19 12 C-6.30835735 0 -6.30835735 0 0 0 Z " fill="#2B6EA2" transform="translate(221,209)"/>
<path d="M0 0 C6.09411765 2.14117647 6.09411765 2.14117647 8 5 C7.6875 7.6875 7.6875 7.6875 7 10 C4.625 9.3125 4.625 9.3125 2 8 C0.43061972 5.08543662 0 3.32058331 0 0 Z " fill="#2170B6" transform="translate(373,150)"/>
<path d="M0 0 C0.66 0.33 1.32 0.66 2 1 C2 3.97 2 6.94 2 10 C1.34 10 0.68 10 0 10 C0 11.98 0 13.96 0 16 C-0.66 16 -1.32 16 -2 16 C-2.20413361 10.26157749 -2.27141454 5.39460953 0 0 Z " fill="#1D73B7" transform="translate(407,262)"/>
<path d="M0 0 C2.28805777 2.28805777 2.45582599 3.33275656 3.0625 6.4375 C3.58554517 9.06137121 4.15093007 11.45279021 5 14 C2.5625 13.1875 2.5625 13.1875 0 12 C-1.29449495 8.11651516 -1.13203312 5.09302664 -1 1 C-0.67 0.67 -0.34 0.34 0 0 Z " fill="#1F73B9" transform="translate(98,293)"/>
<path d="M0 0 C-2.2370804 3.3556206 -2.42517038 3.19278041 -6 4 C-6.33 4.66 -6.66 5.32 -7 6 C-8.65 6 -10.3 6 -12 6 C-11.8125 4.125 -11.8125 4.125 -11 2 C-7.3382625 -0.09242143 -4.15467129 -0.19324053 0 0 Z " fill="#2074B8" transform="translate(322,391)"/>
<path d="M0 0 C4 2.66666667 8 5.33333333 12 8 C8.87709365 7.51421457 6.00419641 7.0013988 3 6 C2.34 7.32 1.68 8.64 1 10 C0.34 10 -0.32 10 -1 10 C-0.67 9.01 -0.34 8.02 0 7 C-0.99 6.34 -1.98 5.68 -3 5 C-1.68 4.67 -0.36 4.34 1 4 C0.67 2.68 0.34 1.36 0 0 Z " fill="#2C6FA5" transform="translate(257,260)"/>
<path d="M0 0 C1.32 0 2.64 0 4 0 C4 1.65 4 3.3 4 5 C4.99 5.33 5.98 5.66 7 6 C6.34 6.66 5.68 7.32 5 8 C2.06546739 7.63318342 1.13562754 7.13562754 -1 5 C-0.625 2.375 -0.625 2.375 0 0 Z " fill="#F3AB1A" transform="translate(384,256)"/>
<path d="M0 0 C4.84659077 0.59104765 8.60748167 1.97944157 13 4 C13 4.66 13 5.32 13 6 C6.375 6.125 6.375 6.125 3 5 C3 4.01 3 3.02 3 2 C2.01 2 1.02 2 0 2 C0 1.34 0 0.68 0 0 Z " fill="#2074B7" transform="translate(285,141)"/>
<path d="M0 0 C0.66 0.33 1.32 0.66 2 1 C2 1.66 2 2.32 2 3 C3.32 3.66 4.64 4.32 6 5 C5 8 5 8 2.0625 9.75 C1.051875 10.1625 0.04125 10.575 -1 11 C-1.66 10.67 -2.32 10.34 -3 10 C-1.6875 8.5 -1.6875 8.5 0 7 C0.99 7 1.98 7 3 7 C3 6.01 3 5.02 3 4 C2.01 4 1.02 4 0 4 C-0.66 4.66 -1.32 5.32 -2 6 C-2.33 4.68 -2.66 3.36 -3 2 C-2.01 2 -1.02 2 0 2 C0 1.34 0 0.68 0 0 Z " fill="#151518" transform="translate(185,127)"/>
<path d="M0 0 C7.625 0.875 7.625 0.875 11 2 C11 2.66 11 3.32 11 4 C12.32 4.33 13.64 4.66 15 5 C14.67 5.66 14.34 6.32 14 7 C12.35 6.67 10.7 6.34 9 6 C9 5.34 9 4.68 9 4 C7.68 4 6.36 4 5 4 C5 3.34 5 2.68 5 2 C3.35 2 1.7 2 0 2 C0 1.34 0 0.68 0 0 Z " fill="#1F74B9" transform="translate(299,99)"/>
<path d="M0 0 C0.33 0.99 0.66 1.98 1 3 C2.65 3.33 4.3 3.66 6 4 C5.67 5.98 5.34 7.96 5 10 C4.01 9.67 3.02 9.34 2 9 C2 8.34 2 7.68 2 7 C0.68 6.34 -0.64 5.68 -2 5 C-2 4.01 -2 3.02 -2 2 C-1.34 2 -0.68 2 0 2 C0 1.34 0 0.68 0 0 Z " fill="#27689B" transform="translate(206,372)"/>
<path d="M0 0 C0 1.65 0 3.3 0 5 C-1.32 5 -2.64 5 -4 5 C-4.33 5.66 -4.66 6.32 -5 7 C-7.31 6.67 -9.62 6.34 -12 6 C-12 4.35 -12 2.7 -12 1 C-10.35 2.32 -8.7 3.64 -7 5 C-6.21625 4.175 -5.4325 3.35 -4.625 2.5 C-2 0 -2 0 0 0 Z " fill="#2C72AF" transform="translate(282,305)"/>
<path d="M0 0 C2.1991413 4.39828259 2.51855059 7.18550592 3 12 C2.67 11.34 2.34 10.68 2 10 C1.34 10 0.68 10 0 10 C0 13.3 0 16.6 0 20 C-0.33 20 -0.66 20 -1 20 C-1.33 16.37 -1.66 12.74 -2 9 C-1.34 9 -0.68 9 0 9 C0 6.03 0 3.06 0 0 Z " fill="#2C6EA7" transform="translate(405,208)"/>
<path d="M0 0 C0.33 0.99 0.66 1.98 1 3 C-3.8043208 5.4021604 -8.73103895 5.61122229 -14 6 C-13.67 5.34 -13.34 4.68 -13 4 C-11 3.66666667 -9 3.33333333 -7 3 C-6.67 2.34 -6.34 1.68 -6 1 C-3 0 -3 0 0 0 Z " fill="#2572B0" transform="translate(239,135)"/>
<path d="M0 0 C2.94502337 0.63107644 5.51814748 1.26270323 8 3 C9.25 6.125 9.25 6.125 10 9 C8.68 9 7.36 9 6 9 C5.67 8.01 5.34 7.02 5 6 C4.34 5.67 3.68 5.34 3 5 C3 4.34 3 3.68 3 3 C2.34 3 1.68 3 1 3 C0.67 2.01 0.34 1.02 0 0 Z " fill="#1975BE" transform="translate(263,382)"/>
<path d="M0 0 C1.32 0 2.64 0 4 0 C3.39873418 5.41139241 3.39873418 5.41139241 1.6875 7.9375 C0 9 0 9 -2.1875 8.6875 C-2.785625 8.460625 -3.38375 8.23375 -4 8 C-4 7.34 -4 6.68 -4 6 C-2.68 6 -1.36 6 0 6 C0 4.02 0 2.04 0 0 Z " fill="#1C6DC0" transform="translate(225,378)"/>
<path d="M0 0 C0.66 0 1.32 0 2 0 C2.33 2.31 2.66 4.62 3 7 C3.66 7 4.32 7 5 7 C4.67 7.99 4.34 8.98 4 10 C3.01 10 2.02 10 1 10 C-0.85064319 6.87703962 -1.29356154 4.62059232 -1 1 C-0.67 0.67 -0.34 0.34 0 0 Z " fill="#1C74BD" transform="translate(290,374)"/>
<path d="M0 0 C0.66 0 1.32 0 2 0 C2.66 2.31 3.32 4.62 4 7 C4.7425 7.144375 5.485 7.28875 6.25 7.4375 C8.52027739 7.90187492 10.75759479 8.41863569 13 9 C9.75846834 11.1610211 8.76307099 11.64247553 5 11 C1.44611167 7.64354991 0.44770229 4.81279961 0 0 Z " fill="#3271A4" transform="translate(285,318)"/>
<path d="M0 0 C4.31392226 0.4793247 6.16569547 1.7457985 9 5 C9.598125 4.67 10.19625 4.34 10.8125 4 C13 3 13 3 16 3 C14.8125 5 14.8125 5 13 7 C8.78550846 7.7763537 6.43675428 6.35146345 3 4 C2.01 3.34 1.02 2.68 0 2 C0 1.34 0 0.68 0 0 Z " fill="#2E74AD" transform="translate(276,289)"/>
<path d="M0 0 C0.33 1.32 0.66 2.64 1 4 C-1.55068845 6.35448165 -2.71017358 6.98327924 -6.25 7.1875 C-7.1575 7.125625 -8.065 7.06375 -9 7 C-9.66 5.68 -10.32 4.36 -11 3 C-8.525 3.99 -8.525 3.99 -6 5 C-4.02 3.35 -2.04 1.7 0 0 Z " fill="#2970AC" transform="translate(244,289)"/>
<path d="M0 0 C0.66 0.33 1.32 0.66 2 1 C-0.08178935 4.12268403 -0.55671137 4.50418575 -3.875 5.6875 C-4.55304688 5.93886719 -5.23109375 6.19023438 -5.9296875 6.44921875 C-8 7 -8 7 -12 7 C-12 6.01 -12 5.02 -12 4 C-10.7625 3.71125 -9.525 3.4225 -8.25 3.125 C-5.82080792 2.52843163 -3.87344411 1.93672206 -1.625 0.8125 C-1.08875 0.544375 -0.5525 0.27625 0 0 Z " fill="#1E73B9" transform="translate(191,101)"/>
<path d="M0 0 C0.59355614 2.64860427 0.74209269 5.29197322 1 8 C-0.32 7.67 -1.64 7.34 -3 7 C-2.34 5.35 -1.68 3.7 -1 2 C-2.32 2 -3.64 2 -5 2 C-5.33 2.66 -5.66 3.32 -6 4 C-6.99 3.67 -7.98 3.34 -9 3 C-9 2.34 -9 1.68 -9 1 C-2.25 -1.125 -2.25 -1.125 0 0 Z " fill="#121113" transform="translate(216,112)"/>
<path d="M0 0 C0 3.3 0 6.6 0 10 C-2.1519437 6.77208445 -2.20086443 5.71599191 -2 2 C-3.65 2 -5.3 2 -7 2 C-7 2.66 -7 3.32 -7 4 C-8.32 4.33 -9.64 4.66 -11 5 C-11 4.34 -11 3.68 -11 3 C-11.66 2.67 -12.32 2.34 -13 2 C-12.2575 1.855625 -11.515 1.71125 -10.75 1.5625 C-9.13600307 1.23236426 -7.52686625 0.87096352 -5.9375 0.4375 C-4 0 -4 0 0 0 Z " fill="#346C9A" transform="translate(283,371)"/>
<path d="M0 0 C0 0.33 0 0.66 0 1 C-0.62648438 1.02578125 -1.25296875 1.0515625 -1.8984375 1.078125 C-2.71570313 1.13484375 -3.53296875 1.1915625 -4.375 1.25 C-5.18710937 1.29640625 -5.99921875 1.3428125 -6.8359375 1.390625 C-9.18838927 1.7922092 -9.18838927 1.7922092 -10.2890625 4.046875 C-10.52367187 4.69140625 -10.75828125 5.3359375 -11 6 C-11.66 6 -12.32 6 -13 6 C-13.33 8.97 -13.66 11.94 -14 15 C-14.33 15 -14.66 15 -15 15 C-15.66964286 7.23214286 -15.66964286 7.23214286 -12.625 3.5625 C-8.32182266 -0.63822074 -5.79413828 -0.09345384 0 0 Z " fill="#080A0C" transform="translate(278,235)"/>
<path d="M0 0 C2.375 0.625 2.375 0.625 5 2 C6.3125 5.125 6.3125 5.125 7 8 C1.125 6.125 1.125 6.125 0 5 C-0.04063832 3.33382885 -0.042721 1.66611905 0 0 Z " fill="#2272B7" transform="translate(128,351)"/>
<path d="M0 0 C0.66 0 1.32 0 2 0 C2 2.97 2 5.94 2 9 C1.01 9.33 0.02 9.66 -1 10 C-2.25 3.375 -2.25 3.375 0 0 Z " fill="#1F74B7" transform="translate(360,272)"/>
<path d="M0 0 C5.94 3.465 5.94 3.465 12 7 C9.13411489 8.43294255 7.09628564 7.56870553 4 7 C3.01 7 2.02 7 1 7 C0.34 6.34 -0.32 5.68 -1 5 C0.32 4.67 1.64 4.34 3 4 C2.01 3.34 1.02 2.68 0 2 C0 1.34 0 0.68 0 0 Z " fill="#2F71A1" transform="translate(328,109)"/>
<path d="M0 0 C0.66 0 1.32 0 2 0 C1.34580901 5.06998019 -0.8546409 9.41990777 -3 14 C-3.99 13.67 -4.98 13.34 -6 13 C-5.67 12.01 -5.34 11.02 -5 10 C-4.34 9.67 -3.68 9.34 -3 9 C-2.09274566 6.88672575 -2.09274566 6.88672575 -1.375 4.4375 C-0.98441406 3.19806641 -0.98441406 3.19806641 -0.5859375 1.93359375 C-0.39257812 1.29550781 -0.19921875 0.65742188 0 0 Z " fill="#2970AA" transform="translate(307,305)"/>
<path d="M0 0 C2.64 1.98 5.28 3.96 8 6 C8.66 5.67 9.32 5.34 10 5 C9.67 5.99 9.34 6.98 9 8 C5.58978257 7.21302675 2.31114834 6.12880057 -1 5 C-0.67 3.35 -0.34 1.7 0 0 Z " fill="#2B72AD" transform="translate(219,304)"/>
<path d="M0 0 C-0.33 1.98 -0.66 3.96 -1 6 C-1.99 5.67 -2.98 5.34 -4 5 C-4.33 4.01 -4.66 3.02 -5 2 C-5.99 1.34 -6.98 0.68 -8 0 C-4.71023192 -1.09658936 -3.28696233 -0.79953138 0 0 Z " fill="#2466A7" transform="translate(216,370)"/>
<path d="M0 0 C0.99 0.33 1.98 0.66 3 1 C3 1.99 3 2.98 3 4 C4.32 4.66 5.64 5.32 7 6 C6.67 6.66 6.34 7.32 6 8 C3.13275314 7.42655063 2.1385485 7.1385485 0 5 C-0.125 2.375 -0.125 2.375 0 0 Z " fill="#2073B3" transform="translate(119,340)"/>
<path d="M0 0 C0.33 0.99 0.66 1.98 1 3 C1.99 3.66 2.98 4.32 4 5 C2.68 7.31 1.36 9.62 0 12 C-1 9 -1 9 0 6 C-0.99 6.33 -1.98 6.66 -3 7 C-1.125 2.25 -1.125 2.25 0 0 Z " fill="#2F72A7" transform="translate(385,327)"/>
<path d="M0 0 C3.25543229 0.34879632 4.01873107 1.02133261 6.25 3.5625 C6.8275 4.366875 7.405 5.17125 8 6 C6.68 6 5.36 6 4 6 C3.67 5.01 3.34 4.02 3 3 C2.34 3 1.68 3 1 3 C0.67 3.99 0.34 4.98 0 6 C-0.66 6 -1.32 6 -2 6 C-2 5.34 -2 4.68 -2 4 C-1.34 4 -0.68 4 0 4 C0 2.68 0 1.36 0 0 Z " fill="#227CC2" transform="translate(249,311)"/>
<path d="M0 0 C0.66 0 1.32 0 2 0 C2.66 2.97 3.32 5.94 4 9 C1.69 8.67 -0.62 8.34 -3 8 C-2.67 7.01 -2.34 6.02 -2 5 C-1.34 5 -0.68 5 0 5 C0 3.35 0 1.7 0 0 Z " fill="#226EB6" transform="translate(312,366)"/>
<path d="M0 0 C0.99 0 1.98 0 3 0 C3.368 5.52 3.368 5.52 1.5625 7.875 C0 9 0 9 -1 9 C-0.67 6.03 -0.34 3.06 0 0 Z " fill="#1F73BB" transform="translate(404,279)"/>
<path d="M0 0 C0.33 1.32 0.66 2.64 1 4 C-3.30769231 7.93846154 -3.30769231 7.93846154 -6.8125 8.25 C-7.534375 8.1675 -8.25625 8.085 -9 8 C-7.88625 7.13375 -7.88625 7.13375 -6.75 6.25 C-4.33912357 4.27746474 -2.15957299 2.23955718 0 0 Z " fill="#2B73AB" transform="translate(292,259)"/>
<path d="M0 0 C2.09350689 3.4019487 2.17942163 6.05272412 2 10 C-0.475 9.01 -0.475 9.01 -3 8 C-1.125 1.125 -1.125 1.125 0 0 Z " fill="#09090B" transform="translate(316,129)"/>
<path d="M0 0 C1.0625 1.875 1.0625 1.875 2 4 C1.67 4.66 1.34 5.32 1 6 C1.66 6.33 2.32 6.66 3 7 C2.01 7.495 2.01 7.495 1 8 C0.67 8.99 0.34 9.98 0 11 C0.66 11.33 1.32 11.66 2 12 C0.02 12 -1.96 12 -4 12 C-3.34 11.67 -2.68 11.34 -2 11 C-1.30906104 8.42048126 -1.30906104 8.42048126 -0.875 5.4375 C-0.70742187 4.42558594 -0.53984375 3.41367188 -0.3671875 2.37109375 C-0.24601563 1.58863281 -0.12484375 0.80617188 0 0 Z " fill="#181719" transform="translate(224,110)"/>
<path d="M0 0 C6.625 0.75 6.625 0.75 10 3 C7.69 3.33 5.38 3.66 3 4 C2.67 4.99 2.34 5.98 2 7 C1.34 7 0.68 7 0 7 C0 4.69 0 2.38 0 0 Z " fill="#2A6CA5" transform="translate(201,366)"/>
<path d="M0 0 C2.97 0.33 5.94 0.66 9 1 C7.515 2.485 7.515 2.485 6 4 C6.66 4.66 7.32 5.32 8 6 C6.02 6 4.04 6 2 6 C2 5.01 2 4.02 2 3 C1.34 2.67 0.68 2.34 0 2 C0 1.34 0 0.68 0 0 Z " fill="#296EA7" transform="translate(228,359)"/>
<path d="M0 0 C1.65 0 3.3 0 5 0 C2.25604436 2.94721162 -0.38337216 5.19168608 -4 7 C-4.66 6.67 -5.32 6.34 -6 6 C-5.67 5.01 -5.34 4.02 -5 3 C-3.67696283 2.6278958 -2.34262065 2.29369827 -1 2 C-0.67 1.34 -0.34 0.68 0 0 Z " fill="#2E72A9" transform="translate(270,326)"/>
<path d="M0 0 C0.33 0 0.66 0 1 0 C1 1.98 1 3.96 1 6 C2.32 6 3.64 6 5 6 C5 4.35 5 2.7 5 1 C8 4.75 8 4.75 8 7 C5.03 7 2.06 7 -1 7 C-1 4.37886292 -0.68707555 2.49064888 0 0 Z " fill="#2E6D9F" transform="translate(236,387)"/>
<path d="M0 0 C2.31 0 4.62 0 7 0 C7.33 0.66 7.66 1.32 8 2 C6.68 1.67 5.36 1.34 4 1 C4 4.63 4 8.26 4 12 C3.67 12 3.34 12 3 12 C2.814375 10.14375 2.814375 10.14375 2.625 8.25 C2.24253695 5.1237803 1.69450477 2.71120763 0 0 Z " fill="#326F9E" transform="translate(254,375)"/>
<path d="M0 0 C-1 3 -1 3 -2.875 4.1875 C-5 5 -5 5 -8 5 C-7.75 3.125 -7.75 3.125 -7 1 C-4.09342573 -1.03460199 -3.47133392 -1.15711131 0 0 Z " fill="#2171B6" transform="translate(371,355)"/>
<path d="M0 0 C2.31 0 4.62 0 7 0 C6.8125 1.875 6.8125 1.875 6 4 C3.4375 5.25 3.4375 5.25 1 6 C1.33 5.01 1.66 4.02 2 3 C1.34 2.67 0.68 2.34 0 2 C0 1.34 0 0.68 0 0 Z " fill="#E3AE3A" transform="translate(388,259)"/>
<path d="M0 0 C1.5 1.3125 1.5 1.3125 3 3 C3 3.99 3 4.98 3 6 C3.66 6 4.32 6 5 6 C5.33 8.31 5.66 10.62 6 13 C5.34 13 4.68 13 4 13 C3.34 10.03 2.68 7.06 2 4 C1.34 4 0.68 4 0 4 C0 2.68 0 1.36 0 0 Z " fill="#1D73B8" transform="translate(351,198)"/>
<path d="M0 0 C1.98 0.66 3.96 1.32 6 2 C4.8141763 5.37503669 3.72426311 7.64722731 1 10 C0.67 8.68 0.34 7.36 0 6 C0.99 5.34 1.98 4.68 3 4 C2.01 3.34 1.02 2.68 0 2 C0 1.34 0 0.68 0 0 Z " fill="#1A181A" transform="translate(302,117)"/>
<path d="M0 0 C2.96404505 2.80804268 5.44499019 5.18315774 7 9 C5.68 8.34 4.36 7.68 3 7 C3 6.34 3 5.68 3 5 C1.02 5.99 1.02 5.99 -1 7 C-1.66 6.01 -2.32 5.02 -3 4 C-1.68 4 -0.36 4 1 4 C0.67 2.68 0.34 1.36 0 0 Z " fill="#316FA1" transform="translate(160,316)"/>
<path d="M0 0 C2.5625 2.25 2.5625 2.25 5 5 C4.8125 7.3125 4.8125 7.3125 4 9 C3.34 9 2.68 9 2 9 C2 8.01 2 7.02 2 6 C1.34 6 0.68 6 0 6 C0 4.02 0 2.04 0 0 Z " fill="#1E6FBD" transform="translate(357,212)"/>
<path d="M0 0 C1.32 0.33 2.64 0.66 4 1 C4.33 2.98 4.66 4.96 5 7 C4.01 7 3.02 7 2 7 C0 4 0 4 0 0 Z " fill="#2274B7" transform="translate(391,180)"/>
<path d="M0 0 C0.2475 0.598125 0.495 1.19625 0.75 1.8125 C2.16370012 4.28647521 3.65055383 5.43370255 6 7 C4.68 7.33 3.36 7.66 2 8 C0.35 6.02 -1.3 4.04 -3 2 C-2.01 1.34 -1.02 0.68 0 0 Z " fill="#171719" transform="translate(338,149)"/>
<path d="M0 0 C1.65 0 3.3 0 5 0 C4.34 4.29 3.68 8.58 3 13 C2.01 12.67 1.02 12.34 0 12 C0.33 11.34 0.66 10.68 1 10 C1.15898854 8.08499697 1.15898854 8.08499697 1.125 6 C1.12757813 5.29875 1.13015625 4.5975 1.1328125 3.875 C1.11377236 1.90846225 1.11377236 1.90846225 0 0 Z " fill="#131213" transform="translate(260,107)"/>
<path d="M0 0 C0.33 0.66 0.66 1.32 1 2 C1.66 2 2.32 2 3 2 C3 2.99 3 3.98 3 5 C0.69 5 -1.62 5 -4 5 C-2.25 1.125 -2.25 1.125 0 0 Z " fill="#316E9E" transform="translate(260,389)"/>
<path d="M0 0 C1.98 0.99 1.98 0.99 4 2 C3.34 2 2.68 2 2 2 C2 3.32 2 4.64 2 6 C3.65 6 5.3 6 7 6 C7.33 5.34 7.66 4.68 8 4 C8.33 5.32 8.66 6.64 9 8 C6.36 7.67 3.72 7.34 1 7 C0.67 4.69 0.34 2.38 0 0 Z " fill="#2B6BA4" transform="translate(245,387)"/>
<path d="M0 0 C0 0.66 0 1.32 0 2 C-3.6441774 4.4294516 -5.71241272 4.16179575 -10 4 C-6.83527002 0.53386716 -4.79371499 0 0 0 Z " fill="#1E74BB" transform="translate(298,353)"/>
<path d="M0 0 C1.98 0.99 3.96 1.98 6 3 C5.67 3.66 5.34 4.32 5 5 C4.34 5 3.68 5 3 5 C2.67 5.99 2.34 6.98 2 8 C1.01 7.34 0.02 6.68 -1 6 C-1 5.34 -1 4.68 -1 4 C-0.34 3.67 0.32 3.34 1 3 C0.67 2.01 0.34 1.02 0 0 Z " fill="#2972A8" transform="translate(192,345)"/>
<path d="M0 0 C1.32 0 2.64 0 4 0 C4 1.65 4 3.3 4 5 C4.66 5 5.32 5 6 5 C6.99 6.98 7.98 8.96 9 11 C5.28720216 9.55613418 4.0513557 7.87763608 2.25 4.375 C1.82203125 3.55773437 1.3940625 2.74046875 0.953125 1.8984375 C0.63859375 1.27195312 0.3240625 0.64546875 0 0 Z " fill="#2C6DA2" transform="translate(195,316)"/>
<path d="M0 0 C0.99 0.495 0.99 0.495 2 1 C2 1.66 2 2.32 2 3 C2.66 3 3.32 3 4 3 C5.48320272 6.83887763 6.22419163 9.06204091 5 13 C4.16209211 11.21046815 3.32980604 9.41830305 2.5 7.625 C1.80390625 6.12839844 1.80390625 6.12839844 1.09375 4.6015625 C0 2 0 2 0 0 Z " fill="#2C6EA5" transform="translate(141,290)"/>
<path d="M0 0 C2.31 0 4.62 0 7 0 C6.34 1.65 5.68 3.3 5 5 C3.0625 4.1875 3.0625 4.1875 1 3 C0.67 2.01 0.34 1.02 0 0 Z " fill="#DAA742" transform="translate(375,259)"/>
<path d="M0 0 C1.485 0.99 1.485 0.99 3 2 C4.65549531 2.38499891 6.3222433 2.72793135 8 3 C8 3.99 8 4.98 8 6 C5.69 5.67 3.38 5.34 1 5 C0.67 3.35 0.34 1.7 0 0 Z " fill="#0C0B0B" transform="translate(267,252)"/>
<path d="M0 0 C0.75 1.75 0.75 1.75 1 4 C-0.875 6.0625 -0.875 6.0625 -3 8 C-3.33 8.99 -3.66 9.98 -4 11 C-4.66 11 -5.32 11 -6 11 C-4.54955729 6.89041233 -2.48889248 3.56741255 0 0 Z " fill="#2D6FA3" transform="translate(201,222)"/>
<path d="M0 0 C0.33 0.66 0.66 1.32 1 2 C1.99 2 2.98 2 4 2 C4 1.34 4 0.68 4 0 C4.66 0.33 5.32 0.66 6 1 C5.01 2.98 4.02 4.96 3 7 C2.34 6.01 1.68 5.02 1 4 C0.67 4.66 0.34 5.32 0 6 C-0.66 6 -1.32 6 -2 6 C-1.34 4.02 -0.68 2.04 0 0 Z " fill="#2E72AB" transform="translate(389,320)"/>
<path d="M0 0 C0.66 0.99 1.32 1.98 2 3 C0.9024777 5.99324263 0.32317108 6.84610901 -2.625 8.25 C-3.40875 8.4975 -4.1925 8.745 -5 9 C-5.33 8.01 -5.66 7.02 -6 6 C-5.38125 5.938125 -4.7625 5.87625 -4.125 5.8125 C-1.72238859 5.171081 -1.72238859 5.171081 -0.75 2.4375 C-0.5025 1.633125 -0.255 0.82875 0 0 Z " fill="#08090B" transform="translate(233,249)"/>
<path d="M0 0 C0 0.99 0 1.98 0 3 C0.33 3.66 0.66 4.32 1 5 C1 5.99 1 6.98 1 8 C0.01 8.33 -0.98 8.66 -2 9 C-2.33 6.36 -2.66 3.72 -3 1 C-2.01 0.67 -1.02 0.34 0 0 Z " fill="#16161A" transform="translate(161,147)"/>
<path d="M0 0 C2.375 0.1875 2.375 0.1875 5 1 C6.3125 3.5625 6.3125 3.5625 7 6 C4.625 5.8125 4.625 5.8125 2 5 C0.6875 2.4375 0.6875 2.4375 0 0 Z " fill="#1B73BC" transform="translate(352,129)"/>
<path d="M0 0 C2 2 2 2 2 5 C-2.455 6.485 -2.455 6.485 -7 8 C-6.67 6.68 -6.34 5.36 -6 4 C-6 4.66 -6 5.32 -6 6 C-3.49034386 5.29660434 -3.49034386 5.29660434 -1 4 C-0.11306697 1.95894361 -0.11306697 1.95894361 0 0 Z " fill="#121417" transform="translate(206,122)"/>
<path d="M0 0 C-1.76956458 2.14210449 -2.87575652 2.96060573 -5.5625 3.8125 C-6.7690625 3.9053125 -6.7690625 3.9053125 -8 4 C-8.66 3.34 -9.32 2.68 -10 2 C-9.01 2 -8.02 2 -7 2 C-7 1.34 -7 0.68 -7 0 C-2.25 -1.125 -2.25 -1.125 0 0 Z " fill="#1B74BA" transform="translate(307,398)"/>
<path d="M0 0 C0.33 0 0.66 0 1 0 C1.36122881 1.31057393 1.71380311 2.62353624 2.0625 3.9375 C2.25972656 4.66839844 2.45695312 5.39929688 2.66015625 6.15234375 C2.77230469 6.76207031 2.88445312 7.37179687 3 8 C2 9 2 9 -1.0625 9.0625 C-2.031875 9.041875 -3.00125 9.02125 -4 9 C-4 8.34 -4 7.68 -4 7 C-2.68 6.67 -1.36 6.34 0 6 C0 4.02 0 2.04 0 0 Z " fill="#346E9F" transform="translate(272,384)"/>
<path d="M0 0 C0.66 0.66 1.32 1.32 2 2 C1.625 4.125 1.625 4.125 1 6 C-0.32 6 -1.64 6 -3 6 C-3 4.35 -3 2.7 -3 1 C-2.01 0.67 -1.02 0.34 0 0 Z " fill="#1D74BD" transform="translate(186,371)"/>
<path d="M0 0 C0.33 0.66 0.66 1.32 1 2 C2.98 1.34 4.96 0.68 7 0 C5.35 1.98 3.7 3.96 2 6 C1.67 5.01 1.34 4.02 1 3 C-0.32 3.33 -1.64 3.66 -3 4 C-2.01 2.68 -1.02 1.36 0 0 Z " fill="#2C6EA3" transform="translate(362,358)"/>
<path d="M0 0 C1.9375 0.75 1.9375 0.75 4 2 C4.75 4.125 4.75 4.125 5 6 C3.35 5.67 1.7 5.34 0 5 C0 3.35 0 1.7 0 0 Z " fill="#2072B2" transform="translate(338,178)"/>
<path d="M0 0 C0.33 1.32 0.66 2.64 1 4 C-2 6 -2 6 -4 7 C-4.99 6.01 -5.98 5.02 -7 4 C-4.69 2.68 -2.38 1.36 0 0 Z " fill="#1C1C1D" transform="translate(312,127)"/>
<path d="M0 0 C0.99 0 1.98 0 3 0 C3 0.66 3 1.32 3 2 C3.99 2.33 4.98 2.66 6 3 C6 3.66 6 4.32 6 5 C1.25 4.25 1.25 4.25 -1 2 C-0.67 1.34 -0.34 0.68 0 0 Z " fill="#1974BD" transform="translate(303,366)"/>
<path d="M0 0 C1.43791516 0.14168137 2.8753237 0.28851043 4.3125 0.4375 C5.11300781 0.51871094 5.91351563 0.59992188 6.73828125 0.68359375 C9 1 9 1 12 2 C9.8125 3.625 9.8125 3.625 7 5 C3.14695198 4.10394232 2.23230734 3.34846101 0 0 Z " fill="#3171AB" transform="translate(208,287)"/>
<path d="M0 0 C2.0625 0.1875 2.0625 0.1875 4 1 C4.33 1.99 4.66 2.98 5 4 C2.69 4.33 0.38 4.66 -2 5 C-2 2 -2 2 0 0 Z " fill="#F3A611" transform="translate(385,265)"/>
<path d="M0 0 C0.66 0 1.32 0 2 0 C1.39009109 3.55780196 0.4216319 6.6828589 -1 10 C-1.33 10 -1.66 10 -2 10 C-2.25 3.375 -2.25 3.375 0 0 Z " fill="#1B75BD" transform="translate(141,214)"/>
<path d="M0 0 C0 1.65 0 3.3 0 5 C-1.98 5.99 -1.98 5.99 -4 7 C-4 3 -4 3 -2.5625 1.25 C-1 0 -1 0 0 0 Z " fill="#2173B8" transform="translate(117,164)"/>
<path d="M0 0 C0.556875 0.28875 1.11375 0.5775 1.6875 0.875 C4.08494645 2.0413253 6.51596939 3.0339881 9 4 C8.34 5.32 7.68 6.64 7 8 C6.34 8 5.68 8 5 8 C3.94228261 6.36935236 2.94726954 4.69719127 2 3 C1.34 2.01 0.68 1.02 0 0 Z " fill="#181A1E" transform="translate(142,161)"/>
<path d="M0 0 C3.24208567 0.35049575 4.61527704 0.56221181 6.8125 3.0625 C7.204375 3.701875 7.59625 4.34125 8 5 C6.02 5.33 4.04 5.66 2 6 C1.34 4.02 0.68 2.04 0 0 Z " fill="#0F0D0E" transform="translate(227,115)"/>
<path d="M0 0 C0.66 0 1.32 0 2 0 C2.33 1.32 2.66 2.64 3 4 C1.35 4.33 -0.3 4.66 -2 5 C-2 2 -2 2 0 0 Z " fill="#2573B1" transform="translate(220,289)"/>
<path d="M0 0 C5.57142857 5.14285714 5.57142857 5.14285714 6 9 C5.34 9 4.68 9 4 9 C3.67 8.01 3.34 7.02 3 6 C0.98491642 5.26676204 0.98491642 5.26676204 -1 5 C-0.67 3.35 -0.34 1.7 0 0 Z " fill="#2D72AB" transform="translate(296,219)"/>
<path d="M0 0 C-3.03525486 2.02350324 -4.19426202 2.32124018 -7.6875 2.625 C-8.49574219 2.69976562 -9.30398437 2.77453125 -10.13671875 2.8515625 C-10.75160156 2.90054688 -11.36648437 2.94953125 -12 3 C-8.61613364 -0.38386636 -4.56431325 -1.75550509 0 0 Z " fill="#256295" transform="translate(233,206)"/>
<path d="M0 0 C2.16874252 0.50603992 3.99967627 0.99983813 6 2 C6 2.99 6 3.98 6 5 C4.68 5 3.36 5 2 5 C1.34 3.35 0.68 1.7 0 0 Z " fill="#1D74B9" transform="translate(313,155)"/>
<path d="M0 0 C0.66 0.33 1.32 0.66 2 1 C1.34 1.66 0.68 2.32 0 3 C0.99 3.66 1.98 4.32 3 5 C1.02 5.99 1.02 5.99 -1 7 C-1.99 5.68 -2.98 4.36 -4 3 C-2.68 2.01 -1.36 1.02 0 0 Z " fill="#2F6EA6" transform="translate(161,115)"/>
<path d="M0 0 C2.66666667 0.66666667 5.33333333 1.33333333 8 2 C8 2.66 8 3.32 8 4 C5.69 3.67 3.38 3.34 1 3 C0.67 2.01 0.34 1.02 0 0 Z " fill="#1D73BA" transform="translate(214,357)"/>
<path d="M0 0 C1.65 0 3.3 0 5 0 C5.66 1.32 6.32 2.64 7 4 C6.01 4.33 5.02 4.66 4 5 C3.67 4.34 3.34 3.68 3 3 C2.01 2.67 1.02 2.34 0 2 C0 1.34 0 0.68 0 0 Z " fill="#1D6CC0" transform="translate(206,355)"/>
<path d="M0 0 C2.125 0.375 2.125 0.375 4 1 C3.01 1.33 2.02 1.66 1 2 C1.33 2.99 1.66 3.98 2 5 C0.68 5.33 -0.64 5.66 -2 6 C-2 2 -2 2 0 0 Z " fill="#1D69B5" transform="translate(302,349)"/>
<path d="M0 0 C0.33 0.99 0.66 1.98 1 3 C1.99 3.33 2.98 3.66 4 4 C2.68 4.99 1.36 5.98 0 7 C0 6.01 0 5.02 0 4 C-0.99 3.67 -1.98 3.34 -3 3 C-2.01 2.01 -1.02 1.02 0 0 Z " fill="#2B70A6" transform="translate(330,327)"/>
<path d="M0 0 C3.3 0 6.6 0 10 0 C8.68 1.32 7.36 2.64 6 4 C1.125 2.25 1.125 2.25 0 0 Z " fill="#3171A6" transform="translate(232,288)"/>
<path d="M0 0 C0.66 0 1.32 0 2 0 C2 0.99 2 1.98 2 3 C2.99 2.67 3.98 2.34 5 2 C4.67 3.98 4.34 5.96 4 8 C3.67 7.01 3.34 6.02 3 5 C2.01 4.67 1.02 4.34 0 4 C0 2.68 0 1.36 0 0 Z " fill="#296EA5" transform="translate(357,279)"/>
<path d="M0 0 C4.6875 3.61328125 4.6875 3.61328125 6 5 C6 5.99 6 6.98 6 8 C5.01 8 4.02 8 3 8 C0 2.25 0 2.25 0 0 Z " fill="#1D74B9" transform="translate(345,188)"/>
<path d="M0 0 C0 0.99 0 1.98 0 3 C-0.99 3.33 -1.98 3.66 -3 4 C-3 5.32 -3 6.64 -3 8 C-3.66 8 -4.32 8 -5 8 C-5.33 7.01 -5.66 6.02 -6 5 C-4.02 3.35 -2.04 1.7 0 0 Z " fill="#2074B8" transform="translate(187,153)"/>
<path d="M0 0 C1.65 0.33 3.3 0.66 5 1 C3.8125 2.5 3.8125 2.5 2 4 C-0.6875 4.1875 -0.6875 4.1875 -3 4 C-3.33 3.34 -3.66 2.68 -4 2 C-2.68 2 -1.36 2 0 2 C0 1.34 0 0.68 0 0 Z " fill="#3270A1" transform="translate(208,325)"/>
<path d="M0 0 C1.5 1.3125 1.5 1.3125 3 3 C3 3.99 3 4.98 3 6 C1.68 6 0.36 6 -1 6 C-1.042721 4.33388095 -1.04063832 2.66617115 -1 1 C-0.67 0.67 -0.34 0.34 0 0 Z " fill="#2372B7" transform="translate(103,308)"/>
<path d="M0 0 C0.99 0.33 1.98 0.66 3 1 C3 1.99 3 2.98 3 4 C2.34 4 1.68 4 1 4 C1.33 5.32 1.66 6.64 2 8 C1.34 8 0.68 8 0 8 C-0.98120464 4.94736336 -0.98120464 3.05263664 0 0 Z " fill="#2074B8" transform="translate(348,302)"/>
<path d="M0 0 C0.66 0 1.32 0 2 0 C2.33 2.31 2.66 4.62 3 7 C2.01 6.67 1.02 6.34 0 6 C0 4.02 0 2.04 0 0 Z " fill="#1C75BD" transform="translate(139,278)"/>
<path d="M0 0 C0.33 0 0.66 0 1 0 C1 1.65 1 3.3 1 5 C1.66 5.33 2.32 5.66 3 6 C2.34 6.66 1.68 7.32 1 8 C0.01 8 -0.98 8 -2 8 C-1.34 5.36 -0.68 2.72 0 0 Z " fill="#E6AA38" transform="translate(380,264)"/>
<path d="M0 0 C2.31 0.66 4.62 1.32 7 2 C7 3.32 7 4.64 7 6 C3.63279613 4.60667426 2.0140476 3.0210714 0 0 Z " fill="#2C72AC" transform="translate(287,228)"/>
<path d="M0 0 C1.98 1.65 3.96 3.3 6 5 C5.67 6.32 5.34 7.64 5 9 C4.34 8.01 3.68 7.02 3 6 C2.46375 5.505 1.9275 5.01 1.375 4.5 C0 3 0 3 0 0 Z " fill="#181619" transform="translate(343,142)"/>
<path d="M0 0 C0.33 0 0.66 0 1 0 C1.12375 0.78375 1.2475 1.5675 1.375 2.375 C1.79117993 5.14057822 1.79117993 5.14057822 4 7 C2.35 6.67 0.7 6.34 -1 6 C-1.625 4.125 -1.625 4.125 -2 2 C-1.34 1.34 -0.68 0.68 0 0 Z " fill="#171717" transform="translate(322,136)"/>
<path d="M0 0 C0.99 0.33 1.98 0.66 3 1 C3 1.66 3 2.32 3 3 C0.03 3.66 -2.94 4.32 -6 5 C-2.25 1.125 -2.25 1.125 0 0 Z " fill="#161617" transform="translate(183,123)"/>
<path d="M0 0 C2.31 0.33 4.62 0.66 7 1 C7 1.99 7 2.98 7 4 C4.03 3.505 4.03 3.505 1 3 C0.67 2.01 0.34 1.02 0 0 Z " fill="#1B73B8" transform="translate(195,398)"/>
<path d="M0 0 C0.99 0.495 0.99 0.495 2 1 C2 2.98 2 4.96 2 7 C3.32 7.33 4.64 7.66 6 8 C4.35 8.33 2.7 8.66 1 9 C-0.4783226 6.04335481 -0.06032783 3.25770263 0 0 Z " fill="#336D9D" transform="translate(289,380)"/>
<path d="M0 0 C1.64350079 3.28700157 2.41321669 5.47930015 3 9 C2.01 9.33 1.02 9.66 0 10 C0 6.7 0 3.4 0 0 Z " fill="#246BB3" transform="translate(258,380)"/>
<path d="M0 0 C0.33 0.99 0.66 1.98 1 3 C-0.32 3 -1.64 3 -3 3 C-3 3.66 -3 4.32 -3 5 C-3.99 5 -4.98 5 -6 5 C-5.67 4.01 -5.34 3.02 -5 2 C-2.4375 0.8125 -2.4375 0.8125 0 0 Z M-8 5 C-6 6 -6 6 -6 6 Z " fill="#1E75BB" transform="translate(339,380)"/>
<path d="M0 0 C0 0.99 0 1.98 0 3 C-3 5 -3 5 -6 5 C-4.87312259 1.61936778 -3.78825335 0 0 0 Z " fill="#1E74BA" transform="translate(357,367)"/>
<path d="M0 0 C-2.97 2.475 -2.97 2.475 -6 5 C-6 3.35 -6 1.7 -6 0 C-2.25 -1.125 -2.25 -1.125 0 0 Z " fill="#266DA5" transform="translate(363,365)"/>
<path d="M0 0 C1.32 0 2.64 0 4 0 C4 0.66 4 1.32 4 2 C4.66 2.33 5.32 2.66 6 3 C4.35 3.66 2.7 4.32 1 5 C1.33 4.01 1.66 3.02 2 2 C1.34 2 0.68 2 0 2 C0 1.34 0 0.68 0 0 Z " fill="#1E6BB9" transform="translate(188,345)"/>
<path d="M0 0 C0.99 0.99 1.98 1.98 3 3 C2.01 3 1.02 3 0 3 C0 3.99 0 4.98 0 6 C-1.32 5.34 -2.64 4.68 -4 4 C-3.01 3.67 -2.02 3.34 -1 3 C-0.67 2.01 -0.34 1.02 0 0 Z " fill="#2F6FA3" transform="translate(176,333)"/>
<path d="M0 0 C0.99 0 1.98 0 3 0 C1.75023244 3.65316671 1.32901247 4.78065836 -2 7 C-1.34 4.69 -0.68 2.38 0 0 Z " fill="#3072A5" transform="translate(300,319)"/>
<path d="M0 0 C0.66 0 1.32 0 2 0 C2.66 2.31 3.32 4.62 4 7 C3.34 7 2.68 7 2 7 C2 6.34 2 5.68 2 5 C1.01 4.67 0.02 4.34 -1 4 C-0.67 2.68 -0.34 1.36 0 0 Z " fill="#186EBF" transform="translate(147,299)"/>
<path d="M0 0 C0.33 0 0.66 0 1 0 C1 2.64 1 5.28 1 8 C0.34 8 -0.32 8 -1 8 C-1 7.34 -1 6.68 -1 6 C-1.66 5.67 -2.32 5.34 -3 5 C-2.34 5 -1.68 5 -1 5 C-0.67 3.35 -0.34 1.7 0 0 Z " fill="#1B6CBE" transform="translate(96,283)"/>
<path d="M0 0 C0.99 0.33 1.98 0.66 3 1 C3 1.66 3 2.32 3 3 C1.02 3.99 -0.96 4.98 -3 6 C-3 5.01 -3 4.02 -3 3 C-2.34 3 -1.68 3 -1 3 C-0.67 2.01 -0.34 1.02 0 0 Z " fill="#2174AA" transform="translate(213,225)"/>
<path d="M0 0 C0.66 0.33 1.32 0.66 2 1 C1.42655063 3.86724686 1.1385485 4.8614515 -1 7 C-1.625 4.625 -1.625 4.625 -2 2 C-1.34 1.34 -0.68 0.68 0 0 Z " fill="#2274B2" transform="translate(121,156)"/>
<path d="M0 0 C1.65 0 3.3 0 5 0 C5.66 1.65 6.32 3.3 7 5 C6.34 5 5.68 5 5 5 C5 4.34 5 3.68 5 3 C3.35 2.67 1.7 2.34 0 2 C0 1.34 0 0.68 0 0 Z " fill="#1C73B9" transform="translate(299,147)"/>
</svg>
